{
	"patcher" : 	{
		"fileversion" : 1,
		"rect" : [ 25.0, 69.0, 384.0, 179.0 ],
		"bglocked" : 0,
		"defrect" : [ 25.0, 69.0, 384.0, 179.0 ],
		"openrect" : [ 0.0, 0.0, 0.0, 0.0 ],
		"openinpresentation" : 0,
		"default_fontsize" : 12.0,
		"default_fontface" : 0,
		"default_fontname" : "Arial",
		"gridonopen" : 0,
		"gridsize" : [ 10.0, 10.0 ],
		"gridsnaponopen" : 0,
		"toolbarvisible" : 1,
		"boxanimatetime" : 200,
		"imprint" : 0,
		"metadata" : [  ],
		"boxes" : [ 			{
				"box" : 				{
					"maxclass" : "newobj",
					"text" : "p rectangle bank",
					"numoutlets" : 2,
					"patching_rect" : [ 270.0, 20.0, 99.0, 20.0 ],
					"outlettype" : [ "signal", "signal" ],
					"fontsize" : 12.0,
					"id" : "obj-45",
					"fontname" : "Arial",
					"numinlets" : 0,
					"patcher" : 					{
						"fileversion" : 1,
						"rect" : [ 50.0, 94.0, 529.0, 330.0 ],
						"bglocked" : 0,
						"defrect" : [ 50.0, 94.0, 529.0, 330.0 ],
						"openrect" : [ 0.0, 0.0, 0.0, 0.0 ],
						"openinpresentation" : 0,
						"default_fontsize" : 12.0,
						"default_fontface" : 0,
						"default_fontname" : "Arial",
						"gridonopen" : 0,
						"gridsize" : [ 10.0, 10.0 ],
						"gridsnaponopen" : 0,
						"toolbarvisible" : 1,
						"boxanimatetime" : 200,
						"imprint" : 0,
						"metadata" : [  ],
						"boxes" : [ 							{
								"box" : 								{
									"maxclass" : "meter~",
									"numoutlets" : 1,
									"patching_rect" : [ 90.0, 190.0, 60.0, 20.0 ],
									"outlettype" : [ "float" ],
									"id" : "obj-2",
									"numinlets" : 1
								}

							}
, 							{
								"box" : 								{
									"maxclass" : "button",
									"numoutlets" : 1,
									"patching_rect" : [ 30.0, 210.0, 20.0, 20.0 ],
									"outlettype" : [ "bang" ],
									"bgcolor" : [ 1.0, 1.0, 1.0, 1.0 ],
									"id" : "obj-27",
									"numinlets" : 1
								}

							}
, 							{
								"box" : 								{
									"maxclass" : "newobj",
									"text" : "*~",
									"numoutlets" : 1,
									"patching_rect" : [ 50.0, 260.0, 30.0, 20.0 ],
									"outlettype" : [ "signal" ],
									"fontsize" : 12.0,
									"id" : "obj-25",
									"fontname" : "Arial",
									"numinlets" : 2
								}

							}
, 							{
								"box" : 								{
									"maxclass" : "newobj",
									"text" : "*~",
									"numoutlets" : 1,
									"patching_rect" : [ 20.0, 260.0, 30.0, 20.0 ],
									"outlettype" : [ "signal" ],
									"fontsize" : 12.0,
									"id" : "obj-24",
									"fontname" : "Arial",
									"numinlets" : 2
								}

							}
, 							{
								"box" : 								{
									"maxclass" : "newobj",
									"text" : "* 0.1",
									"numoutlets" : 1,
									"patching_rect" : [ 50.0, 230.0, 35.0, 20.0 ],
									"outlettype" : [ "float" ],
									"fontsize" : 12.0,
									"id" : "obj-23",
									"fontname" : "Arial",
									"numinlets" : 2
								}

							}
, 							{
								"box" : 								{
									"maxclass" : "newobj",
									"text" : "!- 1.",
									"numoutlets" : 1,
									"patching_rect" : [ 90.0, 230.0, 32.5, 20.0 ],
									"outlettype" : [ "float" ],
									"fontsize" : 12.0,
									"id" : "obj-22",
									"fontname" : "Arial",
									"numinlets" : 2
								}

							}
, 							{
								"box" : 								{
									"maxclass" : "newobj",
									"text" : "random 10",
									"numoutlets" : 1,
									"patching_rect" : [ 50.0, 210.0, 68.0, 20.0 ],
									"outlettype" : [ "int" ],
									"fontsize" : 12.0,
									"id" : "obj-19",
									"fontname" : "Arial",
									"numinlets" : 2
								}

							}
, 							{
								"box" : 								{
									"maxclass" : "message",
									"text" : "349.23, 523.25 25 349.23 25 659.26 25 349.23 25 1046.5 25 1396.92 25",
									"numoutlets" : 1,
									"patching_rect" : [ 20.0, 90.0, 398.0, 18.0 ],
									"outlettype" : [ "" ],
									"fontsize" : 12.0,
									"bgcolor" : [ 1.0, 1.0, 1.0, 1.0 ],
									"id" : "obj-16",
									"fontname" : "Arial",
									"numinlets" : 2
								}

							}
, 							{
								"box" : 								{
									"maxclass" : "message",
									"text" : "0., 1. 4 0. 296",
									"numoutlets" : 1,
									"patching_rect" : [ 70.0, 130.0, 84.0, 18.0 ],
									"outlettype" : [ "" ],
									"fontsize" : 12.0,
									"bgcolor" : [ 1.0, 1.0, 1.0, 1.0 ],
									"id" : "obj-15",
									"fontname" : "Arial",
									"numinlets" : 2
								}

							}
, 							{
								"box" : 								{
									"maxclass" : "newobj",
									"text" : "line~ 0.",
									"numoutlets" : 2,
									"patching_rect" : [ 20.0, 130.0, 50.0, 20.0 ],
									"outlettype" : [ "signal", "bang" ],
									"fontsize" : 12.0,
									"id" : "obj-13",
									"fontname" : "Arial",
									"numinlets" : 2
								}

							}
, 							{
								"box" : 								{
									"maxclass" : "newobj",
									"text" : "line~ 0.",
									"numoutlets" : 2,
									"patching_rect" : [ 70.0, 160.0, 50.0, 20.0 ],
									"outlettype" : [ "signal", "bang" ],
									"fontsize" : 12.0,
									"id" : "obj-12",
									"fontname" : "Arial",
									"numinlets" : 2
								}

							}
, 							{
								"box" : 								{
									"maxclass" : "newobj",
									"text" : "rect~",
									"numoutlets" : 1,
									"patching_rect" : [ 20.0, 160.0, 46.0, 20.0 ],
									"outlettype" : [ "signal" ],
									"fontsize" : 12.0,
									"id" : "obj-3",
									"fontname" : "Arial",
									"numinlets" : 3
								}

							}
, 							{
								"box" : 								{
									"maxclass" : "newobj",
									"text" : "*~",
									"numoutlets" : 1,
									"patching_rect" : [ 20.0, 190.0, 70.0, 20.0 ],
									"outlettype" : [ "signal" ],
									"fontsize" : 12.0,
									"textcolor" : [ 1.0, 1.0, 1.0, 1.0 ],
									"id" : "obj-1",
									"fontname" : "Arial",
									"numinlets" : 2
								}

							}
, 							{
								"box" : 								{
									"maxclass" : "outlet",
									"numoutlets" : 0,
									"patching_rect" : [ 25.0, 290.0, 25.0, 25.0 ],
									"id" : "obj-43",
									"numinlets" : 1,
									"comment" : ""
								}

							}
, 							{
								"box" : 								{
									"maxclass" : "outlet",
									"numoutlets" : 0,
									"patching_rect" : [ 55.0, 290.0, 25.0, 25.0 ],
									"id" : "obj-44",
									"numinlets" : 1,
									"comment" : ""
								}

							}
 ],
						"lines" : [ 							{
								"patchline" : 								{
									"source" : [ "obj-25", 0 ],
									"destination" : [ "obj-44", 0 ],
									"hidden" : 0,
									"midpoints" : [  ]
								}

							}
, 							{
								"patchline" : 								{
									"source" : [ "obj-24", 0 ],
									"destination" : [ "obj-43", 0 ],
									"hidden" : 0,
									"midpoints" : [  ]
								}

							}
, 							{
								"patchline" : 								{
									"source" : [ "obj-3", 0 ],
									"destination" : [ "obj-1", 0 ],
									"hidden" : 0,
									"midpoints" : [  ]
								}

							}
, 							{
								"patchline" : 								{
									"source" : [ "obj-13", 0 ],
									"destination" : [ "obj-3", 0 ],
									"hidden" : 0,
									"midpoints" : [  ]
								}

							}
, 							{
								"patchline" : 								{
									"source" : [ "obj-27", 0 ],
									"destination" : [ "obj-19", 0 ],
									"hidden" : 0,
									"midpoints" : [  ]
								}

							}
, 							{
								"patchline" : 								{
									"source" : [ "obj-19", 0 ],
									"destination" : [ "obj-23", 0 ],
									"hidden" : 0,
									"midpoints" : [  ]
								}

							}
, 							{
								"patchline" : 								{
									"source" : [ "obj-23", 0 ],
									"destination" : [ "obj-24", 1 ],
									"hidden" : 0,
									"midpoints" : [  ]
								}

							}
, 							{
								"patchline" : 								{
									"source" : [ "obj-23", 0 ],
									"destination" : [ "obj-22", 0 ],
									"hidden" : 0,
									"midpoints" : [  ]
								}

							}
, 							{
								"patchline" : 								{
									"source" : [ "obj-16", 0 ],
									"destination" : [ "obj-27", 0 ],
									"hidden" : 0,
									"midpoints" : [ 29.5, 125.0, 7.0, 125.0, 7.0, 216.0, 39.5, 216.0 ]
								}

							}
, 							{
								"patchline" : 								{
									"source" : [ "obj-1", 0 ],
									"destination" : [ "obj-25", 0 ],
									"hidden" : 0,
									"midpoints" : [ 29.5, 216.0, 29.0, 216.0, 29.0, 249.0, 46.0, 249.0, 46.0, 257.0, 59.5, 257.0 ]
								}

							}
, 							{
								"patchline" : 								{
									"source" : [ "obj-22", 0 ],
									"destination" : [ "obj-25", 1 ],
									"hidden" : 0,
									"midpoints" : [  ]
								}

							}
, 							{
								"patchline" : 								{
									"source" : [ "obj-1", 0 ],
									"destination" : [ "obj-24", 0 ],
									"hidden" : 0,
									"midpoints" : [  ]
								}

							}
, 							{
								"patchline" : 								{
									"source" : [ "obj-16", 0 ],
									"destination" : [ "obj-15", 0 ],
									"hidden" : 0,
									"midpoints" : [  ]
								}

							}
, 							{
								"patchline" : 								{
									"source" : [ "obj-16", 0 ],
									"destination" : [ "obj-13", 0 ],
									"hidden" : 0,
									"midpoints" : [  ]
								}

							}
, 							{
								"patchline" : 								{
									"source" : [ "obj-15", 0 ],
									"destination" : [ "obj-12", 0 ],
									"hidden" : 0,
									"midpoints" : [  ]
								}

							}
, 							{
								"patchline" : 								{
									"source" : [ "obj-12", 0 ],
									"destination" : [ "obj-1", 1 ],
									"hidden" : 0,
									"midpoints" : [  ]
								}

							}
, 							{
								"patchline" : 								{
									"source" : [ "obj-1", 0 ],
									"destination" : [ "obj-2", 0 ],
									"hidden" : 0,
									"midpoints" : [ 29.5, 210.0, 15.0, 210.0, 15.0, 186.0, 99.5, 186.0 ]
								}

							}
 ]
					}
,
					"saved_object_attributes" : 					{
						"default_fontname" : "Arial",
						"fontface" : 0,
						"fontsize" : 12.0,
						"default_fontsize" : 12.0,
						"fontname" : "Arial",
						"default_fontface" : 0,
						"globalpatchername" : ""
					}

				}

			}
, 			{
				"box" : 				{
					"maxclass" : "newobj",
					"text" : "p triangle bank",
					"numoutlets" : 2,
					"patching_rect" : [ 170.0, 20.0, 89.0, 20.0 ],
					"outlettype" : [ "signal", "signal" ],
					"fontsize" : 12.0,
					"id" : "obj-42",
					"fontname" : "Arial",
					"numinlets" : 0,
					"patcher" : 					{
						"fileversion" : 1,
						"rect" : [ 50.0, 94.0, 466.0, 347.0 ],
						"bglocked" : 0,
						"defrect" : [ 50.0, 94.0, 466.0, 347.0 ],
						"openrect" : [ 0.0, 0.0, 0.0, 0.0 ],
						"openinpresentation" : 0,
						"default_fontsize" : 12.0,
						"default_fontface" : 0,
						"default_fontname" : "Arial",
						"gridonopen" : 0,
						"gridsize" : [ 10.0, 10.0 ],
						"gridsnaponopen" : 0,
						"toolbarvisible" : 1,
						"boxanimatetime" : 200,
						"imprint" : 0,
						"metadata" : [  ],
						"boxes" : [ 							{
								"box" : 								{
									"maxclass" : "meter~",
									"numoutlets" : 1,
									"patching_rect" : [ 90.0, 200.0, 60.0, 20.0 ],
									"outlettype" : [ "float" ],
									"id" : "obj-2",
									"numinlets" : 1
								}

							}
, 							{
								"box" : 								{
									"maxclass" : "button",
									"numoutlets" : 1,
									"patching_rect" : [ 30.0, 220.0, 20.0, 20.0 ],
									"outlettype" : [ "bang" ],
									"bgcolor" : [ 1.0, 1.0, 1.0, 1.0 ],
									"id" : "obj-27",
									"numinlets" : 1
								}

							}
, 							{
								"box" : 								{
									"maxclass" : "newobj",
									"text" : "*~",
									"numoutlets" : 1,
									"patching_rect" : [ 50.0, 270.0, 30.0, 20.0 ],
									"outlettype" : [ "signal" ],
									"fontsize" : 12.0,
									"id" : "obj-25",
									"fontname" : "Arial",
									"numinlets" : 2
								}

							}
, 							{
								"box" : 								{
									"maxclass" : "newobj",
									"text" : "*~",
									"numoutlets" : 1,
									"patching_rect" : [ 20.0, 270.0, 30.0, 20.0 ],
									"outlettype" : [ "signal" ],
									"fontsize" : 12.0,
									"id" : "obj-24",
									"fontname" : "Arial",
									"numinlets" : 2
								}

							}
, 							{
								"box" : 								{
									"maxclass" : "newobj",
									"text" : "* 0.1",
									"numoutlets" : 1,
									"patching_rect" : [ 50.0, 240.0, 35.0, 20.0 ],
									"outlettype" : [ "float" ],
									"fontsize" : 12.0,
									"id" : "obj-23",
									"fontname" : "Arial",
									"numinlets" : 2
								}

							}
, 							{
								"box" : 								{
									"maxclass" : "newobj",
									"text" : "!- 1.",
									"numoutlets" : 1,
									"patching_rect" : [ 90.0, 240.0, 32.5, 20.0 ],
									"outlettype" : [ "float" ],
									"fontsize" : 12.0,
									"id" : "obj-22",
									"fontname" : "Arial",
									"numinlets" : 2
								}

							}
, 							{
								"box" : 								{
									"maxclass" : "newobj",
									"text" : "random 10",
									"numoutlets" : 1,
									"patching_rect" : [ 50.0, 220.0, 68.0, 20.0 ],
									"outlettype" : [ "int" ],
									"fontsize" : 12.0,
									"id" : "obj-19",
									"fontname" : "Arial",
									"numinlets" : 2
								}

							}
, 							{
								"box" : 								{
									"maxclass" : "message",
									"text" : "349.23, 523.25 25 349.23 25 659.26 25 349.23 25 1046.5 25 1396.92 25",
									"numoutlets" : 1,
									"patching_rect" : [ 20.0, 100.0, 398.0, 18.0 ],
									"outlettype" : [ "" ],
									"fontsize" : 12.0,
									"bgcolor" : [ 1.0, 1.0, 1.0, 1.0 ],
									"id" : "obj-16",
									"fontname" : "Arial",
									"numinlets" : 2
								}

							}
, 							{
								"box" : 								{
									"maxclass" : "message",
									"text" : "0., 1. 4 0. 296",
									"numoutlets" : 1,
									"patching_rect" : [ 70.0, 140.0, 84.0, 18.0 ],
									"outlettype" : [ "" ],
									"fontsize" : 12.0,
									"bgcolor" : [ 1.0, 1.0, 1.0, 1.0 ],
									"id" : "obj-15",
									"fontname" : "Arial",
									"numinlets" : 2
								}

							}
, 							{
								"box" : 								{
									"maxclass" : "newobj",
									"text" : "line~ 0.",
									"numoutlets" : 2,
									"patching_rect" : [ 20.0, 140.0, 50.0, 20.0 ],
									"outlettype" : [ "signal", "bang" ],
									"fontsize" : 12.0,
									"id" : "obj-13",
									"fontname" : "Arial",
									"numinlets" : 2
								}

							}
, 							{
								"box" : 								{
									"maxclass" : "newobj",
									"text" : "line~ 0.",
									"numoutlets" : 2,
									"patching_rect" : [ 70.0, 170.0, 50.0, 20.0 ],
									"outlettype" : [ "signal", "bang" ],
									"fontsize" : 12.0,
									"id" : "obj-12",
									"fontname" : "Arial",
									"numinlets" : 2
								}

							}
, 							{
								"box" : 								{
									"maxclass" : "newobj",
									"text" : "tri~",
									"numoutlets" : 1,
									"patching_rect" : [ 20.0, 170.0, 46.0, 20.0 ],
									"outlettype" : [ "signal" ],
									"fontsize" : 12.0,
									"id" : "obj-3",
									"fontname" : "Arial",
									"numinlets" : 3
								}

							}
, 							{
								"box" : 								{
									"maxclass" : "newobj",
									"text" : "*~",
									"numoutlets" : 1,
									"patching_rect" : [ 20.0, 200.0, 70.0, 20.0 ],
									"outlettype" : [ "signal" ],
									"fontsize" : 12.0,
									"textcolor" : [ 1.0, 1.0, 1.0, 1.0 ],
									"id" : "obj-1",
									"fontname" : "Arial",
									"numinlets" : 2
								}

							}
, 							{
								"box" : 								{
									"maxclass" : "outlet",
									"numoutlets" : 0,
									"patching_rect" : [ 25.0, 300.0, 25.0, 25.0 ],
									"id" : "obj-40",
									"numinlets" : 1,
									"comment" : ""
								}

							}
, 							{
								"box" : 								{
									"maxclass" : "outlet",
									"numoutlets" : 0,
									"patching_rect" : [ 55.0, 300.0, 25.0, 25.0 ],
									"id" : "obj-41",
									"numinlets" : 1,
									"comment" : ""
								}

							}
 ],
						"lines" : [ 							{
								"patchline" : 								{
									"source" : [ "obj-25", 0 ],
									"destination" : [ "obj-41", 0 ],
									"hidden" : 0,
									"midpoints" : [  ]
								}

							}
, 							{
								"patchline" : 								{
									"source" : [ "obj-24", 0 ],
									"destination" : [ "obj-40", 0 ],
									"hidden" : 0,
									"midpoints" : [  ]
								}

							}
, 							{
								"patchline" : 								{
									"source" : [ "obj-3", 0 ],
									"destination" : [ "obj-1", 0 ],
									"hidden" : 0,
									"midpoints" : [  ]
								}

							}
, 							{
								"patchline" : 								{
									"source" : [ "obj-13", 0 ],
									"destination" : [ "obj-3", 0 ],
									"hidden" : 0,
									"midpoints" : [  ]
								}

							}
, 							{
								"patchline" : 								{
									"source" : [ "obj-27", 0 ],
									"destination" : [ "obj-19", 0 ],
									"hidden" : 0,
									"midpoints" : [  ]
								}

							}
, 							{
								"patchline" : 								{
									"source" : [ "obj-19", 0 ],
									"destination" : [ "obj-23", 0 ],
									"hidden" : 0,
									"midpoints" : [  ]
								}

							}
, 							{
								"patchline" : 								{
									"source" : [ "obj-23", 0 ],
									"destination" : [ "obj-24", 1 ],
									"hidden" : 0,
									"midpoints" : [  ]
								}

							}
, 							{
								"patchline" : 								{
									"source" : [ "obj-23", 0 ],
									"destination" : [ "obj-22", 0 ],
									"hidden" : 0,
									"midpoints" : [  ]
								}

							}
, 							{
								"patchline" : 								{
									"source" : [ "obj-16", 0 ],
									"destination" : [ "obj-27", 0 ],
									"hidden" : 0,
									"midpoints" : [ 29.5, 135.0, 7.0, 135.0, 7.0, 226.0, 39.5, 226.0 ]
								}

							}
, 							{
								"patchline" : 								{
									"source" : [ "obj-1", 0 ],
									"destination" : [ "obj-25", 0 ],
									"hidden" : 0,
									"midpoints" : [ 29.5, 226.0, 29.0, 226.0, 29.0, 259.0, 46.0, 259.0, 46.0, 267.0, 59.5, 267.0 ]
								}

							}
, 							{
								"patchline" : 								{
									"source" : [ "obj-22", 0 ],
									"destination" : [ "obj-25", 1 ],
									"hidden" : 0,
									"midpoints" : [  ]
								}

							}
, 							{
								"patchline" : 								{
									"source" : [ "obj-1", 0 ],
									"destination" : [ "obj-24", 0 ],
									"hidden" : 0,
									"midpoints" : [  ]
								}

							}
, 							{
								"patchline" : 								{
									"source" : [ "obj-16", 0 ],
									"destination" : [ "obj-15", 0 ],
									"hidden" : 0,
									"midpoints" : [  ]
								}

							}
, 							{
								"patchline" : 								{
									"source" : [ "obj-16", 0 ],
									"destination" : [ "obj-13", 0 ],
									"hidden" : 0,
									"midpoints" : [  ]
								}

							}
, 							{
								"patchline" : 								{
									"source" : [ "obj-15", 0 ],
									"destination" : [ "obj-12", 0 ],
									"hidden" : 0,
									"midpoints" : [  ]
								}

							}
, 							{
								"patchline" : 								{
									"source" : [ "obj-12", 0 ],
									"destination" : [ "obj-1", 1 ],
									"hidden" : 0,
									"midpoints" : [  ]
								}

							}
, 							{
								"patchline" : 								{
									"source" : [ "obj-1", 0 ],
									"destination" : [ "obj-2", 0 ],
									"hidden" : 0,
									"midpoints" : [ 29.5, 220.0, 15.0, 220.0, 15.0, 196.0, 99.5, 196.0 ]
								}

							}
 ]
					}
,
					"saved_object_attributes" : 					{
						"default_fontname" : "Arial",
						"fontface" : 0,
						"fontsize" : 12.0,
						"default_fontsize" : 12.0,
						"fontname" : "Arial",
						"default_fontface" : 0,
						"globalpatchername" : ""
					}

				}

			}
, 			{
				"box" : 				{
					"maxclass" : "newobj",
					"text" : "p saw bank",
					"numoutlets" : 2,
					"patching_rect" : [ 90.0, 20.0, 71.0, 20.0 ],
					"outlettype" : [ "signal", "signal" ],
					"fontsize" : 12.0,
					"id" : "obj-39",
					"fontname" : "Arial",
					"numinlets" : 0,
					"patcher" : 					{
						"fileversion" : 1,
						"rect" : [ 455.0, 168.0, 365.0, 300.0 ],
						"bglocked" : 0,
						"defrect" : [ 455.0, 168.0, 365.0, 300.0 ],
						"openrect" : [ 0.0, 0.0, 0.0, 0.0 ],
						"openinpresentation" : 0,
						"default_fontsize" : 12.0,
						"default_fontface" : 0,
						"default_fontname" : "Arial",
						"gridonopen" : 0,
						"gridsize" : [ 10.0, 10.0 ],
						"gridsnaponopen" : 0,
						"toolbarvisible" : 1,
						"boxanimatetime" : 200,
						"imprint" : 0,
						"metadata" : [  ],
						"boxes" : [ 							{
								"box" : 								{
									"maxclass" : "meter~",
									"numoutlets" : 1,
									"patching_rect" : [ 80.0, 150.0, 60.0, 20.0 ],
									"outlettype" : [ "float" ],
									"id" : "obj-2",
									"numinlets" : 1
								}

							}
, 							{
								"box" : 								{
									"maxclass" : "button",
									"numoutlets" : 1,
									"patching_rect" : [ 20.0, 170.0, 20.0, 20.0 ],
									"outlettype" : [ "bang" ],
									"bgcolor" : [ 1.0, 1.0, 1.0, 1.0 ],
									"id" : "obj-27",
									"numinlets" : 1
								}

							}
, 							{
								"box" : 								{
									"maxclass" : "newobj",
									"text" : "*~",
									"numoutlets" : 1,
									"patching_rect" : [ 40.0, 220.0, 30.0, 20.0 ],
									"outlettype" : [ "signal" ],
									"fontsize" : 12.0,
									"id" : "obj-25",
									"fontname" : "Arial",
									"numinlets" : 2
								}

							}
, 							{
								"box" : 								{
									"maxclass" : "newobj",
									"text" : "*~",
									"numoutlets" : 1,
									"patching_rect" : [ 10.0, 220.0, 30.0, 20.0 ],
									"outlettype" : [ "signal" ],
									"fontsize" : 12.0,
									"id" : "obj-24",
									"fontname" : "Arial",
									"numinlets" : 2
								}

							}
, 							{
								"box" : 								{
									"maxclass" : "newobj",
									"text" : "* 0.1",
									"numoutlets" : 1,
									"patching_rect" : [ 40.0, 190.0, 35.0, 20.0 ],
									"outlettype" : [ "float" ],
									"fontsize" : 12.0,
									"id" : "obj-23",
									"fontname" : "Arial",
									"numinlets" : 2
								}

							}
, 							{
								"box" : 								{
									"maxclass" : "newobj",
									"text" : "!- 1.",
									"numoutlets" : 1,
									"patching_rect" : [ 80.0, 190.0, 32.5, 20.0 ],
									"outlettype" : [ "float" ],
									"fontsize" : 12.0,
									"id" : "obj-22",
									"fontname" : "Arial",
									"numinlets" : 2
								}

							}
, 							{
								"box" : 								{
									"maxclass" : "newobj",
									"text" : "random 10",
									"numoutlets" : 1,
									"patching_rect" : [ 40.0, 170.0, 68.0, 20.0 ],
									"outlettype" : [ "int" ],
									"fontsize" : 12.0,
									"id" : "obj-19",
									"fontname" : "Arial",
									"numinlets" : 2
								}

							}
, 							{
								"box" : 								{
									"maxclass" : "newobj",
									"text" : "line~ 0.",
									"numoutlets" : 2,
									"patching_rect" : [ 10.0, 90.0, 50.0, 20.0 ],
									"outlettype" : [ "signal", "bang" ],
									"fontsize" : 12.0,
									"id" : "obj-13",
									"fontname" : "Arial",
									"numinlets" : 2
								}

							}
, 							{
								"box" : 								{
									"maxclass" : "newobj",
									"text" : "line~ 0.",
									"numoutlets" : 2,
									"patching_rect" : [ 60.0, 120.0, 50.0, 20.0 ],
									"outlettype" : [ "signal", "bang" ],
									"fontsize" : 12.0,
									"id" : "obj-12",
									"fontname" : "Arial",
									"numinlets" : 2
								}

							}
, 							{
								"box" : 								{
									"maxclass" : "newobj",
									"text" : "saw~",
									"numoutlets" : 1,
									"patching_rect" : [ 10.0, 120.0, 39.0, 20.0 ],
									"outlettype" : [ "signal" ],
									"fontsize" : 12.0,
									"id" : "obj-3",
									"fontname" : "Arial",
									"numinlets" : 2
								}

							}
, 							{
								"box" : 								{
									"maxclass" : "newobj",
									"text" : "*~",
									"numoutlets" : 1,
									"patching_rect" : [ 10.0, 150.0, 70.0, 20.0 ],
									"outlettype" : [ "signal" ],
									"fontsize" : 12.0,
									"textcolor" : [ 1.0, 1.0, 1.0, 1.0 ],
									"id" : "obj-1",
									"fontname" : "Arial",
									"numinlets" : 2
								}

							}
, 							{
								"box" : 								{
									"maxclass" : "outlet",
									"numoutlets" : 0,
									"patching_rect" : [ 15.0, 250.0, 25.0, 25.0 ],
									"id" : "obj-37",
									"numinlets" : 1,
									"comment" : ""
								}

							}
, 							{
								"box" : 								{
									"maxclass" : "outlet",
									"numoutlets" : 0,
									"patching_rect" : [ 45.0, 250.0, 25.0, 25.0 ],
									"id" : "obj-38",
									"numinlets" : 1,
									"comment" : ""
								}

							}
 ],
						"lines" : [ 							{
								"patchline" : 								{
									"source" : [ "obj-25", 0 ],
									"destination" : [ "obj-38", 0 ],
									"hidden" : 0,
									"midpoints" : [  ]
								}

							}
, 							{
								"patchline" : 								{
									"source" : [ "obj-24", 0 ],
									"destination" : [ "obj-37", 0 ],
									"hidden" : 0,
									"midpoints" : [  ]
								}

							}
, 							{
								"patchline" : 								{
									"source" : [ "obj-3", 0 ],
									"destination" : [ "obj-1", 0 ],
									"hidden" : 0,
									"midpoints" : [  ]
								}

							}
, 							{
								"patchline" : 								{
									"source" : [ "obj-13", 0 ],
									"destination" : [ "obj-3", 0 ],
									"hidden" : 0,
									"midpoints" : [  ]
								}

							}
, 							{
								"patchline" : 								{
									"source" : [ "obj-27", 0 ],
									"destination" : [ "obj-19", 0 ],
									"hidden" : 0,
									"midpoints" : [  ]
								}

							}
, 							{
								"patchline" : 								{
									"source" : [ "obj-19", 0 ],
									"destination" : [ "obj-23", 0 ],
									"hidden" : 0,
									"midpoints" : [  ]
								}

							}
, 							{
								"patchline" : 								{
									"source" : [ "obj-23", 0 ],
									"destination" : [ "obj-24", 1 ],
									"hidden" : 0,
									"midpoints" : [  ]
								}

							}
, 							{
								"patchline" : 								{
									"source" : [ "obj-23", 0 ],
									"destination" : [ "obj-22", 0 ],
									"hidden" : 0,
									"midpoints" : [  ]
								}

							}
, 							{
								"patchline" : 								{
									"source" : [ "obj-1", 0 ],
									"destination" : [ "obj-25", 0 ],
									"hidden" : 0,
									"midpoints" : [ 19.5, 176.0, 19.0, 176.0, 19.0, 209.0, 36.0, 209.0, 36.0, 217.0, 49.5, 217.0 ]
								}

							}
, 							{
								"patchline" : 								{
									"source" : [ "obj-22", 0 ],
									"destination" : [ "obj-25", 1 ],
									"hidden" : 0,
									"midpoints" : [  ]
								}

							}
, 							{
								"patchline" : 								{
									"source" : [ "obj-1", 0 ],
									"destination" : [ "obj-24", 0 ],
									"hidden" : 0,
									"midpoints" : [  ]
								}

							}
, 							{
								"patchline" : 								{
									"source" : [ "obj-12", 0 ],
									"destination" : [ "obj-1", 1 ],
									"hidden" : 0,
									"midpoints" : [  ]
								}

							}
, 							{
								"patchline" : 								{
									"source" : [ "obj-1", 0 ],
									"destination" : [ "obj-2", 0 ],
									"hidden" : 0,
									"midpoints" : [ 19.5, 170.0, 5.0, 170.0, 5.0, 146.0, 89.5, 146.0 ]
								}

							}
 ]
					}
,
					"saved_object_attributes" : 					{
						"default_fontname" : "Arial",
						"fontface" : 0,
						"fontsize" : 12.0,
						"default_fontsize" : 12.0,
						"fontname" : "Arial",
						"default_fontface" : 0,
						"globalpatchername" : ""
					}

				}

			}
, 			{
				"box" : 				{
					"maxclass" : "newobj",
					"text" : "p sine bank",
					"numoutlets" : 2,
					"patching_rect" : [ 10.0, 20.0, 72.0, 20.0 ],
					"outlettype" : [ "signal", "signal" ],
					"fontsize" : 12.0,
					"id" : "obj-36",
					"fontname" : "Arial",
					"numinlets" : 0,
					"patcher" : 					{
						"fileversion" : 1,
						"rect" : [ 0.0, 44.0, 1280.0, 726.0 ],
						"bglocked" : 0,
						"defrect" : [ 0.0, 44.0, 1280.0, 726.0 ],
						"openrect" : [ 0.0, 0.0, 0.0, 0.0 ],
						"openinpresentation" : 0,
						"default_fontsize" : 12.0,
						"default_fontface" : 0,
						"default_fontname" : "Arial",
						"gridonopen" : 0,
						"gridsize" : [ 10.0, 10.0 ],
						"gridsnaponopen" : 0,
						"toolbarvisible" : 1,
						"boxanimatetime" : 200,
						"imprint" : 0,
						"metadata" : [  ],
						"boxes" : [ 							{
								"box" : 								{
									"maxclass" : "button",
									"numoutlets" : 1,
									"patching_rect" : [ 360.0, 580.0, 20.0, 20.0 ],
									"outlettype" : [ "bang" ],
									"id" : "obj-106",
									"presentation_rect" : [ 372.0, 578.0, 0.0, 0.0 ],
									"numinlets" : 1
								}

							}
, 							{
								"box" : 								{
									"maxclass" : "newobj",
									"text" : "togedge",
									"numoutlets" : 2,
									"patching_rect" : [ 330.0, 550.0, 54.0, 20.0 ],
									"outlettype" : [ "bang", "bang" ],
									"fontsize" : 12.0,
									"id" : "obj-105",
									"fontname" : "Arial",
									"numinlets" : 1
								}

							}
, 							{
								"box" : 								{
									"maxclass" : "newobj",
									"text" : "abs 0.",
									"numoutlets" : 1,
									"patching_rect" : [ 180.0, 600.0, 43.0, 20.0 ],
									"outlettype" : [ "float" ],
									"fontsize" : 12.0,
									"id" : "obj-100",
									"fontname" : "Arial",
									"numinlets" : 1
								}

							}
, 							{
								"box" : 								{
									"maxclass" : "number",
									"numoutlets" : 2,
									"patching_rect" : [ 350.0, 660.0, 50.0, 20.0 ],
									"outlettype" : [ "int", "bang" ],
									"fontsize" : 12.0,
									"id" : "obj-99",
									"fontname" : "Arial",
									"numinlets" : 1
								}

							}
, 							{
								"box" : 								{
									"maxclass" : "newobj",
									"text" : "round",
									"numoutlets" : 1,
									"patching_rect" : [ 260.0, 660.0, 41.0, 20.0 ],
									"outlettype" : [ "" ],
									"fontsize" : 12.0,
									"id" : "obj-97",
									"fontname" : "Arial",
									"numinlets" : 1
								}

							}
, 							{
								"box" : 								{
									"maxclass" : "newobj",
									"text" : "* 100.",
									"numoutlets" : 1,
									"patching_rect" : [ 200.0, 640.0, 42.0, 20.0 ],
									"outlettype" : [ "float" ],
									"fontsize" : 12.0,
									"id" : "obj-96",
									"fontname" : "Arial",
									"numinlets" : 2
								}

							}
, 							{
								"box" : 								{
									"maxclass" : "number~",
									"numoutlets" : 2,
									"patching_rect" : [ 120.0, 670.0, 56.0, 20.0 ],
									"outlettype" : [ "signal", "float" ],
									"fontsize" : 12.0,
									"sig" : 0.0,
									"mode" : 2,
									"id" : "obj-92",
									"fontname" : "Arial",
									"numinlets" : 2
								}

							}
, 							{
								"box" : 								{
									"maxclass" : "toggle",
									"numoutlets" : 1,
									"patching_rect" : [ 240.0, 600.0, 20.0, 20.0 ],
									"outlettype" : [ "int" ],
									"id" : "obj-91",
									"numinlets" : 1
								}

							}
, 							{
								"box" : 								{
									"maxclass" : "newobj",
									"text" : "> 0.",
									"numoutlets" : 1,
									"patching_rect" : [ 240.0, 560.0, 32.5, 20.0 ],
									"outlettype" : [ "int" ],
									"fontsize" : 12.0,
									"id" : "obj-89",
									"fontname" : "Arial",
									"numinlets" : 2
								}

							}
, 							{
								"box" : 								{
									"maxclass" : "button",
									"numoutlets" : 1,
									"patching_rect" : [ 390.0, 60.0, 20.0, 20.0 ],
									"outlettype" : [ "bang" ],
									"id" : "obj-82",
									"presentation_rect" : [ 389.0, 62.0, 0.0, 0.0 ],
									"numinlets" : 1
								}

							}
, 							{
								"box" : 								{
									"maxclass" : "newobj",
									"text" : "onebang",
									"numoutlets" : 2,
									"patching_rect" : [ 330.0, 60.0, 57.0, 20.0 ],
									"outlettype" : [ "bang", "bang" ],
									"fontsize" : 12.0,
									"id" : "obj-81",
									"fontname" : "Arial",
									"numinlets" : 2
								}

							}
, 							{
								"box" : 								{
									"maxclass" : "toggle",
									"numoutlets" : 1,
									"patching_rect" : [ 440.0, 30.0, 20.0, 20.0 ],
									"outlettype" : [ "int" ],
									"id" : "obj-80",
									"numinlets" : 1
								}

							}
, 							{
								"box" : 								{
									"maxclass" : "newobj",
									"text" : "metro 10",
									"numoutlets" : 1,
									"patching_rect" : [ 310.0, 20.0, 58.0, 20.0 ],
									"outlettype" : [ "bang" ],
									"fontsize" : 12.0,
									"id" : "obj-78",
									"fontname" : "Arial",
									"numinlets" : 2
								}

							}
, 							{
								"box" : 								{
									"maxclass" : "button",
									"numoutlets" : 1,
									"patching_rect" : [ 440.0, 120.0, 20.0, 20.0 ],
									"outlettype" : [ "bang" ],
									"id" : "obj-74",
									"presentation_rect" : [ 443.0, 101.0, 0.0, 0.0 ],
									"numinlets" : 1
								}

							}
, 							{
								"box" : 								{
									"maxclass" : "button",
									"numoutlets" : 1,
									"patching_rect" : [ 420.0, 120.0, 20.0, 20.0 ],
									"outlettype" : [ "bang" ],
									"id" : "obj-75",
									"presentation_rect" : [ 423.0, 101.0, 0.0, 0.0 ],
									"numinlets" : 1
								}

							}
, 							{
								"box" : 								{
									"maxclass" : "button",
									"numoutlets" : 1,
									"patching_rect" : [ 400.0, 120.0, 20.0, 20.0 ],
									"outlettype" : [ "bang" ],
									"id" : "obj-68",
									"presentation_rect" : [ 397.0, 98.0, 0.0, 0.0 ],
									"numinlets" : 1
								}

							}
, 							{
								"box" : 								{
									"maxclass" : "button",
									"numoutlets" : 1,
									"patching_rect" : [ 380.0, 120.0, 20.0, 20.0 ],
									"outlettype" : [ "bang" ],
									"id" : "obj-69",
									"presentation_rect" : [ 377.0, 98.0, 0.0, 0.0 ],
									"numinlets" : 1
								}

							}
, 							{
								"box" : 								{
									"maxclass" : "button",
									"numoutlets" : 1,
									"patching_rect" : [ 360.0, 120.0, 20.0, 20.0 ],
									"outlettype" : [ "bang" ],
									"id" : "obj-70",
									"presentation_rect" : [ 357.0, 98.0, 0.0, 0.0 ],
									"numinlets" : 1
								}

							}
, 							{
								"box" : 								{
									"maxclass" : "button",
									"numoutlets" : 1,
									"patching_rect" : [ 340.0, 120.0, 20.0, 20.0 ],
									"outlettype" : [ "bang" ],
									"id" : "obj-71",
									"presentation_rect" : [ 337.0, 98.0, 0.0, 0.0 ],
									"numinlets" : 1
								}

							}
, 							{
								"box" : 								{
									"maxclass" : "button",
									"numoutlets" : 1,
									"patching_rect" : [ 320.0, 120.0, 20.0, 20.0 ],
									"outlettype" : [ "bang" ],
									"id" : "obj-66",
									"presentation_rect" : [ 320.0, 99.0, 0.0, 0.0 ],
									"numinlets" : 1
								}

							}
, 							{
								"box" : 								{
									"maxclass" : "button",
									"numoutlets" : 1,
									"patching_rect" : [ 300.0, 120.0, 20.0, 20.0 ],
									"outlettype" : [ "bang" ],
									"id" : "obj-67",
									"presentation_rect" : [ 300.0, 99.0, 0.0, 0.0 ],
									"numinlets" : 1
								}

							}
, 							{
								"box" : 								{
									"maxclass" : "button",
									"numoutlets" : 1,
									"patching_rect" : [ 280.0, 120.0, 20.0, 20.0 ],
									"outlettype" : [ "bang" ],
									"id" : "obj-65",
									"presentation_rect" : [ 270.0, 100.0, 0.0, 0.0 ],
									"numinlets" : 1
								}

							}
, 							{
								"box" : 								{
									"maxclass" : "button",
									"numoutlets" : 1,
									"patching_rect" : [ 260.0, 120.0, 20.0, 20.0 ],
									"outlettype" : [ "bang" ],
									"id" : "obj-60",
									"numinlets" : 1
								}

							}
, 							{
								"box" : 								{
									"maxclass" : "newobj",
									"text" : "sel 0 1 2 3 4 5 6 7 8 9",
									"numoutlets" : 11,
									"patching_rect" : [ 260.0, 100.0, 220.0, 20.0 ],
									"outlettype" : [ "bang", "bang", "bang", "bang", "bang", "bang", "bang", "bang", "bang", "bang", "" ],
									"fontsize" : 12.0,
									"id" : "obj-58",
									"fontname" : "Arial",
									"numinlets" : 1
								}

							}
, 							{
								"box" : 								{
									"maxclass" : "button",
									"numoutlets" : 1,
									"patching_rect" : [ 260.0, 20.0, 20.0, 20.0 ],
									"outlettype" : [ "bang" ],
									"id" : "obj-57",
									"numinlets" : 1
								}

							}
, 							{
								"box" : 								{
									"maxclass" : "newobj",
									"text" : "urn-jb 10",
									"numoutlets" : 1,
									"patching_rect" : [ 260.0, 70.0, 58.0, 20.0 ],
									"outlettype" : [ "int" ],
									"fontsize" : 12.0,
									"id" : "obj-55",
									"fontname" : "Arial",
									"numinlets" : 2
								}

							}
, 							{
								"box" : 								{
									"maxclass" : "message",
									"text" : "98, 1567.98 100",
									"numoutlets" : 1,
									"patching_rect" : [ 40.0, 130.0, 97.0, 18.0 ],
									"outlettype" : [ "" ],
									"fontsize" : 12.0,
									"id" : "obj-7",
									"presentation_rect" : [ 43.0, 43.0, 0.0, 0.0 ],
									"fontname" : "Arial",
									"numinlets" : 2
								}

							}
, 							{
								"box" : 								{
									"maxclass" : "message",
									"text" : "1046.5, 65.41 100",
									"numoutlets" : 1,
									"patching_rect" : [ 40.0, 160.0, 107.0, 18.0 ],
									"outlettype" : [ "" ],
									"fontsize" : 12.0,
									"id" : "obj-6",
									"presentation_rect" : [ 39.0, 40.0, 0.0, 0.0 ],
									"fontname" : "Arial",
									"numinlets" : 2
								}

							}
, 							{
								"box" : 								{
									"maxclass" : "message",
									"text" : "880, 987.76 25 880 25 1108.74 25 880 25 1318.52 25 1661.22 25 880 25 2217.48 25",
									"numoutlets" : 1,
									"patching_rect" : [ 40.0, 190.0, 464.0, 18.0 ],
									"outlettype" : [ "" ],
									"fontsize" : 12.0,
									"id" : "obj-5",
									"presentation_rect" : [ 40.0, 73.0, 0.0, 0.0 ],
									"fontname" : "Arial",
									"numinlets" : 2
								}

							}
, 							{
								"box" : 								{
									"maxclass" : "newobj",
									"text" : "* 0.1",
									"numoutlets" : 1,
									"patching_rect" : [ 140.0, 540.0, 35.0, 20.0 ],
									"outlettype" : [ "float" ],
									"fontsize" : 12.0,
									"id" : "obj-33",
									"fontname" : "Arial",
									"numinlets" : 2
								}

							}
, 							{
								"box" : 								{
									"maxclass" : "newobj",
									"text" : "random 6",
									"numoutlets" : 1,
									"patching_rect" : [ 140.0, 520.0, 61.0, 20.0 ],
									"outlettype" : [ "int" ],
									"fontsize" : 12.0,
									"id" : "obj-32",
									"fontname" : "Arial",
									"numinlets" : 2
								}

							}
, 							{
								"box" : 								{
									"maxclass" : "newobj",
									"text" : "*~ 0.1",
									"numoutlets" : 1,
									"patching_rect" : [ 10.0, 600.0, 42.0, 20.0 ],
									"outlettype" : [ "signal" ],
									"fontsize" : 12.0,
									"id" : "obj-31",
									"fontname" : "Arial",
									"numinlets" : 2
								}

							}
, 							{
								"box" : 								{
									"maxclass" : "newobj",
									"text" : "tapout~ 75",
									"numoutlets" : 1,
									"patching_rect" : [ 40.0, 620.0, 68.0, 20.0 ],
									"outlettype" : [ "signal" ],
									"fontsize" : 12.0,
									"id" : "obj-30",
									"fontname" : "Arial",
									"numinlets" : 1
								}

							}
, 							{
								"box" : 								{
									"maxclass" : "newobj",
									"text" : "tapin~ 100",
									"numoutlets" : 1,
									"patching_rect" : [ 40.0, 590.0, 67.0, 20.0 ],
									"outlettype" : [ "tapconnect" ],
									"fontsize" : 12.0,
									"id" : "obj-29",
									"fontname" : "Arial",
									"numinlets" : 1
								}

							}
, 							{
								"box" : 								{
									"maxclass" : "message",
									"text" : "587.33, 554.37 20 587.33 20 523.25 20 587.33 20 493.88 20 587.33 20 466.16 20 587.33 20 329.63 20 587.33 20",
									"numoutlets" : 1,
									"patching_rect" : [ 40.0, 220.0, 618.0, 18.0 ],
									"outlettype" : [ "" ],
									"fontsize" : 12.0,
									"id" : "obj-20",
									"fontname" : "Arial",
									"numinlets" : 2
								}

							}
, 							{
								"box" : 								{
									"maxclass" : "message",
									"text" : "440, 523.25 25 440 25 659.26 25 440 25 739.99 25 440 25 1174.65625 25 440 25",
									"numoutlets" : 1,
									"patching_rect" : [ 40.0, 250.0, 448.0, 18.0 ],
									"outlettype" : [ "" ],
									"fontsize" : 12.0,
									"id" : "obj-18",
									"fontname" : "Arial",
									"numinlets" : 2
								}

							}
, 							{
								"box" : 								{
									"maxclass" : "message",
									"text" : "87.31, 698.46 50 87.31 50 698.46 50 87.31 50",
									"numoutlets" : 1,
									"patching_rect" : [ 40.0, 290.0, 257.0, 18.0 ],
									"outlettype" : [ "" ],
									"fontsize" : 12.0,
									"id" : "obj-17",
									"fontname" : "Arial",
									"numinlets" : 2
								}

							}
, 							{
								"box" : 								{
									"maxclass" : "message",
									"text" : "2053, 1318.52 15 2053 15 1318.52 15 2053 15 1318.52 15 2053 15 1318.52 10",
									"numoutlets" : 1,
									"patching_rect" : [ 40.0, 320.0, 434.0, 18.0 ],
									"outlettype" : [ "" ],
									"fontsize" : 12.0,
									"id" : "obj-14",
									"fontname" : "Arial",
									"numinlets" : 2
								}

							}
, 							{
								"box" : 								{
									"maxclass" : "message",
									"text" : "0., 1. 4 0. 96",
									"numoutlets" : 1,
									"patching_rect" : [ 180.0, 440.0, 77.0, 18.0 ],
									"outlettype" : [ "" ],
									"fontsize" : 12.0,
									"bgcolor" : [ 1.0, 1.0, 1.0, 1.0 ],
									"id" : "obj-11",
									"fontname" : "Arial",
									"numinlets" : 2
								}

							}
, 							{
								"box" : 								{
									"maxclass" : "message",
									"text" : "220, 329.63 10 220 10 329.63 10 220 10 329.63 10 220 10 329.63 10 220 10 329.63 10 220 10",
									"numoutlets" : 1,
									"patching_rect" : [ 40.0, 350.0, 518.0, 18.0 ],
									"outlettype" : [ "" ],
									"fontsize" : 12.0,
									"id" : "obj-10",
									"fontname" : "Arial",
									"numinlets" : 2
								}

							}
, 							{
								"box" : 								{
									"maxclass" : "message",
									"text" : "493.88, 329.63 25 493.88 50 329.63 25 493.88 50 329.63 25 493.88 25",
									"numoutlets" : 1,
									"patching_rect" : [ 40.0, 380.0, 391.0, 18.0 ],
									"outlettype" : [ "" ],
									"fontsize" : 12.0,
									"id" : "obj-9",
									"fontname" : "Arial",
									"numinlets" : 2
								}

							}
, 							{
								"box" : 								{
									"maxclass" : "message",
									"text" : "1046.5, 880 20 1046.5 20 880 20 1046.5 20 880 20 1046.5 20 880 20 1046.5 20 880 20 1046.5 20",
									"numoutlets" : 1,
									"patching_rect" : [ 40.0, 410.0, 534.0, 18.0 ],
									"outlettype" : [ "" ],
									"fontsize" : 12.0,
									"id" : "obj-8",
									"fontname" : "Arial",
									"numinlets" : 2
								}

							}
, 							{
								"box" : 								{
									"maxclass" : "button",
									"numoutlets" : 1,
									"patching_rect" : [ 50.0, 530.0, 20.0, 20.0 ],
									"outlettype" : [ "bang" ],
									"bgcolor" : [ 1.0, 1.0, 1.0, 1.0 ],
									"id" : "obj-27",
									"numinlets" : 1
								}

							}
, 							{
								"box" : 								{
									"maxclass" : "newobj",
									"text" : "*~",
									"numoutlets" : 1,
									"patching_rect" : [ 70.0, 650.0, 30.0, 20.0 ],
									"outlettype" : [ "signal" ],
									"fontsize" : 12.0,
									"id" : "obj-25",
									"fontname" : "Arial",
									"numinlets" : 2
								}

							}
, 							{
								"box" : 								{
									"maxclass" : "newobj",
									"text" : "*~",
									"numoutlets" : 1,
									"patching_rect" : [ 40.0, 650.0, 30.0, 20.0 ],
									"outlettype" : [ "signal" ],
									"fontsize" : 12.0,
									"id" : "obj-24",
									"fontname" : "Arial",
									"numinlets" : 2
								}

							}
, 							{
								"box" : 								{
									"maxclass" : "newobj",
									"text" : "* 0.1",
									"numoutlets" : 1,
									"patching_rect" : [ 70.0, 540.0, 35.0, 20.0 ],
									"outlettype" : [ "float" ],
									"fontsize" : 12.0,
									"id" : "obj-23",
									"fontname" : "Arial",
									"numinlets" : 2
								}

							}
, 							{
								"box" : 								{
									"maxclass" : "newobj",
									"text" : "!- 1.",
									"numoutlets" : 1,
									"patching_rect" : [ 110.0, 540.0, 32.5, 20.0 ],
									"outlettype" : [ "float" ],
									"fontsize" : 12.0,
									"id" : "obj-22",
									"fontname" : "Arial",
									"numinlets" : 2
								}

							}
, 							{
								"box" : 								{
									"maxclass" : "newobj",
									"text" : "random 10",
									"numoutlets" : 1,
									"patching_rect" : [ 70.0, 520.0, 68.0, 20.0 ],
									"outlettype" : [ "int" ],
									"fontsize" : 12.0,
									"id" : "obj-19",
									"fontname" : "Arial",
									"numinlets" : 2
								}

							}
, 							{
								"box" : 								{
									"maxclass" : "message",
									"text" : "0., 1. 4 0. 196",
									"numoutlets" : 1,
									"patching_rect" : [ 90.0, 440.0, 84.0, 18.0 ],
									"outlettype" : [ "" ],
									"fontsize" : 12.0,
									"bgcolor" : [ 1.0, 1.0, 1.0, 1.0 ],
									"id" : "obj-15",
									"fontname" : "Arial",
									"numinlets" : 2
								}

							}
, 							{
								"box" : 								{
									"maxclass" : "newobj",
									"text" : "line~ 0.",
									"numoutlets" : 2,
									"patching_rect" : [ 40.0, 440.0, 50.0, 20.0 ],
									"outlettype" : [ "signal", "bang" ],
									"fontsize" : 12.0,
									"id" : "obj-13",
									"fontname" : "Arial",
									"numinlets" : 2
								}

							}
, 							{
								"box" : 								{
									"maxclass" : "newobj",
									"text" : "line~ 0.",
									"numoutlets" : 2,
									"patching_rect" : [ 90.0, 470.0, 50.0, 20.0 ],
									"outlettype" : [ "signal", "bang" ],
									"fontsize" : 12.0,
									"id" : "obj-12",
									"fontname" : "Arial",
									"numinlets" : 2
								}

							}
, 							{
								"box" : 								{
									"maxclass" : "newobj",
									"text" : "cycle~",
									"numoutlets" : 1,
									"patching_rect" : [ 40.0, 470.0, 50.0, 20.0 ],
									"outlettype" : [ "signal" ],
									"fontsize" : 12.0,
									"id" : "obj-3",
									"fontname" : "Arial",
									"numinlets" : 2
								}

							}
, 							{
								"box" : 								{
									"maxclass" : "newobj",
									"text" : "*~",
									"numoutlets" : 1,
									"patching_rect" : [ 40.0, 500.0, 70.0, 20.0 ],
									"outlettype" : [ "signal" ],
									"fontsize" : 12.0,
									"id" : "obj-1",
									"fontname" : "Arial",
									"numinlets" : 2
								}

							}
, 							{
								"box" : 								{
									"maxclass" : "outlet",
									"numoutlets" : 0,
									"patching_rect" : [ 45.5, 680.0, 25.0, 25.0 ],
									"id" : "obj-34",
									"numinlets" : 1,
									"comment" : ""
								}

							}
, 							{
								"box" : 								{
									"maxclass" : "outlet",
									"numoutlets" : 0,
									"patching_rect" : [ 75.5, 680.0, 25.0, 25.0 ],
									"id" : "obj-35",
									"numinlets" : 1,
									"comment" : ""
								}

							}
 ],
						"lines" : [ 							{
								"patchline" : 								{
									"source" : [ "obj-78", 0 ],
									"destination" : [ "obj-57", 0 ],
									"hidden" : 0,
									"midpoints" : [  ]
								}

							}
, 							{
								"patchline" : 								{
									"source" : [ "obj-80", 0 ],
									"destination" : [ "obj-78", 0 ],
									"hidden" : 0,
									"midpoints" : [  ]
								}

							}
, 							{
								"patchline" : 								{
									"source" : [ "obj-81", 0 ],
									"destination" : [ "obj-55", 0 ],
									"hidden" : 0,
									"midpoints" : [  ]
								}

							}
, 							{
								"patchline" : 								{
									"source" : [ "obj-106", 0 ],
									"destination" : [ "obj-81", 1 ],
									"hidden" : 0,
									"midpoints" : [  ]
								}

							}
, 							{
								"patchline" : 								{
									"source" : [ "obj-105", 1 ],
									"destination" : [ "obj-106", 0 ],
									"hidden" : 0,
									"midpoints" : [  ]
								}

							}
, 							{
								"patchline" : 								{
									"source" : [ "obj-91", 0 ],
									"destination" : [ "obj-105", 0 ],
									"hidden" : 0,
									"midpoints" : [  ]
								}

							}
, 							{
								"patchline" : 								{
									"source" : [ "obj-100", 0 ],
									"destination" : [ "obj-96", 0 ],
									"hidden" : 0,
									"midpoints" : [  ]
								}

							}
, 							{
								"patchline" : 								{
									"source" : [ "obj-92", 1 ],
									"destination" : [ "obj-100", 0 ],
									"hidden" : 0,
									"midpoints" : [  ]
								}

							}
, 							{
								"patchline" : 								{
									"source" : [ "obj-96", 0 ],
									"destination" : [ "obj-97", 0 ],
									"hidden" : 0,
									"midpoints" : [  ]
								}

							}
, 							{
								"patchline" : 								{
									"source" : [ "obj-99", 0 ],
									"destination" : [ "obj-89", 0 ],
									"hidden" : 0,
									"midpoints" : [  ]
								}

							}
, 							{
								"patchline" : 								{
									"source" : [ "obj-97", 0 ],
									"destination" : [ "obj-99", 0 ],
									"hidden" : 0,
									"midpoints" : [  ]
								}

							}
, 							{
								"patchline" : 								{
									"source" : [ "obj-30", 0 ],
									"destination" : [ "obj-92", 0 ],
									"hidden" : 0,
									"midpoints" : [  ]
								}

							}
, 							{
								"patchline" : 								{
									"source" : [ "obj-89", 0 ],
									"destination" : [ "obj-91", 0 ],
									"hidden" : 0,
									"midpoints" : [  ]
								}

							}
, 							{
								"patchline" : 								{
									"source" : [ "obj-82", 0 ],
									"destination" : [ "obj-81", 1 ],
									"hidden" : 0,
									"midpoints" : [  ]
								}

							}
, 							{
								"patchline" : 								{
									"source" : [ "obj-57", 0 ],
									"destination" : [ "obj-81", 0 ],
									"hidden" : 0,
									"midpoints" : [  ]
								}

							}
, 							{
								"patchline" : 								{
									"source" : [ "obj-74", 0 ],
									"destination" : [ "obj-8", 0 ],
									"hidden" : 0,
									"midpoints" : [  ]
								}

							}
, 							{
								"patchline" : 								{
									"source" : [ "obj-75", 0 ],
									"destination" : [ "obj-9", 0 ],
									"hidden" : 0,
									"midpoints" : [  ]
								}

							}
, 							{
								"patchline" : 								{
									"source" : [ "obj-68", 0 ],
									"destination" : [ "obj-10", 0 ],
									"hidden" : 0,
									"midpoints" : [  ]
								}

							}
, 							{
								"patchline" : 								{
									"source" : [ "obj-69", 0 ],
									"destination" : [ "obj-14", 0 ],
									"hidden" : 0,
									"midpoints" : [  ]
								}

							}
, 							{
								"patchline" : 								{
									"source" : [ "obj-70", 0 ],
									"destination" : [ "obj-17", 0 ],
									"hidden" : 0,
									"midpoints" : [  ]
								}

							}
, 							{
								"patchline" : 								{
									"source" : [ "obj-71", 0 ],
									"destination" : [ "obj-18", 0 ],
									"hidden" : 0,
									"midpoints" : [  ]
								}

							}
, 							{
								"patchline" : 								{
									"source" : [ "obj-66", 0 ],
									"destination" : [ "obj-20", 0 ],
									"hidden" : 0,
									"midpoints" : [  ]
								}

							}
, 							{
								"patchline" : 								{
									"source" : [ "obj-67", 0 ],
									"destination" : [ "obj-5", 0 ],
									"hidden" : 0,
									"midpoints" : [  ]
								}

							}
, 							{
								"patchline" : 								{
									"source" : [ "obj-65", 0 ],
									"destination" : [ "obj-6", 0 ],
									"hidden" : 0,
									"midpoints" : [  ]
								}

							}
, 							{
								"patchline" : 								{
									"source" : [ "obj-60", 0 ],
									"destination" : [ "obj-7", 0 ],
									"hidden" : 0,
									"midpoints" : [  ]
								}

							}
, 							{
								"patchline" : 								{
									"source" : [ "obj-58", 9 ],
									"destination" : [ "obj-74", 0 ],
									"hidden" : 0,
									"midpoints" : [  ]
								}

							}
, 							{
								"patchline" : 								{
									"source" : [ "obj-58", 8 ],
									"destination" : [ "obj-75", 0 ],
									"hidden" : 0,
									"midpoints" : [  ]
								}

							}
, 							{
								"patchline" : 								{
									"source" : [ "obj-58", 7 ],
									"destination" : [ "obj-68", 0 ],
									"hidden" : 0,
									"midpoints" : [  ]
								}

							}
, 							{
								"patchline" : 								{
									"source" : [ "obj-58", 6 ],
									"destination" : [ "obj-69", 0 ],
									"hidden" : 0,
									"midpoints" : [  ]
								}

							}
, 							{
								"patchline" : 								{
									"source" : [ "obj-58", 5 ],
									"destination" : [ "obj-70", 0 ],
									"hidden" : 0,
									"midpoints" : [  ]
								}

							}
, 							{
								"patchline" : 								{
									"source" : [ "obj-58", 4 ],
									"destination" : [ "obj-71", 0 ],
									"hidden" : 0,
									"midpoints" : [  ]
								}

							}
, 							{
								"patchline" : 								{
									"source" : [ "obj-58", 3 ],
									"destination" : [ "obj-66", 0 ],
									"hidden" : 0,
									"midpoints" : [  ]
								}

							}
, 							{
								"patchline" : 								{
									"source" : [ "obj-58", 2 ],
									"destination" : [ "obj-67", 0 ],
									"hidden" : 0,
									"midpoints" : [  ]
								}

							}
, 							{
								"patchline" : 								{
									"source" : [ "obj-58", 1 ],
									"destination" : [ "obj-65", 0 ],
									"hidden" : 0,
									"midpoints" : [  ]
								}

							}
, 							{
								"patchline" : 								{
									"source" : [ "obj-58", 0 ],
									"destination" : [ "obj-60", 0 ],
									"hidden" : 0,
									"midpoints" : [  ]
								}

							}
, 							{
								"patchline" : 								{
									"source" : [ "obj-55", 0 ],
									"destination" : [ "obj-58", 0 ],
									"hidden" : 0,
									"midpoints" : [  ]
								}

							}
, 							{
								"patchline" : 								{
									"source" : [ "obj-7", 0 ],
									"destination" : [ "obj-13", 0 ],
									"hidden" : 0,
									"midpoints" : [  ]
								}

							}
, 							{
								"patchline" : 								{
									"source" : [ "obj-7", 0 ],
									"destination" : [ "obj-11", 0 ],
									"hidden" : 0,
									"midpoints" : [  ]
								}

							}
, 							{
								"patchline" : 								{
									"source" : [ "obj-6", 0 ],
									"destination" : [ "obj-13", 0 ],
									"hidden" : 0,
									"midpoints" : [  ]
								}

							}
, 							{
								"patchline" : 								{
									"source" : [ "obj-6", 0 ],
									"destination" : [ "obj-11", 0 ],
									"hidden" : 0,
									"midpoints" : [  ]
								}

							}
, 							{
								"patchline" : 								{
									"source" : [ "obj-11", 0 ],
									"destination" : [ "obj-27", 0 ],
									"hidden" : 0,
									"midpoints" : [  ]
								}

							}
, 							{
								"patchline" : 								{
									"source" : [ "obj-5", 0 ],
									"destination" : [ "obj-15", 0 ],
									"hidden" : 0,
									"midpoints" : [  ]
								}

							}
, 							{
								"patchline" : 								{
									"source" : [ "obj-5", 0 ],
									"destination" : [ "obj-13", 0 ],
									"hidden" : 0,
									"midpoints" : [  ]
								}

							}
, 							{
								"patchline" : 								{
									"source" : [ "obj-30", 0 ],
									"destination" : [ "obj-25", 0 ],
									"hidden" : 0,
									"midpoints" : [  ]
								}

							}
, 							{
								"patchline" : 								{
									"source" : [ "obj-30", 0 ],
									"destination" : [ "obj-24", 0 ],
									"hidden" : 0,
									"midpoints" : [  ]
								}

							}
, 							{
								"patchline" : 								{
									"source" : [ "obj-30", 0 ],
									"destination" : [ "obj-31", 0 ],
									"hidden" : 0,
									"midpoints" : [  ]
								}

							}
, 							{
								"patchline" : 								{
									"source" : [ "obj-29", 0 ],
									"destination" : [ "obj-30", 0 ],
									"hidden" : 0,
									"midpoints" : [  ]
								}

							}
, 							{
								"patchline" : 								{
									"source" : [ "obj-1", 0 ],
									"destination" : [ "obj-29", 0 ],
									"hidden" : 0,
									"midpoints" : [  ]
								}

							}
, 							{
								"patchline" : 								{
									"source" : [ "obj-31", 0 ],
									"destination" : [ "obj-29", 0 ],
									"hidden" : 0,
									"midpoints" : [  ]
								}

							}
, 							{
								"patchline" : 								{
									"source" : [ "obj-32", 0 ],
									"destination" : [ "obj-33", 0 ],
									"hidden" : 0,
									"midpoints" : [  ]
								}

							}
, 							{
								"patchline" : 								{
									"source" : [ "obj-27", 0 ],
									"destination" : [ "obj-32", 0 ],
									"hidden" : 0,
									"midpoints" : [  ]
								}

							}
, 							{
								"patchline" : 								{
									"source" : [ "obj-15", 0 ],
									"destination" : [ "obj-27", 0 ],
									"hidden" : 0,
									"midpoints" : [  ]
								}

							}
, 							{
								"patchline" : 								{
									"source" : [ "obj-33", 0 ],
									"destination" : [ "obj-31", 1 ],
									"hidden" : 0,
									"midpoints" : [  ]
								}

							}
, 							{
								"patchline" : 								{
									"source" : [ "obj-20", 0 ],
									"destination" : [ "obj-15", 0 ],
									"hidden" : 0,
									"midpoints" : [  ]
								}

							}
, 							{
								"patchline" : 								{
									"source" : [ "obj-20", 0 ],
									"destination" : [ "obj-13", 0 ],
									"hidden" : 0,
									"midpoints" : [  ]
								}

							}
, 							{
								"patchline" : 								{
									"source" : [ "obj-18", 0 ],
									"destination" : [ "obj-13", 0 ],
									"hidden" : 0,
									"midpoints" : [  ]
								}

							}
, 							{
								"patchline" : 								{
									"source" : [ "obj-18", 0 ],
									"destination" : [ "obj-15", 0 ],
									"hidden" : 0,
									"midpoints" : [  ]
								}

							}
, 							{
								"patchline" : 								{
									"source" : [ "obj-17", 0 ],
									"destination" : [ "obj-13", 0 ],
									"hidden" : 0,
									"midpoints" : [  ]
								}

							}
, 							{
								"patchline" : 								{
									"source" : [ "obj-17", 0 ],
									"destination" : [ "obj-15", 0 ],
									"hidden" : 0,
									"midpoints" : [  ]
								}

							}
, 							{
								"patchline" : 								{
									"source" : [ "obj-14", 0 ],
									"destination" : [ "obj-13", 0 ],
									"hidden" : 0,
									"midpoints" : [  ]
								}

							}
, 							{
								"patchline" : 								{
									"source" : [ "obj-14", 0 ],
									"destination" : [ "obj-11", 0 ],
									"hidden" : 0,
									"midpoints" : [  ]
								}

							}
, 							{
								"patchline" : 								{
									"source" : [ "obj-11", 0 ],
									"destination" : [ "obj-12", 0 ],
									"hidden" : 0,
									"midpoints" : [  ]
								}

							}
, 							{
								"patchline" : 								{
									"source" : [ "obj-10", 0 ],
									"destination" : [ "obj-11", 0 ],
									"hidden" : 0,
									"midpoints" : [  ]
								}

							}
, 							{
								"patchline" : 								{
									"source" : [ "obj-10", 0 ],
									"destination" : [ "obj-13", 0 ],
									"hidden" : 0,
									"midpoints" : [  ]
								}

							}
, 							{
								"patchline" : 								{
									"source" : [ "obj-9", 0 ],
									"destination" : [ "obj-15", 0 ],
									"hidden" : 0,
									"midpoints" : [  ]
								}

							}
, 							{
								"patchline" : 								{
									"source" : [ "obj-9", 0 ],
									"destination" : [ "obj-13", 0 ],
									"hidden" : 0,
									"midpoints" : [  ]
								}

							}
, 							{
								"patchline" : 								{
									"source" : [ "obj-8", 0 ],
									"destination" : [ "obj-15", 0 ],
									"hidden" : 0,
									"midpoints" : [  ]
								}

							}
, 							{
								"patchline" : 								{
									"source" : [ "obj-8", 0 ],
									"destination" : [ "obj-13", 0 ],
									"hidden" : 0,
									"midpoints" : [  ]
								}

							}
, 							{
								"patchline" : 								{
									"source" : [ "obj-25", 0 ],
									"destination" : [ "obj-35", 0 ],
									"hidden" : 0,
									"midpoints" : [  ]
								}

							}
, 							{
								"patchline" : 								{
									"source" : [ "obj-24", 0 ],
									"destination" : [ "obj-34", 0 ],
									"hidden" : 0,
									"midpoints" : [  ]
								}

							}
, 							{
								"patchline" : 								{
									"source" : [ "obj-27", 0 ],
									"destination" : [ "obj-19", 0 ],
									"hidden" : 0,
									"midpoints" : [  ]
								}

							}
, 							{
								"patchline" : 								{
									"source" : [ "obj-19", 0 ],
									"destination" : [ "obj-23", 0 ],
									"hidden" : 0,
									"midpoints" : [  ]
								}

							}
, 							{
								"patchline" : 								{
									"source" : [ "obj-23", 0 ],
									"destination" : [ "obj-24", 1 ],
									"hidden" : 0,
									"midpoints" : [  ]
								}

							}
, 							{
								"patchline" : 								{
									"source" : [ "obj-23", 0 ],
									"destination" : [ "obj-22", 0 ],
									"hidden" : 0,
									"midpoints" : [  ]
								}

							}
, 							{
								"patchline" : 								{
									"source" : [ "obj-22", 0 ],
									"destination" : [ "obj-25", 1 ],
									"hidden" : 0,
									"midpoints" : [  ]
								}

							}
, 							{
								"patchline" : 								{
									"source" : [ "obj-15", 0 ],
									"destination" : [ "obj-12", 0 ],
									"hidden" : 0,
									"midpoints" : [  ]
								}

							}
, 							{
								"patchline" : 								{
									"source" : [ "obj-13", 0 ],
									"destination" : [ "obj-3", 0 ],
									"hidden" : 0,
									"midpoints" : [  ]
								}

							}
, 							{
								"patchline" : 								{
									"source" : [ "obj-12", 0 ],
									"destination" : [ "obj-1", 1 ],
									"hidden" : 0,
									"midpoints" : [  ]
								}

							}
, 							{
								"patchline" : 								{
									"source" : [ "obj-3", 0 ],
									"destination" : [ "obj-1", 0 ],
									"hidden" : 0,
									"midpoints" : [  ]
								}

							}
 ]
					}
,
					"saved_object_attributes" : 					{
						"default_fontname" : "Arial",
						"fontface" : 0,
						"fontsize" : 12.0,
						"default_fontsize" : 12.0,
						"fontname" : "Arial",
						"default_fontface" : 0,
						"globalpatchername" : ""
					}

				}

			}
, 			{
				"box" : 				{
					"maxclass" : "ezdac~",
					"numoutlets" : 0,
					"patching_rect" : [ 150.0, 110.0, 50.0, 50.0 ],
					"id" : "obj-17",
					"numinlets" : 2
				}

			}
 ],
		"lines" : [ 			{
				"patchline" : 				{
					"source" : [ "obj-36", 1 ],
					"destination" : [ "obj-17", 1 ],
					"hidden" : 0,
					"midpoints" : [  ]
				}

			}
, 			{
				"patchline" : 				{
					"source" : [ "obj-36", 0 ],
					"destination" : [ "obj-17", 0 ],
					"hidden" : 0,
					"midpoints" : [  ]
				}

			}
, 			{
				"patchline" : 				{
					"source" : [ "obj-39", 0 ],
					"destination" : [ "obj-17", 0 ],
					"hidden" : 0,
					"midpoints" : [  ]
				}

			}
, 			{
				"patchline" : 				{
					"source" : [ "obj-39", 1 ],
					"destination" : [ "obj-17", 1 ],
					"hidden" : 0,
					"midpoints" : [  ]
				}

			}
, 			{
				"patchline" : 				{
					"source" : [ "obj-42", 1 ],
					"destination" : [ "obj-17", 1 ],
					"hidden" : 0,
					"midpoints" : [  ]
				}

			}
, 			{
				"patchline" : 				{
					"source" : [ "obj-42", 0 ],
					"destination" : [ "obj-17", 0 ],
					"hidden" : 0,
					"midpoints" : [  ]
				}

			}
, 			{
				"patchline" : 				{
					"source" : [ "obj-45", 1 ],
					"destination" : [ "obj-17", 1 ],
					"hidden" : 0,
					"midpoints" : [  ]
				}

			}
, 			{
				"patchline" : 				{
					"source" : [ "obj-45", 0 ],
					"destination" : [ "obj-17", 0 ],
					"hidden" : 0,
					"midpoints" : [  ]
				}

			}
 ]
	}

}
