{
	"patcher" : 	{
		"fileversion" : 1,
		"rect" : [ 25.0, 69.0, 640.0, 480.0 ],
		"bglocked" : 0,
		"defrect" : [ 25.0, 69.0, 640.0, 480.0 ],
		"openrect" : [ 0.0, 0.0, 0.0, 0.0 ],
		"openinpresentation" : 0,
		"default_fontsize" : 12.0,
		"default_fontface" : 0,
		"default_fontname" : "Arial",
		"gridonopen" : 0,
		"gridsize" : [ 11.0, 11.0 ],
		"gridsnaponopen" : 0,
		"toolbarvisible" : 1,
		"boxanimatetime" : 200,
		"imprint" : 0,
		"enablehscroll" : 1,
		"enablevscroll" : 1,
		"devicewidth" : 0.0,
		"boxes" : [ 			{
				"box" : 				{
					"maxclass" : "inlet",
					"numinlets" : 0,
					"numoutlets" : 1,
					"patching_rect" : [ 165.0, 110.0, 25.0, 25.0 ],
					"id" : "obj-1",
					"outlettype" : [ "" ],
					"comment" : ""
				}

			}
, 			{
				"box" : 				{
					"maxclass" : "newobj",
					"text" : "r midisel1",
					"numinlets" : 0,
					"numoutlets" : 1,
					"patching_rect" : [ 238.0, 175.0, 70.0, 23.0 ],
					"id" : "obj-653",
					"fontname" : "Arial",
					"outlettype" : [ "" ],
					"fontsize" : 14.0
				}

			}
, 			{
				"box" : 				{
					"maxclass" : "button",
					"numinlets" : 1,
					"numoutlets" : 1,
					"patching_rect" : [ 214.0, 176.0, 20.0, 20.0 ],
					"id" : "obj-654",
					"outlettype" : [ "bang" ]
				}

			}
, 			{
				"box" : 				{
					"maxclass" : "newobj",
					"text" : "loadbang",
					"hidden" : 1,
					"numinlets" : 1,
					"numoutlets" : 1,
					"patching_rect" : [ 244.0, 246.0, 68.0, 23.0 ],
					"id" : "obj-655",
					"fontname" : "Arial",
					"outlettype" : [ "bang" ],
					"fontsize" : 14.0
				}

			}
, 			{
				"box" : 				{
					"maxclass" : "comment",
					"text" : "Midi Pad\n On/Off",
					"linecount" : 2,
					"numinlets" : 1,
					"numoutlets" : 0,
					"patching_rect" : [ 231.0, 219.0, 77.0, 30.0 ],
					"id" : "obj-657",
					"fontname" : "Helvetica",
					"fontface" : 1,
					"fontsize" : 12.0
				}

			}
, 			{
				"box" : 				{
					"maxclass" : "message",
					"text" : "49",
					"numinlets" : 2,
					"numoutlets" : 1,
					"patching_rect" : [ 166.0, 223.0, 32.5, 21.0 ],
					"id" : "obj-658",
					"fontname" : "Arial",
					"outlettype" : [ "" ],
					"fontsize" : 14.0
				}

			}
, 			{
				"box" : 				{
					"maxclass" : "message",
					"text" : "3",
					"numinlets" : 2,
					"numoutlets" : 1,
					"patching_rect" : [ 166.0, 200.0, 32.5, 21.0 ],
					"id" : "obj-659",
					"fontname" : "Arial",
					"outlettype" : [ "" ],
					"fontsize" : 14.0
				}

			}
, 			{
				"box" : 				{
					"maxclass" : "comment",
					"text" : "note",
					"numinlets" : 1,
					"numoutlets" : 0,
					"patching_rect" : [ 197.0, 224.0, 108.0, 20.0 ],
					"id" : "obj-660",
					"fontname" : "Helvetica",
					"fontsize" : 14.0
				}

			}
, 			{
				"box" : 				{
					"maxclass" : "comment",
					"text" : "midi channel",
					"numinlets" : 1,
					"numoutlets" : 0,
					"patching_rect" : [ 196.0, 201.0, 108.0, 20.0 ],
					"id" : "obj-661",
					"fontname" : "Helvetica",
					"fontsize" : 14.0
				}

			}
, 			{
				"box" : 				{
					"maxclass" : "newobj",
					"text" : "midiin",
					"numinlets" : 1,
					"numoutlets" : 1,
					"patching_rect" : [ 165.0, 176.0, 47.0, 23.0 ],
					"id" : "obj-662",
					"fontname" : "Arial",
					"outlettype" : [ "int" ],
					"fontsize" : 14.0
				}

			}
, 			{
				"box" : 				{
					"maxclass" : "newobj",
					"text" : "p midi_pad",
					"numinlets" : 3,
					"numoutlets" : 1,
					"patching_rect" : [ 165.0, 247.0, 79.0, 23.0 ],
					"id" : "obj-663",
					"fontname" : "Arial",
					"outlettype" : [ "int" ],
					"fontsize" : 14.0,
					"patcher" : 					{
						"fileversion" : 1,
						"rect" : [ 348.0, 204.0, 852.0, 625.0 ],
						"bglocked" : 0,
						"defrect" : [ 348.0, 204.0, 852.0, 625.0 ],
						"openrect" : [ 0.0, 0.0, 0.0, 0.0 ],
						"openinpresentation" : 0,
						"default_fontsize" : 14.0,
						"default_fontface" : 0,
						"default_fontname" : "Arial",
						"gridonopen" : 0,
						"gridsize" : [ 15.0, 15.0 ],
						"gridsnaponopen" : 0,
						"toolbarvisible" : 1,
						"boxanimatetime" : 200,
						"imprint" : 0,
						"enablehscroll" : 1,
						"enablevscroll" : 1,
						"devicewidth" : 0.0,
						"boxes" : [ 							{
								"box" : 								{
									"maxclass" : "number",
									"numinlets" : 1,
									"numoutlets" : 2,
									"patching_rect" : [ 57.0, 442.0, 50.0, 23.0 ],
									"id" : "obj-61",
									"fontname" : "Arial",
									"outlettype" : [ "int", "bang" ],
									"fontsize" : 14.0
								}

							}
, 							{
								"box" : 								{
									"maxclass" : "newobj",
									"text" : "- 1",
									"numinlets" : 2,
									"numoutlets" : 1,
									"patching_rect" : [ 57.0, 417.0, 32.5, 23.0 ],
									"id" : "obj-58",
									"fontname" : "Arial",
									"outlettype" : [ "int" ],
									"fontsize" : 14.0
								}

							}
, 							{
								"box" : 								{
									"maxclass" : "newobj",
									"text" : "clip 1 2",
									"numinlets" : 3,
									"numoutlets" : 1,
									"patching_rect" : [ 57.0, 392.0, 55.0, 23.0 ],
									"id" : "obj-56",
									"fontname" : "Arial",
									"outlettype" : [ "" ],
									"fontsize" : 14.0
								}

							}
, 							{
								"box" : 								{
									"maxclass" : "newobj",
									"text" : "counter 0 0 3",
									"numinlets" : 5,
									"numoutlets" : 4,
									"patching_rect" : [ 57.0, 340.0, 92.0, 23.0 ],
									"id" : "obj-47",
									"fontname" : "Arial",
									"outlettype" : [ "int", "", "", "int" ],
									"fontsize" : 14.0
								}

							}
, 							{
								"box" : 								{
									"maxclass" : "button",
									"numinlets" : 1,
									"numoutlets" : 1,
									"patching_rect" : [ 57.0, 309.0, 20.0, 20.0 ],
									"id" : "obj-33",
									"outlettype" : [ "bang" ]
								}

							}
, 							{
								"box" : 								{
									"maxclass" : "number",
									"numinlets" : 1,
									"numoutlets" : 2,
									"patching_rect" : [ 57.0, 366.0, 50.0, 23.0 ],
									"id" : "obj-31",
									"fontname" : "Arial",
									"outlettype" : [ "int", "bang" ],
									"fontsize" : 14.0
								}

							}
, 							{
								"box" : 								{
									"maxclass" : "number",
									"numinlets" : 1,
									"numoutlets" : 2,
									"patching_rect" : [ 56.0, 278.0, 50.0, 23.0 ],
									"id" : "obj-4",
									"fontname" : "Arial",
									"outlettype" : [ "int", "bang" ],
									"fontsize" : 14.0
								}

							}
, 							{
								"box" : 								{
									"maxclass" : "newobj",
									"text" : "if $i1 > 0 then 1 else 0",
									"numinlets" : 1,
									"numoutlets" : 1,
									"patching_rect" : [ 56.0, 248.0, 148.0, 23.0 ],
									"id" : "obj-1",
									"fontname" : "Arial",
									"outlettype" : [ "" ],
									"fontsize" : 14.0
								}

							}
, 							{
								"box" : 								{
									"maxclass" : "number",
									"numinlets" : 1,
									"numoutlets" : 2,
									"patching_rect" : [ 230.0, 136.0, 50.0, 23.0 ],
									"id" : "obj-46",
									"fontname" : "Arial",
									"outlettype" : [ "int", "bang" ],
									"fontsize" : 14.0
								}

							}
, 							{
								"box" : 								{
									"maxclass" : "number",
									"numinlets" : 1,
									"numoutlets" : 2,
									"patching_rect" : [ 234.0, 186.0, 50.0, 23.0 ],
									"id" : "obj-43",
									"fontname" : "Arial",
									"outlettype" : [ "int", "bang" ],
									"fontsize" : 14.0
								}

							}
, 							{
								"box" : 								{
									"maxclass" : "inlet",
									"numinlets" : 0,
									"numoutlets" : 1,
									"patching_rect" : [ 111.0, 178.0, 25.0, 25.0 ],
									"id" : "obj-38",
									"outlettype" : [ "" ],
									"comment" : ""
								}

							}
, 							{
								"box" : 								{
									"maxclass" : "comment",
									"text" : "non-scaled output",
									"numinlets" : 1,
									"numoutlets" : 0,
									"patching_rect" : [ 58.0, 533.0, 150.0, 23.0 ],
									"id" : "obj-35",
									"fontname" : "Arial",
									"fontsize" : 14.0
								}

							}
, 							{
								"box" : 								{
									"maxclass" : "comment",
									"text" : "variable note selector",
									"numinlets" : 1,
									"numoutlets" : 0,
									"patching_rect" : [ 140.0, 165.0, 150.0, 23.0 ],
									"id" : "obj-28",
									"fontname" : "Arial",
									"fontsize" : 14.0
								}

							}
, 							{
								"box" : 								{
									"maxclass" : "comment",
									"text" : "input from midiin object\n",
									"numinlets" : 1,
									"numoutlets" : 0,
									"patching_rect" : [ 117.0, 62.0, 164.0, 23.0 ],
									"id" : "obj-26",
									"fontname" : "Arial",
									"fontsize" : 14.0
								}

							}
, 							{
								"box" : 								{
									"maxclass" : "outlet",
									"numinlets" : 1,
									"numoutlets" : 0,
									"patching_rect" : [ 61.0, 496.0, 25.0, 25.0 ],
									"id" : "obj-22",
									"comment" : ""
								}

							}
, 							{
								"box" : 								{
									"maxclass" : "inlet",
									"numinlets" : 0,
									"numoutlets" : 1,
									"patching_rect" : [ 159.0, 181.0, 25.0, 25.0 ],
									"id" : "obj-21",
									"outlettype" : [ "" ],
									"comment" : ""
								}

							}
, 							{
								"box" : 								{
									"maxclass" : "number",
									"numinlets" : 1,
									"numoutlets" : 2,
									"patching_rect" : [ 739.0, 162.0, 50.0, 23.0 ],
									"id" : "obj-11",
									"fontname" : "Arial",
									"outlettype" : [ "int", "bang" ],
									"fontsize" : 14.0
								}

							}
, 							{
								"box" : 								{
									"maxclass" : "number",
									"numinlets" : 1,
									"numoutlets" : 2,
									"patching_rect" : [ 759.0, 259.0, 50.0, 23.0 ],
									"id" : "obj-13",
									"fontname" : "Arial",
									"outlettype" : [ "int", "bang" ],
									"fontsize" : 14.0
								}

							}
, 							{
								"box" : 								{
									"maxclass" : "number",
									"numinlets" : 1,
									"numoutlets" : 2,
									"patching_rect" : [ 733.0, 246.0, 50.0, 23.0 ],
									"id" : "obj-14",
									"fontname" : "Arial",
									"outlettype" : [ "int", "bang" ],
									"fontsize" : 14.0
								}

							}
, 							{
								"box" : 								{
									"maxclass" : "slider",
									"numinlets" : 1,
									"numoutlets" : 1,
									"patching_rect" : [ 683.0, 226.0, 32.0, 56.0 ],
									"id" : "obj-15",
									"outlettype" : [ "" ]
								}

							}
, 							{
								"box" : 								{
									"maxclass" : "newobj",
									"text" : "midiparse",
									"numinlets" : 1,
									"numoutlets" : 7,
									"patching_rect" : [ 740.0, 81.0, 100.0, 23.0 ],
									"id" : "obj-16",
									"fontname" : "Arial",
									"outlettype" : [ "", "", "", "int", "int", "int", "int" ],
									"fontsize" : 14.0
								}

							}
, 							{
								"box" : 								{
									"maxclass" : "newobj",
									"text" : "if $i1==$i2 then $i3",
									"numinlets" : 3,
									"numoutlets" : 1,
									"patching_rect" : [ 679.0, 197.0, 129.0, 23.0 ],
									"id" : "obj-17",
									"fontname" : "Arial",
									"outlettype" : [ "" ],
									"fontsize" : 14.0
								}

							}
, 							{
								"box" : 								{
									"maxclass" : "number",
									"numinlets" : 1,
									"numoutlets" : 2,
									"patching_rect" : [ 675.0, 163.0, 50.0, 23.0 ],
									"id" : "obj-18",
									"fontname" : "Arial",
									"outlettype" : [ "int", "bang" ],
									"fontsize" : 14.0
								}

							}
, 							{
								"box" : 								{
									"maxclass" : "newobj",
									"text" : "scale 0 127 0. 10000.",
									"numinlets" : 6,
									"numoutlets" : 1,
									"patching_rect" : [ 673.0, 293.0, 144.0, 23.0 ],
									"id" : "obj-19",
									"fontname" : "Arial",
									"outlettype" : [ "" ],
									"fontsize" : 14.0
								}

							}
, 							{
								"box" : 								{
									"maxclass" : "newobj",
									"text" : "unpack 0 0",
									"numinlets" : 1,
									"numoutlets" : 2,
									"patching_rect" : [ 751.0, 120.0, 79.0, 23.0 ],
									"id" : "obj-20",
									"fontname" : "Arial",
									"outlettype" : [ "int", "int" ],
									"fontsize" : 14.0
								}

							}
, 							{
								"box" : 								{
									"maxclass" : "inlet",
									"numinlets" : 0,
									"numoutlets" : 1,
									"patching_rect" : [ 89.0, 61.0, 25.0, 25.0 ],
									"id" : "obj-5",
									"outlettype" : [ "int" ],
									"comment" : ""
								}

							}
, 							{
								"box" : 								{
									"maxclass" : "newobj",
									"text" : "midiparse",
									"numinlets" : 1,
									"numoutlets" : 7,
									"patching_rect" : [ 117.0, 100.0, 100.0, 23.0 ],
									"id" : "obj-7",
									"fontname" : "Arial",
									"outlettype" : [ "", "", "", "int", "int", "int", "int" ],
									"fontsize" : 14.0
								}

							}
, 							{
								"box" : 								{
									"maxclass" : "newobj",
									"text" : "if $i1==$i2 && $i3==$i4 then $i5",
									"numinlets" : 5,
									"numoutlets" : 1,
									"patching_rect" : [ 56.0, 216.0, 209.0, 23.0 ],
									"id" : "obj-8",
									"fontname" : "Arial",
									"outlettype" : [ "" ],
									"fontsize" : 14.0
								}

							}
, 							{
								"box" : 								{
									"maxclass" : "number",
									"numinlets" : 1,
									"numoutlets" : 2,
									"patching_rect" : [ 52.0, 182.0, 50.0, 23.0 ],
									"id" : "obj-9",
									"fontname" : "Arial",
									"outlettype" : [ "int", "bang" ],
									"fontsize" : 14.0
								}

							}
, 							{
								"box" : 								{
									"maxclass" : "newobj",
									"text" : "unpack 0 0",
									"numinlets" : 1,
									"numoutlets" : 2,
									"patching_rect" : [ 128.0, 139.0, 79.0, 23.0 ],
									"id" : "obj-12",
									"fontname" : "Arial",
									"outlettype" : [ "int", "int" ],
									"fontsize" : 14.0
								}

							}
 ],
						"lines" : [ 							{
								"patchline" : 								{
									"source" : [ "obj-61", 0 ],
									"destination" : [ "obj-22", 0 ],
									"hidden" : 0,
									"midpoints" : [  ]
								}

							}
, 							{
								"patchline" : 								{
									"source" : [ "obj-47", 0 ],
									"destination" : [ "obj-31", 0 ],
									"hidden" : 0,
									"midpoints" : [  ]
								}

							}
, 							{
								"patchline" : 								{
									"source" : [ "obj-33", 0 ],
									"destination" : [ "obj-47", 0 ],
									"hidden" : 0,
									"midpoints" : [  ]
								}

							}
, 							{
								"patchline" : 								{
									"source" : [ "obj-58", 0 ],
									"destination" : [ "obj-61", 0 ],
									"hidden" : 0,
									"midpoints" : [  ]
								}

							}
, 							{
								"patchline" : 								{
									"source" : [ "obj-56", 0 ],
									"destination" : [ "obj-58", 0 ],
									"hidden" : 0,
									"midpoints" : [  ]
								}

							}
, 							{
								"patchline" : 								{
									"source" : [ "obj-31", 0 ],
									"destination" : [ "obj-56", 0 ],
									"hidden" : 0,
									"midpoints" : [  ]
								}

							}
, 							{
								"patchline" : 								{
									"source" : [ "obj-4", 0 ],
									"destination" : [ "obj-33", 0 ],
									"hidden" : 0,
									"midpoints" : [  ]
								}

							}
, 							{
								"patchline" : 								{
									"source" : [ "obj-1", 0 ],
									"destination" : [ "obj-4", 0 ],
									"hidden" : 0,
									"midpoints" : [  ]
								}

							}
, 							{
								"patchline" : 								{
									"source" : [ "obj-8", 0 ],
									"destination" : [ "obj-1", 0 ],
									"hidden" : 0,
									"midpoints" : [  ]
								}

							}
, 							{
								"patchline" : 								{
									"source" : [ "obj-7", 0 ],
									"destination" : [ "obj-12", 0 ],
									"hidden" : 0,
									"midpoints" : [  ]
								}

							}
, 							{
								"patchline" : 								{
									"source" : [ "obj-12", 0 ],
									"destination" : [ "obj-9", 0 ],
									"hidden" : 0,
									"midpoints" : [  ]
								}

							}
, 							{
								"patchline" : 								{
									"source" : [ "obj-5", 0 ],
									"destination" : [ "obj-7", 0 ],
									"hidden" : 0,
									"midpoints" : [  ]
								}

							}
, 							{
								"patchline" : 								{
									"source" : [ "obj-20", 0 ],
									"destination" : [ "obj-18", 0 ],
									"hidden" : 0,
									"midpoints" : [  ]
								}

							}
, 							{
								"patchline" : 								{
									"source" : [ "obj-16", 2 ],
									"destination" : [ "obj-20", 0 ],
									"hidden" : 0,
									"midpoints" : [  ]
								}

							}
, 							{
								"patchline" : 								{
									"source" : [ "obj-15", 0 ],
									"destination" : [ "obj-19", 0 ],
									"hidden" : 0,
									"midpoints" : [  ]
								}

							}
, 							{
								"patchline" : 								{
									"source" : [ "obj-14", 0 ],
									"destination" : [ "obj-19", 3 ],
									"hidden" : 0,
									"midpoints" : [  ]
								}

							}
, 							{
								"patchline" : 								{
									"source" : [ "obj-13", 0 ],
									"destination" : [ "obj-19", 4 ],
									"hidden" : 0,
									"midpoints" : [  ]
								}

							}
, 							{
								"patchline" : 								{
									"source" : [ "obj-17", 0 ],
									"destination" : [ "obj-15", 0 ],
									"hidden" : 0,
									"midpoints" : [  ]
								}

							}
, 							{
								"patchline" : 								{
									"source" : [ "obj-18", 0 ],
									"destination" : [ "obj-17", 0 ],
									"hidden" : 0,
									"midpoints" : [  ]
								}

							}
, 							{
								"patchline" : 								{
									"source" : [ "obj-20", 1 ],
									"destination" : [ "obj-17", 2 ],
									"hidden" : 0,
									"midpoints" : [  ]
								}

							}
, 							{
								"patchline" : 								{
									"source" : [ "obj-11", 0 ],
									"destination" : [ "obj-17", 1 ],
									"hidden" : 0,
									"midpoints" : [  ]
								}

							}
, 							{
								"patchline" : 								{
									"source" : [ "obj-12", 1 ],
									"destination" : [ "obj-43", 0 ],
									"hidden" : 0,
									"midpoints" : [  ]
								}

							}
, 							{
								"patchline" : 								{
									"source" : [ "obj-7", 6 ],
									"destination" : [ "obj-46", 0 ],
									"hidden" : 0,
									"midpoints" : [  ]
								}

							}
, 							{
								"patchline" : 								{
									"source" : [ "obj-43", 0 ],
									"destination" : [ "obj-8", 4 ],
									"hidden" : 0,
									"midpoints" : [  ]
								}

							}
, 							{
								"patchline" : 								{
									"source" : [ "obj-21", 0 ],
									"destination" : [ "obj-8", 1 ],
									"hidden" : 0,
									"midpoints" : [  ]
								}

							}
, 							{
								"patchline" : 								{
									"source" : [ "obj-9", 0 ],
									"destination" : [ "obj-8", 0 ],
									"hidden" : 0,
									"midpoints" : [  ]
								}

							}
, 							{
								"patchline" : 								{
									"source" : [ "obj-38", 0 ],
									"destination" : [ "obj-8", 2 ],
									"hidden" : 0,
									"midpoints" : [  ]
								}

							}
, 							{
								"patchline" : 								{
									"source" : [ "obj-46", 0 ],
									"destination" : [ "obj-8", 3 ],
									"hidden" : 0,
									"midpoints" : [  ]
								}

							}
 ]
					}
,
					"saved_object_attributes" : 					{
						"default_fontface" : 0,
						"default_fontname" : "Arial",
						"fontname" : "Arial",
						"default_fontsize" : 14.0,
						"globalpatchername" : "",
						"fontface" : 0,
						"fontsize" : 14.0
					}

				}

			}
, 			{
				"box" : 				{
					"maxclass" : "comment",
					"text" : " \n\n\n\n\n\n",
					"linecount" : 6,
					"bgcolor" : [ 0.2, 1.0, 0.0, 0.47451 ],
					"numinlets" : 1,
					"numoutlets" : 0,
					"patching_rect" : [ 162.0, 171.0, 151.0, 103.0 ],
					"id" : "obj-664",
					"fontname" : "Arial",
					"background" : 1,
					"fontsize" : 14.0
				}

			}
 ],
		"lines" : [ 			{
				"patchline" : 				{
					"source" : [ "obj-1", 0 ],
					"destination" : [ "obj-662", 0 ],
					"hidden" : 0,
					"midpoints" : [  ]
				}

			}
, 			{
				"patchline" : 				{
					"source" : [ "obj-658", 0 ],
					"destination" : [ "obj-663", 2 ],
					"hidden" : 1,
					"midpoints" : [  ]
				}

			}
, 			{
				"patchline" : 				{
					"source" : [ "obj-659", 0 ],
					"destination" : [ "obj-663", 1 ],
					"hidden" : 1,
					"midpoints" : [  ]
				}

			}
, 			{
				"patchline" : 				{
					"source" : [ "obj-662", 0 ],
					"destination" : [ "obj-663", 0 ],
					"hidden" : 1,
					"midpoints" : [  ]
				}

			}
, 			{
				"patchline" : 				{
					"source" : [ "obj-654", 0 ],
					"destination" : [ "obj-659", 0 ],
					"hidden" : 1,
					"midpoints" : [  ]
				}

			}
, 			{
				"patchline" : 				{
					"source" : [ "obj-654", 0 ],
					"destination" : [ "obj-658", 0 ],
					"hidden" : 1,
					"midpoints" : [  ]
				}

			}
, 			{
				"patchline" : 				{
					"source" : [ "obj-655", 0 ],
					"destination" : [ "obj-654", 0 ],
					"hidden" : 1,
					"midpoints" : [  ]
				}

			}
, 			{
				"patchline" : 				{
					"source" : [ "obj-653", 0 ],
					"destination" : [ "obj-663", 0 ],
					"hidden" : 1,
					"midpoints" : [  ]
				}

			}
 ]
	}

}
