{
	"patcher" : 	{
		"fileversion" : 1,
		"rect" : [ 25.0, 69.0, 640.0, 506.0 ],
		"bglocked" : 0,
		"defrect" : [ 25.0, 69.0, 640.0, 506.0 ],
		"openrect" : [ 0.0, 0.0, 0.0, 0.0 ],
		"openinpresentation" : 0,
		"default_fontsize" : 12.0,
		"default_fontface" : 0,
		"default_fontname" : "Arial",
		"gridonopen" : 0,
		"gridsize" : [ 10.0, 10.0 ],
		"gridsnaponopen" : 0,
		"toolbarvisible" : 1,
		"boxanimatetime" : 200,
		"imprint" : 0,
		"metadata" : [  ],
		"boxes" : [ 			{
				"box" : 				{
					"maxclass" : "message",
					"text" : "3480",
					"hidden" : 1,
					"fontname" : "Arial",
					"patching_rect" : [ 260.0, 120.0, 37.0, 18.0 ],
					"numinlets" : 2,
					"id" : "obj-13",
					"numoutlets" : 1,
					"fontsize" : 12.0,
					"outlettype" : [ "" ]
				}

			}
, 			{
				"box" : 				{
					"maxclass" : "message",
					"text" : "75",
					"hidden" : 1,
					"fontname" : "Arial",
					"patching_rect" : [ 230.0, 120.0, 32.5, 18.0 ],
					"numinlets" : 2,
					"id" : "obj-12",
					"numoutlets" : 1,
					"fontsize" : 12.0,
					"outlettype" : [ "" ]
				}

			}
, 			{
				"box" : 				{
					"maxclass" : "message",
					"text" : "100",
					"hidden" : 1,
					"fontname" : "Arial",
					"patching_rect" : [ 260.0, 100.0, 32.5, 18.0 ],
					"numinlets" : 2,
					"id" : "obj-11",
					"numoutlets" : 1,
					"fontsize" : 12.0,
					"outlettype" : [ "" ]
				}

			}
, 			{
				"box" : 				{
					"maxclass" : "message",
					"text" : "0",
					"hidden" : 1,
					"fontname" : "Arial",
					"patching_rect" : [ 230.0, 100.0, 32.5, 18.0 ],
					"numinlets" : 2,
					"id" : "obj-10",
					"numoutlets" : 1,
					"fontsize" : 12.0,
					"outlettype" : [ "" ]
				}

			}
, 			{
				"box" : 				{
					"maxclass" : "newobj",
					"text" : "loadbang",
					"hidden" : 1,
					"fontname" : "Arial",
					"patching_rect" : [ 230.0, 70.0, 60.0, 20.0 ],
					"numinlets" : 1,
					"id" : "obj-8",
					"numoutlets" : 1,
					"fontsize" : 12.0,
					"outlettype" : [ "bang" ]
				}

			}
, 			{
				"box" : 				{
					"maxclass" : "message",
					"text" : "1",
					"hidden" : 1,
					"fontname" : "Arial",
					"patching_rect" : [ 120.0, 180.0, 32.5, 18.0 ],
					"numinlets" : 2,
					"id" : "obj-5",
					"numoutlets" : 1,
					"fontsize" : 12.0,
					"outlettype" : [ "" ]
				}

			}
, 			{
				"box" : 				{
					"maxclass" : "newobj",
					"text" : "pfft~ pitcher 4096 4",
					"fontname" : "Arial",
					"patching_rect" : [ 30.0, 220.0, 114.0, 20.0 ],
					"numinlets" : 5,
					"id" : "obj-3",
					"numoutlets" : 1,
					"fontsize" : 12.0,
					"outlettype" : [ "signal" ]
				}

			}
, 			{
				"box" : 				{
					"maxclass" : "ezdac~",
					"patching_rect" : [ 90.0, 400.0, 45.0, 45.0 ],
					"numinlets" : 2,
					"id" : "obj-1",
					"numoutlets" : 0
				}

			}
, 			{
				"box" : 				{
					"maxclass" : "newobj",
					"text" : "*~ 1.",
					"hidden" : 1,
					"fontname" : "Monaco",
					"patching_rect" : [ 80.0, 184.0, 40.0, 20.0 ],
					"numinlets" : 2,
					"id" : "obj-32",
					"numoutlets" : 1,
					"fontsize" : 10.0,
					"outlettype" : [ "signal" ]
				}

			}
, 			{
				"box" : 				{
					"maxclass" : "flonum",
					"bgcolor" : [ 0.866667, 0.866667, 0.866667, 1.0 ],
					"fontname" : "Monaco",
					"patching_rect" : [ 185.0, 148.0, 35.0, 20.0 ],
					"numinlets" : 1,
					"htextcolor" : [ 0.870588, 0.870588, 0.870588, 1.0 ],
					"id" : "obj-33",
					"numoutlets" : 2,
					"triscale" : 0.9,
					"fontsize" : 10.0,
					"outlettype" : [ "float", "bang" ]
				}

			}
, 			{
				"box" : 				{
					"maxclass" : "newobj",
					"text" : "* 0.01",
					"hidden" : 1,
					"fontname" : "Monaco",
					"patching_rect" : [ 224.0, 146.0, 46.0, 20.0 ],
					"numinlets" : 2,
					"id" : "obj-34",
					"numoutlets" : 1,
					"fontsize" : 10.0,
					"outlettype" : [ "float" ]
				}

			}
, 			{
				"box" : 				{
					"maxclass" : "comment",
					"text" : "Volume",
					"fontname" : "Arial",
					"patching_rect" : [ 181.0, 100.0, 43.0, 18.0 ],
					"numinlets" : 1,
					"id" : "obj-35",
					"numoutlets" : 0,
					"fontsize" : 10.0
				}

			}
, 			{
				"box" : 				{
					"maxclass" : "dial",
					"bgcolor" : [ 0.866667, 0.866667, 0.866667, 1.0 ],
					"outlinecolor" : [ 0.882353, 0.882353, 0.882353, 1.0 ],
					"patching_rect" : [ 186.0, 113.0, 32.0, 32.0 ],
					"numinlets" : 1,
					"fgcolor" : [ 0.666667, 0.666667, 0.666667, 1.0 ],
					"id" : "obj-36",
					"numoutlets" : 1,
					"needlecolor" : [ 0.0, 0.0, 0.0, 1.0 ],
					"outlettype" : [ "float" ],
					"size" : 161
				}

			}
, 			{
				"box" : 				{
					"maxclass" : "newobj",
					"text" : "+ 1",
					"hidden" : 1,
					"fontname" : "Monaco",
					"patching_rect" : [ 38.0, 214.0, 27.0, 20.0 ],
					"numinlets" : 2,
					"id" : "obj-292",
					"numoutlets" : 1,
					"fontsize" : 10.0,
					"outlettype" : [ "int" ]
				}

			}
, 			{
				"box" : 				{
					"maxclass" : "number",
					"bgcolor" : [ 0.866667, 0.866667, 0.866667, 1.0 ],
					"hidden" : 1,
					"fontname" : "Monaco",
					"patching_rect" : [ 38.0, 194.0, 21.400976, 20.0 ],
					"numinlets" : 1,
					"htextcolor" : [ 0.870588, 0.870588, 0.870588, 1.0 ],
					"id" : "obj-293",
					"numoutlets" : 2,
					"triscale" : 0.9,
					"fontsize" : 10.0,
					"outlettype" : [ "int", "bang" ]
				}

			}
, 			{
				"box" : 				{
					"maxclass" : "toggle",
					"patching_rect" : [ 60.0, 276.0, 18.0, 18.0 ],
					"numinlets" : 1,
					"id" : "obj-294",
					"numoutlets" : 1,
					"outlettype" : [ "int" ]
				}

			}
, 			{
				"box" : 				{
					"maxclass" : "newobj",
					"text" : "gate~ 2",
					"hidden" : 1,
					"fontname" : "Monaco",
					"patching_rect" : [ 38.0, 247.0, 52.0, 20.0 ],
					"numinlets" : 2,
					"id" : "obj-295",
					"numoutlets" : 2,
					"fontsize" : 10.0,
					"outlettype" : [ "signal", "signal" ]
				}

			}
, 			{
				"box" : 				{
					"maxclass" : "comment",
					"text" : "Tone",
					"fontname" : "Arial",
					"patching_rect" : [ 168.0, 260.0, 29.0, 17.0 ],
					"numinlets" : 1,
					"id" : "obj-296",
					"numoutlets" : 0,
					"fontsize" : 9.0
				}

			}
, 			{
				"box" : 				{
					"maxclass" : "comment",
					"text" : "Filter",
					"fontname" : "Arial",
					"patching_rect" : [ 129.0, 260.0, 28.0, 17.0 ],
					"numinlets" : 1,
					"id" : "obj-297",
					"numoutlets" : 0,
					"fontsize" : 9.0
				}

			}
, 			{
				"box" : 				{
					"maxclass" : "flonum",
					"bgcolor" : [ 0.866667, 0.866667, 0.866667, 1.0 ],
					"fontname" : "Monaco",
					"patching_rect" : [ 164.0, 300.0, 39.0, 20.0 ],
					"numinlets" : 1,
					"htextcolor" : [ 0.870588, 0.870588, 0.870588, 1.0 ],
					"id" : "obj-298",
					"numoutlets" : 2,
					"triscale" : 0.9,
					"fontsize" : 10.0,
					"outlettype" : [ "float", "bang" ]
				}

			}
, 			{
				"box" : 				{
					"maxclass" : "newobj",
					"text" : "* 0.01",
					"hidden" : 1,
					"fontname" : "Monaco",
					"patching_rect" : [ 202.0, 300.0, 46.0, 20.0 ],
					"numinlets" : 2,
					"id" : "obj-299",
					"numoutlets" : 1,
					"fontsize" : 10.0,
					"outlettype" : [ "float" ]
				}

			}
, 			{
				"box" : 				{
					"maxclass" : "dial",
					"bgcolor" : [ 0.866667, 0.866667, 0.866667, 1.0 ],
					"outlinecolor" : [ 0.882353, 0.882353, 0.882353, 1.0 ],
					"patching_rect" : [ 170.0, 272.0, 23.0, 23.0 ],
					"numinlets" : 1,
					"fgcolor" : [ 0.666667, 0.666667, 0.666667, 1.0 ],
					"id" : "obj-300",
					"numoutlets" : 1,
					"needlecolor" : [ 0.0, 0.0, 0.0, 1.0 ],
					"outlettype" : [ "float" ],
					"size" : 100
				}

			}
, 			{
				"box" : 				{
					"maxclass" : "number",
					"bgcolor" : [ 0.866667, 0.866667, 0.866667, 1.0 ],
					"fontname" : "Monaco",
					"patching_rect" : [ 120.0, 300.0, 42.0, 20.0 ],
					"numinlets" : 1,
					"htextcolor" : [ 0.870588, 0.870588, 0.870588, 1.0 ],
					"id" : "obj-301",
					"numoutlets" : 2,
					"triscale" : 0.9,
					"fontsize" : 10.0,
					"outlettype" : [ "int", "bang" ]
				}

			}
, 			{
				"box" : 				{
					"maxclass" : "dial",
					"bgcolor" : [ 0.866667, 0.866667, 0.866667, 1.0 ],
					"outlinecolor" : [ 0.882353, 0.882353, 0.882353, 1.0 ],
					"min" : 20,
					"patching_rect" : [ 131.0, 272.0, 23.0, 23.0 ],
					"numinlets" : 1,
					"fgcolor" : [ 0.666667, 0.666667, 0.666667, 1.0 ],
					"id" : "obj-302",
					"numoutlets" : 1,
					"needlecolor" : [ 0.0, 0.0, 0.0, 1.0 ],
					"outlettype" : [ "float" ],
					"size" : 5981
				}

			}
, 			{
				"box" : 				{
					"maxclass" : "comment",
					"text" : "Panning",
					"fontname" : "Arial",
					"patching_rect" : [ 149.0, 322.0, 45.0, 18.0 ],
					"numinlets" : 1,
					"id" : "obj-303",
					"numoutlets" : 0,
					"fontsize" : 10.0
				}

			}
, 			{
				"box" : 				{
					"maxclass" : "comment",
					"text" : "Pitch-Shift",
					"fontname" : "Arial",
					"patching_rect" : [ 145.0, 185.0, 54.0, 18.0 ],
					"numinlets" : 1,
					"id" : "obj-304",
					"numoutlets" : 0,
					"fontsize" : 10.0
				}

			}
, 			{
				"box" : 				{
					"maxclass" : "newobj",
					"text" : "lores~",
					"fontname" : "Monaco",
					"patching_rect" : [ 80.0, 276.0, 46.0, 20.0 ],
					"numinlets" : 3,
					"id" : "obj-305",
					"numoutlets" : 1,
					"fontsize" : 10.0,
					"outlettype" : [ "signal" ]
				}

			}
, 			{
				"box" : 				{
					"maxclass" : "message",
					"text" : "64",
					"hidden" : 1,
					"fontname" : "Monaco",
					"patching_rect" : [ 207.0, 370.0, 21.0, 18.0 ],
					"numinlets" : 2,
					"id" : "obj-306",
					"numoutlets" : 1,
					"fontsize" : 10.0,
					"outlettype" : [ "" ]
				}

			}
, 			{
				"box" : 				{
					"maxclass" : "button",
					"patching_rect" : [ 191.0, 370.0, 15.0, 15.0 ],
					"numinlets" : 1,
					"id" : "obj-307",
					"numoutlets" : 1,
					"outlettype" : [ "bang" ]
				}

			}
, 			{
				"box" : 				{
					"maxclass" : "comment",
					"text" : "Reset",
					"fontname" : "Arial",
					"patching_rect" : [ 185.0, 357.0, 32.0, 17.0 ],
					"numinlets" : 1,
					"id" : "obj-308",
					"numoutlets" : 0,
					"fontsize" : 9.0
				}

			}
, 			{
				"box" : 				{
					"maxclass" : "message",
					"text" : "24",
					"hidden" : 1,
					"fontname" : "Monaco",
					"patching_rect" : [ 207.0, 233.0, 32.5, 18.0 ],
					"numinlets" : 2,
					"id" : "obj-309",
					"numoutlets" : 1,
					"fontsize" : 10.0,
					"outlettype" : [ "" ]
				}

			}
, 			{
				"box" : 				{
					"maxclass" : "button",
					"patching_rect" : [ 191.0, 233.0, 15.0, 15.0 ],
					"numinlets" : 1,
					"id" : "obj-310",
					"numoutlets" : 1,
					"outlettype" : [ "bang" ]
				}

			}
, 			{
				"box" : 				{
					"maxclass" : "number",
					"bgcolor" : [ 0.866667, 0.866667, 0.866667, 1.0 ],
					"fontname" : "Monaco",
					"patching_rect" : [ 152.0, 233.0, 39.0, 20.0 ],
					"numinlets" : 1,
					"htextcolor" : [ 0.870588, 0.870588, 0.870588, 1.0 ],
					"id" : "obj-311",
					"numoutlets" : 2,
					"triscale" : 0.9,
					"fontsize" : 10.0,
					"outlettype" : [ "int", "bang" ]
				}

			}
, 			{
				"box" : 				{
					"maxclass" : "dial",
					"bgcolor" : [ 0.866667, 0.866667, 0.866667, 1.0 ],
					"outlinecolor" : [ 0.882353, 0.882353, 0.882353, 1.0 ],
					"min" : -24,
					"patching_rect" : [ 155.0, 198.0, 32.0, 32.0 ],
					"numinlets" : 1,
					"fgcolor" : [ 0.666667, 0.666667, 0.666667, 1.0 ],
					"id" : "obj-312",
					"numoutlets" : 1,
					"needlecolor" : [ 0.0, 0.0, 0.0, 1.0 ],
					"outlettype" : [ "float" ],
					"size" : 49
				}

			}
, 			{
				"box" : 				{
					"maxclass" : "number",
					"bgcolor" : [ 0.866667, 0.866667, 0.866667, 1.0 ],
					"fontname" : "Monaco",
					"patching_rect" : [ 155.0, 370.0, 34.0, 20.0 ],
					"numinlets" : 1,
					"htextcolor" : [ 0.870588, 0.870588, 0.870588, 1.0 ],
					"id" : "obj-313",
					"numoutlets" : 2,
					"triscale" : 0.9,
					"fontsize" : 10.0,
					"outlettype" : [ "int", "bang" ]
				}

			}
, 			{
				"box" : 				{
					"maxclass" : "dial",
					"bgcolor" : [ 0.866667, 0.866667, 0.866667, 1.0 ],
					"outlinecolor" : [ 0.882353, 0.882353, 0.882353, 1.0 ],
					"min" : -64,
					"patching_rect" : [ 155.0, 335.0, 32.0, 32.0 ],
					"numinlets" : 1,
					"fgcolor" : [ 0.666667, 0.666667, 0.666667, 1.0 ],
					"id" : "obj-315",
					"numoutlets" : 1,
					"needlecolor" : [ 0.0, 0.0, 0.0, 1.0 ],
					"outlettype" : [ "float" ]
				}

			}
, 			{
				"box" : 				{
					"maxclass" : "newobj",
					"text" : "p stereo pan",
					"fontname" : "Arial",
					"patching_rect" : [ 80.0, 342.0, 65.0, 17.0 ],
					"numinlets" : 2,
					"id" : "obj-316",
					"numoutlets" : 2,
					"fontsize" : 9.0,
					"outlettype" : [ "signal", "signal" ],
					"patcher" : 					{
						"fileversion" : 1,
						"rect" : [ 651.0, 166.0, 132.0, 222.0 ],
						"bglocked" : 0,
						"defrect" : [ 651.0, 166.0, 132.0, 222.0 ],
						"openrect" : [ 0.0, 0.0, 0.0, 0.0 ],
						"openinpresentation" : 0,
						"default_fontsize" : 12.0,
						"default_fontface" : 0,
						"default_fontname" : "Arial",
						"gridonopen" : 0,
						"gridsize" : [ 10.0, 10.0 ],
						"gridsnaponopen" : 0,
						"toolbarvisible" : 1,
						"boxanimatetime" : 200,
						"imprint" : 0,
						"metadata" : [  ],
						"boxes" : [ 							{
								"box" : 								{
									"maxclass" : "newobj",
									"text" : "+ 64",
									"fontname" : "Monaco",
									"patching_rect" : [ 74.0, 38.0, 34.0, 20.0 ],
									"numinlets" : 2,
									"id" : "obj-1",
									"numoutlets" : 1,
									"fontsize" : 10.0,
									"outlettype" : [ "int" ]
								}

							}
, 							{
								"box" : 								{
									"maxclass" : "inlet",
									"patching_rect" : [ 15.0, 17.0, 15.0, 15.0 ],
									"numinlets" : 0,
									"id" : "obj-2",
									"numoutlets" : 1,
									"outlettype" : [ "signal" ],
									"comment" : ""
								}

							}
, 							{
								"box" : 								{
									"maxclass" : "outlet",
									"patching_rect" : [ 74.0, 156.0, 15.0, 15.0 ],
									"numinlets" : 1,
									"id" : "obj-3",
									"numoutlets" : 0,
									"comment" : ""
								}

							}
, 							{
								"box" : 								{
									"maxclass" : "outlet",
									"patching_rect" : [ 15.0, 157.0, 15.0, 15.0 ],
									"numinlets" : 1,
									"id" : "obj-4",
									"numoutlets" : 0,
									"comment" : ""
								}

							}
, 							{
								"box" : 								{
									"maxclass" : "newobj",
									"text" : "*~",
									"fontname" : "Arial",
									"patching_rect" : [ 74.0, 120.0, 27.0, 17.0 ],
									"numinlets" : 2,
									"id" : "obj-5",
									"numoutlets" : 1,
									"fontsize" : 9.0,
									"outlettype" : [ "signal" ]
								}

							}
, 							{
								"box" : 								{
									"maxclass" : "newobj",
									"text" : "*~",
									"fontname" : "Arial",
									"patching_rect" : [ 15.0, 120.0, 27.0, 17.0 ],
									"numinlets" : 2,
									"id" : "obj-6",
									"numoutlets" : 1,
									"fontsize" : 9.0,
									"outlettype" : [ "signal" ]
								}

							}
, 							{
								"box" : 								{
									"maxclass" : "newobj",
									"text" : "!- 1.",
									"fontname" : "Arial",
									"patching_rect" : [ 32.0, 92.0, 28.0, 17.0 ],
									"numinlets" : 2,
									"id" : "obj-7",
									"numoutlets" : 1,
									"fontsize" : 9.0,
									"outlettype" : [ "float" ]
								}

							}
, 							{
								"box" : 								{
									"maxclass" : "newobj",
									"text" : "/ 127.",
									"fontname" : "Arial",
									"patching_rect" : [ 74.0, 63.0, 38.0, 17.0 ],
									"numinlets" : 2,
									"id" : "obj-8",
									"numoutlets" : 1,
									"fontsize" : 9.0,
									"outlettype" : [ "float" ]
								}

							}
, 							{
								"box" : 								{
									"maxclass" : "inlet",
									"patching_rect" : [ 74.0, 17.0, 15.0, 15.0 ],
									"numinlets" : 0,
									"id" : "obj-9",
									"numoutlets" : 1,
									"outlettype" : [ "float" ],
									"comment" : ""
								}

							}
 ],
						"lines" : [ 							{
								"patchline" : 								{
									"source" : [ "obj-5", 0 ],
									"destination" : [ "obj-3", 0 ],
									"hidden" : 0,
									"midpoints" : [  ]
								}

							}
, 							{
								"patchline" : 								{
									"source" : [ "obj-8", 0 ],
									"destination" : [ "obj-5", 0 ],
									"hidden" : 0,
									"midpoints" : [  ]
								}

							}
, 							{
								"patchline" : 								{
									"source" : [ "obj-2", 0 ],
									"destination" : [ "obj-5", 0 ],
									"hidden" : 0,
									"midpoints" : [ 24.0, 114.0, 83.5, 114.0 ]
								}

							}
, 							{
								"patchline" : 								{
									"source" : [ "obj-1", 0 ],
									"destination" : [ "obj-8", 0 ],
									"hidden" : 0,
									"midpoints" : [  ]
								}

							}
, 							{
								"patchline" : 								{
									"source" : [ "obj-9", 0 ],
									"destination" : [ "obj-1", 0 ],
									"hidden" : 0,
									"midpoints" : [  ]
								}

							}
, 							{
								"patchline" : 								{
									"source" : [ "obj-7", 0 ],
									"destination" : [ "obj-6", 1 ],
									"hidden" : 0,
									"midpoints" : [  ]
								}

							}
, 							{
								"patchline" : 								{
									"source" : [ "obj-8", 0 ],
									"destination" : [ "obj-7", 0 ],
									"hidden" : 0,
									"midpoints" : [ 83.5, 90.0, 41.5, 90.0 ]
								}

							}
, 							{
								"patchline" : 								{
									"source" : [ "obj-6", 0 ],
									"destination" : [ "obj-4", 0 ],
									"hidden" : 0,
									"midpoints" : [  ]
								}

							}
, 							{
								"patchline" : 								{
									"source" : [ "obj-2", 0 ],
									"destination" : [ "obj-6", 0 ],
									"hidden" : 0,
									"midpoints" : [  ]
								}

							}
 ]
					}
,
					"saved_object_attributes" : 					{
						"default_fontface" : 0,
						"fontname" : "Arial",
						"default_fontname" : "Arial",
						"default_fontsize" : 12.0,
						"fontface" : 0,
						"fontsize" : 12.0,
						"globalpatchername" : ""
					}

				}

			}
, 			{
				"box" : 				{
					"maxclass" : "button",
					"patching_rect" : [ 147.0, 67.0, 27.0, 27.0 ],
					"numinlets" : 1,
					"id" : "obj-317",
					"numoutlets" : 1,
					"outlettype" : [ "bang" ]
				}

			}
, 			{
				"box" : 				{
					"maxclass" : "message",
					"text" : "1",
					"fontname" : "Monaco",
					"patching_rect" : [ 147.0, 132.0, 19.0, 18.0 ],
					"numinlets" : 2,
					"id" : "obj-318",
					"numoutlets" : 1,
					"fontsize" : 10.0,
					"outlettype" : [ "" ]
				}

			}
, 			{
				"box" : 				{
					"maxclass" : "toggle",
					"patching_rect" : [ 147.0, 153.0, 19.0, 19.0 ],
					"numinlets" : 1,
					"id" : "obj-319",
					"numoutlets" : 1,
					"outlettype" : [ "int" ]
				}

			}
, 			{
				"box" : 				{
					"maxclass" : "flonum",
					"bgcolor" : [ 0.866667, 0.866667, 0.866667, 1.0 ],
					"fontname" : "Monaco",
					"patching_rect" : [ 88.0, 132.0, 57.0, 20.0 ],
					"numinlets" : 1,
					"htextcolor" : [ 0.870588, 0.870588, 0.870588, 1.0 ],
					"id" : "obj-321",
					"numoutlets" : 2,
					"triscale" : 0.9,
					"fontsize" : 10.0,
					"outlettype" : [ "float", "bang" ]
				}

			}
, 			{
				"box" : 				{
					"maxclass" : "textedit",
					"text" : "Rim.wav",
					"fontname" : "Courier New Bold",
					"patching_rect" : [ 95.0, 111.0, 89.0, 16.0 ],
					"numinlets" : 1,
					"wordwrap" : 0,
					"id" : "obj-322",
					"numoutlets" : 3,
					"fontsize" : 10.0,
					"outlettype" : [ "", "int", "" ]
				}

			}
, 			{
				"box" : 				{
					"maxclass" : "newobj",
					"text" : "sfplay~ 1",
					"fontname" : "Monaco",
					"patching_rect" : [ 80.0, 153.0, 64.0, 20.0 ],
					"numinlets" : 2,
					"id" : "obj-324",
					"numoutlets" : 2,
					"fontsize" : 10.0,
					"outlettype" : [ "signal", "bang" ],
					"save" : [ "#N", "sfplay~", "", 1, 120960, 0, "bass", ";" ]
				}

			}
, 			{
				"box" : 				{
					"maxclass" : "button",
					"patching_rect" : [ 80.0, 48.0, 24.0, 24.0 ],
					"numinlets" : 1,
					"id" : "obj-325",
					"numoutlets" : 1,
					"outlettype" : [ "bang" ]
				}

			}
, 			{
				"box" : 				{
					"maxclass" : "newobj",
					"text" : "p bass",
					"fontname" : "Monaco",
					"patching_rect" : [ 80.0, 80.0, 46.0, 20.0 ],
					"numinlets" : 1,
					"id" : "obj-326",
					"numoutlets" : 3,
					"fontsize" : 10.0,
					"outlettype" : [ "", "float", "" ],
					"patcher" : 					{
						"fileversion" : 1,
						"rect" : [ 469.0, 316.0, 324.0, 370.0 ],
						"bglocked" : 0,
						"defrect" : [ 469.0, 316.0, 324.0, 370.0 ],
						"openrect" : [ 0.0, 0.0, 0.0, 0.0 ],
						"openinpresentation" : 0,
						"default_fontsize" : 12.0,
						"default_fontface" : 0,
						"default_fontname" : "Arial",
						"gridonopen" : 0,
						"gridsize" : [ 10.0, 10.0 ],
						"gridsnaponopen" : 0,
						"toolbarvisible" : 1,
						"boxanimatetime" : 200,
						"imprint" : 0,
						"metadata" : [  ],
						"boxes" : [ 							{
								"box" : 								{
									"maxclass" : "newobj",
									"text" : "deferlow",
									"fontname" : "Monaco",
									"patching_rect" : [ 107.0, 112.0, 58.0, 20.0 ],
									"numinlets" : 1,
									"id" : "obj-1",
									"numoutlets" : 1,
									"fontsize" : 10.0,
									"outlettype" : [ "" ]
								}

							}
, 							{
								"box" : 								{
									"maxclass" : "button",
									"patching_rect" : [ 20.0, 132.0, 15.0, 15.0 ],
									"numinlets" : 1,
									"id" : "obj-2",
									"numoutlets" : 1,
									"outlettype" : [ "bang" ]
								}

							}
, 							{
								"box" : 								{
									"maxclass" : "newobj",
									"text" : "prepend set open",
									"fontname" : "Monaco",
									"patching_rect" : [ 107.0, 85.0, 106.0, 20.0 ],
									"numinlets" : 1,
									"id" : "obj-3",
									"numoutlets" : 1,
									"fontsize" : 10.0,
									"outlettype" : [ "" ]
								}

							}
, 							{
								"box" : 								{
									"maxclass" : "outlet",
									"patching_rect" : [ 94.0, 303.0, 15.0, 15.0 ],
									"numinlets" : 1,
									"id" : "obj-4",
									"numoutlets" : 0,
									"comment" : ""
								}

							}
, 							{
								"box" : 								{
									"maxclass" : "outlet",
									"patching_rect" : [ 131.0, 303.0, 15.0, 15.0 ],
									"numinlets" : 1,
									"id" : "obj-5",
									"numoutlets" : 0,
									"comment" : ""
								}

							}
, 							{
								"box" : 								{
									"maxclass" : "newobj",
									"text" : "prepend set",
									"fontname" : "Monaco",
									"patching_rect" : [ 131.0, 275.0, 76.0, 20.0 ],
									"numinlets" : 1,
									"id" : "obj-6",
									"numoutlets" : 1,
									"fontsize" : 10.0,
									"outlettype" : [ "" ]
								}

							}
, 							{
								"box" : 								{
									"maxclass" : "newobj",
									"text" : "sfinfo~",
									"fontname" : "Monaco",
									"patching_rect" : [ 66.0, 251.0, 79.0, 20.0 ],
									"numinlets" : 1,
									"id" : "obj-7",
									"numoutlets" : 6,
									"fontsize" : 10.0,
									"outlettype" : [ "int", "int", "float", "float", "", "" ]
								}

							}
, 							{
								"box" : 								{
									"maxclass" : "message",
									"text" : "getnamed bass",
									"fontname" : "Monaco",
									"patching_rect" : [ 66.0, 230.0, 88.0, 18.0 ],
									"numinlets" : 2,
									"id" : "obj-8",
									"numoutlets" : 1,
									"fontsize" : 10.0,
									"outlettype" : [ "" ]
								}

							}
, 							{
								"box" : 								{
									"maxclass" : "outlet",
									"patching_rect" : [ 20.0, 230.0, 15.0, 15.0 ],
									"numinlets" : 1,
									"id" : "obj-9",
									"numoutlets" : 0,
									"comment" : ""
								}

							}
, 							{
								"box" : 								{
									"maxclass" : "message",
									"text" : "open \"Macintosh HD:/Applications/Reason/Drum Machine Samples/Alesis HR-16/Rim.wav\"",
									"linecount" : 2,
									"fontname" : "Monaco",
									"patching_rect" : [ 20.0, 190.0, 285.0, 31.0 ],
									"numinlets" : 2,
									"id" : "obj-10",
									"numoutlets" : 1,
									"fontsize" : 10.0,
									"outlettype" : [ "" ]
								}

							}
, 							{
								"box" : 								{
									"maxclass" : "newobj",
									"text" : "b",
									"fontname" : "Monaco",
									"patching_rect" : [ 20.0, 150.0, 27.0, 20.0 ],
									"numinlets" : 1,
									"id" : "obj-11",
									"numoutlets" : 2,
									"fontsize" : 10.0,
									"outlettype" : [ "bang", "bang" ]
								}

							}
, 							{
								"box" : 								{
									"maxclass" : "newobj",
									"text" : "opendialog",
									"fontname" : "Monaco",
									"patching_rect" : [ 20.0, 46.0, 70.0, 20.0 ],
									"numinlets" : 1,
									"id" : "obj-12",
									"numoutlets" : 2,
									"fontsize" : 10.0,
									"outlettype" : [ "", "bang" ]
								}

							}
, 							{
								"box" : 								{
									"maxclass" : "inlet",
									"patching_rect" : [ 20.0, 21.0, 15.0, 15.0 ],
									"numinlets" : 0,
									"id" : "obj-13",
									"numoutlets" : 1,
									"outlettype" : [ "bang" ],
									"comment" : ""
								}

							}
 ],
						"lines" : [ 							{
								"patchline" : 								{
									"source" : [ "obj-6", 0 ],
									"destination" : [ "obj-5", 0 ],
									"hidden" : 0,
									"midpoints" : [  ]
								}

							}
, 							{
								"patchline" : 								{
									"source" : [ "obj-7", 5 ],
									"destination" : [ "obj-6", 0 ],
									"hidden" : 0,
									"midpoints" : [  ]
								}

							}
, 							{
								"patchline" : 								{
									"source" : [ "obj-3", 0 ],
									"destination" : [ "obj-1", 0 ],
									"hidden" : 0,
									"midpoints" : [  ]
								}

							}
, 							{
								"patchline" : 								{
									"source" : [ "obj-12", 0 ],
									"destination" : [ "obj-3", 0 ],
									"hidden" : 0,
									"midpoints" : [  ]
								}

							}
, 							{
								"patchline" : 								{
									"source" : [ "obj-7", 3 ],
									"destination" : [ "obj-4", 0 ],
									"hidden" : 0,
									"midpoints" : [  ]
								}

							}
, 							{
								"patchline" : 								{
									"source" : [ "obj-8", 0 ],
									"destination" : [ "obj-7", 0 ],
									"hidden" : 0,
									"midpoints" : [  ]
								}

							}
, 							{
								"patchline" : 								{
									"source" : [ "obj-11", 0 ],
									"destination" : [ "obj-8", 0 ],
									"hidden" : 0,
									"midpoints" : [  ]
								}

							}
, 							{
								"patchline" : 								{
									"source" : [ "obj-10", 0 ],
									"destination" : [ "obj-9", 0 ],
									"hidden" : 0,
									"midpoints" : [  ]
								}

							}
, 							{
								"patchline" : 								{
									"source" : [ "obj-11", 1 ],
									"destination" : [ "obj-10", 0 ],
									"hidden" : 0,
									"midpoints" : [  ]
								}

							}
, 							{
								"patchline" : 								{
									"source" : [ "obj-3", 0 ],
									"destination" : [ "obj-10", 0 ],
									"hidden" : 0,
									"midpoints" : [  ]
								}

							}
, 							{
								"patchline" : 								{
									"source" : [ "obj-2", 0 ],
									"destination" : [ "obj-11", 0 ],
									"hidden" : 0,
									"midpoints" : [  ]
								}

							}
, 							{
								"patchline" : 								{
									"source" : [ "obj-1", 0 ],
									"destination" : [ "obj-2", 0 ],
									"hidden" : 0,
									"midpoints" : [  ]
								}

							}
, 							{
								"patchline" : 								{
									"source" : [ "obj-13", 0 ],
									"destination" : [ "obj-12", 0 ],
									"hidden" : 0,
									"midpoints" : [  ]
								}

							}
 ]
					}
,
					"saved_object_attributes" : 					{
						"default_fontface" : 0,
						"fontname" : "Arial",
						"default_fontname" : "Arial",
						"default_fontsize" : 12.0,
						"fontface" : 0,
						"fontsize" : 12.0,
						"globalpatchername" : ""
					}

				}

			}
, 			{
				"box" : 				{
					"maxclass" : "comment",
					"text" : "Reset",
					"fontname" : "Arial",
					"patching_rect" : [ 185.0, 220.0, 32.0, 17.0 ],
					"numinlets" : 1,
					"id" : "obj-327",
					"numoutlets" : 0,
					"fontsize" : 9.0
				}

			}
, 			{
				"box" : 				{
					"maxclass" : "message",
					"text" : "name bass",
					"hidden" : 1,
					"fontname" : "Monaco",
					"patching_rect" : [ 80.0, 132.0, 64.0, 18.0 ],
					"numinlets" : 2,
					"id" : "obj-328",
					"numoutlets" : 1,
					"fontsize" : 10.0,
					"outlettype" : [ "" ]
				}

			}
 ],
		"lines" : [ 			{
				"patchline" : 				{
					"source" : [ "obj-307", 0 ],
					"destination" : [ "obj-306", 0 ],
					"hidden" : 1,
					"midpoints" : [  ]
				}

			}
, 			{
				"patchline" : 				{
					"source" : [ "obj-310", 0 ],
					"destination" : [ "obj-309", 0 ],
					"hidden" : 1,
					"midpoints" : [  ]
				}

			}
, 			{
				"patchline" : 				{
					"source" : [ "obj-300", 0 ],
					"destination" : [ "obj-299", 0 ],
					"hidden" : 1,
					"midpoints" : [  ]
				}

			}
, 			{
				"patchline" : 				{
					"source" : [ "obj-299", 0 ],
					"destination" : [ "obj-298", 0 ],
					"hidden" : 1,
					"midpoints" : [  ]
				}

			}
, 			{
				"patchline" : 				{
					"source" : [ "obj-315", 0 ],
					"destination" : [ "obj-313", 0 ],
					"hidden" : 1,
					"midpoints" : [  ]
				}

			}
, 			{
				"patchline" : 				{
					"source" : [ "obj-306", 0 ],
					"destination" : [ "obj-315", 0 ],
					"hidden" : 1,
					"midpoints" : [  ]
				}

			}
, 			{
				"patchline" : 				{
					"source" : [ "obj-309", 0 ],
					"destination" : [ "obj-312", 0 ],
					"hidden" : 1,
					"midpoints" : [  ]
				}

			}
, 			{
				"patchline" : 				{
					"source" : [ "obj-312", 0 ],
					"destination" : [ "obj-311", 0 ],
					"hidden" : 1,
					"midpoints" : [  ]
				}

			}
, 			{
				"patchline" : 				{
					"source" : [ "obj-318", 0 ],
					"destination" : [ "obj-319", 0 ],
					"hidden" : 0,
					"midpoints" : [  ]
				}

			}
, 			{
				"patchline" : 				{
					"source" : [ "obj-317", 0 ],
					"destination" : [ "obj-318", 0 ],
					"hidden" : 0,
					"midpoints" : [ 156.5, 110.0, 154.5, 110.0 ]
				}

			}
, 			{
				"patchline" : 				{
					"source" : [ "obj-315", 0 ],
					"destination" : [ "obj-316", 1 ],
					"hidden" : 0,
					"midpoints" : [ 150.0, 367.0, 150.0, 337.0, 135.5, 337.0 ]
				}

			}
, 			{
				"patchline" : 				{
					"source" : [ "obj-36", 0 ],
					"destination" : [ "obj-34", 0 ],
					"hidden" : 1,
					"midpoints" : [  ]
				}

			}
, 			{
				"patchline" : 				{
					"source" : [ "obj-302", 0 ],
					"destination" : [ "obj-301", 0 ],
					"hidden" : 1,
					"midpoints" : [  ]
				}

			}
, 			{
				"patchline" : 				{
					"source" : [ "obj-298", 0 ],
					"destination" : [ "obj-305", 2 ],
					"hidden" : 1,
					"midpoints" : [  ]
				}

			}
, 			{
				"patchline" : 				{
					"source" : [ "obj-33", 0 ],
					"destination" : [ "obj-32", 1 ],
					"hidden" : 1,
					"midpoints" : [  ]
				}

			}
, 			{
				"patchline" : 				{
					"source" : [ "obj-302", 0 ],
					"destination" : [ "obj-305", 1 ],
					"hidden" : 1,
					"midpoints" : [  ]
				}

			}
, 			{
				"patchline" : 				{
					"source" : [ "obj-326", 2 ],
					"destination" : [ "obj-322", 0 ],
					"hidden" : 0,
					"midpoints" : [ 116.5, 105.0, 104.5, 105.0 ]
				}

			}
, 			{
				"patchline" : 				{
					"source" : [ "obj-34", 0 ],
					"destination" : [ "obj-33", 0 ],
					"hidden" : 1,
					"midpoints" : [  ]
				}

			}
, 			{
				"patchline" : 				{
					"source" : [ "obj-326", 1 ],
					"destination" : [ "obj-321", 0 ],
					"hidden" : 0,
					"midpoints" : [ 103.0, 105.0, 97.5, 105.0 ]
				}

			}
, 			{
				"patchline" : 				{
					"source" : [ "obj-305", 0 ],
					"destination" : [ "obj-316", 0 ],
					"hidden" : 0,
					"midpoints" : [  ]
				}

			}
, 			{
				"patchline" : 				{
					"source" : [ "obj-295", 0 ],
					"destination" : [ "obj-316", 0 ],
					"hidden" : 1,
					"midpoints" : [ 47.5, 301.0, 89.5, 301.0 ]
				}

			}
, 			{
				"patchline" : 				{
					"source" : [ "obj-295", 1 ],
					"destination" : [ "obj-305", 0 ],
					"hidden" : 0,
					"midpoints" : [  ]
				}

			}
, 			{
				"patchline" : 				{
					"source" : [ "obj-324", 0 ],
					"destination" : [ "obj-32", 0 ],
					"hidden" : 0,
					"midpoints" : [  ]
				}

			}
, 			{
				"patchline" : 				{
					"source" : [ "obj-319", 0 ],
					"destination" : [ "obj-324", 0 ],
					"hidden" : 1,
					"midpoints" : [  ]
				}

			}
, 			{
				"patchline" : 				{
					"source" : [ "obj-328", 0 ],
					"destination" : [ "obj-324", 0 ],
					"hidden" : 1,
					"midpoints" : [  ]
				}

			}
, 			{
				"patchline" : 				{
					"source" : [ "obj-326", 0 ],
					"destination" : [ "obj-324", 0 ],
					"hidden" : 0,
					"midpoints" : [  ]
				}

			}
, 			{
				"patchline" : 				{
					"source" : [ "obj-325", 0 ],
					"destination" : [ "obj-326", 0 ],
					"hidden" : 0,
					"midpoints" : [  ]
				}

			}
, 			{
				"patchline" : 				{
					"source" : [ "obj-292", 0 ],
					"destination" : [ "obj-295", 0 ],
					"hidden" : 1,
					"midpoints" : [  ]
				}

			}
, 			{
				"patchline" : 				{
					"source" : [ "obj-293", 0 ],
					"destination" : [ "obj-292", 0 ],
					"hidden" : 1,
					"midpoints" : [  ]
				}

			}
, 			{
				"patchline" : 				{
					"source" : [ "obj-294", 0 ],
					"destination" : [ "obj-293", 0 ],
					"hidden" : 1,
					"midpoints" : [  ]
				}

			}
, 			{
				"patchline" : 				{
					"source" : [ "obj-316", 0 ],
					"destination" : [ "obj-1", 0 ],
					"hidden" : 0,
					"midpoints" : [  ]
				}

			}
, 			{
				"patchline" : 				{
					"source" : [ "obj-316", 1 ],
					"destination" : [ "obj-1", 1 ],
					"hidden" : 0,
					"midpoints" : [  ]
				}

			}
, 			{
				"patchline" : 				{
					"source" : [ "obj-32", 0 ],
					"destination" : [ "obj-3", 0 ],
					"hidden" : 0,
					"midpoints" : [  ]
				}

			}
, 			{
				"patchline" : 				{
					"source" : [ "obj-3", 0 ],
					"destination" : [ "obj-295", 1 ],
					"hidden" : 0,
					"midpoints" : [  ]
				}

			}
, 			{
				"patchline" : 				{
					"source" : [ "obj-5", 0 ],
					"destination" : [ "obj-3", 4 ],
					"hidden" : 1,
					"midpoints" : [  ]
				}

			}
, 			{
				"patchline" : 				{
					"source" : [ "obj-311", 0 ],
					"destination" : [ "obj-3", 1 ],
					"hidden" : 1,
					"midpoints" : [  ]
				}

			}
, 			{
				"patchline" : 				{
					"source" : [ "obj-8", 0 ],
					"destination" : [ "obj-5", 0 ],
					"hidden" : 1,
					"midpoints" : [  ]
				}

			}
, 			{
				"patchline" : 				{
					"source" : [ "obj-8", 0 ],
					"destination" : [ "obj-10", 0 ],
					"hidden" : 1,
					"midpoints" : [  ]
				}

			}
, 			{
				"patchline" : 				{
					"source" : [ "obj-10", 0 ],
					"destination" : [ "obj-294", 0 ],
					"hidden" : 1,
					"midpoints" : [  ]
				}

			}
, 			{
				"patchline" : 				{
					"source" : [ "obj-8", 0 ],
					"destination" : [ "obj-306", 0 ],
					"hidden" : 1,
					"midpoints" : [  ]
				}

			}
, 			{
				"patchline" : 				{
					"source" : [ "obj-8", 0 ],
					"destination" : [ "obj-11", 0 ],
					"hidden" : 1,
					"midpoints" : [  ]
				}

			}
, 			{
				"patchline" : 				{
					"source" : [ "obj-11", 0 ],
					"destination" : [ "obj-36", 0 ],
					"hidden" : 1,
					"midpoints" : [  ]
				}

			}
, 			{
				"patchline" : 				{
					"source" : [ "obj-8", 0 ],
					"destination" : [ "obj-12", 0 ],
					"hidden" : 1,
					"midpoints" : [  ]
				}

			}
, 			{
				"patchline" : 				{
					"source" : [ "obj-8", 0 ],
					"destination" : [ "obj-13", 0 ],
					"hidden" : 1,
					"midpoints" : [  ]
				}

			}
, 			{
				"patchline" : 				{
					"source" : [ "obj-13", 0 ],
					"destination" : [ "obj-302", 0 ],
					"hidden" : 1,
					"midpoints" : [  ]
				}

			}
, 			{
				"patchline" : 				{
					"source" : [ "obj-12", 0 ],
					"destination" : [ "obj-300", 0 ],
					"hidden" : 1,
					"midpoints" : [  ]
				}

			}
, 			{
				"patchline" : 				{
					"source" : [ "obj-8", 0 ],
					"destination" : [ "obj-309", 0 ],
					"hidden" : 1,
					"midpoints" : [  ]
				}

			}
 ]
	}

}
