{
	"patcher" : 	{
		"fileversion" : 1,
		"rect" : [ 25.0, 69.0, 367.0, 137.0 ],
		"bglocked" : 0,
		"defrect" : [ 25.0, 69.0, 367.0, 137.0 ],
		"openrect" : [ 0.0, 0.0, 0.0, 0.0 ],
		"openinpresentation" : 0,
		"default_fontsize" : 12.0,
		"default_fontface" : 0,
		"default_fontname" : "Arial",
		"gridonopen" : 0,
		"gridsize" : [ 11.0, 11.0 ],
		"gridsnaponopen" : 0,
		"toolbarvisible" : 1,
		"boxanimatetime" : 200,
		"imprint" : 0,
		"enablehscroll" : 1,
		"enablevscroll" : 1,
		"devicewidth" : 0.0,
		"boxes" : [ 			{
				"box" : 				{
					"maxclass" : "newobj",
					"text" : "p Jitter",
					"id" : "obj-83",
					"numoutlets" : 1,
					"fontname" : "Arial",
					"outlettype" : [ "jit_matrix" ],
					"fontsize" : 12.0,
					"patching_rect" : [ 99.0, 44.0, 73.0, 20.0 ],
					"numinlets" : 4,
					"patcher" : 					{
						"fileversion" : 1,
						"rect" : [ 398.0, 147.0, 349.0, 321.0 ],
						"bglocked" : 0,
						"defrect" : [ 398.0, 147.0, 349.0, 321.0 ],
						"openrect" : [ 0.0, 0.0, 0.0, 0.0 ],
						"openinpresentation" : 0,
						"default_fontsize" : 12.0,
						"default_fontface" : 0,
						"default_fontname" : "Arial",
						"gridonopen" : 0,
						"gridsize" : [ 11.0, 11.0 ],
						"gridsnaponopen" : 0,
						"toolbarvisible" : 1,
						"boxanimatetime" : 200,
						"imprint" : 0,
						"enablehscroll" : 1,
						"enablevscroll" : 1,
						"devicewidth" : 0.0,
						"visible" : 1,
						"boxes" : [ 							{
								"box" : 								{
									"maxclass" : "message",
									"id" : "obj-2",
									"numoutlets" : 1,
									"fontname" : "Arial",
									"outlettype" : [ "" ],
									"fontsize" : 12.0,
									"patching_rect" : [ 220.0, 110.0, 50.0, 18.0 ],
									"numinlets" : 2
								}

							}
, 							{
								"box" : 								{
									"maxclass" : "newobj",
									"text" : "jit.matrixset 16 4 char 320 240",
									"id" : "obj-173",
									"numoutlets" : 2,
									"fontname" : "Arial",
									"outlettype" : [ "jit_matrix", "" ],
									"fontsize" : 12.0,
									"patching_rect" : [ 44.0, 264.0, 171.0, 20.0 ],
									"numinlets" : 1
								}

							}
, 							{
								"box" : 								{
									"maxclass" : "newobj",
									"text" : "p Wrap",
									"id" : "obj-68",
									"numoutlets" : 1,
									"fontname" : "Arial",
									"outlettype" : [ "int" ],
									"fontsize" : 12.0,
									"patching_rect" : [ 121.0, 176.0, 57.0, 20.0 ],
									"numinlets" : 2,
									"patcher" : 									{
										"fileversion" : 1,
										"rect" : [ 0.0, 0.0, 640.0, 480.0 ],
										"bglocked" : 0,
										"defrect" : [ 0.0, 0.0, 640.0, 480.0 ],
										"openrect" : [ 0.0, 0.0, 0.0, 0.0 ],
										"openinpresentation" : 0,
										"default_fontsize" : 12.0,
										"default_fontface" : 0,
										"default_fontname" : "Arial",
										"gridonopen" : 0,
										"gridsize" : [ 11.0, 11.0 ],
										"gridsnaponopen" : 0,
										"toolbarvisible" : 1,
										"boxanimatetime" : 200,
										"imprint" : 0,
										"enablehscroll" : 1,
										"enablevscroll" : 1,
										"devicewidth" : 0.0,
										"boxes" : [ 											{
												"box" : 												{
													"maxclass" : "newobj",
													"text" : "% 2",
													"id" : "obj-60",
													"numoutlets" : 1,
													"fontname" : "Arial",
													"outlettype" : [ "int" ],
													"fontsize" : 12.0,
													"patching_rect" : [ 105.0, 177.0, 32.5, 20.0 ],
													"numinlets" : 2
												}

											}
, 											{
												"box" : 												{
													"maxclass" : "newobj",
													"text" : "+ 1",
													"id" : "obj-59",
													"numoutlets" : 1,
													"fontname" : "Arial",
													"outlettype" : [ "int" ],
													"fontsize" : 12.0,
													"patching_rect" : [ 105.0, 199.0, 32.5, 20.0 ],
													"numinlets" : 2
												}

											}
, 											{
												"box" : 												{
													"maxclass" : "newobj",
													"text" : "gate 2",
													"id" : "obj-58",
													"numoutlets" : 2,
													"fontname" : "Arial",
													"outlettype" : [ "", "" ],
													"fontsize" : 12.0,
													"patching_rect" : [ 50.0, 177.0, 44.0, 20.0 ],
													"numinlets" : 2
												}

											}
, 											{
												"box" : 												{
													"maxclass" : "number",
													"id" : "obj-57",
													"numoutlets" : 2,
													"fontname" : "Arial",
													"outlettype" : [ "int", "bang" ],
													"fontsize" : 12.0,
													"patching_rect" : [ 50.0, 221.0, 50.0, 20.0 ],
													"numinlets" : 1
												}

											}
, 											{
												"box" : 												{
													"maxclass" : "newobj",
													"text" : "!- 15",
													"id" : "obj-55",
													"numoutlets" : 1,
													"fontname" : "Arial",
													"outlettype" : [ "int" ],
													"fontsize" : 12.0,
													"patching_rect" : [ 72.0, 199.0, 35.0, 20.0 ],
													"numinlets" : 2
												}

											}
, 											{
												"box" : 												{
													"maxclass" : "flonum",
													"id" : "obj-53",
													"numoutlets" : 2,
													"fontname" : "Arial",
													"outlettype" : [ "float", "bang" ],
													"fontsize" : 12.0,
													"patching_rect" : [ 105.0, 155.0, 50.0, 20.0 ],
													"numinlets" : 1
												}

											}
, 											{
												"box" : 												{
													"maxclass" : "number",
													"id" : "obj-51",
													"numoutlets" : 2,
													"fontname" : "Arial",
													"outlettype" : [ "int", "bang" ],
													"fontsize" : 12.0,
													"patching_rect" : [ 50.0, 155.0, 50.0, 20.0 ],
													"numinlets" : 1
												}

											}
, 											{
												"box" : 												{
													"maxclass" : "number",
													"id" : "obj-48",
													"numoutlets" : 2,
													"fontname" : "Arial",
													"outlettype" : [ "int", "bang" ],
													"fontsize" : 12.0,
													"patching_rect" : [ 116.0, 100.0, 50.0, 20.0 ],
													"numinlets" : 1
												}

											}
, 											{
												"box" : 												{
													"maxclass" : "number",
													"id" : "obj-45",
													"numoutlets" : 2,
													"fontname" : "Arial",
													"outlettype" : [ "int", "bang" ],
													"fontsize" : 12.0,
													"patching_rect" : [ 50.0, 100.0, 50.0, 20.0 ],
													"numinlets" : 1
												}

											}
, 											{
												"box" : 												{
													"maxclass" : "newobj",
													"text" : "/ 2.",
													"id" : "obj-43",
													"numoutlets" : 1,
													"fontname" : "Arial",
													"outlettype" : [ "float" ],
													"fontsize" : 12.0,
													"patching_rect" : [ 105.0, 133.0, 32.5, 20.0 ],
													"numinlets" : 2
												}

											}
, 											{
												"box" : 												{
													"maxclass" : "newobj",
													"text" : "%",
													"id" : "obj-41",
													"numoutlets" : 1,
													"fontname" : "Arial",
													"outlettype" : [ "int" ],
													"fontsize" : 12.0,
													"patching_rect" : [ 50.0, 133.0, 32.5, 20.0 ],
													"numinlets" : 2
												}

											}
, 											{
												"box" : 												{
													"maxclass" : "inlet",
													"id" : "obj-64",
													"numoutlets" : 1,
													"outlettype" : [ "int" ],
													"patching_rect" : [ 50.0, 40.0, 25.0, 25.0 ],
													"numinlets" : 0,
													"comment" : ""
												}

											}
, 											{
												"box" : 												{
													"maxclass" : "inlet",
													"id" : "obj-65",
													"numoutlets" : 1,
													"outlettype" : [ "" ],
													"patching_rect" : [ 72.5, 40.0, 25.0, 25.0 ],
													"numinlets" : 0,
													"comment" : ""
												}

											}
, 											{
												"box" : 												{
													"maxclass" : "outlet",
													"id" : "obj-66",
													"numoutlets" : 0,
													"patching_rect" : [ 50.0, 301.0, 25.0, 25.0 ],
													"numinlets" : 1,
													"comment" : ""
												}

											}
 ],
										"lines" : [ 											{
												"patchline" : 												{
													"source" : [ "obj-57", 0 ],
													"destination" : [ "obj-66", 0 ],
													"hidden" : 0,
													"midpoints" : [  ]
												}

											}
, 											{
												"patchline" : 												{
													"source" : [ "obj-65", 0 ],
													"destination" : [ "obj-43", 1 ],
													"hidden" : 0,
													"midpoints" : [  ]
												}

											}
, 											{
												"patchline" : 												{
													"source" : [ "obj-65", 0 ],
													"destination" : [ "obj-41", 1 ],
													"hidden" : 0,
													"midpoints" : [  ]
												}

											}
, 											{
												"patchline" : 												{
													"source" : [ "obj-64", 0 ],
													"destination" : [ "obj-45", 0 ],
													"hidden" : 0,
													"midpoints" : [  ]
												}

											}
, 											{
												"patchline" : 												{
													"source" : [ "obj-60", 0 ],
													"destination" : [ "obj-59", 0 ],
													"hidden" : 0,
													"midpoints" : [  ]
												}

											}
, 											{
												"patchline" : 												{
													"source" : [ "obj-53", 0 ],
													"destination" : [ "obj-60", 0 ],
													"hidden" : 0,
													"midpoints" : [  ]
												}

											}
, 											{
												"patchline" : 												{
													"source" : [ "obj-58", 0 ],
													"destination" : [ "obj-57", 0 ],
													"hidden" : 0,
													"midpoints" : [  ]
												}

											}
, 											{
												"patchline" : 												{
													"source" : [ "obj-58", 1 ],
													"destination" : [ "obj-55", 0 ],
													"hidden" : 0,
													"midpoints" : [  ]
												}

											}
, 											{
												"patchline" : 												{
													"source" : [ "obj-51", 0 ],
													"destination" : [ "obj-58", 1 ],
													"hidden" : 0,
													"midpoints" : [  ]
												}

											}
, 											{
												"patchline" : 												{
													"source" : [ "obj-59", 0 ],
													"destination" : [ "obj-58", 0 ],
													"hidden" : 0,
													"midpoints" : [  ]
												}

											}
, 											{
												"patchline" : 												{
													"source" : [ "obj-55", 0 ],
													"destination" : [ "obj-57", 0 ],
													"hidden" : 0,
													"midpoints" : [  ]
												}

											}
, 											{
												"patchline" : 												{
													"source" : [ "obj-48", 0 ],
													"destination" : [ "obj-43", 1 ],
													"hidden" : 0,
													"midpoints" : [  ]
												}

											}
, 											{
												"patchline" : 												{
													"source" : [ "obj-43", 0 ],
													"destination" : [ "obj-53", 0 ],
													"hidden" : 0,
													"midpoints" : [  ]
												}

											}
, 											{
												"patchline" : 												{
													"source" : [ "obj-45", 0 ],
													"destination" : [ "obj-43", 0 ],
													"hidden" : 0,
													"midpoints" : [  ]
												}

											}
, 											{
												"patchline" : 												{
													"source" : [ "obj-41", 0 ],
													"destination" : [ "obj-51", 0 ],
													"hidden" : 0,
													"midpoints" : [  ]
												}

											}
, 											{
												"patchline" : 												{
													"source" : [ "obj-48", 0 ],
													"destination" : [ "obj-41", 1 ],
													"hidden" : 0,
													"midpoints" : [  ]
												}

											}
, 											{
												"patchline" : 												{
													"source" : [ "obj-45", 0 ],
													"destination" : [ "obj-41", 0 ],
													"hidden" : 0,
													"midpoints" : [  ]
												}

											}
 ]
									}
,
									"saved_object_attributes" : 									{
										"default_fontname" : "Arial",
										"fontname" : "Arial",
										"default_fontsize" : 12.0,
										"globalpatchername" : "",
										"fontface" : 0,
										"fontsize" : 12.0,
										"default_fontface" : 0
									}

								}

							}
, 							{
								"box" : 								{
									"maxclass" : "message",
									"text" : "2",
									"id" : "obj-38",
									"numoutlets" : 1,
									"fontname" : "Arial",
									"outlettype" : [ "" ],
									"fontsize" : 12.0,
									"patching_rect" : [ 44.0, 121.0, 32.5, 18.0 ],
									"numinlets" : 2
								}

							}
, 							{
								"box" : 								{
									"maxclass" : "message",
									"text" : "1",
									"id" : "obj-37",
									"numoutlets" : 1,
									"fontname" : "Arial",
									"outlettype" : [ "" ],
									"fontsize" : 12.0,
									"patching_rect" : [ 11.0, 121.0, 32.5, 18.0 ],
									"numinlets" : 2
								}

							}
, 							{
								"box" : 								{
									"maxclass" : "newobj",
									"text" : "sel 0",
									"id" : "obj-35",
									"numoutlets" : 2,
									"fontname" : "Arial",
									"outlettype" : [ "bang", "" ],
									"fontsize" : 12.0,
									"patching_rect" : [ 11.0, 99.0, 36.0, 20.0 ],
									"numinlets" : 2
								}

							}
, 							{
								"box" : 								{
									"maxclass" : "message",
									"text" : "max $1",
									"id" : "obj-31",
									"numoutlets" : 1,
									"fontname" : "Arial",
									"outlettype" : [ "" ],
									"fontsize" : 12.0,
									"patching_rect" : [ 11.0, 55.0, 50.0, 18.0 ],
									"numinlets" : 2
								}

							}
, 							{
								"box" : 								{
									"maxclass" : "newobj",
									"text" : "counter",
									"id" : "obj-22",
									"numoutlets" : 4,
									"fontname" : "Arial",
									"outlettype" : [ "int", "", "", "int" ],
									"fontsize" : 12.0,
									"patching_rect" : [ 11.0, 77.0, 73.0, 20.0 ],
									"numinlets" : 5
								}

							}
, 							{
								"box" : 								{
									"maxclass" : "number",
									"id" : "obj-21",
									"numoutlets" : 2,
									"fontname" : "Arial",
									"outlettype" : [ "int", "bang" ],
									"fontsize" : 12.0,
									"patching_rect" : [ 121.0, 154.0, 50.0, 20.0 ],
									"numinlets" : 1
								}

							}
, 							{
								"box" : 								{
									"maxclass" : "newobj",
									"text" : "i",
									"id" : "obj-17",
									"numoutlets" : 1,
									"fontname" : "Arial",
									"outlettype" : [ "int" ],
									"fontsize" : 12.0,
									"patching_rect" : [ 121.0, 110.0, 32.5, 20.0 ],
									"numinlets" : 2
								}

							}
, 							{
								"box" : 								{
									"maxclass" : "number",
									"id" : "obj-16",
									"numoutlets" : 2,
									"fontname" : "Arial",
									"outlettype" : [ "int", "bang" ],
									"fontsize" : 12.0,
									"patching_rect" : [ 66.0, 44.0, 50.0, 20.0 ],
									"numinlets" : 1
								}

							}
, 							{
								"box" : 								{
									"maxclass" : "newobj",
									"text" : "gate 2 1",
									"id" : "obj-14",
									"numoutlets" : 2,
									"fontname" : "Arial",
									"outlettype" : [ "", "" ],
									"fontsize" : 12.0,
									"patching_rect" : [ 121.0, 66.0, 54.0, 20.0 ],
									"numinlets" : 2
								}

							}
, 							{
								"box" : 								{
									"maxclass" : "button",
									"id" : "obj-12",
									"numoutlets" : 1,
									"outlettype" : [ "bang" ],
									"patching_rect" : [ 154.0, 33.0, 20.0, 20.0 ],
									"numinlets" : 1
								}

							}
, 							{
								"box" : 								{
									"maxclass" : "newobj",
									"text" : "random 16",
									"id" : "obj-10",
									"numoutlets" : 1,
									"fontname" : "Arial",
									"outlettype" : [ "int" ],
									"fontsize" : 12.0,
									"patching_rect" : [ 121.0, 88.0, 68.0, 20.0 ],
									"numinlets" : 2
								}

							}
, 							{
								"box" : 								{
									"maxclass" : "message",
									"text" : "outputmatrix $1",
									"id" : "obj-9",
									"numoutlets" : 1,
									"fontname" : "Arial",
									"outlettype" : [ "" ],
									"fontsize" : 11.595187,
									"patching_rect" : [ 253.0, 231.0, 90.0, 18.0 ],
									"numinlets" : 2
								}

							}
, 							{
								"box" : 								{
									"maxclass" : "newobj",
									"text" : "+ 1",
									"id" : "obj-6",
									"numoutlets" : 1,
									"fontname" : "Arial",
									"outlettype" : [ "int" ],
									"fontsize" : 12.0,
									"patching_rect" : [ 121.0, 132.0, 32.5, 20.0 ],
									"numinlets" : 2
								}

							}
, 							{
								"box" : 								{
									"maxclass" : "message",
									"text" : "max $1",
									"id" : "obj-189",
									"numoutlets" : 1,
									"fontname" : "Arial",
									"outlettype" : [ "" ],
									"fontsize" : 12.0,
									"patching_rect" : [ 88.0, 209.0, 50.0, 18.0 ],
									"numinlets" : 2
								}

							}
, 							{
								"box" : 								{
									"maxclass" : "message",
									"text" : "matrixcount $1",
									"id" : "obj-185",
									"numoutlets" : 1,
									"fontname" : "Arial",
									"outlettype" : [ "" ],
									"fontsize" : 12.0,
									"patching_rect" : [ 154.0, 231.0, 89.0, 18.0 ],
									"numinlets" : 2
								}

							}
, 							{
								"box" : 								{
									"maxclass" : "newobj",
									"text" : "t b",
									"id" : "obj-178",
									"numoutlets" : 1,
									"fontname" : "Arial",
									"outlettype" : [ "bang" ],
									"fontsize" : 12.0,
									"patching_rect" : [ 66.0, 187.0, 24.0, 20.0 ],
									"numinlets" : 1
								}

							}
, 							{
								"box" : 								{
									"maxclass" : "newobj",
									"text" : "counter 0 15",
									"id" : "obj-177",
									"numoutlets" : 4,
									"fontname" : "Arial",
									"outlettype" : [ "int", "", "", "int" ],
									"fontsize" : 12.0,
									"patching_rect" : [ 66.0, 231.0, 77.0, 20.0 ],
									"numinlets" : 5
								}

							}
, 							{
								"box" : 								{
									"maxclass" : "number",
									"id" : "obj-175",
									"numoutlets" : 2,
									"fontname" : "Arial",
									"outlettype" : [ "int", "bang" ],
									"fontsize" : 11.595187,
									"triscale" : 0.9,
									"patching_rect" : [ 11.0, 202.5, 50.0, 20.0 ],
									"numinlets" : 1
								}

							}
, 							{
								"box" : 								{
									"maxclass" : "message",
									"text" : "index $1",
									"id" : "obj-176",
									"numoutlets" : 1,
									"fontname" : "Arial",
									"outlettype" : [ "" ],
									"fontsize" : 11.595187,
									"patching_rect" : [ 11.0, 230.5, 54.0, 18.0 ],
									"numinlets" : 2
								}

							}
, 							{
								"box" : 								{
									"maxclass" : "inlet",
									"id" : "obj-75",
									"numoutlets" : 1,
									"outlettype" : [ "" ],
									"patching_rect" : [ 11.0, 11.0, 25.0, 25.0 ],
									"numinlets" : 0,
									"comment" : ""
								}

							}
, 							{
								"box" : 								{
									"maxclass" : "inlet",
									"id" : "obj-76",
									"numoutlets" : 1,
									"outlettype" : [ "" ],
									"patching_rect" : [ 44.0, 11.0, 25.0, 25.0 ],
									"numinlets" : 0,
									"comment" : ""
								}

							}
, 							{
								"box" : 								{
									"maxclass" : "inlet",
									"id" : "obj-78",
									"numoutlets" : 1,
									"outlettype" : [ "" ],
									"patching_rect" : [ 88.0, 180.5, 25.0, 25.0 ],
									"numinlets" : 0,
									"comment" : ""
								}

							}
, 							{
								"box" : 								{
									"maxclass" : "inlet",
									"id" : "obj-81",
									"numoutlets" : 1,
									"outlettype" : [ "" ],
									"patching_rect" : [ 77.0, 11.0, 25.0, 25.0 ],
									"numinlets" : 0,
									"comment" : ""
								}

							}
, 							{
								"box" : 								{
									"maxclass" : "outlet",
									"id" : "obj-82",
									"numoutlets" : 0,
									"patching_rect" : [ 44.0, 286.0, 25.0, 25.0 ],
									"numinlets" : 1,
									"comment" : ""
								}

							}
 ],
						"lines" : [ 							{
								"patchline" : 								{
									"source" : [ "obj-22", 0 ],
									"destination" : [ "obj-2", 1 ],
									"hidden" : 0,
									"midpoints" : [  ]
								}

							}
, 							{
								"patchline" : 								{
									"source" : [ "obj-81", 0 ],
									"destination" : [ "obj-10", 1 ],
									"hidden" : 0,
									"midpoints" : [  ]
								}

							}
, 							{
								"patchline" : 								{
									"source" : [ "obj-78", 0 ],
									"destination" : [ "obj-173", 0 ],
									"hidden" : 0,
									"midpoints" : [  ]
								}

							}
, 							{
								"patchline" : 								{
									"source" : [ "obj-189", 0 ],
									"destination" : [ "obj-177", 0 ],
									"hidden" : 0,
									"midpoints" : [  ]
								}

							}
, 							{
								"patchline" : 								{
									"source" : [ "obj-177", 0 ],
									"destination" : [ "obj-175", 0 ],
									"hidden" : 0,
									"midpoints" : [  ]
								}

							}
, 							{
								"patchline" : 								{
									"source" : [ "obj-178", 0 ],
									"destination" : [ "obj-177", 0 ],
									"hidden" : 0,
									"midpoints" : [  ]
								}

							}
, 							{
								"patchline" : 								{
									"source" : [ "obj-175", 0 ],
									"destination" : [ "obj-176", 0 ],
									"hidden" : 0,
									"midpoints" : [  ]
								}

							}
, 							{
								"patchline" : 								{
									"source" : [ "obj-14", 0 ],
									"destination" : [ "obj-10", 0 ],
									"hidden" : 0,
									"midpoints" : [  ]
								}

							}
, 							{
								"patchline" : 								{
									"source" : [ "obj-16", 0 ],
									"destination" : [ "obj-14", 0 ],
									"hidden" : 0,
									"midpoints" : [  ]
								}

							}
, 							{
								"patchline" : 								{
									"source" : [ "obj-12", 0 ],
									"destination" : [ "obj-14", 1 ],
									"hidden" : 0,
									"midpoints" : [  ]
								}

							}
, 							{
								"patchline" : 								{
									"source" : [ "obj-10", 0 ],
									"destination" : [ "obj-17", 0 ],
									"hidden" : 0,
									"midpoints" : [  ]
								}

							}
, 							{
								"patchline" : 								{
									"source" : [ "obj-17", 0 ],
									"destination" : [ "obj-6", 0 ],
									"hidden" : 0,
									"midpoints" : [  ]
								}

							}
, 							{
								"patchline" : 								{
									"source" : [ "obj-6", 0 ],
									"destination" : [ "obj-17", 1 ],
									"hidden" : 0,
									"midpoints" : [  ]
								}

							}
, 							{
								"patchline" : 								{
									"source" : [ "obj-14", 1 ],
									"destination" : [ "obj-17", 0 ],
									"hidden" : 0,
									"midpoints" : [  ]
								}

							}
, 							{
								"patchline" : 								{
									"source" : [ "obj-31", 0 ],
									"destination" : [ "obj-22", 0 ],
									"hidden" : 0,
									"midpoints" : [  ]
								}

							}
, 							{
								"patchline" : 								{
									"source" : [ "obj-12", 0 ],
									"destination" : [ "obj-22", 0 ],
									"hidden" : 0,
									"midpoints" : [  ]
								}

							}
, 							{
								"patchline" : 								{
									"source" : [ "obj-22", 0 ],
									"destination" : [ "obj-35", 0 ],
									"hidden" : 0,
									"midpoints" : [  ]
								}

							}
, 							{
								"patchline" : 								{
									"source" : [ "obj-35", 0 ],
									"destination" : [ "obj-37", 0 ],
									"hidden" : 0,
									"midpoints" : [  ]
								}

							}
, 							{
								"patchline" : 								{
									"source" : [ "obj-35", 1 ],
									"destination" : [ "obj-38", 0 ],
									"hidden" : 0,
									"midpoints" : [  ]
								}

							}
, 							{
								"patchline" : 								{
									"source" : [ "obj-37", 0 ],
									"destination" : [ "obj-16", 0 ],
									"hidden" : 0,
									"midpoints" : [  ]
								}

							}
, 							{
								"patchline" : 								{
									"source" : [ "obj-38", 0 ],
									"destination" : [ "obj-16", 0 ],
									"hidden" : 0,
									"midpoints" : [  ]
								}

							}
, 							{
								"patchline" : 								{
									"source" : [ "obj-178", 0 ],
									"destination" : [ "obj-12", 0 ],
									"hidden" : 0,
									"midpoints" : [  ]
								}

							}
, 							{
								"patchline" : 								{
									"source" : [ "obj-6", 0 ],
									"destination" : [ "obj-21", 0 ],
									"hidden" : 0,
									"midpoints" : [  ]
								}

							}
, 							{
								"patchline" : 								{
									"source" : [ "obj-68", 0 ],
									"destination" : [ "obj-9", 0 ],
									"hidden" : 0,
									"midpoints" : [  ]
								}

							}
, 							{
								"patchline" : 								{
									"source" : [ "obj-21", 0 ],
									"destination" : [ "obj-68", 0 ],
									"hidden" : 0,
									"midpoints" : [  ]
								}

							}
, 							{
								"patchline" : 								{
									"source" : [ "obj-9", 0 ],
									"destination" : [ "obj-173", 0 ],
									"hidden" : 0,
									"midpoints" : [  ]
								}

							}
, 							{
								"patchline" : 								{
									"source" : [ "obj-176", 0 ],
									"destination" : [ "obj-173", 0 ],
									"hidden" : 0,
									"midpoints" : [  ]
								}

							}
, 							{
								"patchline" : 								{
									"source" : [ "obj-185", 0 ],
									"destination" : [ "obj-173", 0 ],
									"hidden" : 0,
									"midpoints" : [  ]
								}

							}
, 							{
								"patchline" : 								{
									"source" : [ "obj-75", 0 ],
									"destination" : [ "obj-31", 0 ],
									"hidden" : 0,
									"midpoints" : [  ]
								}

							}
, 							{
								"patchline" : 								{
									"source" : [ "obj-76", 0 ],
									"destination" : [ "obj-185", 0 ],
									"hidden" : 0,
									"midpoints" : [  ]
								}

							}
, 							{
								"patchline" : 								{
									"source" : [ "obj-76", 0 ],
									"destination" : [ "obj-189", 0 ],
									"hidden" : 0,
									"midpoints" : [  ]
								}

							}
, 							{
								"patchline" : 								{
									"source" : [ "obj-76", 0 ],
									"destination" : [ "obj-68", 1 ],
									"hidden" : 0,
									"midpoints" : [  ]
								}

							}
, 							{
								"patchline" : 								{
									"source" : [ "obj-78", 0 ],
									"destination" : [ "obj-178", 0 ],
									"hidden" : 0,
									"midpoints" : [  ]
								}

							}
, 							{
								"patchline" : 								{
									"source" : [ "obj-173", 0 ],
									"destination" : [ "obj-82", 0 ],
									"hidden" : 0,
									"midpoints" : [  ]
								}

							}
 ]
					}
,
					"saved_object_attributes" : 					{
						"default_fontname" : "Arial",
						"fontname" : "Arial",
						"default_fontsize" : 12.0,
						"globalpatchername" : "",
						"fontface" : 0,
						"fontsize" : 12.0,
						"default_fontface" : 0
					}

				}

			}
, 			{
				"box" : 				{
					"maxclass" : "newobj",
					"text" : "in 4",
					"id" : "obj-23",
					"numoutlets" : 1,
					"fontname" : "Arial",
					"outlettype" : [ "" ],
					"fontsize" : 12.0,
					"patching_rect" : [ 198.0, 11.0, 30.0, 20.0 ],
					"numinlets" : 1,
					"saved_object_attributes" : 					{
						"attr_comment" : ""
					}

				}

			}
, 			{
				"box" : 				{
					"maxclass" : "newobj",
					"text" : "in 3",
					"id" : "obj-22",
					"numoutlets" : 1,
					"fontname" : "Arial",
					"outlettype" : [ "" ],
					"fontsize" : 12.0,
					"patching_rect" : [ 165.0, 11.0, 30.0, 20.0 ],
					"numinlets" : 1,
					"saved_object_attributes" : 					{
						"attr_comment" : ""
					}

				}

			}
, 			{
				"box" : 				{
					"maxclass" : "newobj",
					"text" : "in 2",
					"id" : "obj-21",
					"numoutlets" : 1,
					"fontname" : "Arial",
					"outlettype" : [ "" ],
					"fontsize" : 12.0,
					"patching_rect" : [ 132.0, 11.0, 30.0, 20.0 ],
					"numinlets" : 1,
					"saved_object_attributes" : 					{
						"attr_comment" : ""
					}

				}

			}
, 			{
				"box" : 				{
					"maxclass" : "newobj",
					"text" : "in 1",
					"id" : "obj-20",
					"numoutlets" : 1,
					"fontname" : "Arial",
					"outlettype" : [ "" ],
					"fontsize" : 12.0,
					"patching_rect" : [ 99.0, 11.0, 30.0, 20.0 ],
					"numinlets" : 1,
					"saved_object_attributes" : 					{
						"attr_comment" : ""
					}

				}

			}
, 			{
				"box" : 				{
					"maxclass" : "newobj",
					"text" : "gate 8",
					"id" : "obj-12",
					"numoutlets" : 8,
					"fontname" : "Arial",
					"outlettype" : [ "", "", "", "", "", "", "", "" ],
					"fontsize" : 12.0,
					"patching_rect" : [ 11.0, 66.0, 113.5, 20.0 ],
					"numinlets" : 2
				}

			}
, 			{
				"box" : 				{
					"maxclass" : "newobj",
					"text" : "out 8",
					"id" : "obj-8",
					"numoutlets" : 0,
					"fontname" : "Arial",
					"fontsize" : 12.0,
					"patching_rect" : [ 319.0, 110.0, 37.0, 20.0 ],
					"numinlets" : 1,
					"saved_object_attributes" : 					{
						"attr_comment" : ""
					}

				}

			}
, 			{
				"box" : 				{
					"maxclass" : "newobj",
					"text" : "out 7",
					"id" : "obj-9",
					"numoutlets" : 0,
					"fontname" : "Arial",
					"fontsize" : 12.0,
					"patching_rect" : [ 275.0, 110.0, 37.0, 20.0 ],
					"numinlets" : 1,
					"saved_object_attributes" : 					{
						"attr_comment" : ""
					}

				}

			}
, 			{
				"box" : 				{
					"maxclass" : "newobj",
					"text" : "out 6",
					"id" : "obj-10",
					"numoutlets" : 0,
					"fontname" : "Arial",
					"fontsize" : 12.0,
					"patching_rect" : [ 231.0, 110.0, 37.0, 20.0 ],
					"numinlets" : 1,
					"saved_object_attributes" : 					{
						"attr_comment" : ""
					}

				}

			}
, 			{
				"box" : 				{
					"maxclass" : "newobj",
					"text" : "out 5",
					"id" : "obj-11",
					"numoutlets" : 0,
					"fontname" : "Arial",
					"fontsize" : 12.0,
					"patching_rect" : [ 187.0, 110.0, 37.0, 20.0 ],
					"numinlets" : 1,
					"saved_object_attributes" : 					{
						"attr_comment" : ""
					}

				}

			}
, 			{
				"box" : 				{
					"maxclass" : "newobj",
					"text" : "out 4",
					"id" : "obj-6",
					"numoutlets" : 0,
					"fontname" : "Arial",
					"fontsize" : 12.0,
					"patching_rect" : [ 143.0, 110.0, 37.0, 20.0 ],
					"numinlets" : 1,
					"saved_object_attributes" : 					{
						"attr_comment" : ""
					}

				}

			}
, 			{
				"box" : 				{
					"maxclass" : "newobj",
					"text" : "out 3",
					"id" : "obj-7",
					"numoutlets" : 0,
					"fontname" : "Arial",
					"fontsize" : 12.0,
					"patching_rect" : [ 99.0, 110.0, 37.0, 20.0 ],
					"numinlets" : 1,
					"saved_object_attributes" : 					{
						"attr_comment" : ""
					}

				}

			}
, 			{
				"box" : 				{
					"maxclass" : "newobj",
					"text" : "out 2",
					"id" : "obj-5",
					"numoutlets" : 0,
					"fontname" : "Arial",
					"fontsize" : 12.0,
					"patching_rect" : [ 55.0, 110.0, 37.0, 20.0 ],
					"numinlets" : 1,
					"saved_object_attributes" : 					{
						"attr_comment" : ""
					}

				}

			}
, 			{
				"box" : 				{
					"maxclass" : "newobj",
					"text" : "out 1",
					"id" : "obj-4",
					"numoutlets" : 0,
					"fontname" : "Arial",
					"fontsize" : 12.0,
					"patching_rect" : [ 11.0, 110.0, 37.0, 20.0 ],
					"numinlets" : 1,
					"saved_object_attributes" : 					{
						"attr_comment" : ""
					}

				}

			}
, 			{
				"box" : 				{
					"maxclass" : "newobj",
					"text" : "loadbang",
					"id" : "obj-2",
					"numoutlets" : 1,
					"fontname" : "Arial",
					"outlettype" : [ "bang" ],
					"fontsize" : 12.0,
					"patching_rect" : [ 11.0, 22.0, 60.0, 20.0 ],
					"numinlets" : 1
				}

			}
, 			{
				"box" : 				{
					"maxclass" : "newobj",
					"text" : "thispoly~",
					"id" : "obj-1",
					"numoutlets" : 2,
					"fontname" : "Arial",
					"outlettype" : [ "int", "int" ],
					"fontsize" : 12.0,
					"patching_rect" : [ 11.0, 44.0, 58.0, 20.0 ],
					"numinlets" : 1
				}

			}
 ],
		"lines" : [ 			{
				"patchline" : 				{
					"source" : [ "obj-12", 7 ],
					"destination" : [ "obj-8", 0 ],
					"hidden" : 0,
					"midpoints" : [  ]
				}

			}
, 			{
				"patchline" : 				{
					"source" : [ "obj-12", 6 ],
					"destination" : [ "obj-9", 0 ],
					"hidden" : 0,
					"midpoints" : [  ]
				}

			}
, 			{
				"patchline" : 				{
					"source" : [ "obj-12", 5 ],
					"destination" : [ "obj-10", 0 ],
					"hidden" : 0,
					"midpoints" : [  ]
				}

			}
, 			{
				"patchline" : 				{
					"source" : [ "obj-12", 4 ],
					"destination" : [ "obj-11", 0 ],
					"hidden" : 0,
					"midpoints" : [  ]
				}

			}
, 			{
				"patchline" : 				{
					"source" : [ "obj-12", 3 ],
					"destination" : [ "obj-6", 0 ],
					"hidden" : 0,
					"midpoints" : [  ]
				}

			}
, 			{
				"patchline" : 				{
					"source" : [ "obj-12", 2 ],
					"destination" : [ "obj-7", 0 ],
					"hidden" : 0,
					"midpoints" : [  ]
				}

			}
, 			{
				"patchline" : 				{
					"source" : [ "obj-12", 1 ],
					"destination" : [ "obj-5", 0 ],
					"hidden" : 0,
					"midpoints" : [  ]
				}

			}
, 			{
				"patchline" : 				{
					"source" : [ "obj-12", 0 ],
					"destination" : [ "obj-4", 0 ],
					"hidden" : 0,
					"midpoints" : [  ]
				}

			}
, 			{
				"patchline" : 				{
					"source" : [ "obj-1", 0 ],
					"destination" : [ "obj-12", 0 ],
					"hidden" : 0,
					"midpoints" : [  ]
				}

			}
, 			{
				"patchline" : 				{
					"source" : [ "obj-2", 0 ],
					"destination" : [ "obj-1", 0 ],
					"hidden" : 0,
					"midpoints" : [  ]
				}

			}
, 			{
				"patchline" : 				{
					"source" : [ "obj-20", 0 ],
					"destination" : [ "obj-83", 0 ],
					"hidden" : 0,
					"midpoints" : [  ]
				}

			}
, 			{
				"patchline" : 				{
					"source" : [ "obj-21", 0 ],
					"destination" : [ "obj-83", 1 ],
					"hidden" : 0,
					"midpoints" : [  ]
				}

			}
, 			{
				"patchline" : 				{
					"source" : [ "obj-22", 0 ],
					"destination" : [ "obj-83", 2 ],
					"hidden" : 0,
					"midpoints" : [  ]
				}

			}
, 			{
				"patchline" : 				{
					"source" : [ "obj-23", 0 ],
					"destination" : [ "obj-83", 3 ],
					"hidden" : 0,
					"midpoints" : [  ]
				}

			}
, 			{
				"patchline" : 				{
					"source" : [ "obj-83", 0 ],
					"destination" : [ "obj-12", 1 ],
					"hidden" : 0,
					"midpoints" : [  ]
				}

			}
 ]
	}

}
