{
	"patcher" : 	{
		"fileversion" : 1,
		"rect" : [ 751.0, 162.0, 385.0, 449.0 ],
		"bglocked" : 0,
		"defrect" : [ 751.0, 162.0, 385.0, 449.0 ],
		"openrect" : [ 0.0, 0.0, 0.0, 0.0 ],
		"openinpresentation" : 0,
		"default_fontsize" : 12.0,
		"default_fontface" : 0,
		"default_fontname" : "Arial",
		"gridonopen" : 0,
		"gridsize" : [ 11.0, 11.0 ],
		"gridsnaponopen" : 0,
		"toolbarvisible" : 1,
		"boxanimatetime" : 200,
		"imprint" : 0,
		"metadata" : [  ],
		"boxes" : [ 			{
				"box" : 				{
					"maxclass" : "message",
					"text" : "$1 200",
					"numoutlets" : 1,
					"id" : "obj-13",
					"outlettype" : [ "" ],
					"patching_rect" : [ 242.0, 286.0, 47.0, 18.0 ],
					"fontname" : "Arial",
					"numinlets" : 2,
					"fontsize" : 12.0
				}

			}
, 			{
				"box" : 				{
					"maxclass" : "newobj",
					"text" : "line 0.",
					"numoutlets" : 3,
					"id" : "obj-14",
					"outlettype" : [ "", "", "" ],
					"patching_rect" : [ 242.0, 308.0, 46.0, 20.0 ],
					"fontname" : "Arial",
					"numinlets" : 3,
					"fontsize" : 12.0
				}

			}
, 			{
				"box" : 				{
					"maxclass" : "message",
					"text" : "$1 200",
					"numoutlets" : 1,
					"id" : "obj-1",
					"outlettype" : [ "" ],
					"patching_rect" : [ 143.0, 297.0, 47.0, 18.0 ],
					"fontname" : "Arial",
					"numinlets" : 2,
					"fontsize" : 12.0
				}

			}
, 			{
				"box" : 				{
					"maxclass" : "newobj",
					"text" : "line 0.",
					"numoutlets" : 3,
					"id" : "obj-10",
					"outlettype" : [ "", "", "" ],
					"patching_rect" : [ 143.0, 319.0, 46.0, 20.0 ],
					"fontname" : "Arial",
					"numinlets" : 3,
					"fontsize" : 12.0
				}

			}
, 			{
				"box" : 				{
					"maxclass" : "newobj",
					"text" : "p reference picture",
					"numoutlets" : 0,
					"id" : "obj-22",
					"patching_rect" : [ 165.0, 11.0, 111.0, 20.0 ],
					"fontname" : "Arial",
					"numinlets" : 0,
					"fontsize" : 12.0,
					"patcher" : 					{
						"fileversion" : 1,
						"rect" : [ 84.0, 44.0, 987.0, 691.0 ],
						"bglocked" : 0,
						"defrect" : [ 84.0, 44.0, 987.0, 691.0 ],
						"openrect" : [ 0.0, 0.0, 0.0, 0.0 ],
						"openinpresentation" : 0,
						"default_fontsize" : 12.0,
						"default_fontface" : 0,
						"default_fontname" : "Arial",
						"gridonopen" : 0,
						"gridsize" : [ 11.0, 11.0 ],
						"gridsnaponopen" : 0,
						"toolbarvisible" : 1,
						"boxanimatetime" : 200,
						"imprint" : 0,
						"metadata" : [  ],
						"boxes" : [ 							{
								"box" : 								{
									"maxclass" : "newobj",
									"text" : "loadbang",
									"numoutlets" : 1,
									"id" : "obj-1",
									"outlettype" : [ "bang" ],
									"hidden" : 1,
									"patching_rect" : [ 572.0, 88.0, 60.0, 20.0 ],
									"fontname" : "Arial",
									"numinlets" : 1,
									"fontsize" : 12.0
								}

							}
, 							{
								"box" : 								{
									"maxclass" : "fpic",
									"numoutlets" : 0,
									"id" : "obj-20",
									"autofit" : 1,
									"patching_rect" : [ 11.0, 0.0, 946.0, 660.0 ],
									"pic" : "Matte Control Isadora Patch.png",
									"numinlets" : 1
								}

							}
, 							{
								"box" : 								{
									"maxclass" : "message",
									"text" : "read \"Macintosh HD:/Users/elistine/Pictures/Jitter Pictures/Matte Control Isadora Patch.png\", autofit 1",
									"linecount" : 4,
									"numoutlets" : 1,
									"id" : "obj-13",
									"outlettype" : [ "" ],
									"hidden" : 1,
									"patching_rect" : [ 572.0, 121.0, 186.0, 60.0 ],
									"fontname" : "Arial",
									"numinlets" : 2,
									"fontsize" : 12.0
								}

							}
 ],
						"lines" : [ 							{
								"patchline" : 								{
									"source" : [ "obj-1", 0 ],
									"destination" : [ "obj-13", 0 ],
									"hidden" : 1,
									"midpoints" : [  ]
								}

							}
, 							{
								"patchline" : 								{
									"source" : [ "obj-13", 0 ],
									"destination" : [ "obj-20", 0 ],
									"hidden" : 1,
									"midpoints" : [  ]
								}

							}
 ]
					}
,
					"saved_object_attributes" : 					{
						"globalpatchername" : "",
						"fontname" : "Arial",
						"default_fontface" : 0,
						"default_fontname" : "Arial",
						"fontface" : 0,
						"fontsize" : 12.0,
						"default_fontsize" : 12.0
					}

				}

			}
, 			{
				"box" : 				{
					"maxclass" : "flonum",
					"numoutlets" : 2,
					"id" : "obj-32",
					"outlettype" : [ "float", "bang" ],
					"patching_rect" : [ 99.0, 253.0, 50.0, 20.0 ],
					"fontname" : "Arial",
					"numinlets" : 1,
					"fontsize" : 12.0
				}

			}
, 			{
				"box" : 				{
					"maxclass" : "newobj",
					"text" : "- 0.",
					"numoutlets" : 1,
					"id" : "obj-30",
					"outlettype" : [ "float" ],
					"patching_rect" : [ 99.0, 231.0, 32.5, 20.0 ],
					"fontname" : "Arial",
					"numinlets" : 2,
					"fontsize" : 12.0
				}

			}
, 			{
				"box" : 				{
					"maxclass" : "newobj",
					"text" : "* 2.",
					"numoutlets" : 1,
					"id" : "obj-29",
					"outlettype" : [ "float" ],
					"patching_rect" : [ 110.0, 198.0, 32.5, 20.0 ],
					"fontname" : "Arial",
					"numinlets" : 2,
					"fontsize" : 12.0
				}

			}
, 			{
				"box" : 				{
					"maxclass" : "newobj",
					"text" : "scale 0. 269. -49.4 49.4",
					"linecount" : 2,
					"numoutlets" : 1,
					"id" : "obj-28",
					"outlettype" : [ "float" ],
					"patching_rect" : [ 242.0, 253.0, 80.0, 34.0 ],
					"fontname" : "Arial",
					"numinlets" : 6,
					"fontsize" : 12.0
				}

			}
, 			{
				"box" : 				{
					"maxclass" : "newobj",
					"text" : "scale 0. 269. -49.4 49.4",
					"linecount" : 2,
					"numoutlets" : 1,
					"id" : "obj-27",
					"outlettype" : [ "float" ],
					"patching_rect" : [ 154.0, 253.0, 80.0, 34.0 ],
					"fontname" : "Arial",
					"numinlets" : 6,
					"fontsize" : 12.0
				}

			}
, 			{
				"box" : 				{
					"maxclass" : "newobj",
					"text" : "prepend /isadora/3",
					"numoutlets" : 1,
					"id" : "obj-26",
					"outlettype" : [ "" ],
					"patching_rect" : [ 231.0, 341.0, 111.0, 20.0 ],
					"fontname" : "Arial",
					"numinlets" : 1,
					"fontsize" : 12.0
				}

			}
, 			{
				"box" : 				{
					"maxclass" : "newobj",
					"text" : "scale 1. 100. 49.4 0.",
					"linecount" : 3,
					"numoutlets" : 1,
					"id" : "obj-25",
					"outlettype" : [ "float" ],
					"patching_rect" : [ 77.0, 132.0, 62.0, 48.0 ],
					"fontname" : "Arial",
					"numinlets" : 6,
					"fontsize" : 12.0
				}

			}
, 			{
				"box" : 				{
					"maxclass" : "number",
					"numoutlets" : 2,
					"id" : "obj-24",
					"outlettype" : [ "int", "bang" ],
					"patching_rect" : [ 242.0, 220.0, 50.0, 20.0 ],
					"fontname" : "Arial",
					"numinlets" : 1,
					"fontsize" : 12.0
				}

			}
, 			{
				"box" : 				{
					"maxclass" : "number",
					"numoutlets" : 2,
					"id" : "obj-23",
					"outlettype" : [ "int", "bang" ],
					"patching_rect" : [ 176.0, 220.0, 50.0, 20.0 ],
					"fontname" : "Arial",
					"numinlets" : 1,
					"fontsize" : 12.0
				}

			}
, 			{
				"box" : 				{
					"maxclass" : "newobj",
					"text" : "split 0 269",
					"numoutlets" : 2,
					"id" : "obj-21",
					"outlettype" : [ "int", "int" ],
					"patching_rect" : [ 176.0, 198.0, 65.0, 20.0 ],
					"fontname" : "Arial",
					"numinlets" : 3,
					"fontsize" : 12.0
				}

			}
, 			{
				"box" : 				{
					"maxclass" : "newobj",
					"text" : "split 0 269",
					"numoutlets" : 2,
					"id" : "obj-19",
					"outlettype" : [ "int", "int" ],
					"patching_rect" : [ 242.0, 198.0, 65.0, 20.0 ],
					"fontname" : "Arial",
					"numinlets" : 3,
					"fontsize" : 12.0
				}

			}
, 			{
				"box" : 				{
					"maxclass" : "comment",
					"text" : "+/-49.4 Width-Low, 0 Width -High, ",
					"linecount" : 2,
					"numoutlets" : 0,
					"id" : "obj-18",
					"patching_rect" : [ 176.0, 385.0, 150.0, 34.0 ],
					"fontname" : "Arial",
					"numinlets" : 1,
					"fontsize" : 12.0
				}

			}
, 			{
				"box" : 				{
					"maxclass" : "message",
					"text" : "$1 200",
					"numoutlets" : 1,
					"id" : "obj-16",
					"outlettype" : [ "" ],
					"patching_rect" : [ 11.0, 121.0, 47.0, 18.0 ],
					"fontname" : "Arial",
					"numinlets" : 2,
					"fontsize" : 12.0
				}

			}
, 			{
				"box" : 				{
					"maxclass" : "newobj",
					"text" : "line 0.",
					"numoutlets" : 3,
					"id" : "obj-12",
					"outlettype" : [ "", "", "" ],
					"patching_rect" : [ 11.0, 143.0, 46.0, 20.0 ],
					"fontname" : "Arial",
					"numinlets" : 3,
					"fontsize" : 12.0
				}

			}
, 			{
				"box" : 				{
					"maxclass" : "newobj",
					"text" : "prepend /isadora/2",
					"numoutlets" : 1,
					"id" : "obj-11",
					"outlettype" : [ "" ],
					"patching_rect" : [ 121.0, 341.0, 111.0, 20.0 ],
					"fontname" : "Arial",
					"numinlets" : 1,
					"fontsize" : 12.0
				}

			}
, 			{
				"box" : 				{
					"maxclass" : "newobj",
					"text" : "scale 0. 1000. 1. 100.",
					"numoutlets" : 1,
					"id" : "obj-8",
					"outlettype" : [ "float" ],
					"patching_rect" : [ 11.0, 99.0, 125.0, 20.0 ],
					"fontname" : "Arial",
					"numinlets" : 6,
					"fontsize" : 12.0
				}

			}
, 			{
				"box" : 				{
					"maxclass" : "flonum",
					"numoutlets" : 2,
					"id" : "obj-5",
					"outlettype" : [ "float", "bang" ],
					"patching_rect" : [ 55.0, 66.0, 50.0, 20.0 ],
					"fontname" : "Arial",
					"numinlets" : 1,
					"fontsize" : 12.0
				}

			}
, 			{
				"box" : 				{
					"maxclass" : "number",
					"numoutlets" : 2,
					"id" : "obj-50",
					"outlettype" : [ "int", "bang" ],
					"patching_rect" : [ 225.0, 173.0, 50.0, 20.0 ],
					"fontname" : "Arial",
					"numinlets" : 1,
					"fontsize" : 12.0
				}

			}
, 			{
				"box" : 				{
					"maxclass" : "number",
					"numoutlets" : 2,
					"id" : "obj-48",
					"outlettype" : [ "int", "bang" ],
					"patching_rect" : [ 175.0, 173.0, 50.0, 20.0 ],
					"fontname" : "Arial",
					"numinlets" : 1,
					"fontsize" : 12.0
				}

			}
, 			{
				"box" : 				{
					"maxclass" : "newobj",
					"text" : "unpack 0 0 0 0",
					"numoutlets" : 4,
					"id" : "obj-46",
					"outlettype" : [ "int", "int", "int", "int" ],
					"patching_rect" : [ 165.0, 143.0, 89.0, 20.0 ],
					"fontname" : "Arial",
					"numinlets" : 1,
					"fontsize" : 12.0
				}

			}
, 			{
				"box" : 				{
					"maxclass" : "newobj",
					"text" : "fromsymbol",
					"numoutlets" : 1,
					"id" : "obj-33",
					"outlettype" : [ "" ],
					"patching_rect" : [ 164.0, 117.0, 73.0, 20.0 ],
					"fontname" : "Arial",
					"numinlets" : 1,
					"fontsize" : 12.0
				}

			}
, 			{
				"box" : 				{
					"maxclass" : "message",
					"text" : "\"0 277 -20 0\"",
					"linecount" : 2,
					"numoutlets" : 1,
					"id" : "obj-15",
					"outlettype" : [ "" ],
					"patching_rect" : [ 154.0, 77.0, 50.0, 32.0 ],
					"fontname" : "Arial",
					"numinlets" : 2,
					"fontsize" : 12.0
				}

			}
, 			{
				"box" : 				{
					"maxclass" : "newobj",
					"text" : "route /oscRemote/slider1 /oscRemote/xy1",
					"numoutlets" : 3,
					"id" : "obj-7",
					"outlettype" : [ "", "", "" ],
					"patching_rect" : [ 55.0, 44.0, 233.0, 20.0 ],
					"fontname" : "Arial",
					"numinlets" : 1,
					"fontsize" : 12.0
				}

			}
, 			{
				"box" : 				{
					"maxclass" : "newobj",
					"text" : "udpreceive 7000",
					"numoutlets" : 1,
					"id" : "obj-6",
					"outlettype" : [ "" ],
					"patching_rect" : [ 55.0, 22.0, 99.0, 20.0 ],
					"fontname" : "Arial",
					"numinlets" : 1,
					"fontsize" : 12.0
				}

			}
, 			{
				"box" : 				{
					"maxclass" : "flonum",
					"numoutlets" : 2,
					"id" : "obj-2",
					"outlettype" : [ "float", "bang" ],
					"patching_rect" : [ 11.0, 297.0, 50.0, 20.0 ],
					"fontname" : "Arial",
					"numinlets" : 1,
					"fontsize" : 12.0
				}

			}
, 			{
				"box" : 				{
					"maxclass" : "newobj",
					"text" : "prepend /isadora/1",
					"numoutlets" : 1,
					"id" : "obj-3",
					"outlettype" : [ "" ],
					"patching_rect" : [ 11.0, 319.0, 111.0, 20.0 ],
					"fontname" : "Arial",
					"numinlets" : 1,
					"fontsize" : 12.0
				}

			}
, 			{
				"box" : 				{
					"maxclass" : "newobj",
					"text" : "udpsend localhost 7002",
					"numoutlets" : 0,
					"id" : "obj-4",
					"patching_rect" : [ 11.0, 363.0, 137.0, 20.0 ],
					"fontname" : "Arial",
					"numinlets" : 1,
					"fontsize" : 12.0
				}

			}
 ],
		"lines" : [ 			{
				"patchline" : 				{
					"source" : [ "obj-7", 0 ],
					"destination" : [ "obj-5", 0 ],
					"hidden" : 0,
					"midpoints" : [  ]
				}

			}
, 			{
				"patchline" : 				{
					"source" : [ "obj-2", 0 ],
					"destination" : [ "obj-3", 0 ],
					"hidden" : 0,
					"midpoints" : [  ]
				}

			}
, 			{
				"patchline" : 				{
					"source" : [ "obj-15", 0 ],
					"destination" : [ "obj-33", 0 ],
					"hidden" : 0,
					"midpoints" : [  ]
				}

			}
, 			{
				"patchline" : 				{
					"source" : [ "obj-46", 2 ],
					"destination" : [ "obj-50", 0 ],
					"hidden" : 0,
					"midpoints" : [  ]
				}

			}
, 			{
				"patchline" : 				{
					"source" : [ "obj-46", 1 ],
					"destination" : [ "obj-48", 0 ],
					"hidden" : 0,
					"midpoints" : [  ]
				}

			}
, 			{
				"patchline" : 				{
					"source" : [ "obj-33", 0 ],
					"destination" : [ "obj-46", 0 ],
					"hidden" : 0,
					"midpoints" : [  ]
				}

			}
, 			{
				"patchline" : 				{
					"source" : [ "obj-7", 1 ],
					"destination" : [ "obj-15", 0 ],
					"hidden" : 0,
					"midpoints" : [  ]
				}

			}
, 			{
				"patchline" : 				{
					"source" : [ "obj-7", 1 ],
					"destination" : [ "obj-15", 1 ],
					"hidden" : 0,
					"midpoints" : [  ]
				}

			}
, 			{
				"patchline" : 				{
					"source" : [ "obj-3", 0 ],
					"destination" : [ "obj-4", 0 ],
					"hidden" : 0,
					"midpoints" : [  ]
				}

			}
, 			{
				"patchline" : 				{
					"source" : [ "obj-6", 0 ],
					"destination" : [ "obj-7", 0 ],
					"hidden" : 0,
					"midpoints" : [  ]
				}

			}
, 			{
				"patchline" : 				{
					"source" : [ "obj-16", 0 ],
					"destination" : [ "obj-12", 0 ],
					"hidden" : 0,
					"midpoints" : [  ]
				}

			}
, 			{
				"patchline" : 				{
					"source" : [ "obj-12", 0 ],
					"destination" : [ "obj-2", 0 ],
					"hidden" : 0,
					"midpoints" : [  ]
				}

			}
, 			{
				"patchline" : 				{
					"source" : [ "obj-8", 0 ],
					"destination" : [ "obj-16", 0 ],
					"hidden" : 0,
					"midpoints" : [  ]
				}

			}
, 			{
				"patchline" : 				{
					"source" : [ "obj-5", 0 ],
					"destination" : [ "obj-8", 0 ],
					"hidden" : 0,
					"midpoints" : [  ]
				}

			}
, 			{
				"patchline" : 				{
					"source" : [ "obj-50", 0 ],
					"destination" : [ "obj-19", 0 ],
					"hidden" : 0,
					"midpoints" : [  ]
				}

			}
, 			{
				"patchline" : 				{
					"source" : [ "obj-48", 0 ],
					"destination" : [ "obj-21", 0 ],
					"hidden" : 0,
					"midpoints" : [  ]
				}

			}
, 			{
				"patchline" : 				{
					"source" : [ "obj-21", 0 ],
					"destination" : [ "obj-23", 0 ],
					"hidden" : 0,
					"midpoints" : [  ]
				}

			}
, 			{
				"patchline" : 				{
					"source" : [ "obj-29", 0 ],
					"destination" : [ "obj-30", 1 ],
					"hidden" : 0,
					"midpoints" : [  ]
				}

			}
, 			{
				"patchline" : 				{
					"source" : [ "obj-30", 0 ],
					"destination" : [ "obj-32", 0 ],
					"hidden" : 0,
					"midpoints" : [  ]
				}

			}
, 			{
				"patchline" : 				{
					"source" : [ "obj-25", 0 ],
					"destination" : [ "obj-30", 0 ],
					"hidden" : 0,
					"midpoints" : [  ]
				}

			}
, 			{
				"patchline" : 				{
					"source" : [ "obj-25", 0 ],
					"destination" : [ "obj-29", 0 ],
					"hidden" : 0,
					"midpoints" : [  ]
				}

			}
, 			{
				"patchline" : 				{
					"source" : [ "obj-8", 0 ],
					"destination" : [ "obj-25", 0 ],
					"hidden" : 0,
					"midpoints" : [  ]
				}

			}
, 			{
				"patchline" : 				{
					"source" : [ "obj-32", 0 ],
					"destination" : [ "obj-27", 3 ],
					"hidden" : 0,
					"midpoints" : [  ]
				}

			}
, 			{
				"patchline" : 				{
					"source" : [ "obj-32", 0 ],
					"destination" : [ "obj-28", 3 ],
					"hidden" : 0,
					"midpoints" : [  ]
				}

			}
, 			{
				"patchline" : 				{
					"source" : [ "obj-25", 0 ],
					"destination" : [ "obj-27", 4 ],
					"hidden" : 0,
					"midpoints" : [  ]
				}

			}
, 			{
				"patchline" : 				{
					"source" : [ "obj-25", 0 ],
					"destination" : [ "obj-28", 4 ],
					"hidden" : 0,
					"midpoints" : [  ]
				}

			}
, 			{
				"patchline" : 				{
					"source" : [ "obj-23", 0 ],
					"destination" : [ "obj-27", 0 ],
					"hidden" : 0,
					"midpoints" : [  ]
				}

			}
, 			{
				"patchline" : 				{
					"source" : [ "obj-24", 0 ],
					"destination" : [ "obj-28", 0 ],
					"hidden" : 0,
					"midpoints" : [  ]
				}

			}
, 			{
				"patchline" : 				{
					"source" : [ "obj-19", 0 ],
					"destination" : [ "obj-24", 0 ],
					"hidden" : 0,
					"midpoints" : [  ]
				}

			}
, 			{
				"patchline" : 				{
					"source" : [ "obj-1", 0 ],
					"destination" : [ "obj-10", 0 ],
					"hidden" : 0,
					"midpoints" : [  ]
				}

			}
, 			{
				"patchline" : 				{
					"source" : [ "obj-11", 0 ],
					"destination" : [ "obj-4", 0 ],
					"hidden" : 0,
					"midpoints" : [  ]
				}

			}
, 			{
				"patchline" : 				{
					"source" : [ "obj-26", 0 ],
					"destination" : [ "obj-4", 0 ],
					"hidden" : 0,
					"midpoints" : [  ]
				}

			}
, 			{
				"patchline" : 				{
					"source" : [ "obj-27", 0 ],
					"destination" : [ "obj-1", 0 ],
					"hidden" : 0,
					"midpoints" : [  ]
				}

			}
, 			{
				"patchline" : 				{
					"source" : [ "obj-10", 0 ],
					"destination" : [ "obj-11", 0 ],
					"hidden" : 0,
					"midpoints" : [  ]
				}

			}
, 			{
				"patchline" : 				{
					"source" : [ "obj-13", 0 ],
					"destination" : [ "obj-14", 0 ],
					"hidden" : 0,
					"midpoints" : [  ]
				}

			}
, 			{
				"patchline" : 				{
					"source" : [ "obj-28", 0 ],
					"destination" : [ "obj-13", 0 ],
					"hidden" : 0,
					"midpoints" : [  ]
				}

			}
, 			{
				"patchline" : 				{
					"source" : [ "obj-14", 0 ],
					"destination" : [ "obj-26", 0 ],
					"hidden" : 0,
					"midpoints" : [  ]
				}

			}
 ]
	}

}
