{
	"patcher" : 	{
		"fileversion" : 1,
		"rect" : [ 832.0, 130.0, 448.0, 293.0 ],
		"bglocked" : 0,
		"defrect" : [ 832.0, 130.0, 448.0, 293.0 ],
		"openrect" : [ 0.0, 0.0, 0.0, 0.0 ],
		"openinpresentation" : 0,
		"default_fontsize" : 12.0,
		"default_fontface" : 0,
		"default_fontname" : "Arial",
		"gridonopen" : 0,
		"gridsize" : [ 15.0, 15.0 ],
		"gridsnaponopen" : 0,
		"toolbarvisible" : 1,
		"boxanimatetime" : 200,
		"imprint" : 0,
		"metadata" : [  ],
		"boxes" : [ 			{
				"box" : 				{
					"maxclass" : "newobj",
					"text" : "*~",
					"numinlets" : 2,
					"fontsize" : 12.0,
					"numoutlets" : 1,
					"id" : "obj-44",
					"outlettype" : [ "signal" ],
					"presentation_rect" : [ 239.0, 225.0, 0.0, 0.0 ],
					"fontname" : "Arial",
					"patching_rect" : [ 240.0, 225.0, 32.5, 20.0 ]
				}

			}
, 			{
				"box" : 				{
					"maxclass" : "newobj",
					"text" : "*~",
					"numinlets" : 2,
					"fontsize" : 12.0,
					"numoutlets" : 1,
					"id" : "obj-43",
					"outlettype" : [ "signal" ],
					"presentation_rect" : [ 152.0, 227.0, 0.0, 0.0 ],
					"fontname" : "Arial",
					"patching_rect" : [ 150.0, 225.0, 32.5, 20.0 ]
				}

			}
, 			{
				"box" : 				{
					"maxclass" : "newobj",
					"text" : "*~",
					"numinlets" : 2,
					"fontsize" : 12.0,
					"numoutlets" : 1,
					"id" : "obj-15",
					"outlettype" : [ "signal" ],
					"presentation_rect" : [ 62.0, 222.0, 0.0, 0.0 ],
					"fontname" : "Arial",
					"patching_rect" : [ 60.0, 225.0, 32.5, 20.0 ]
				}

			}
, 			{
				"box" : 				{
					"maxclass" : "newobj",
					"text" : "*~",
					"numinlets" : 2,
					"fontsize" : 12.0,
					"numoutlets" : 1,
					"id" : "obj-12",
					"outlettype" : [ "signal" ],
					"presentation_rect" : [ 172.0, 228.0, 0.0, 0.0 ],
					"fontname" : "Arial",
					"patching_rect" : [ 195.0, 225.0, 32.5, 20.0 ]
				}

			}
, 			{
				"box" : 				{
					"maxclass" : "newobj",
					"text" : "*~",
					"numinlets" : 2,
					"fontsize" : 12.0,
					"numoutlets" : 1,
					"id" : "obj-11",
					"outlettype" : [ "signal" ],
					"presentation_rect" : [ 102.0, 220.0, 0.0, 0.0 ],
					"fontname" : "Arial",
					"patching_rect" : [ 105.0, 225.0, 32.5, 20.0 ]
				}

			}
, 			{
				"box" : 				{
					"maxclass" : "newobj",
					"text" : "*~",
					"numinlets" : 2,
					"fontsize" : 12.0,
					"numoutlets" : 1,
					"id" : "obj-9",
					"outlettype" : [ "signal" ],
					"fontname" : "Arial",
					"patching_rect" : [ 15.0, 225.0, 32.5, 20.0 ]
				}

			}
, 			{
				"box" : 				{
					"maxclass" : "message",
					"text" : "0.31",
					"numinlets" : 2,
					"fontsize" : 12.0,
					"numoutlets" : 1,
					"id" : "obj-8",
					"outlettype" : [ "" ],
					"presentation_rect" : [ 301.0, 226.0, 0.0, 0.0 ],
					"fontname" : "Arial",
					"patching_rect" : [ 375.0, 210.0, 34.0, 18.0 ]
				}

			}
, 			{
				"box" : 				{
					"maxclass" : "message",
					"text" : "0.46",
					"numinlets" : 2,
					"fontsize" : 12.0,
					"numoutlets" : 1,
					"id" : "obj-7",
					"outlettype" : [ "" ],
					"presentation_rect" : [ 250.0, 227.0, 0.0, 0.0 ],
					"fontname" : "Arial",
					"patching_rect" : [ 330.0, 210.0, 34.0, 18.0 ]
				}

			}
, 			{
				"box" : 				{
					"maxclass" : "message",
					"text" : "0.97",
					"numinlets" : 2,
					"fontsize" : 12.0,
					"numoutlets" : 1,
					"id" : "obj-4",
					"outlettype" : [ "" ],
					"fontname" : "Arial",
					"patching_rect" : [ 285.0, 210.0, 34.0, 18.0 ]
				}

			}
, 			{
				"box" : 				{
					"maxclass" : "newobj",
					"text" : "in 5",
					"numinlets" : 1,
					"fontsize" : 12.0,
					"numoutlets" : 1,
					"id" : "obj-42",
					"outlettype" : [ "" ],
					"fontname" : "Arial",
					"patching_rect" : [ 312.0, 99.0, 30.0, 20.0 ],
					"saved_object_attributes" : 					{
						"attr_comment" : "Gate"
					}

				}

			}
, 			{
				"box" : 				{
					"maxclass" : "message",
					"text" : "1",
					"numinlets" : 2,
					"fontsize" : 12.0,
					"numoutlets" : 1,
					"id" : "obj-37",
					"outlettype" : [ "" ],
					"fontname" : "Arial",
					"patching_rect" : [ 197.0, 143.0, 18.0, 18.0 ]
				}

			}
, 			{
				"box" : 				{
					"maxclass" : "message",
					"text" : "0",
					"numinlets" : 2,
					"fontsize" : 12.0,
					"numoutlets" : 1,
					"id" : "obj-38",
					"outlettype" : [ "" ],
					"fontname" : "Arial",
					"patching_rect" : [ 183.0, 143.0, 18.0, 18.0 ]
				}

			}
, 			{
				"box" : 				{
					"maxclass" : "toggle",
					"numinlets" : 1,
					"numoutlets" : 1,
					"id" : "obj-39",
					"outlettype" : [ "int" ],
					"patching_rect" : [ 187.0, 163.0, 17.0, 17.0 ]
				}

			}
, 			{
				"box" : 				{
					"maxclass" : "newobj",
					"text" : "gate~",
					"numinlets" : 2,
					"fontsize" : 12.0,
					"numoutlets" : 1,
					"id" : "obj-40",
					"outlettype" : [ "signal" ],
					"fontname" : "Arial",
					"patching_rect" : [ 233.0, 183.0, 41.0, 20.0 ]
				}

			}
, 			{
				"box" : 				{
					"maxclass" : "newobj",
					"text" : "gate~",
					"numinlets" : 2,
					"fontsize" : 12.0,
					"numoutlets" : 1,
					"id" : "obj-41",
					"outlettype" : [ "signal" ],
					"fontname" : "Arial",
					"patching_rect" : [ 188.0, 183.0, 41.0, 20.0 ]
				}

			}
, 			{
				"box" : 				{
					"maxclass" : "newobj",
					"text" : "gizmo~",
					"numinlets" : 3,
					"fontsize" : 12.0,
					"numoutlets" : 2,
					"id" : "obj-36",
					"outlettype" : [ "signal", "signal" ],
					"fontname" : "Arial",
					"patching_rect" : [ 247.0, 92.0, 52.0, 20.0 ]
				}

			}
, 			{
				"box" : 				{
					"maxclass" : "newobj",
					"text" : "in 4",
					"numinlets" : 1,
					"fontsize" : 12.0,
					"numoutlets" : 1,
					"id" : "obj-33",
					"outlettype" : [ "" ],
					"fontname" : "Arial",
					"patching_rect" : [ 321.0, 20.0, 30.0, 20.0 ],
					"saved_object_attributes" : 					{
						"attr_comment" : [ "Pitch", "Shift", "of", "Gizmo~", 3 ]
					}

				}

			}
, 			{
				"box" : 				{
					"maxclass" : "newobj",
					"text" : "expr pow(2.\\,$f1/12)",
					"numinlets" : 1,
					"fontsize" : 11.595187,
					"numoutlets" : 1,
					"id" : "obj-34",
					"outlettype" : [ "" ],
					"fontname" : "Arial",
					"patching_rect" : [ 321.0, 50.0, 117.0, 20.0 ]
				}

			}
, 			{
				"box" : 				{
					"maxclass" : "flonum",
					"numinlets" : 1,
					"fontsize" : 11.595187,
					"numoutlets" : 2,
					"id" : "obj-35",
					"outlettype" : [ "float", "bang" ],
					"fontname" : "Arial",
					"patching_rect" : [ 321.0, 73.0, 50.0, 20.0 ]
				}

			}
, 			{
				"box" : 				{
					"maxclass" : "newobj",
					"text" : "in 3",
					"numinlets" : 1,
					"fontsize" : 12.0,
					"numoutlets" : 1,
					"id" : "obj-30",
					"outlettype" : [ "" ],
					"fontname" : "Arial",
					"patching_rect" : [ 205.0, 20.0, 30.0, 20.0 ],
					"saved_object_attributes" : 					{
						"attr_comment" : [ "Pitch", "Shift", "of", "Gizmo~", 2 ]
					}

				}

			}
, 			{
				"box" : 				{
					"maxclass" : "newobj",
					"text" : "expr pow(2.\\,$f1/12)",
					"numinlets" : 1,
					"fontsize" : 11.595187,
					"numoutlets" : 1,
					"id" : "obj-31",
					"outlettype" : [ "" ],
					"fontname" : "Arial",
					"patching_rect" : [ 205.0, 50.0, 117.0, 20.0 ]
				}

			}
, 			{
				"box" : 				{
					"maxclass" : "flonum",
					"numinlets" : 1,
					"fontsize" : 11.595187,
					"numoutlets" : 2,
					"id" : "obj-32",
					"outlettype" : [ "float", "bang" ],
					"fontname" : "Arial",
					"patching_rect" : [ 205.0, 73.0, 50.0, 20.0 ]
				}

			}
, 			{
				"box" : 				{
					"maxclass" : "newobj",
					"text" : "gizmo~",
					"numinlets" : 3,
					"fontsize" : 12.0,
					"numoutlets" : 2,
					"id" : "obj-29",
					"outlettype" : [ "signal", "signal" ],
					"fontname" : "Arial",
					"patching_rect" : [ 129.0, 92.0, 52.0, 20.0 ]
				}

			}
, 			{
				"box" : 				{
					"maxclass" : "message",
					"text" : "1",
					"numinlets" : 2,
					"fontsize" : 12.0,
					"numoutlets" : 1,
					"id" : "obj-23",
					"outlettype" : [ "" ],
					"fontname" : "Arial",
					"patching_rect" : [ 108.0, 143.0, 18.0, 18.0 ]
				}

			}
, 			{
				"box" : 				{
					"maxclass" : "message",
					"text" : "0",
					"numinlets" : 2,
					"fontsize" : 12.0,
					"numoutlets" : 1,
					"id" : "obj-24",
					"outlettype" : [ "" ],
					"fontname" : "Arial",
					"patching_rect" : [ 94.0, 143.0, 18.0, 18.0 ]
				}

			}
, 			{
				"box" : 				{
					"maxclass" : "toggle",
					"numinlets" : 1,
					"numoutlets" : 1,
					"id" : "obj-25",
					"outlettype" : [ "int" ],
					"patching_rect" : [ 98.0, 163.0, 17.0, 17.0 ]
				}

			}
, 			{
				"box" : 				{
					"maxclass" : "newobj",
					"text" : "gate~",
					"numinlets" : 2,
					"fontsize" : 12.0,
					"numoutlets" : 1,
					"id" : "obj-26",
					"outlettype" : [ "signal" ],
					"fontname" : "Arial",
					"patching_rect" : [ 144.0, 183.0, 41.0, 20.0 ]
				}

			}
, 			{
				"box" : 				{
					"maxclass" : "newobj",
					"text" : "gate~",
					"numinlets" : 2,
					"fontsize" : 12.0,
					"numoutlets" : 1,
					"id" : "obj-28",
					"outlettype" : [ "signal" ],
					"fontname" : "Arial",
					"patching_rect" : [ 99.0, 183.0, 41.0, 20.0 ]
				}

			}
, 			{
				"box" : 				{
					"maxclass" : "message",
					"text" : "1",
					"numinlets" : 2,
					"fontsize" : 12.0,
					"numoutlets" : 1,
					"id" : "obj-22",
					"outlettype" : [ "" ],
					"fontname" : "Arial",
					"patching_rect" : [ 21.0, 143.0, 18.0, 18.0 ]
				}

			}
, 			{
				"box" : 				{
					"maxclass" : "message",
					"text" : "0",
					"numinlets" : 2,
					"fontsize" : 12.0,
					"numoutlets" : 1,
					"id" : "obj-21",
					"outlettype" : [ "" ],
					"fontname" : "Arial",
					"patching_rect" : [ 7.0, 143.0, 18.0, 18.0 ]
				}

			}
, 			{
				"box" : 				{
					"maxclass" : "toggle",
					"numinlets" : 1,
					"numoutlets" : 1,
					"id" : "obj-18",
					"outlettype" : [ "int" ],
					"patching_rect" : [ 11.0, 163.0, 17.0, 17.0 ]
				}

			}
, 			{
				"box" : 				{
					"maxclass" : "newobj",
					"text" : "sel 1 2 3",
					"numinlets" : 1,
					"fontsize" : 12.0,
					"numoutlets" : 4,
					"id" : "obj-17",
					"outlettype" : [ "bang", "bang", "bang", "" ],
					"fontname" : "Arial",
					"patching_rect" : [ 312.0, 124.0, 59.5, 20.0 ]
				}

			}
, 			{
				"box" : 				{
					"maxclass" : "newobj",
					"text" : "gate~",
					"numinlets" : 2,
					"fontsize" : 12.0,
					"numoutlets" : 1,
					"id" : "obj-16",
					"outlettype" : [ "signal" ],
					"fontname" : "Arial",
					"patching_rect" : [ 57.0, 183.0, 41.0, 20.0 ]
				}

			}
, 			{
				"box" : 				{
					"maxclass" : "newobj",
					"text" : "gate~",
					"numinlets" : 2,
					"fontsize" : 12.0,
					"numoutlets" : 1,
					"id" : "obj-14",
					"outlettype" : [ "signal" ],
					"fontname" : "Arial",
					"patching_rect" : [ 12.0, 183.0, 41.0, 20.0 ]
				}

			}
, 			{
				"box" : 				{
					"maxclass" : "newobj",
					"text" : "in 2",
					"numinlets" : 1,
					"fontsize" : 12.0,
					"numoutlets" : 1,
					"id" : "obj-13",
					"outlettype" : [ "" ],
					"fontname" : "Arial",
					"patching_rect" : [ 87.0, 20.0, 30.0, 20.0 ],
					"saved_object_attributes" : 					{
						"attr_comment" : [ "Pitch", "Shift", "of", "Gizmo~", 1 ]
					}

				}

			}
, 			{
				"box" : 				{
					"maxclass" : "comment",
					"text" : "4096 and 4 for pfft~ aruments",
					"linecount" : 2,
					"numinlets" : 1,
					"fontsize" : 12.0,
					"numoutlets" : 0,
					"id" : "obj-10",
					"fontname" : "Arial",
					"patching_rect" : [ 300.0, 165.0, 89.0, 34.0 ]
				}

			}
, 			{
				"box" : 				{
					"maxclass" : "newobj",
					"text" : "expr pow(2.\\,$f1/12)",
					"numinlets" : 1,
					"fontsize" : 11.595187,
					"numoutlets" : 1,
					"id" : "obj-5",
					"outlettype" : [ "" ],
					"fontname" : "Arial",
					"patching_rect" : [ 87.0, 50.0, 117.0, 20.0 ]
				}

			}
, 			{
				"box" : 				{
					"maxclass" : "flonum",
					"numinlets" : 1,
					"fontsize" : 11.595187,
					"numoutlets" : 2,
					"id" : "obj-27",
					"outlettype" : [ "float", "bang" ],
					"fontname" : "Arial",
					"patching_rect" : [ 87.0, 73.0, 50.0, 20.0 ]
				}

			}
, 			{
				"box" : 				{
					"maxclass" : "newobj",
					"text" : "gizmo~",
					"numinlets" : 3,
					"fontsize" : 12.0,
					"numoutlets" : 2,
					"id" : "obj-6",
					"outlettype" : [ "signal", "signal" ],
					"fontname" : "Arial",
					"patching_rect" : [ 27.0, 92.0, 52.0, 20.0 ]
				}

			}
, 			{
				"box" : 				{
					"maxclass" : "newobj",
					"text" : "fftout~ 1",
					"numinlets" : 2,
					"fontsize" : 12.0,
					"numoutlets" : 0,
					"id" : "obj-2",
					"fontname" : "Arial",
					"patching_rect" : [ 120.0, 270.0, 53.0, 20.0 ]
				}

			}
, 			{
				"box" : 				{
					"maxclass" : "newobj",
					"text" : "fftin~ 1",
					"numinlets" : 1,
					"fontsize" : 12.0,
					"numoutlets" : 3,
					"id" : "obj-1",
					"outlettype" : [ "signal", "signal", "signal" ],
					"fontname" : "Arial",
					"patching_rect" : [ 27.0, 47.0, 47.0, 20.0 ]
				}

			}
 ],
		"lines" : [ 			{
				"patchline" : 				{
					"source" : [ "obj-8", 0 ],
					"destination" : [ "obj-9", 1 ],
					"hidden" : 0,
					"midpoints" : [  ]
				}

			}
, 			{
				"patchline" : 				{
					"source" : [ "obj-8", 0 ],
					"destination" : [ "obj-15", 1 ],
					"hidden" : 0,
					"midpoints" : [  ]
				}

			}
, 			{
				"patchline" : 				{
					"source" : [ "obj-8", 0 ],
					"destination" : [ "obj-43", 1 ],
					"hidden" : 0,
					"midpoints" : [  ]
				}

			}
, 			{
				"patchline" : 				{
					"source" : [ "obj-8", 0 ],
					"destination" : [ "obj-11", 1 ],
					"hidden" : 0,
					"midpoints" : [  ]
				}

			}
, 			{
				"patchline" : 				{
					"source" : [ "obj-8", 0 ],
					"destination" : [ "obj-44", 1 ],
					"hidden" : 0,
					"midpoints" : [  ]
				}

			}
, 			{
				"patchline" : 				{
					"source" : [ "obj-8", 0 ],
					"destination" : [ "obj-12", 1 ],
					"hidden" : 0,
					"midpoints" : [  ]
				}

			}
, 			{
				"patchline" : 				{
					"source" : [ "obj-7", 0 ],
					"destination" : [ "obj-43", 1 ],
					"hidden" : 0,
					"midpoints" : [  ]
				}

			}
, 			{
				"patchline" : 				{
					"source" : [ "obj-7", 0 ],
					"destination" : [ "obj-11", 1 ],
					"hidden" : 0,
					"midpoints" : [  ]
				}

			}
, 			{
				"patchline" : 				{
					"source" : [ "obj-7", 0 ],
					"destination" : [ "obj-15", 1 ],
					"hidden" : 0,
					"midpoints" : [  ]
				}

			}
, 			{
				"patchline" : 				{
					"source" : [ "obj-7", 0 ],
					"destination" : [ "obj-9", 1 ],
					"hidden" : 0,
					"midpoints" : [  ]
				}

			}
, 			{
				"patchline" : 				{
					"source" : [ "obj-4", 0 ],
					"destination" : [ "obj-15", 1 ],
					"hidden" : 0,
					"midpoints" : [  ]
				}

			}
, 			{
				"patchline" : 				{
					"source" : [ "obj-4", 0 ],
					"destination" : [ "obj-9", 1 ],
					"hidden" : 0,
					"midpoints" : [  ]
				}

			}
, 			{
				"patchline" : 				{
					"source" : [ "obj-9", 0 ],
					"destination" : [ "obj-2", 0 ],
					"hidden" : 0,
					"midpoints" : [  ]
				}

			}
, 			{
				"patchline" : 				{
					"source" : [ "obj-11", 0 ],
					"destination" : [ "obj-2", 0 ],
					"hidden" : 0,
					"midpoints" : [  ]
				}

			}
, 			{
				"patchline" : 				{
					"source" : [ "obj-12", 0 ],
					"destination" : [ "obj-2", 0 ],
					"hidden" : 0,
					"midpoints" : [  ]
				}

			}
, 			{
				"patchline" : 				{
					"source" : [ "obj-15", 0 ],
					"destination" : [ "obj-2", 1 ],
					"hidden" : 0,
					"midpoints" : [  ]
				}

			}
, 			{
				"patchline" : 				{
					"source" : [ "obj-43", 0 ],
					"destination" : [ "obj-2", 1 ],
					"hidden" : 0,
					"midpoints" : [  ]
				}

			}
, 			{
				"patchline" : 				{
					"source" : [ "obj-44", 0 ],
					"destination" : [ "obj-2", 1 ],
					"hidden" : 0,
					"midpoints" : [  ]
				}

			}
, 			{
				"patchline" : 				{
					"source" : [ "obj-40", 0 ],
					"destination" : [ "obj-44", 0 ],
					"hidden" : 0,
					"midpoints" : [  ]
				}

			}
, 			{
				"patchline" : 				{
					"source" : [ "obj-26", 0 ],
					"destination" : [ "obj-43", 0 ],
					"hidden" : 0,
					"midpoints" : [  ]
				}

			}
, 			{
				"patchline" : 				{
					"source" : [ "obj-16", 0 ],
					"destination" : [ "obj-15", 0 ],
					"hidden" : 0,
					"midpoints" : [  ]
				}

			}
, 			{
				"patchline" : 				{
					"source" : [ "obj-41", 0 ],
					"destination" : [ "obj-12", 0 ],
					"hidden" : 0,
					"midpoints" : [  ]
				}

			}
, 			{
				"patchline" : 				{
					"source" : [ "obj-28", 0 ],
					"destination" : [ "obj-11", 0 ],
					"hidden" : 0,
					"midpoints" : [  ]
				}

			}
, 			{
				"patchline" : 				{
					"source" : [ "obj-14", 0 ],
					"destination" : [ "obj-9", 0 ],
					"hidden" : 0,
					"midpoints" : [  ]
				}

			}
, 			{
				"patchline" : 				{
					"source" : [ "obj-17", 2 ],
					"destination" : [ "obj-8", 0 ],
					"hidden" : 0,
					"midpoints" : [  ]
				}

			}
, 			{
				"patchline" : 				{
					"source" : [ "obj-17", 1 ],
					"destination" : [ "obj-7", 0 ],
					"hidden" : 0,
					"midpoints" : [  ]
				}

			}
, 			{
				"patchline" : 				{
					"source" : [ "obj-17", 0 ],
					"destination" : [ "obj-4", 0 ],
					"hidden" : 0,
					"midpoints" : [  ]
				}

			}
, 			{
				"patchline" : 				{
					"source" : [ "obj-17", 2 ],
					"destination" : [ "obj-37", 0 ],
					"hidden" : 0,
					"midpoints" : [  ]
				}

			}
, 			{
				"patchline" : 				{
					"source" : [ "obj-17", 2 ],
					"destination" : [ "obj-23", 0 ],
					"hidden" : 0,
					"midpoints" : [  ]
				}

			}
, 			{
				"patchline" : 				{
					"source" : [ "obj-17", 2 ],
					"destination" : [ "obj-22", 0 ],
					"hidden" : 0,
					"midpoints" : [  ]
				}

			}
, 			{
				"patchline" : 				{
					"source" : [ "obj-17", 1 ],
					"destination" : [ "obj-38", 0 ],
					"hidden" : 0,
					"midpoints" : [  ]
				}

			}
, 			{
				"patchline" : 				{
					"source" : [ "obj-17", 1 ],
					"destination" : [ "obj-23", 0 ],
					"hidden" : 0,
					"midpoints" : [  ]
				}

			}
, 			{
				"patchline" : 				{
					"source" : [ "obj-17", 1 ],
					"destination" : [ "obj-22", 0 ],
					"hidden" : 0,
					"midpoints" : [  ]
				}

			}
, 			{
				"patchline" : 				{
					"source" : [ "obj-17", 0 ],
					"destination" : [ "obj-38", 0 ],
					"hidden" : 0,
					"midpoints" : [  ]
				}

			}
, 			{
				"patchline" : 				{
					"source" : [ "obj-17", 0 ],
					"destination" : [ "obj-24", 0 ],
					"hidden" : 0,
					"midpoints" : [  ]
				}

			}
, 			{
				"patchline" : 				{
					"source" : [ "obj-17", 0 ],
					"destination" : [ "obj-22", 0 ],
					"hidden" : 0,
					"midpoints" : [  ]
				}

			}
, 			{
				"patchline" : 				{
					"source" : [ "obj-42", 0 ],
					"destination" : [ "obj-17", 0 ],
					"hidden" : 0,
					"midpoints" : [  ]
				}

			}
, 			{
				"patchline" : 				{
					"source" : [ "obj-33", 0 ],
					"destination" : [ "obj-34", 0 ],
					"hidden" : 0,
					"midpoints" : [  ]
				}

			}
, 			{
				"patchline" : 				{
					"source" : [ "obj-36", 1 ],
					"destination" : [ "obj-40", 1 ],
					"hidden" : 0,
					"midpoints" : [  ]
				}

			}
, 			{
				"patchline" : 				{
					"source" : [ "obj-36", 0 ],
					"destination" : [ "obj-41", 1 ],
					"hidden" : 0,
					"midpoints" : [  ]
				}

			}
, 			{
				"patchline" : 				{
					"source" : [ "obj-37", 0 ],
					"destination" : [ "obj-39", 0 ],
					"hidden" : 0,
					"midpoints" : [  ]
				}

			}
, 			{
				"patchline" : 				{
					"source" : [ "obj-38", 0 ],
					"destination" : [ "obj-39", 0 ],
					"hidden" : 0,
					"midpoints" : [  ]
				}

			}
, 			{
				"patchline" : 				{
					"source" : [ "obj-39", 0 ],
					"destination" : [ "obj-40", 0 ],
					"hidden" : 0,
					"midpoints" : [ 196.5, 180.0, 242.5, 180.0 ]
				}

			}
, 			{
				"patchline" : 				{
					"source" : [ "obj-39", 0 ],
					"destination" : [ "obj-41", 0 ],
					"hidden" : 0,
					"midpoints" : [  ]
				}

			}
, 			{
				"patchline" : 				{
					"source" : [ "obj-1", 1 ],
					"destination" : [ "obj-36", 1 ],
					"hidden" : 0,
					"midpoints" : [ 50.5, 77.0, 84.0, 77.0, 84.0, 104.0, 114.0, 104.0, 114.0, 122.0, 300.0, 122.0, 300.0, 89.0, 273.0, 89.0 ]
				}

			}
, 			{
				"patchline" : 				{
					"source" : [ "obj-1", 0 ],
					"destination" : [ "obj-36", 0 ],
					"hidden" : 0,
					"midpoints" : [ 36.5, 77.0, 84.0, 77.0, 84.0, 104.0, 114.0, 104.0, 114.0, 122.0, 300.0, 122.0, 300.0, 89.0, 256.5, 89.0 ]
				}

			}
, 			{
				"patchline" : 				{
					"source" : [ "obj-35", 0 ],
					"destination" : [ "obj-36", 2 ],
					"hidden" : 0,
					"midpoints" : [  ]
				}

			}
, 			{
				"patchline" : 				{
					"source" : [ "obj-34", 0 ],
					"destination" : [ "obj-35", 0 ],
					"hidden" : 0,
					"midpoints" : [  ]
				}

			}
, 			{
				"patchline" : 				{
					"source" : [ "obj-1", 1 ],
					"destination" : [ "obj-29", 1 ],
					"hidden" : 0,
					"midpoints" : [ 50.5, 77.0, 84.0, 77.0, 84.0, 104.0, 126.0, 104.0, 126.0, 122.0, 192.0, 122.0, 192.0, 89.0, 155.0, 89.0 ]
				}

			}
, 			{
				"patchline" : 				{
					"source" : [ "obj-1", 0 ],
					"destination" : [ "obj-29", 0 ],
					"hidden" : 0,
					"midpoints" : [ 36.5, 77.0, 84.0, 77.0, 84.0, 104.0, 126.0, 104.0, 126.0, 122.0, 192.0, 122.0, 192.0, 89.0, 138.5, 89.0 ]
				}

			}
, 			{
				"patchline" : 				{
					"source" : [ "obj-32", 0 ],
					"destination" : [ "obj-29", 2 ],
					"hidden" : 0,
					"midpoints" : [  ]
				}

			}
, 			{
				"patchline" : 				{
					"source" : [ "obj-30", 0 ],
					"destination" : [ "obj-31", 0 ],
					"hidden" : 0,
					"midpoints" : [  ]
				}

			}
, 			{
				"patchline" : 				{
					"source" : [ "obj-31", 0 ],
					"destination" : [ "obj-32", 0 ],
					"hidden" : 0,
					"midpoints" : [  ]
				}

			}
, 			{
				"patchline" : 				{
					"source" : [ "obj-29", 1 ],
					"destination" : [ "obj-26", 1 ],
					"hidden" : 0,
					"midpoints" : [  ]
				}

			}
, 			{
				"patchline" : 				{
					"source" : [ "obj-29", 0 ],
					"destination" : [ "obj-28", 1 ],
					"hidden" : 0,
					"midpoints" : [  ]
				}

			}
, 			{
				"patchline" : 				{
					"source" : [ "obj-25", 0 ],
					"destination" : [ "obj-28", 0 ],
					"hidden" : 0,
					"midpoints" : [  ]
				}

			}
, 			{
				"patchline" : 				{
					"source" : [ "obj-25", 0 ],
					"destination" : [ "obj-26", 0 ],
					"hidden" : 0,
					"midpoints" : [ 107.5, 180.0, 153.5, 180.0 ]
				}

			}
, 			{
				"patchline" : 				{
					"source" : [ "obj-24", 0 ],
					"destination" : [ "obj-25", 0 ],
					"hidden" : 0,
					"midpoints" : [  ]
				}

			}
, 			{
				"patchline" : 				{
					"source" : [ "obj-23", 0 ],
					"destination" : [ "obj-25", 0 ],
					"hidden" : 0,
					"midpoints" : [  ]
				}

			}
, 			{
				"patchline" : 				{
					"source" : [ "obj-22", 0 ],
					"destination" : [ "obj-18", 0 ],
					"hidden" : 0,
					"midpoints" : [  ]
				}

			}
, 			{
				"patchline" : 				{
					"source" : [ "obj-21", 0 ],
					"destination" : [ "obj-18", 0 ],
					"hidden" : 0,
					"midpoints" : [  ]
				}

			}
, 			{
				"patchline" : 				{
					"source" : [ "obj-18", 0 ],
					"destination" : [ "obj-16", 0 ],
					"hidden" : 0,
					"midpoints" : [ 20.5, 180.0, 66.5, 180.0 ]
				}

			}
, 			{
				"patchline" : 				{
					"source" : [ "obj-18", 0 ],
					"destination" : [ "obj-14", 0 ],
					"hidden" : 0,
					"midpoints" : [  ]
				}

			}
, 			{
				"patchline" : 				{
					"source" : [ "obj-6", 1 ],
					"destination" : [ "obj-16", 1 ],
					"hidden" : 0,
					"midpoints" : [  ]
				}

			}
, 			{
				"patchline" : 				{
					"source" : [ "obj-6", 0 ],
					"destination" : [ "obj-14", 1 ],
					"hidden" : 0,
					"midpoints" : [  ]
				}

			}
, 			{
				"patchline" : 				{
					"source" : [ "obj-27", 0 ],
					"destination" : [ "obj-6", 2 ],
					"hidden" : 0,
					"midpoints" : [  ]
				}

			}
, 			{
				"patchline" : 				{
					"source" : [ "obj-13", 0 ],
					"destination" : [ "obj-5", 0 ],
					"hidden" : 0,
					"midpoints" : [  ]
				}

			}
, 			{
				"patchline" : 				{
					"source" : [ "obj-1", 1 ],
					"destination" : [ "obj-6", 1 ],
					"hidden" : 0,
					"midpoints" : [  ]
				}

			}
, 			{
				"patchline" : 				{
					"source" : [ "obj-5", 0 ],
					"destination" : [ "obj-27", 0 ],
					"hidden" : 0,
					"midpoints" : [  ]
				}

			}
, 			{
				"patchline" : 				{
					"source" : [ "obj-1", 0 ],
					"destination" : [ "obj-6", 0 ],
					"hidden" : 0,
					"midpoints" : [  ]
				}

			}
, 			{
				"patchline" : 				{
					"source" : [ "obj-17", 3 ],
					"destination" : [ "obj-38", 0 ],
					"hidden" : 0,
					"midpoints" : [  ]
				}

			}
, 			{
				"patchline" : 				{
					"source" : [ "obj-17", 3 ],
					"destination" : [ "obj-24", 0 ],
					"hidden" : 0,
					"midpoints" : [  ]
				}

			}
, 			{
				"patchline" : 				{
					"source" : [ "obj-17", 3 ],
					"destination" : [ "obj-21", 0 ],
					"hidden" : 0,
					"midpoints" : [  ]
				}

			}
 ]
	}

}
