{
	"patcher" : 	{
		"fileversion" : 1,
		"rect" : [ 411.0, 161.0, 328.0, 355.0 ],
		"bglocked" : 0,
		"defrect" : [ 411.0, 161.0, 328.0, 355.0 ],
		"openrect" : [ 0.0, 0.0, 0.0, 0.0 ],
		"openinpresentation" : 0,
		"default_fontsize" : 12.0,
		"default_fontface" : 0,
		"default_fontname" : "Arial",
		"gridonopen" : 0,
		"gridsize" : [ 11.0, 11.0 ],
		"gridsnaponopen" : 0,
		"toolbarvisible" : 1,
		"boxanimatetime" : 200,
		"imprint" : 0,
		"boxes" : [ 			{
				"box" : 				{
					"maxclass" : "newobj",
					"text" : "pipe 10",
					"numoutlets" : 1,
					"id" : "obj-156",
					"fontname" : "Arial",
					"outlettype" : [ "" ],
					"patching_rect" : [ 396.0, 319.0, 50.0, 20.0 ],
					"fontsize" : 12.0,
					"numinlets" : 2
				}

			}
, 			{
				"box" : 				{
					"maxclass" : "button",
					"numoutlets" : 1,
					"id" : "obj-151",
					"outlettype" : [ "bang" ],
					"patching_rect" : [ 418.0, 275.0, 20.0, 20.0 ],
					"numinlets" : 1
				}

			}
, 			{
				"box" : 				{
					"maxclass" : "newobj",
					"text" : "t 1 0",
					"numoutlets" : 2,
					"id" : "obj-141",
					"fontname" : "Arial",
					"outlettype" : [ "int", "int" ],
					"patching_rect" : [ 418.0, 297.0, 34.0, 20.0 ],
					"fontsize" : 12.0,
					"numinlets" : 1
				}

			}
, 			{
				"box" : 				{
					"maxclass" : "newobj",
					"text" : "gate",
					"numoutlets" : 1,
					"id" : "obj-133",
					"fontname" : "Arial",
					"outlettype" : [ "" ],
					"patching_rect" : [ 451.0, 297.0, 34.0, 20.0 ],
					"fontsize" : 12.0,
					"numinlets" : 2
				}

			}
, 			{
				"box" : 				{
					"maxclass" : "comment",
					"text" : "To get back to presentation mode ->",
					"linecount" : 2,
					"numoutlets" : 0,
					"id" : "obj-165",
					"fontname" : "Arial",
					"patching_rect" : [ 715.0, 66.0, 150.0, 34.0 ],
					"fontsize" : 12.0,
					"numinlets" : 1
				}

			}
, 			{
				"box" : 				{
					"maxclass" : "comment",
					"text" : "Edit mode ->",
					"presentation_rect" : [ 242.0, 13.0, 56.0, 16.0 ],
					"numoutlets" : 0,
					"id" : "obj-150",
					"fontname" : "Arial",
					"patching_rect" : [ 814.0, 110.0, 106.0, 16.0 ],
					"presentation" : 1,
					"fontsize" : 8.0,
					"numinlets" : 1,
					"underline" : 1
				}

			}
, 			{
				"box" : 				{
					"maxclass" : "comment",
					"text" : "Made by Eli Stine",
					"numoutlets" : 0,
					"id" : "obj-173",
					"fontname" : "Arial",
					"patching_rect" : [ 132.0, 11.0, 104.0, 20.0 ],
					"fontsize" : 12.0,
					"numinlets" : 1
				}

			}
, 			{
				"box" : 				{
					"maxclass" : "textbutton",
					"presentation_rect" : [ 9.0, 166.0, 104.07225, 21.798828 ],
					"outputmode" : 0,
					"numoutlets" : 3,
					"id" : "obj-171",
					"bgcolor" : [ 1.0, 1.0, 1.0, 1.0 ],
					"fontname" : "Arial",
					"outlettype" : [ "", "", "int" ],
					"patching_rect" : [ 286.0, 66.0, 104.07225, 21.798828 ],
					"presentation" : 1,
					"text" : "Load a soundfile",
					"fontlink" : 1,
					"textovercolor" : [ 0.0, 0.0, 0.0, 1.0 ],
					"fontsize" : 12.0,
					"numinlets" : 1,
					"textcolor" : [ 0.0, 0.0, 0.0, 1.0 ]
				}

			}
, 			{
				"box" : 				{
					"maxclass" : "message",
					"text" : "1",
					"numoutlets" : 1,
					"id" : "obj-166",
					"fontname" : "Arial",
					"outlettype" : [ "" ],
					"patching_rect" : [ 572.0, 77.0, 32.5, 18.0 ],
					"fontsize" : 12.0,
					"numinlets" : 2
				}

			}
, 			{
				"box" : 				{
					"maxclass" : "newobj",
					"text" : "sel 1",
					"numoutlets" : 2,
					"id" : "obj-163",
					"fontname" : "Arial",
					"outlettype" : [ "bang", "" ],
					"patching_rect" : [ 836.0, 165.0, 36.0, 20.0 ],
					"fontsize" : 12.0,
					"numinlets" : 2
				}

			}
, 			{
				"box" : 				{
					"maxclass" : "toggle",
					"presentation_rect" : [ 297.0, 11.0, 22.0, 22.0 ],
					"numoutlets" : 1,
					"id" : "obj-160",
					"outlettype" : [ "int" ],
					"patching_rect" : [ 836.0, 66.0, 33.0, 33.0 ],
					"presentation" : 1,
					"numinlets" : 1
				}

			}
, 			{
				"box" : 				{
					"maxclass" : "message",
					"text" : "presentation 0, window size 167 81 1092 721, window exec",
					"linecount" : 2,
					"numoutlets" : 1,
					"id" : "obj-154",
					"fontname" : "Arial",
					"outlettype" : [ "" ],
					"patching_rect" : [ 946.0, 132.0, 176.0, 32.0 ],
					"fontsize" : 12.0,
					"numinlets" : 2
				}

			}
, 			{
				"box" : 				{
					"maxclass" : "message",
					"text" : "presentation 1, window size 411 161 739 516, window exec",
					"linecount" : 2,
					"numoutlets" : 1,
					"id" : "obj-153",
					"fontname" : "Arial",
					"outlettype" : [ "" ],
					"patching_rect" : [ 935.0, 66.0, 185.0, 32.0 ],
					"fontsize" : 12.0,
					"numinlets" : 2
				}

			}
, 			{
				"box" : 				{
					"maxclass" : "newobj",
					"text" : "thispatcher",
					"numoutlets" : 2,
					"id" : "obj-139",
					"fontname" : "Arial",
					"outlettype" : [ "", "" ],
					"patching_rect" : [ 946.0, 176.0, 69.0, 20.0 ],
					"fontsize" : 12.0,
					"numinlets" : 1,
					"save" : [ "#N", "thispatcher", ";", "#Q", "end", ";" ]
				}

			}
, 			{
				"box" : 				{
					"maxclass" : "comment",
					"text" : "Change scratch pos.",
					"linecount" : 2,
					"presentation_linecount" : 2,
					"presentation_rect" : [ 11.0, 33.0, 70.0, 32.0 ],
					"numoutlets" : 0,
					"id" : "obj-140",
					"fontname" : "Arial",
					"patching_rect" : [ 220.0, 418.0, 70.0, 32.0 ],
					"presentation" : 1,
					"fontsize" : 11.0,
					"numinlets" : 1
				}

			}
, 			{
				"box" : 				{
					"maxclass" : "toggle",
					"presentation_rect" : [ 33.0, 66.0, 20.0, 20.0 ],
					"numoutlets" : 1,
					"id" : "obj-136",
					"outlettype" : [ "int" ],
					"patching_rect" : [ 242.0, 451.0, 20.0, 20.0 ],
					"presentation" : 1,
					"numinlets" : 1
				}

			}
, 			{
				"box" : 				{
					"maxclass" : "newobj",
					"text" : "gate",
					"numoutlets" : 1,
					"id" : "obj-99",
					"fontname" : "Arial",
					"outlettype" : [ "" ],
					"patching_rect" : [ 264.0, 451.0, 34.0, 20.0 ],
					"fontsize" : 12.0,
					"numinlets" : 2
				}

			}
, 			{
				"box" : 				{
					"maxclass" : "flonum",
					"numoutlets" : 2,
					"id" : "obj-147",
					"fontname" : "Arial",
					"outlettype" : [ "float", "bang" ],
					"patching_rect" : [ 594.0, 264.0, 50.0, 20.0 ],
					"fontsize" : 12.0,
					"numinlets" : 1
				}

			}
, 			{
				"box" : 				{
					"maxclass" : "newobj",
					"text" : "scale 0. 1. 0. 1000.",
					"numoutlets" : 1,
					"id" : "obj-148",
					"fontname" : "Arial",
					"outlettype" : [ "float" ],
					"patching_rect" : [ 594.0, 242.0, 112.0, 20.0 ],
					"fontsize" : 12.0,
					"numinlets" : 6
				}

			}
, 			{
				"box" : 				{
					"maxclass" : "flonum",
					"numoutlets" : 2,
					"id" : "obj-145",
					"fontname" : "Arial",
					"outlettype" : [ "float", "bang" ],
					"patching_rect" : [ 396.0, 418.0, 77.0, 20.0 ],
					"fontsize" : 12.0,
					"numinlets" : 1
				}

			}
, 			{
				"box" : 				{
					"maxclass" : "newobj",
					"text" : "snapshot~ 1",
					"numoutlets" : 1,
					"id" : "obj-146",
					"fontname" : "Arial",
					"outlettype" : [ "float" ],
					"patching_rect" : [ 396.0, 396.0, 76.0, 20.0 ],
					"fontsize" : 12.0,
					"numinlets" : 2
				}

			}
, 			{
				"box" : 				{
					"maxclass" : "waveform~",
					"presentation_rect" : [ 33.0, 275.0, 256.0, 64.0 ],
					"numoutlets" : 6,
					"ruler" : 0,
					"labels" : 0,
					"id" : "obj-144",
					"bgcolor" : [ 1.0, 1.0, 1.0, 1.0 ],
					"outlettype" : [ "float", "float", "float", "float", "list", "" ],
					"vticks" : 0,
					"patching_rect" : [ 902.0, 429.0, 256.0, 64.0 ],
					"presentation" : 1,
					"waveformcolor" : [ 0.0, 0.0, 0.0, 1.0 ],
					"buffername" : "rap",
					"numinlets" : 5,
					"textcolor" : [  ]
				}

			}
, 			{
				"box" : 				{
					"maxclass" : "message",
					"text" : "1000",
					"numoutlets" : 1,
					"id" : "obj-142",
					"fontname" : "Arial",
					"outlettype" : [ "" ],
					"patching_rect" : [ 957.0, 330.0, 37.0, 18.0 ],
					"fontsize" : 12.0,
					"numinlets" : 2
				}

			}
, 			{
				"box" : 				{
					"maxclass" : "waveform~",
					"presentation_rect" : [ 33.0, 209.0, 256.0, 64.0 ],
					"numoutlets" : 6,
					"ruler" : 0,
					"labels" : 0,
					"id" : "obj-135",
					"bgcolor" : [ 1.0, 1.0, 1.0, 1.0 ],
					"outlettype" : [ "float", "float", "float", "float", "list", "" ],
					"vticks" : 0,
					"patching_rect" : [ 902.0, 352.0, 256.0, 64.0 ],
					"presentation" : 1,
					"waveformcolor" : [ 0.0, 0.0, 0.0, 1.0 ],
					"buffername" : "rap",
					"numinlets" : 5,
					"textcolor" : [  ]
				}

			}
, 			{
				"box" : 				{
					"maxclass" : "toggle",
					"numoutlets" : 1,
					"id" : "obj-134",
					"outlettype" : [ "int" ],
					"patching_rect" : [ 77.0, 297.0, 20.0, 20.0 ],
					"numinlets" : 1
				}

			}
, 			{
				"box" : 				{
					"maxclass" : "newobj",
					"text" : "gate",
					"numoutlets" : 1,
					"id" : "obj-130",
					"fontname" : "Arial",
					"outlettype" : [ "" ],
					"patching_rect" : [ 99.0, 297.0, 34.0, 20.0 ],
					"fontsize" : 12.0,
					"numinlets" : 2
				}

			}
, 			{
				"box" : 				{
					"maxclass" : "newobj",
					"text" : "!- 1",
					"numoutlets" : 1,
					"id" : "obj-127",
					"fontname" : "Arial",
					"outlettype" : [ "int" ],
					"patching_rect" : [ 803.0, 462.0, 32.5, 20.0 ],
					"fontsize" : 12.0,
					"numinlets" : 2
				}

			}
, 			{
				"box" : 				{
					"maxclass" : "newobj",
					"text" : "loadmess 1",
					"numoutlets" : 1,
					"id" : "obj-124",
					"fontname" : "Arial",
					"outlettype" : [ "" ],
					"patching_rect" : [ 462.0, 33.0, 72.0, 20.0 ],
					"fontsize" : 12.0,
					"numinlets" : 1
				}

			}
, 			{
				"box" : 				{
					"maxclass" : "comment",
					"text" : "Position",
					"numoutlets" : 0,
					"id" : "obj-122",
					"fontname" : "Arial",
					"patching_rect" : [ 539.0, 374.0, 56.0, 20.0 ],
					"fontsize" : 12.0,
					"numinlets" : 1
				}

			}
, 			{
				"box" : 				{
					"maxclass" : "toggle",
					"numoutlets" : 1,
					"id" : "obj-103",
					"outlettype" : [ "int" ],
					"patching_rect" : [ 429.0, 352.0, 20.0, 20.0 ],
					"numinlets" : 1
				}

			}
, 			{
				"box" : 				{
					"maxclass" : "newobj",
					"text" : "gate",
					"numoutlets" : 1,
					"id" : "obj-87",
					"fontname" : "Arial",
					"outlettype" : [ "" ],
					"patching_rect" : [ 451.0, 352.0, 34.0, 20.0 ],
					"fontsize" : 12.0,
					"numinlets" : 2
				}

			}
, 			{
				"box" : 				{
					"maxclass" : "newobj",
					"text" : "i",
					"numoutlets" : 1,
					"id" : "obj-138",
					"fontname" : "Arial",
					"outlettype" : [ "int" ],
					"patching_rect" : [ 231.0, 616.0, 32.5, 20.0 ],
					"fontsize" : 12.0,
					"numinlets" : 2
				}

			}
, 			{
				"box" : 				{
					"maxclass" : "newobj",
					"text" : "f",
					"numoutlets" : 1,
					"id" : "obj-137",
					"fontname" : "Arial",
					"outlettype" : [ "float" ],
					"patching_rect" : [ 385.0, 638.0, 32.5, 20.0 ],
					"fontsize" : 12.0,
					"numinlets" : 2
				}

			}
, 			{
				"box" : 				{
					"maxclass" : "newobj",
					"text" : "if $i1 == 1000 then 999 else $i1",
					"numoutlets" : 1,
					"id" : "obj-132",
					"fontname" : "Arial",
					"outlettype" : [ "" ],
					"patching_rect" : [ 308.0, 561.0, 178.0, 20.0 ],
					"fontsize" : 12.0,
					"numinlets" : 1
				}

			}
, 			{
				"box" : 				{
					"maxclass" : "flonum",
					"numoutlets" : 2,
					"id" : "obj-131",
					"fontname" : "Arial",
					"outlettype" : [ "float", "bang" ],
					"patching_rect" : [ 550.0, 627.0, 50.0, 20.0 ],
					"fontsize" : 12.0,
					"numinlets" : 1
				}

			}
, 			{
				"box" : 				{
					"maxclass" : "newobj",
					"text" : "snapshot~ 1",
					"numoutlets" : 1,
					"id" : "obj-129",
					"fontname" : "Arial",
					"outlettype" : [ "float" ],
					"patching_rect" : [ 561.0, 605.0, 76.0, 20.0 ],
					"fontsize" : 12.0,
					"numinlets" : 2
				}

			}
, 			{
				"box" : 				{
					"maxclass" : "number",
					"numoutlets" : 2,
					"id" : "obj-128",
					"fontname" : "Arial",
					"outlettype" : [ "int", "bang" ],
					"patching_rect" : [ 275.0, 616.0, 50.0, 20.0 ],
					"fontsize" : 12.0,
					"numinlets" : 1
				}

			}
, 			{
				"box" : 				{
					"maxclass" : "newobj",
					"text" : "!- 1000",
					"numoutlets" : 1,
					"id" : "obj-126",
					"fontname" : "Arial",
					"outlettype" : [ "int" ],
					"patching_rect" : [ 275.0, 594.0, 48.0, 20.0 ],
					"fontsize" : 12.0,
					"numinlets" : 2
				}

			}
, 			{
				"box" : 				{
					"maxclass" : "flonum",
					"numoutlets" : 2,
					"id" : "obj-125",
					"fontname" : "Arial",
					"outlettype" : [ "float", "bang" ],
					"patching_rect" : [ 616.0, 572.0, 50.0, 20.0 ],
					"fontsize" : 12.0,
					"numinlets" : 1
				}

			}
, 			{
				"box" : 				{
					"maxclass" : "comment",
					"text" : "Volume of playback when scratching (0-1000)",
					"linecount" : 4,
					"presentation_linecount" : 4,
					"presentation_rect" : [ 220.0, 121.0, 85.0, 57.0 ],
					"numoutlets" : 0,
					"id" : "obj-123",
					"fontname" : "Arial",
					"patching_rect" : [ 308.0, 495.0, 86.0, 57.0 ],
					"presentation" : 1,
					"fontsize" : 11.0,
					"numinlets" : 1
				}

			}
, 			{
				"box" : 				{
					"maxclass" : "newobj",
					"text" : "!- 1.",
					"numoutlets" : 1,
					"id" : "obj-121",
					"fontname" : "Arial",
					"outlettype" : [ "float" ],
					"patching_rect" : [ 330.0, 616.0, 32.5, 20.0 ],
					"fontsize" : 12.0,
					"numinlets" : 2
				}

			}
, 			{
				"box" : 				{
					"maxclass" : "flonum",
					"numoutlets" : 2,
					"id" : "obj-119",
					"fontname" : "Arial",
					"outlettype" : [ "float", "bang" ],
					"patching_rect" : [ 330.0, 638.0, 50.0, 20.0 ],
					"fontsize" : 12.0,
					"numinlets" : 1
				}

			}
, 			{
				"box" : 				{
					"maxclass" : "newobj",
					"text" : "/ 1000.",
					"numoutlets" : 1,
					"id" : "obj-110",
					"fontname" : "Arial",
					"outlettype" : [ "float" ],
					"patching_rect" : [ 330.0, 594.0, 47.0, 20.0 ],
					"fontsize" : 12.0,
					"numinlets" : 2
				}

			}
, 			{
				"box" : 				{
					"maxclass" : "number",
					"presentation_rect" : [ 231.0, 176.0, 50.0, 20.0 ],
					"numoutlets" : 2,
					"id" : "obj-109",
					"fontname" : "Arial",
					"outlettype" : [ "int", "bang" ],
					"patching_rect" : [ 330.0, 539.0, 50.0, 20.0 ],
					"presentation" : 1,
					"minimum" : 0,
					"fontsize" : 12.0,
					"maximum" : 1000,
					"numinlets" : 1
				}

			}
, 			{
				"box" : 				{
					"maxclass" : "newobj",
					"text" : "scale 0. 1. 0. 1.",
					"numoutlets" : 1,
					"id" : "obj-61",
					"fontname" : "Arial",
					"outlettype" : [ "float" ],
					"patching_rect" : [ 561.0, 506.0, 92.0, 20.0 ],
					"fontsize" : 12.0,
					"numinlets" : 6
				}

			}
, 			{
				"box" : 				{
					"maxclass" : "comment",
					"text" : " Mouse Control",
					"linecount" : 2,
					"presentation_rect" : [ 220.0, 77.0, 89.0, 19.0 ],
					"numoutlets" : 0,
					"id" : "obj-164",
					"fontname" : "Arial",
					"patching_rect" : [ 726.0, 440.0, 81.0, 32.0 ],
					"presentation" : 1,
					"fontsize" : 11.0,
					"numinlets" : 1
				}

			}
, 			{
				"box" : 				{
					"maxclass" : "toggle",
					"numoutlets" : 1,
					"id" : "obj-161",
					"outlettype" : [ "int" ],
					"patching_rect" : [ 715.0, 528.0, 20.0, 20.0 ],
					"numinlets" : 1
				}

			}
, 			{
				"box" : 				{
					"maxclass" : "newobj",
					"text" : "gate",
					"numoutlets" : 1,
					"id" : "obj-162",
					"fontname" : "Arial",
					"outlettype" : [ "" ],
					"patching_rect" : [ 737.0, 528.0, 34.0, 20.0 ],
					"fontsize" : 12.0,
					"numinlets" : 2
				}

			}
, 			{
				"box" : 				{
					"maxclass" : "newobj",
					"text" : "sel 1",
					"numoutlets" : 2,
					"id" : "obj-158",
					"fontname" : "Arial",
					"outlettype" : [ "bang", "" ],
					"patching_rect" : [ 748.0, 550.0, 36.0, 20.0 ],
					"fontsize" : 12.0,
					"numinlets" : 2
				}

			}
, 			{
				"box" : 				{
					"maxclass" : "newobj",
					"text" : "metro 20",
					"numoutlets" : 1,
					"id" : "obj-143",
					"fontname" : "Arial",
					"outlettype" : [ "bang" ],
					"patching_rect" : [ 814.0, 484.0, 58.0, 20.0 ],
					"fontsize" : 12.0,
					"numinlets" : 2
				}

			}
, 			{
				"box" : 				{
					"maxclass" : "toggle",
					"numoutlets" : 1,
					"id" : "obj-120",
					"outlettype" : [ "int" ],
					"patching_rect" : [ 693.0, 561.0, 20.0, 20.0 ],
					"numinlets" : 1
				}

			}
, 			{
				"box" : 				{
					"maxclass" : "newobj",
					"text" : "gate",
					"numoutlets" : 1,
					"id" : "obj-115",
					"fontname" : "Arial",
					"outlettype" : [ "" ],
					"patching_rect" : [ 715.0, 561.0, 34.0, 20.0 ],
					"fontsize" : 12.0,
					"numinlets" : 2
				}

			}
, 			{
				"box" : 				{
					"maxclass" : "toggle",
					"presentation_rect" : [ 253.0, 99.0, 20.0, 20.0 ],
					"numoutlets" : 1,
					"id" : "obj-96",
					"outlettype" : [ "int" ],
					"patching_rect" : [ 748.0, 462.0, 20.0, 20.0 ],
					"presentation" : 1,
					"numinlets" : 1
				}

			}
, 			{
				"box" : 				{
					"maxclass" : "newobj",
					"text" : "metro 10",
					"numoutlets" : 1,
					"id" : "obj-76",
					"fontname" : "Arial",
					"outlettype" : [ "bang" ],
					"patching_rect" : [ 748.0, 484.0, 58.0, 20.0 ],
					"fontsize" : 12.0,
					"numinlets" : 2
				}

			}
, 			{
				"box" : 				{
					"maxclass" : "number",
					"numoutlets" : 2,
					"id" : "obj-67",
					"fontname" : "Arial",
					"outlettype" : [ "int", "bang" ],
					"patching_rect" : [ 803.0, 539.0, 50.0, 20.0 ],
					"fontsize" : 12.0,
					"numinlets" : 1
				}

			}
, 			{
				"box" : 				{
					"maxclass" : "newobj",
					"text" : "mousestate",
					"numoutlets" : 5,
					"id" : "obj-2",
					"fontname" : "Arial",
					"outlettype" : [ "int", "int", "int", "int", "int" ],
					"patching_rect" : [ 748.0, 506.0, 73.0, 20.0 ],
					"fontsize" : 12.0,
					"numinlets" : 1
				}

			}
, 			{
				"box" : 				{
					"maxclass" : "message",
					"text" : "0",
					"numoutlets" : 1,
					"id" : "obj-89",
					"fontname" : "Arial",
					"outlettype" : [ "" ],
					"patching_rect" : [ 737.0, 253.0, 32.5, 18.0 ],
					"fontsize" : 12.0,
					"numinlets" : 2
				}

			}
, 			{
				"box" : 				{
					"maxclass" : "toggle",
					"numoutlets" : 1,
					"id" : "obj-85",
					"outlettype" : [ "int" ],
					"patching_rect" : [ 726.0, 198.0, 20.0, 20.0 ],
					"numinlets" : 1
				}

			}
, 			{
				"box" : 				{
					"maxclass" : "message",
					"text" : "1",
					"numoutlets" : 1,
					"id" : "obj-74",
					"fontname" : "Arial",
					"outlettype" : [ "" ],
					"patching_rect" : [ 715.0, 165.0, 32.5, 18.0 ],
					"fontsize" : 12.0,
					"numinlets" : 2
				}

			}
, 			{
				"box" : 				{
					"maxclass" : "message",
					"text" : "0",
					"numoutlets" : 1,
					"id" : "obj-72",
					"fontname" : "Arial",
					"outlettype" : [ "" ],
					"patching_rect" : [ 748.0, 165.0, 32.5, 18.0 ],
					"fontsize" : 12.0,
					"numinlets" : 2
				}

			}
, 			{
				"box" : 				{
					"maxclass" : "newobj",
					"text" : "sel 0.",
					"numoutlets" : 2,
					"id" : "obj-66",
					"fontname" : "Arial",
					"outlettype" : [ "bang", "" ],
					"patching_rect" : [ 726.0, 143.0, 39.0, 20.0 ],
					"fontsize" : 12.0,
					"numinlets" : 1
				}

			}
, 			{
				"box" : 				{
					"maxclass" : "newobj",
					"text" : "metro 20",
					"numoutlets" : 1,
					"id" : "obj-65",
					"fontname" : "Arial",
					"outlettype" : [ "bang" ],
					"patching_rect" : [ 726.0, 220.0, 58.0, 20.0 ],
					"fontsize" : 12.0,
					"numinlets" : 2
				}

			}
, 			{
				"box" : 				{
					"maxclass" : "multislider",
					"ignoreclick" : 1,
					"presentation_rect" : [ 165.0, 99.0, 44.0, 77.0 ],
					"numoutlets" : 2,
					"setstyle" : 2,
					"id" : "obj-64",
					"outlettype" : [ "", "" ],
					"patching_rect" : [ 737.0, 275.0, 43.0, 140.0 ],
					"setminmax" : [ -3.0, 3.0 ],
					"presentation" : 1,
					"numinlets" : 1,
					"contdata" : 1
				}

			}
, 			{
				"box" : 				{
					"maxclass" : "multislider",
					"ignoreclick" : 1,
					"presentation_rect" : [ 121.0, 99.0, 44.0, 77.0 ],
					"numoutlets" : 2,
					"id" : "obj-59",
					"bgcolor" : [ 0.0, 0.0, 0.0, 1.0 ],
					"outlettype" : [ "", "" ],
					"patching_rect" : [ 715.0, 275.0, 20.0, 140.0 ],
					"setminmax" : [ -3.0, 3.0 ],
					"presentation" : 1,
					"slidercolor" : [ 1.0, 1.0, 1.0, 1.0 ],
					"numinlets" : 1
				}

			}
, 			{
				"box" : 				{
					"maxclass" : "message",
					"text" : "1000",
					"numoutlets" : 1,
					"id" : "obj-117",
					"fontname" : "Arial",
					"outlettype" : [ "" ],
					"patching_rect" : [ 528.0, 77.0, 37.0, 18.0 ],
					"fontsize" : 12.0,
					"numinlets" : 2
				}

			}
, 			{
				"box" : 				{
					"maxclass" : "textbutton",
					"presentation_rect" : [ 66.0, 132.0, 44.0, 22.0 ],
					"numoutlets" : 3,
					"id" : "obj-84",
					"bgcolor" : [ 1.0, 1.0, 1.0, 1.0 ],
					"fontname" : "Arial",
					"outlettype" : [ "", "", "int" ],
					"patching_rect" : [ 572.0, 154.0, 44.0, 22.0 ],
					"presentation" : 1,
					"text" : "Stop",
					"textovercolor" : [ 0.0, 0.0, 0.0, 1.0 ],
					"fontsize" : 12.0,
					"numinlets" : 1,
					"textcolor" : [ 0.0, 0.0, 0.0, 1.0 ]
				}

			}
, 			{
				"box" : 				{
					"maxclass" : "textbutton",
					"presentation_rect" : [ 11.0, 132.0, 44.0, 22.0 ],
					"numoutlets" : 3,
					"id" : "obj-79",
					"bgcolor" : [ 1.0, 1.0, 1.0, 1.0 ],
					"fontname" : "Arial",
					"outlettype" : [ "", "", "int" ],
					"patching_rect" : [ 572.0, 132.0, 44.0, 22.0 ],
					"presentation" : 1,
					"text" : "Play",
					"textovercolor" : [ 0.0, 0.0, 0.0, 1.0 ],
					"fontsize" : 12.0,
					"numinlets" : 1,
					"textcolor" : [ 0.0, 0.0, 0.0, 1.0 ]
				}

			}
, 			{
				"box" : 				{
					"maxclass" : "textbutton",
					"presentation_rect" : [ 15.0, 99.0, 88.0, 22.0 ],
					"outputmode" : 0,
					"numoutlets" : 3,
					"id" : "obj-77",
					"bgcolor" : [ 1.0, 1.0, 1.0, 1.0 ],
					"fontname" : "Arial",
					"outlettype" : [ "", "", "int" ],
					"patching_rect" : [ 550.0, 110.0, 88.0, 22.0 ],
					"presentation" : 1,
					"text" : "Play from start",
					"textovercolor" : [ 0.0, 0.0, 0.0, 1.0 ],
					"fontsize" : 12.0,
					"numinlets" : 1,
					"textcolor" : [ 0.0, 0.0, 0.0, 1.0 ]
				}

			}
, 			{
				"box" : 				{
					"maxclass" : "newobj",
					"text" : "sel 0",
					"numoutlets" : 2,
					"id" : "obj-63",
					"fontname" : "Arial",
					"outlettype" : [ "bang", "" ],
					"patching_rect" : [ 11.0, 539.0, 36.0, 20.0 ],
					"fontsize" : 12.0,
					"numinlets" : 2
				}

			}
, 			{
				"box" : 				{
					"maxclass" : "toggle",
					"presentation_rect" : [ 253.0, 55.0, 20.0, 20.0 ],
					"numoutlets" : 1,
					"id" : "obj-62",
					"outlettype" : [ "int" ],
					"patching_rect" : [ 11.0, 517.0, 20.0, 20.0 ],
					"presentation" : 1,
					"numinlets" : 1
				}

			}
, 			{
				"box" : 				{
					"maxclass" : "newobj",
					"text" : "i",
					"numoutlets" : 1,
					"id" : "obj-56",
					"fontname" : "Arial",
					"outlettype" : [ "int" ],
					"patching_rect" : [ 22.0, 451.0, 32.5, 20.0 ],
					"fontsize" : 12.0,
					"numinlets" : 2
				}

			}
, 			{
				"box" : 				{
					"maxclass" : "newobj",
					"text" : "gate",
					"numoutlets" : 1,
					"id" : "obj-50",
					"fontname" : "Arial",
					"outlettype" : [ "" ],
					"patching_rect" : [ 33.0, 517.0, 34.0, 20.0 ],
					"fontsize" : 12.0,
					"numinlets" : 2
				}

			}
, 			{
				"box" : 				{
					"maxclass" : "comment",
					"text" : "Smart Release",
					"linecount" : 2,
					"presentation_rect" : [ 220.0, 33.0, 81.0, 19.0 ],
					"numoutlets" : 0,
					"id" : "obj-45",
					"fontname" : "Arial",
					"patching_rect" : [ 11.0, 484.0, 65.0, 32.0 ],
					"presentation" : 1,
					"fontsize" : 11.0,
					"numinlets" : 1
				}

			}
, 			{
				"box" : 				{
					"maxclass" : "newobj",
					"text" : "abs",
					"numoutlets" : 1,
					"id" : "obj-43",
					"fontname" : "Arial",
					"outlettype" : [ "int" ],
					"patching_rect" : [ 33.0, 429.0, 30.0, 20.0 ],
					"fontsize" : 12.0,
					"numinlets" : 1
				}

			}
, 			{
				"box" : 				{
					"maxclass" : "comment",
					"text" : "Scratch Release\nFriction",
					"linecount" : 3,
					"presentation_linecount" : 3,
					"presentation_rect" : [ 157.0, 22.0, 65.0, 44.0 ],
					"numoutlets" : 0,
					"id" : "obj-18",
					"fontname" : "Arial",
					"patching_rect" : [ 99.0, 473.0, 58.0, 44.0 ],
					"presentation" : 1,
					"fontsize" : 11.0,
					"numinlets" : 1
				}

			}
, 			{
				"box" : 				{
					"maxclass" : "comment",
					"text" : "Scratch Sensitivity",
					"linecount" : 2,
					"presentation_linecount" : 2,
					"presentation_rect" : [ 88.0, 33.0, 61.0, 32.0 ],
					"numoutlets" : 0,
					"id" : "obj-8",
					"fontname" : "Arial",
					"patching_rect" : [ 11.0, 275.0, 65.0, 32.0 ],
					"presentation" : 1,
					"fontsize" : 11.0,
					"numinlets" : 1
				}

			}
, 			{
				"box" : 				{
					"maxclass" : "message",
					"text" : "48",
					"numoutlets" : 1,
					"id" : "obj-58",
					"fontname" : "Arial",
					"outlettype" : [ "" ],
					"patching_rect" : [ 462.0, 88.0, 32.5, 18.0 ],
					"fontsize" : 12.0,
					"numinlets" : 2
				}

			}
, 			{
				"box" : 				{
					"maxclass" : "message",
					"text" : "100",
					"numoutlets" : 1,
					"id" : "obj-57",
					"fontname" : "Arial",
					"outlettype" : [ "" ],
					"patching_rect" : [ 495.0, 88.0, 32.5, 18.0 ],
					"fontsize" : 12.0,
					"numinlets" : 2
				}

			}
, 			{
				"box" : 				{
					"maxclass" : "newobj",
					"text" : "loadbang",
					"numoutlets" : 1,
					"id" : "obj-54",
					"fontname" : "Arial",
					"outlettype" : [ "bang" ],
					"patching_rect" : [ 462.0, 55.0, 60.0, 20.0 ],
					"fontsize" : 12.0,
					"numinlets" : 1
				}

			}
, 			{
				"box" : 				{
					"maxclass" : "number",
					"presentation_rect" : [ 157.0, 66.0, 50.0, 20.0 ],
					"numoutlets" : 2,
					"id" : "obj-53",
					"fontname" : "Arial",
					"outlettype" : [ "int", "bang" ],
					"patching_rect" : [ 99.0, 517.0, 50.0, 20.0 ],
					"presentation" : 1,
					"minimum" : 10,
					"fontsize" : 12.0,
					"numinlets" : 1
				}

			}
, 			{
				"box" : 				{
					"maxclass" : "flonum",
					"numoutlets" : 2,
					"id" : "obj-38",
					"fontname" : "Arial",
					"outlettype" : [ "float", "bang" ],
					"patching_rect" : [ 451.0, 374.0, 80.0, 20.0 ],
					"fontsize" : 11.595187,
					"numinlets" : 1
				}

			}
, 			{
				"box" : 				{
					"maxclass" : "number",
					"numoutlets" : 2,
					"id" : "obj-42",
					"fontname" : "Arial",
					"outlettype" : [ "int", "bang" ],
					"patching_rect" : [ 44.0, 385.0, 50.0, 20.0 ],
					"fontsize" : 12.0,
					"numinlets" : 1
				}

			}
, 			{
				"box" : 				{
					"maxclass" : "newobj",
					"text" : "-",
					"numoutlets" : 1,
					"id" : "obj-24",
					"fontname" : "Arial",
					"outlettype" : [ "int" ],
					"patching_rect" : [ 44.0, 363.0, 32.5, 20.0 ],
					"fontsize" : 12.0,
					"numinlets" : 2
				}

			}
, 			{
				"box" : 				{
					"maxclass" : "number",
					"presentation_rect" : [ 88.0, 66.0, 50.0, 20.0 ],
					"numoutlets" : 2,
					"id" : "obj-21",
					"fontname" : "Arial",
					"outlettype" : [ "int", "bang" ],
					"patching_rect" : [ 22.0, 308.0, 50.0, 20.0 ],
					"presentation" : 1,
					"fontsize" : 12.0,
					"numinlets" : 1
				}

			}
, 			{
				"box" : 				{
					"maxclass" : "newobj",
					"text" : "* 2",
					"numoutlets" : 1,
					"id" : "obj-14",
					"fontname" : "Arial",
					"outlettype" : [ "int" ],
					"patching_rect" : [ 55.0, 330.0, 32.5, 20.0 ],
					"fontsize" : 12.0,
					"numinlets" : 2
				}

			}
, 			{
				"box" : 				{
					"maxclass" : "message",
					"text" : "loop 1",
					"numoutlets" : 1,
					"id" : "obj-118",
					"fontname" : "Arial",
					"outlettype" : [ "" ],
					"patching_rect" : [ 396.0, 198.0, 43.0, 18.0 ],
					"fontsize" : 12.0,
					"numinlets" : 2
				}

			}
, 			{
				"box" : 				{
					"maxclass" : "newobj",
					"text" : "f",
					"numoutlets" : 1,
					"id" : "obj-116",
					"fontname" : "Arial",
					"outlettype" : [ "float" ],
					"patching_rect" : [ 451.0, 330.0, 32.5, 20.0 ],
					"fontsize" : 12.0,
					"numinlets" : 2
				}

			}
, 			{
				"box" : 				{
					"maxclass" : "message",
					"text" : "$1 20.",
					"numoutlets" : 1,
					"id" : "obj-113",
					"fontname" : "Arial",
					"outlettype" : [ "" ],
					"patching_rect" : [ 231.0, 561.0, 44.0, 18.0 ],
					"fontsize" : 12.0,
					"numinlets" : 2
				}

			}
, 			{
				"box" : 				{
					"maxclass" : "message",
					"text" : "0. $1",
					"numoutlets" : 1,
					"id" : "obj-112",
					"fontname" : "Arial",
					"outlettype" : [ "" ],
					"patching_rect" : [ 176.0, 561.0, 37.0, 18.0 ],
					"fontsize" : 12.0,
					"numinlets" : 2
				}

			}
, 			{
				"box" : 				{
					"maxclass" : "newobj",
					"text" : "line 0.",
					"numoutlets" : 2,
					"id" : "obj-111",
					"fontname" : "Arial",
					"outlettype" : [ "", "" ],
					"patching_rect" : [ 682.0, 506.0, 46.0, 20.0 ],
					"fontsize" : 12.0,
					"numinlets" : 3
				}

			}
, 			{
				"box" : 				{
					"maxclass" : "message",
					"text" : "$1 20.",
					"numoutlets" : 1,
					"id" : "obj-108",
					"fontname" : "Arial",
					"outlettype" : [ "" ],
					"patching_rect" : [ 231.0, 539.0, 44.0, 18.0 ],
					"fontsize" : 12.0,
					"numinlets" : 2
				}

			}
, 			{
				"box" : 				{
					"maxclass" : "newobj",
					"text" : "change",
					"numoutlets" : 3,
					"id" : "obj-107",
					"fontname" : "Arial",
					"outlettype" : [ "", "int", "int" ],
					"patching_rect" : [ 198.0, 473.0, 50.0, 20.0 ],
					"fontsize" : 12.0,
					"numinlets" : 1
				}

			}
, 			{
				"box" : 				{
					"maxclass" : "button",
					"numoutlets" : 1,
					"id" : "obj-105",
					"outlettype" : [ "bang" ],
					"patching_rect" : [ 220.0, 517.0, 20.0, 20.0 ],
					"numinlets" : 1
				}

			}
, 			{
				"box" : 				{
					"maxclass" : "message",
					"text" : "0. $1",
					"numoutlets" : 1,
					"id" : "obj-104",
					"fontname" : "Arial",
					"outlettype" : [ "" ],
					"patching_rect" : [ 176.0, 539.0, 37.0, 18.0 ],
					"fontsize" : 12.0,
					"numinlets" : 2
				}

			}
, 			{
				"box" : 				{
					"maxclass" : "message",
					"text" : "$1 10",
					"numoutlets" : 1,
					"id" : "obj-101",
					"fontname" : "Arial",
					"outlettype" : [ "" ],
					"patching_rect" : [ 561.0, 528.0, 41.0, 18.0 ],
					"fontsize" : 12.0,
					"numinlets" : 2
				}

			}
, 			{
				"box" : 				{
					"maxclass" : "newobj",
					"text" : "line~",
					"numoutlets" : 2,
					"id" : "obj-102",
					"fontname" : "Arial",
					"outlettype" : [ "signal", "bang" ],
					"patching_rect" : [ 561.0, 550.0, 36.0, 20.0 ],
					"fontsize" : 12.0,
					"numinlets" : 2
				}

			}
, 			{
				"box" : 				{
					"maxclass" : "message",
					"text" : "$1 10",
					"numoutlets" : 1,
					"id" : "obj-100",
					"fontname" : "Arial",
					"outlettype" : [ "" ],
					"patching_rect" : [ 506.0, 550.0, 41.0, 18.0 ],
					"fontsize" : 12.0,
					"numinlets" : 2
				}

			}
, 			{
				"box" : 				{
					"maxclass" : "newobj",
					"text" : "line~",
					"numoutlets" : 2,
					"id" : "obj-98",
					"fontname" : "Arial",
					"outlettype" : [ "signal", "bang" ],
					"patching_rect" : [ 506.0, 572.0, 36.0, 20.0 ],
					"fontsize" : 12.0,
					"numinlets" : 2
				}

			}
, 			{
				"box" : 				{
					"maxclass" : "button",
					"numoutlets" : 1,
					"id" : "obj-97",
					"outlettype" : [ "bang" ],
					"patching_rect" : [ 198.0, 517.0, 20.0, 20.0 ],
					"numinlets" : 1
				}

			}
, 			{
				"box" : 				{
					"maxclass" : "newobj",
					"text" : "sel 0",
					"numoutlets" : 2,
					"id" : "obj-95",
					"fontname" : "Arial",
					"outlettype" : [ "bang", "" ],
					"patching_rect" : [ 198.0, 495.0, 36.0, 20.0 ],
					"fontsize" : 12.0,
					"numinlets" : 2
				}

			}
, 			{
				"box" : 				{
					"maxclass" : "flonum",
					"numoutlets" : 2,
					"id" : "obj-94",
					"fontname" : "Arial",
					"outlettype" : [ "float", "bang" ],
					"patching_rect" : [ 506.0, 495.0, 50.0, 20.0 ],
					"fontsize" : 12.0,
					"numinlets" : 1
				}

			}
, 			{
				"box" : 				{
					"maxclass" : "comment",
					"text" : "Playback",
					"numoutlets" : 0,
					"id" : "obj-93",
					"fontname" : "Arial",
					"patching_rect" : [ 253.0, 264.0, 62.0, 20.0 ],
					"fontsize" : 12.0,
					"numinlets" : 1
				}

			}
, 			{
				"box" : 				{
					"maxclass" : "comment",
					"text" : "Scratch",
					"numoutlets" : 0,
					"id" : "obj-92",
					"fontname" : "Arial",
					"patching_rect" : [ 264.0, 352.0, 53.0, 20.0 ],
					"fontsize" : 12.0,
					"numinlets" : 1
				}

			}
, 			{
				"box" : 				{
					"maxclass" : "comment",
					"text" : "Playback",
					"numoutlets" : 0,
					"id" : "obj-91",
					"fontname" : "Arial",
					"patching_rect" : [ 539.0, 407.0, 62.0, 20.0 ],
					"fontsize" : 12.0,
					"numinlets" : 1
				}

			}
, 			{
				"box" : 				{
					"maxclass" : "comment",
					"text" : "Scratch",
					"numoutlets" : 0,
					"id" : "obj-90",
					"fontname" : "Arial",
					"patching_rect" : [ 649.0, 407.0, 53.0, 20.0 ],
					"fontsize" : 12.0,
					"numinlets" : 1
				}

			}
, 			{
				"box" : 				{
					"maxclass" : "flonum",
					"numoutlets" : 2,
					"id" : "obj-88",
					"fontname" : "Arial",
					"outlettype" : [ "float", "bang" ],
					"patching_rect" : [ 561.0, 473.0, 50.0, 20.0 ],
					"fontsize" : 12.0,
					"numinlets" : 1
				}

			}
, 			{
				"box" : 				{
					"maxclass" : "newobj",
					"text" : "/ 1000.",
					"numoutlets" : 1,
					"id" : "obj-86",
					"fontname" : "Arial",
					"outlettype" : [ "float" ],
					"patching_rect" : [ 561.0, 451.0, 47.0, 20.0 ],
					"fontsize" : 12.0,
					"numinlets" : 2
				}

			}
, 			{
				"box" : 				{
					"maxclass" : "slider",
					"numoutlets" : 1,
					"id" : "obj-83",
					"outlettype" : [ "" ],
					"patching_rect" : [ 561.0, 429.0, 121.0, 22.0 ],
					"size" : 1001.0,
					"numinlets" : 1
				}

			}
, 			{
				"box" : 				{
					"maxclass" : "newobj",
					"text" : "!- 1.",
					"numoutlets" : 1,
					"id" : "obj-82",
					"fontname" : "Arial",
					"outlettype" : [ "float" ],
					"patching_rect" : [ 506.0, 473.0, 32.5, 20.0 ],
					"fontsize" : 12.0,
					"numinlets" : 2
				}

			}
, 			{
				"box" : 				{
					"maxclass" : "newobj",
					"text" : "*~ 1.",
					"numoutlets" : 1,
					"id" : "obj-80",
					"fontname" : "Arial",
					"outlettype" : [ "signal" ],
					"patching_rect" : [ 352.0, 286.0, 36.0, 20.0 ],
					"fontsize" : 12.0,
					"numinlets" : 2
				}

			}
, 			{
				"box" : 				{
					"maxclass" : "newobj",
					"text" : "*~ 1.",
					"numoutlets" : 1,
					"id" : "obj-81",
					"fontname" : "Arial",
					"outlettype" : [ "signal" ],
					"patching_rect" : [ 308.0, 286.0, 36.0, 20.0 ],
					"fontsize" : 12.0,
					"numinlets" : 2
				}

			}
, 			{
				"box" : 				{
					"maxclass" : "newobj",
					"text" : "*~ 1.",
					"numoutlets" : 1,
					"id" : "obj-69",
					"fontname" : "Arial",
					"outlettype" : [ "signal" ],
					"patching_rect" : [ 352.0, 374.0, 36.0, 20.0 ],
					"fontsize" : 12.0,
					"numinlets" : 2
				}

			}
, 			{
				"box" : 				{
					"maxclass" : "newobj",
					"text" : "*~ 1.",
					"numoutlets" : 1,
					"id" : "obj-68",
					"fontname" : "Arial",
					"outlettype" : [ "signal" ],
					"patching_rect" : [ 308.0, 374.0, 36.0, 20.0 ],
					"fontsize" : 12.0,
					"numinlets" : 2
				}

			}
, 			{
				"box" : 				{
					"maxclass" : "flonum",
					"numoutlets" : 2,
					"id" : "obj-22",
					"fontname" : "Arial",
					"outlettype" : [ "float", "bang" ],
					"patching_rect" : [ 902.0, 319.0, 50.0, 20.0 ],
					"fontsize" : 12.0,
					"numinlets" : 1
				}

			}
, 			{
				"box" : 				{
					"maxclass" : "newobj",
					"text" : "scale 0. 1. 0. 1000.",
					"numoutlets" : 1,
					"id" : "obj-20",
					"fontname" : "Arial",
					"outlettype" : [ "float" ],
					"patching_rect" : [ 902.0, 297.0, 112.0, 20.0 ],
					"fontsize" : 12.0,
					"numinlets" : 6
				}

			}
, 			{
				"box" : 				{
					"maxclass" : "flonum",
					"numoutlets" : 2,
					"id" : "obj-19",
					"fontname" : "Arial",
					"outlettype" : [ "float", "bang" ],
					"patching_rect" : [ 594.0, 220.0, 102.0, 20.0 ],
					"fontsize" : 12.0,
					"numinlets" : 1
				}

			}
, 			{
				"box" : 				{
					"maxclass" : "button",
					"numoutlets" : 1,
					"id" : "obj-16",
					"outlettype" : [ "bang" ],
					"patching_rect" : [ 517.0, 176.0, 20.0, 20.0 ],
					"numinlets" : 1
				}

			}
, 			{
				"box" : 				{
					"maxclass" : "newobj",
					"text" : "info~ rap",
					"numoutlets" : 8,
					"id" : "obj-9",
					"fontname" : "Arial",
					"outlettype" : [ "float", "list", "float", "float", "float", "float", "float", "" ],
					"patching_rect" : [ 517.0, 198.0, 113.5, 20.0 ],
					"fontsize" : 12.0,
					"numinlets" : 1
				}

			}
, 			{
				"box" : 				{
					"maxclass" : "message",
					"text" : "startloop",
					"numoutlets" : 1,
					"id" : "obj-78",
					"fontname" : "Arial",
					"outlettype" : [ "" ],
					"patching_rect" : [ 308.0, 198.0, 57.0, 18.0 ],
					"fontsize" : 12.0,
					"numinlets" : 2
				}

			}
, 			{
				"box" : 				{
					"maxclass" : "message",
					"text" : "0",
					"numoutlets" : 1,
					"id" : "obj-75",
					"fontname" : "Arial",
					"outlettype" : [ "" ],
					"patching_rect" : [ 341.0, 220.0, 32.5, 18.0 ],
					"fontsize" : 12.0,
					"numinlets" : 2
				}

			}
, 			{
				"box" : 				{
					"maxclass" : "message",
					"text" : "1",
					"numoutlets" : 1,
					"id" : "obj-73",
					"fontname" : "Arial",
					"outlettype" : [ "" ],
					"patching_rect" : [ 308.0, 220.0, 32.5, 18.0 ],
					"fontsize" : 12.0,
					"numinlets" : 2
				}

			}
, 			{
				"box" : 				{
					"maxclass" : "newobj",
					"text" : "sig~",
					"numoutlets" : 1,
					"id" : "obj-71",
					"fontname" : "Arial",
					"outlettype" : [ "signal" ],
					"patching_rect" : [ 308.0, 242.0, 33.0, 20.0 ],
					"fontsize" : 12.0,
					"numinlets" : 1
				}

			}
, 			{
				"box" : 				{
					"maxclass" : "flonum",
					"numoutlets" : 2,
					"id" : "obj-70",
					"fontname" : "Arial",
					"outlettype" : [ "float", "bang" ],
					"patching_rect" : [ 902.0, 275.0, 77.0, 20.0 ],
					"fontsize" : 12.0,
					"numinlets" : 1
				}

			}
, 			{
				"box" : 				{
					"maxclass" : "newobj",
					"text" : "if $f1 != 0 then $f1 10 else 0. $i2",
					"numoutlets" : 1,
					"id" : "obj-60",
					"fontname" : "Arial",
					"outlettype" : [ "" ],
					"patching_rect" : [ 99.0, 396.0, 182.0, 20.0 ],
					"fontsize" : 12.0,
					"numinlets" : 2
				}

			}
, 			{
				"box" : 				{
					"maxclass" : "newobj",
					"text" : "line~",
					"numoutlets" : 2,
					"id" : "obj-55",
					"fontname" : "Arial",
					"outlettype" : [ "signal", "bang" ],
					"patching_rect" : [ 99.0, 429.0, 36.0, 20.0 ],
					"fontsize" : 12.0,
					"numinlets" : 2
				}

			}
, 			{
				"box" : 				{
					"maxclass" : "toggle",
					"presentation_rect" : [ 121.0, 187.0, 20.0, 20.0 ],
					"numoutlets" : 1,
					"id" : "obj-52",
					"outlettype" : [ "int" ],
					"patching_rect" : [ 308.0, 462.0, 20.0, 20.0 ],
					"presentation" : 1,
					"numinlets" : 1
				}

			}
, 			{
				"box" : 				{
					"maxclass" : "newobj",
					"text" : "dac~",
					"presentation_rect" : [ 143.0, 187.0, 59.0, 20.0 ],
					"numoutlets" : 0,
					"id" : "obj-49",
					"fontname" : "Arial",
					"patching_rect" : [ 330.0, 462.0, 59.0, 20.0 ],
					"presentation" : 1,
					"fontsize" : 12.0,
					"color" : [ 0.501961, 0.501961, 0.501961, 1.0 ],
					"numinlets" : 2
				}

			}
, 			{
				"box" : 				{
					"maxclass" : "message",
					"text" : "replace",
					"numoutlets" : 1,
					"id" : "obj-46",
					"fontname" : "Arial",
					"outlettype" : [ "" ],
					"patching_rect" : [ 286.0, 88.0, 50.0, 18.0 ],
					"fontsize" : 12.0,
					"numinlets" : 2
				}

			}
, 			{
				"box" : 				{
					"maxclass" : "newobj",
					"text" : "snapshot~ 1",
					"numoutlets" : 1,
					"id" : "obj-44",
					"fontname" : "Arial",
					"outlettype" : [ "float" ],
					"patching_rect" : [ 902.0, 253.0, 76.0, 20.0 ],
					"fontsize" : 12.0,
					"numinlets" : 2
				}

			}
, 			{
				"box" : 				{
					"maxclass" : "newobj",
					"text" : "gate",
					"numoutlets" : 1,
					"id" : "obj-41",
					"fontname" : "Arial",
					"outlettype" : [ "" ],
					"patching_rect" : [ 44.0, 253.0, 34.0, 20.0 ],
					"fontsize" : 12.0,
					"numinlets" : 2
				}

			}
, 			{
				"box" : 				{
					"maxclass" : "number",
					"numoutlets" : 2,
					"id" : "obj-40",
					"fontname" : "Arial",
					"outlettype" : [ "int", "bang" ],
					"patching_rect" : [ 44.0, 220.0, 50.0, 20.0 ],
					"fontsize" : 12.0,
					"numinlets" : 1
				}

			}
, 			{
				"box" : 				{
					"maxclass" : "message",
					"text" : "121",
					"numoutlets" : 1,
					"id" : "obj-106",
					"fontname" : "Arial",
					"outlettype" : [ "" ],
					"patching_rect" : [ 236.0, 313.0, 32.5, 18.0 ],
					"fontsize" : 12.0,
					"numinlets" : 2
				}

			}
, 			{
				"box" : 				{
					"maxclass" : "newobj",
					"text" : "sel 1",
					"numoutlets" : 2,
					"id" : "obj-37",
					"fontname" : "Arial",
					"outlettype" : [ "bang", "" ],
					"patching_rect" : [ 203.0, 291.0, 36.0, 20.0 ],
					"fontsize" : 12.0,
					"numinlets" : 2
				}

			}
, 			{
				"box" : 				{
					"maxclass" : "message",
					"text" : "0",
					"numoutlets" : 1,
					"id" : "obj-30",
					"fontname" : "Arial",
					"outlettype" : [ "" ],
					"patching_rect" : [ 203.0, 313.0, 32.5, 18.0 ],
					"fontsize" : 12.0,
					"numinlets" : 2
				}

			}
, 			{
				"box" : 				{
					"maxclass" : "toggle",
					"numoutlets" : 1,
					"id" : "obj-51",
					"outlettype" : [ "int" ],
					"patching_rect" : [ 170.0, 313.0, 20.0, 20.0 ],
					"numinlets" : 1
				}

			}
, 			{
				"box" : 				{
					"maxclass" : "newobj",
					"text" : "!- 1.",
					"numoutlets" : 1,
					"id" : "obj-48",
					"fontname" : "Arial",
					"outlettype" : [ "float" ],
					"patching_rect" : [ 170.0, 291.0, 32.5, 20.0 ],
					"fontsize" : 12.0,
					"numinlets" : 2
				}

			}
, 			{
				"box" : 				{
					"maxclass" : "newobj",
					"text" : "t b i",
					"numoutlets" : 2,
					"id" : "obj-47",
					"fontname" : "Arial",
					"outlettype" : [ "bang", "int" ],
					"patching_rect" : [ 192.0, 225.0, 32.5, 20.0 ],
					"fontsize" : 12.0,
					"numinlets" : 1
				}

			}
, 			{
				"box" : 				{
					"maxclass" : "newobj",
					"text" : "change",
					"numoutlets" : 3,
					"id" : "obj-39",
					"fontname" : "Arial",
					"outlettype" : [ "", "int", "int" ],
					"patching_rect" : [ 170.0, 269.0, 50.0, 20.0 ],
					"fontsize" : 12.0,
					"numinlets" : 1
				}

			}
, 			{
				"box" : 				{
					"maxclass" : "newobj",
					"text" : "==",
					"numoutlets" : 1,
					"id" : "obj-36",
					"fontname" : "Arial",
					"outlettype" : [ "int" ],
					"patching_rect" : [ 170.0, 247.0, 32.5, 20.0 ],
					"fontsize" : 12.0,
					"numinlets" : 2
				}

			}
, 			{
				"box" : 				{
					"maxclass" : "button",
					"numoutlets" : 1,
					"id" : "obj-25",
					"outlettype" : [ "bang" ],
					"patching_rect" : [ 198.0, 132.0, 20.0, 20.0 ],
					"numinlets" : 1
				}

			}
, 			{
				"box" : 				{
					"maxclass" : "number",
					"numoutlets" : 2,
					"id" : "obj-35",
					"fontname" : "Arial",
					"outlettype" : [ "int", "bang" ],
					"patching_rect" : [ 203.0, 203.0, 50.0, 20.0 ],
					"fontsize" : 12.0,
					"numinlets" : 1
				}

			}
, 			{
				"box" : 				{
					"maxclass" : "number",
					"numoutlets" : 2,
					"id" : "obj-34",
					"fontname" : "Arial",
					"outlettype" : [ "int", "bang" ],
					"patching_rect" : [ 137.0, 203.0, 50.0, 20.0 ],
					"fontsize" : 12.0,
					"numinlets" : 1
				}

			}
, 			{
				"box" : 				{
					"maxclass" : "message",
					"text" : "0",
					"numoutlets" : 1,
					"id" : "obj-32",
					"fontname" : "Arial",
					"outlettype" : [ "" ],
					"patching_rect" : [ 214.0, 159.0, 32.5, 18.0 ],
					"fontsize" : 12.0,
					"numinlets" : 2
				}

			}
, 			{
				"box" : 				{
					"maxclass" : "message",
					"text" : "470",
					"numoutlets" : 1,
					"id" : "obj-31",
					"fontname" : "Arial",
					"outlettype" : [ "" ],
					"patching_rect" : [ 170.0, 159.0, 32.5, 18.0 ],
					"fontsize" : 12.0,
					"numinlets" : 2
				}

			}
, 			{
				"box" : 				{
					"maxclass" : "newobj",
					"text" : "peak 0",
					"numoutlets" : 3,
					"id" : "obj-29",
					"fontname" : "Arial",
					"outlettype" : [ "int", "int", "int" ],
					"patching_rect" : [ 203.0, 181.0, 47.0, 20.0 ],
					"fontsize" : 12.0,
					"numinlets" : 2
				}

			}
, 			{
				"box" : 				{
					"maxclass" : "newobj",
					"text" : "trough 470",
					"numoutlets" : 3,
					"id" : "obj-33",
					"fontname" : "Arial",
					"outlettype" : [ "int", "int", "int" ],
					"patching_rect" : [ 137.0, 181.0, 68.0, 20.0 ],
					"fontsize" : 12.0,
					"numinlets" : 2
				}

			}
, 			{
				"box" : 				{
					"maxclass" : "newobj",
					"text" : "change",
					"numoutlets" : 3,
					"id" : "obj-27",
					"fontname" : "Arial",
					"outlettype" : [ "", "int", "int" ],
					"patching_rect" : [ 198.0, 110.0, 50.0, 20.0 ],
					"fontsize" : 12.0,
					"numinlets" : 1
				}

			}
, 			{
				"box" : 				{
					"maxclass" : "flonum",
					"numoutlets" : 2,
					"id" : "obj-28",
					"fontname" : "Arial",
					"outlettype" : [ "float", "bang" ],
					"patching_rect" : [ 99.0, 363.0, 50.0, 20.0 ],
					"fontsize" : 12.0,
					"numinlets" : 1
				}

			}
, 			{
				"box" : 				{
					"maxclass" : "newobj",
					"text" : "scale -80. 80. 1. -1.",
					"numoutlets" : 1,
					"id" : "obj-26",
					"fontname" : "Arial",
					"outlettype" : [ "float" ],
					"patching_rect" : [ 99.0, 341.0, 113.0, 20.0 ],
					"fontsize" : 12.0,
					"numinlets" : 6
				}

			}
, 			{
				"box" : 				{
					"maxclass" : "number",
					"numoutlets" : 2,
					"id" : "obj-17",
					"fontname" : "Arial",
					"outlettype" : [ "int", "bang" ],
					"patching_rect" : [ 44.0, 187.0, 50.0, 20.0 ],
					"fontsize" : 12.0,
					"numinlets" : 1
				}

			}
, 			{
				"box" : 				{
					"maxclass" : "newobj",
					"text" : "scale -96 374 0. 470.",
					"numoutlets" : 1,
					"id" : "obj-23",
					"fontname" : "Arial",
					"outlettype" : [ "float" ],
					"patching_rect" : [ 44.0, 132.0, 123.0, 20.0 ],
					"fontsize" : 12.0,
					"numinlets" : 6
				}

			}
, 			{
				"box" : 				{
					"maxclass" : "number",
					"numoutlets" : 2,
					"id" : "obj-15",
					"fontname" : "Arial",
					"outlettype" : [ "int", "bang" ],
					"patching_rect" : [ 99.0, 319.0, 50.0, 20.0 ],
					"fontsize" : 12.0,
					"numinlets" : 1
				}

			}
, 			{
				"box" : 				{
					"maxclass" : "newobj",
					"text" : "-",
					"numoutlets" : 1,
					"id" : "obj-13",
					"fontname" : "Arial",
					"outlettype" : [ "int" ],
					"patching_rect" : [ 99.0, 275.0, 32.5, 20.0 ],
					"fontsize" : 12.0,
					"numinlets" : 2
				}

			}
, 			{
				"box" : 				{
					"maxclass" : "newobj",
					"text" : "bucket 0",
					"numoutlets" : 1,
					"id" : "obj-12",
					"fontname" : "Arial",
					"outlettype" : [ "" ],
					"patching_rect" : [ 99.0, 253.0, 56.0, 20.0 ],
					"fontsize" : 12.0,
					"numinlets" : 1
				}

			}
, 			{
				"box" : 				{
					"maxclass" : "newobj",
					"text" : "route /oscRemote/xy1",
					"numoutlets" : 2,
					"id" : "obj-11",
					"fontname" : "Arial",
					"outlettype" : [ "", "" ],
					"patching_rect" : [ 11.0, 33.0, 127.0, 20.0 ],
					"fontsize" : 12.0,
					"numinlets" : 1
				}

			}
, 			{
				"box" : 				{
					"maxclass" : "newobj",
					"text" : "udpreceive 7000",
					"numoutlets" : 1,
					"id" : "obj-10",
					"fontname" : "Arial",
					"outlettype" : [ "" ],
					"patching_rect" : [ 11.0, 11.0, 99.0, 20.0 ],
					"fontsize" : 12.0,
					"numinlets" : 1
				}

			}
, 			{
				"box" : 				{
					"maxclass" : "newobj",
					"text" : "unpack 0 0 0",
					"numoutlets" : 3,
					"id" : "obj-5",
					"fontname" : "Arial",
					"outlettype" : [ "int", "int", "int" ],
					"patching_rect" : [ 11.0, 99.0, 79.0, 20.0 ],
					"fontsize" : 12.0,
					"numinlets" : 1
				}

			}
, 			{
				"box" : 				{
					"maxclass" : "newobj",
					"text" : "fromsymbol",
					"numoutlets" : 1,
					"id" : "obj-6",
					"fontname" : "Arial",
					"outlettype" : [ "" ],
					"patching_rect" : [ 11.0, 55.0, 73.0, 20.0 ],
					"fontsize" : 12.0,
					"numinlets" : 1
				}

			}
, 			{
				"box" : 				{
					"maxclass" : "newobj",
					"text" : "route 0",
					"numoutlets" : 2,
					"id" : "obj-7",
					"fontname" : "Arial",
					"outlettype" : [ "", "" ],
					"patching_rect" : [ 11.0, 77.0, 48.0, 20.0 ],
					"fontsize" : 12.0,
					"numinlets" : 1
				}

			}
, 			{
				"box" : 				{
					"maxclass" : "newobj",
					"text" : "grooveduck2 rap",
					"numoutlets" : 3,
					"id" : "obj-4",
					"fontname" : "Arial",
					"outlettype" : [ "signal", "signal", "signal" ],
					"patching_rect" : [ 308.0, 352.0, 100.0, 20.0 ],
					"fontsize" : 12.0,
					"numinlets" : 4
				}

			}
, 			{
				"box" : 				{
					"maxclass" : "newobj",
					"text" : "grooveduck2 rap",
					"numoutlets" : 3,
					"id" : "obj-3",
					"fontname" : "Arial",
					"outlettype" : [ "signal", "signal", "signal" ],
					"patching_rect" : [ 308.0, 264.0, 100.0, 20.0 ],
					"fontsize" : 12.0,
					"numinlets" : 4
				}

			}
, 			{
				"box" : 				{
					"maxclass" : "newobj",
					"text" : "buffer~ rap",
					"numoutlets" : 2,
					"id" : "obj-1",
					"fontname" : "Arial",
					"outlettype" : [ "float", "bang" ],
					"patching_rect" : [ 286.0, 110.0, 69.0, 20.0 ],
					"fontsize" : 12.0,
					"numinlets" : 1
				}

			}
 ],
		"lines" : [ 			{
				"patchline" : 				{
					"source" : [ "obj-166", 0 ],
					"destination" : [ "obj-133", 0 ],
					"hidden" : 0,
					"midpoints" : [  ]
				}

			}
, 			{
				"patchline" : 				{
					"source" : [ "obj-151", 0 ],
					"destination" : [ "obj-141", 0 ],
					"hidden" : 0,
					"midpoints" : [  ]
				}

			}
, 			{
				"patchline" : 				{
					"source" : [ "obj-136", 0 ],
					"destination" : [ "obj-151", 0 ],
					"hidden" : 0,
					"midpoints" : [  ]
				}

			}
, 			{
				"patchline" : 				{
					"source" : [ "obj-141", 1 ],
					"destination" : [ "obj-133", 0 ],
					"hidden" : 0,
					"midpoints" : [  ]
				}

			}
, 			{
				"patchline" : 				{
					"source" : [ "obj-117", 0 ],
					"destination" : [ "obj-109", 0 ],
					"hidden" : 1,
					"midpoints" : [  ]
				}

			}
, 			{
				"patchline" : 				{
					"source" : [ "obj-110", 0 ],
					"destination" : [ "obj-121", 0 ],
					"hidden" : 0,
					"midpoints" : [  ]
				}

			}
, 			{
				"patchline" : 				{
					"source" : [ "obj-121", 0 ],
					"destination" : [ "obj-119", 0 ],
					"hidden" : 0,
					"midpoints" : [  ]
				}

			}
, 			{
				"patchline" : 				{
					"source" : [ "obj-126", 0 ],
					"destination" : [ "obj-128", 0 ],
					"hidden" : 0,
					"midpoints" : [  ]
				}

			}
, 			{
				"patchline" : 				{
					"source" : [ "obj-109", 0 ],
					"destination" : [ "obj-132", 0 ],
					"hidden" : 0,
					"midpoints" : [  ]
				}

			}
, 			{
				"patchline" : 				{
					"source" : [ "obj-132", 0 ],
					"destination" : [ "obj-126", 0 ],
					"hidden" : 0,
					"midpoints" : [  ]
				}

			}
, 			{
				"patchline" : 				{
					"source" : [ "obj-132", 0 ],
					"destination" : [ "obj-110", 0 ],
					"hidden" : 0,
					"midpoints" : [  ]
				}

			}
, 			{
				"patchline" : 				{
					"source" : [ "obj-119", 0 ],
					"destination" : [ "obj-137", 1 ],
					"hidden" : 0,
					"midpoints" : [  ]
				}

			}
, 			{
				"patchline" : 				{
					"source" : [ "obj-137", 0 ],
					"destination" : [ "obj-61", 2 ],
					"hidden" : 0,
					"midpoints" : [  ]
				}

			}
, 			{
				"patchline" : 				{
					"source" : [ "obj-105", 0 ],
					"destination" : [ "obj-137", 0 ],
					"hidden" : 0,
					"midpoints" : [  ]
				}

			}
, 			{
				"patchline" : 				{
					"source" : [ "obj-128", 0 ],
					"destination" : [ "obj-138", 1 ],
					"hidden" : 0,
					"midpoints" : [  ]
				}

			}
, 			{
				"patchline" : 				{
					"source" : [ "obj-138", 0 ],
					"destination" : [ "obj-113", 0 ],
					"hidden" : 0,
					"midpoints" : [  ]
				}

			}
, 			{
				"patchline" : 				{
					"source" : [ "obj-105", 0 ],
					"destination" : [ "obj-138", 0 ],
					"hidden" : 0,
					"midpoints" : [  ]
				}

			}
, 			{
				"patchline" : 				{
					"source" : [ "obj-22", 0 ],
					"destination" : [ "obj-142", 0 ],
					"hidden" : 0,
					"midpoints" : [  ]
				}

			}
, 			{
				"patchline" : 				{
					"source" : [ "obj-77", 0 ],
					"destination" : [ "obj-142", 0 ],
					"hidden" : 0,
					"midpoints" : [  ]
				}

			}
, 			{
				"patchline" : 				{
					"source" : [ "obj-147", 0 ],
					"destination" : [ "obj-144", 0 ],
					"hidden" : 0,
					"midpoints" : [  ]
				}

			}
, 			{
				"patchline" : 				{
					"source" : [ "obj-19", 0 ],
					"destination" : [ "obj-148", 4 ],
					"hidden" : 0,
					"midpoints" : [  ]
				}

			}
, 			{
				"patchline" : 				{
					"source" : [ "obj-145", 0 ],
					"destination" : [ "obj-148", 0 ],
					"hidden" : 0,
					"midpoints" : [  ]
				}

			}
, 			{
				"patchline" : 				{
					"source" : [ "obj-148", 0 ],
					"destination" : [ "obj-147", 0 ],
					"hidden" : 0,
					"midpoints" : [  ]
				}

			}
, 			{
				"patchline" : 				{
					"source" : [ "obj-4", 2 ],
					"destination" : [ "obj-146", 0 ],
					"hidden" : 0,
					"midpoints" : [  ]
				}

			}
, 			{
				"patchline" : 				{
					"source" : [ "obj-146", 0 ],
					"destination" : [ "obj-145", 0 ],
					"hidden" : 0,
					"midpoints" : [  ]
				}

			}
, 			{
				"patchline" : 				{
					"source" : [ "obj-142", 0 ],
					"destination" : [ "obj-144", 1 ],
					"hidden" : 0,
					"midpoints" : [  ]
				}

			}
, 			{
				"patchline" : 				{
					"source" : [ "obj-54", 0 ],
					"destination" : [ "obj-142", 0 ],
					"hidden" : 0,
					"midpoints" : [  ]
				}

			}
, 			{
				"patchline" : 				{
					"source" : [ "obj-142", 0 ],
					"destination" : [ "obj-135", 1 ],
					"hidden" : 0,
					"midpoints" : [  ]
				}

			}
, 			{
				"patchline" : 				{
					"source" : [ "obj-22", 0 ],
					"destination" : [ "obj-135", 0 ],
					"hidden" : 0,
					"midpoints" : [  ]
				}

			}
, 			{
				"patchline" : 				{
					"source" : [ "obj-124", 0 ],
					"destination" : [ "obj-134", 0 ],
					"hidden" : 1,
					"midpoints" : [  ]
				}

			}
, 			{
				"patchline" : 				{
					"source" : [ "obj-127", 0 ],
					"destination" : [ "obj-134", 0 ],
					"hidden" : 0,
					"midpoints" : [  ]
				}

			}
, 			{
				"patchline" : 				{
					"source" : [ "obj-134", 0 ],
					"destination" : [ "obj-130", 0 ],
					"hidden" : 0,
					"midpoints" : [  ]
				}

			}
, 			{
				"patchline" : 				{
					"source" : [ "obj-130", 0 ],
					"destination" : [ "obj-15", 0 ],
					"hidden" : 0,
					"midpoints" : [  ]
				}

			}
, 			{
				"patchline" : 				{
					"source" : [ "obj-13", 0 ],
					"destination" : [ "obj-130", 1 ],
					"hidden" : 0,
					"midpoints" : [  ]
				}

			}
, 			{
				"patchline" : 				{
					"source" : [ "obj-96", 0 ],
					"destination" : [ "obj-127", 0 ],
					"hidden" : 0,
					"midpoints" : [  ]
				}

			}
, 			{
				"patchline" : 				{
					"source" : [ "obj-103", 0 ],
					"destination" : [ "obj-87", 0 ],
					"hidden" : 0,
					"midpoints" : [  ]
				}

			}
, 			{
				"patchline" : 				{
					"source" : [ "obj-87", 0 ],
					"destination" : [ "obj-38", 0 ],
					"hidden" : 0,
					"midpoints" : [  ]
				}

			}
, 			{
				"patchline" : 				{
					"source" : [ "obj-116", 0 ],
					"destination" : [ "obj-87", 1 ],
					"hidden" : 0,
					"midpoints" : [  ]
				}

			}
, 			{
				"patchline" : 				{
					"source" : [ "obj-125", 0 ],
					"destination" : [ "obj-108", 0 ],
					"hidden" : 0,
					"midpoints" : [  ]
				}

			}
, 			{
				"patchline" : 				{
					"source" : [ "obj-102", 0 ],
					"destination" : [ "obj-129", 0 ],
					"hidden" : 0,
					"midpoints" : [  ]
				}

			}
, 			{
				"patchline" : 				{
					"source" : [ "obj-129", 0 ],
					"destination" : [ "obj-131", 0 ],
					"hidden" : 0,
					"midpoints" : [  ]
				}

			}
, 			{
				"patchline" : 				{
					"source" : [ "obj-61", 0 ],
					"destination" : [ "obj-125", 0 ],
					"hidden" : 0,
					"midpoints" : [  ]
				}

			}
, 			{
				"patchline" : 				{
					"source" : [ "obj-88", 0 ],
					"destination" : [ "obj-61", 0 ],
					"hidden" : 0,
					"midpoints" : [  ]
				}

			}
, 			{
				"patchline" : 				{
					"source" : [ "obj-61", 0 ],
					"destination" : [ "obj-101", 0 ],
					"hidden" : 0,
					"midpoints" : [  ]
				}

			}
, 			{
				"patchline" : 				{
					"source" : [ "obj-65", 0 ],
					"destination" : [ "obj-89", 0 ],
					"hidden" : 0,
					"midpoints" : [  ]
				}

			}
, 			{
				"patchline" : 				{
					"source" : [ "obj-85", 0 ],
					"destination" : [ "obj-65", 0 ],
					"hidden" : 0,
					"midpoints" : [  ]
				}

			}
, 			{
				"patchline" : 				{
					"source" : [ "obj-28", 0 ],
					"destination" : [ "obj-66", 0 ],
					"hidden" : 0,
					"midpoints" : [  ]
				}

			}
, 			{
				"patchline" : 				{
					"source" : [ "obj-66", 0 ],
					"destination" : [ "obj-74", 0 ],
					"hidden" : 0,
					"midpoints" : [  ]
				}

			}
, 			{
				"patchline" : 				{
					"source" : [ "obj-66", 1 ],
					"destination" : [ "obj-72", 0 ],
					"hidden" : 0,
					"midpoints" : [  ]
				}

			}
, 			{
				"patchline" : 				{
					"source" : [ "obj-89", 0 ],
					"destination" : [ "obj-64", 0 ],
					"hidden" : 0,
					"midpoints" : [  ]
				}

			}
, 			{
				"patchline" : 				{
					"source" : [ "obj-72", 0 ],
					"destination" : [ "obj-85", 0 ],
					"hidden" : 0,
					"midpoints" : [  ]
				}

			}
, 			{
				"patchline" : 				{
					"source" : [ "obj-74", 0 ],
					"destination" : [ "obj-85", 0 ],
					"hidden" : 0,
					"midpoints" : [  ]
				}

			}
, 			{
				"patchline" : 				{
					"source" : [ "obj-28", 0 ],
					"destination" : [ "obj-64", 0 ],
					"hidden" : 0,
					"midpoints" : [  ]
				}

			}
, 			{
				"patchline" : 				{
					"source" : [ "obj-28", 0 ],
					"destination" : [ "obj-59", 0 ],
					"hidden" : 0,
					"midpoints" : [  ]
				}

			}
, 			{
				"patchline" : 				{
					"source" : [ "obj-69", 0 ],
					"destination" : [ "obj-49", 1 ],
					"hidden" : 0,
					"midpoints" : [  ]
				}

			}
, 			{
				"patchline" : 				{
					"source" : [ "obj-68", 0 ],
					"destination" : [ "obj-49", 0 ],
					"hidden" : 0,
					"midpoints" : [  ]
				}

			}
, 			{
				"patchline" : 				{
					"source" : [ "obj-80", 0 ],
					"destination" : [ "obj-49", 1 ],
					"hidden" : 0,
					"midpoints" : [  ]
				}

			}
, 			{
				"patchline" : 				{
					"source" : [ "obj-81", 0 ],
					"destination" : [ "obj-49", 0 ],
					"hidden" : 0,
					"midpoints" : [  ]
				}

			}
, 			{
				"patchline" : 				{
					"source" : [ "obj-57", 0 ],
					"destination" : [ "obj-53", 0 ],
					"hidden" : 1,
					"midpoints" : [  ]
				}

			}
, 			{
				"patchline" : 				{
					"source" : [ "obj-58", 0 ],
					"destination" : [ "obj-21", 0 ],
					"hidden" : 1,
					"midpoints" : [  ]
				}

			}
, 			{
				"patchline" : 				{
					"source" : [ "obj-54", 0 ],
					"destination" : [ "obj-57", 0 ],
					"hidden" : 0,
					"midpoints" : [  ]
				}

			}
, 			{
				"patchline" : 				{
					"source" : [ "obj-54", 0 ],
					"destination" : [ "obj-58", 0 ],
					"hidden" : 0,
					"midpoints" : [  ]
				}

			}
, 			{
				"patchline" : 				{
					"source" : [ "obj-53", 0 ],
					"destination" : [ "obj-112", 0 ],
					"hidden" : 0,
					"midpoints" : [  ]
				}

			}
, 			{
				"patchline" : 				{
					"source" : [ "obj-53", 0 ],
					"destination" : [ "obj-104", 0 ],
					"hidden" : 0,
					"midpoints" : [  ]
				}

			}
, 			{
				"patchline" : 				{
					"source" : [ "obj-55", 0 ],
					"destination" : [ "obj-4", 0 ],
					"hidden" : 0,
					"midpoints" : [  ]
				}

			}
, 			{
				"patchline" : 				{
					"source" : [ "obj-4", 1 ],
					"destination" : [ "obj-69", 0 ],
					"hidden" : 0,
					"midpoints" : [  ]
				}

			}
, 			{
				"patchline" : 				{
					"source" : [ "obj-4", 0 ],
					"destination" : [ "obj-68", 0 ],
					"hidden" : 0,
					"midpoints" : [  ]
				}

			}
, 			{
				"patchline" : 				{
					"source" : [ "obj-118", 0 ],
					"destination" : [ "obj-4", 0 ],
					"hidden" : 0,
					"midpoints" : [  ]
				}

			}
, 			{
				"patchline" : 				{
					"source" : [ "obj-38", 0 ],
					"destination" : [ "obj-4", 0 ],
					"hidden" : 0,
					"midpoints" : [  ]
				}

			}
, 			{
				"patchline" : 				{
					"source" : [ "obj-106", 0 ],
					"destination" : [ "obj-12", 0 ],
					"hidden" : 0,
					"midpoints" : [  ]
				}

			}
, 			{
				"patchline" : 				{
					"source" : [ "obj-41", 0 ],
					"destination" : [ "obj-12", 0 ],
					"hidden" : 0,
					"midpoints" : [  ]
				}

			}
, 			{
				"patchline" : 				{
					"source" : [ "obj-12", 0 ],
					"destination" : [ "obj-13", 1 ],
					"hidden" : 0,
					"midpoints" : [  ]
				}

			}
, 			{
				"patchline" : 				{
					"source" : [ "obj-17", 0 ],
					"destination" : [ "obj-29", 0 ],
					"hidden" : 0,
					"midpoints" : [  ]
				}

			}
, 			{
				"patchline" : 				{
					"source" : [ "obj-32", 0 ],
					"destination" : [ "obj-29", 1 ],
					"hidden" : 0,
					"midpoints" : [  ]
				}

			}
, 			{
				"patchline" : 				{
					"source" : [ "obj-29", 0 ],
					"destination" : [ "obj-35", 0 ],
					"hidden" : 0,
					"midpoints" : [  ]
				}

			}
, 			{
				"patchline" : 				{
					"source" : [ "obj-17", 0 ],
					"destination" : [ "obj-33", 0 ],
					"hidden" : 0,
					"midpoints" : [  ]
				}

			}
, 			{
				"patchline" : 				{
					"source" : [ "obj-33", 0 ],
					"destination" : [ "obj-34", 0 ],
					"hidden" : 0,
					"midpoints" : [  ]
				}

			}
, 			{
				"patchline" : 				{
					"source" : [ "obj-31", 0 ],
					"destination" : [ "obj-33", 1 ],
					"hidden" : 0,
					"midpoints" : [  ]
				}

			}
, 			{
				"patchline" : 				{
					"source" : [ "obj-118", 0 ],
					"destination" : [ "obj-3", 0 ],
					"hidden" : 0,
					"midpoints" : [  ]
				}

			}
, 			{
				"patchline" : 				{
					"source" : [ "obj-22", 0 ],
					"destination" : [ "obj-116", 1 ],
					"hidden" : 0,
					"midpoints" : [  ]
				}

			}
, 			{
				"patchline" : 				{
					"source" : [ "obj-105", 0 ],
					"destination" : [ "obj-113", 0 ],
					"hidden" : 0,
					"midpoints" : [  ]
				}

			}
, 			{
				"patchline" : 				{
					"source" : [ "obj-113", 0 ],
					"destination" : [ "obj-111", 0 ],
					"hidden" : 0,
					"midpoints" : [  ]
				}

			}
, 			{
				"patchline" : 				{
					"source" : [ "obj-111", 0 ],
					"destination" : [ "obj-83", 0 ],
					"hidden" : 0,
					"midpoints" : [  ]
				}

			}
, 			{
				"patchline" : 				{
					"source" : [ "obj-112", 0 ],
					"destination" : [ "obj-111", 0 ],
					"hidden" : 0,
					"midpoints" : [  ]
				}

			}
, 			{
				"patchline" : 				{
					"source" : [ "obj-97", 0 ],
					"destination" : [ "obj-112", 0 ],
					"hidden" : 0,
					"midpoints" : [  ]
				}

			}
, 			{
				"patchline" : 				{
					"source" : [ "obj-105", 0 ],
					"destination" : [ "obj-108", 0 ],
					"hidden" : 0,
					"midpoints" : [  ]
				}

			}
, 			{
				"patchline" : 				{
					"source" : [ "obj-108", 0 ],
					"destination" : [ "obj-102", 0 ],
					"hidden" : 0,
					"midpoints" : [  ]
				}

			}
, 			{
				"patchline" : 				{
					"source" : [ "obj-107", 0 ],
					"destination" : [ "obj-95", 0 ],
					"hidden" : 0,
					"midpoints" : [  ]
				}

			}
, 			{
				"patchline" : 				{
					"source" : [ "obj-5", 2 ],
					"destination" : [ "obj-107", 0 ],
					"hidden" : 0,
					"midpoints" : [  ]
				}

			}
, 			{
				"patchline" : 				{
					"source" : [ "obj-95", 1 ],
					"destination" : [ "obj-105", 0 ],
					"hidden" : 0,
					"midpoints" : [  ]
				}

			}
, 			{
				"patchline" : 				{
					"source" : [ "obj-104", 0 ],
					"destination" : [ "obj-102", 0 ],
					"hidden" : 0,
					"midpoints" : [  ]
				}

			}
, 			{
				"patchline" : 				{
					"source" : [ "obj-97", 0 ],
					"destination" : [ "obj-104", 0 ],
					"hidden" : 0,
					"midpoints" : [  ]
				}

			}
, 			{
				"patchline" : 				{
					"source" : [ "obj-98", 0 ],
					"destination" : [ "obj-81", 1 ],
					"hidden" : 0,
					"midpoints" : [  ]
				}

			}
, 			{
				"patchline" : 				{
					"source" : [ "obj-98", 0 ],
					"destination" : [ "obj-80", 1 ],
					"hidden" : 0,
					"midpoints" : [  ]
				}

			}
, 			{
				"patchline" : 				{
					"source" : [ "obj-102", 0 ],
					"destination" : [ "obj-68", 1 ],
					"hidden" : 0,
					"midpoints" : [  ]
				}

			}
, 			{
				"patchline" : 				{
					"source" : [ "obj-102", 0 ],
					"destination" : [ "obj-69", 1 ],
					"hidden" : 0,
					"midpoints" : [  ]
				}

			}
, 			{
				"patchline" : 				{
					"source" : [ "obj-101", 0 ],
					"destination" : [ "obj-102", 0 ],
					"hidden" : 0,
					"midpoints" : [  ]
				}

			}
, 			{
				"patchline" : 				{
					"source" : [ "obj-100", 0 ],
					"destination" : [ "obj-98", 0 ],
					"hidden" : 0,
					"midpoints" : [  ]
				}

			}
, 			{
				"patchline" : 				{
					"source" : [ "obj-94", 0 ],
					"destination" : [ "obj-100", 0 ],
					"hidden" : 0,
					"midpoints" : [  ]
				}

			}
, 			{
				"patchline" : 				{
					"source" : [ "obj-95", 0 ],
					"destination" : [ "obj-97", 0 ],
					"hidden" : 0,
					"midpoints" : [  ]
				}

			}
, 			{
				"patchline" : 				{
					"source" : [ "obj-82", 0 ],
					"destination" : [ "obj-94", 0 ],
					"hidden" : 0,
					"midpoints" : [  ]
				}

			}
, 			{
				"patchline" : 				{
					"source" : [ "obj-88", 0 ],
					"destination" : [ "obj-82", 0 ],
					"hidden" : 0,
					"midpoints" : [  ]
				}

			}
, 			{
				"patchline" : 				{
					"source" : [ "obj-86", 0 ],
					"destination" : [ "obj-88", 0 ],
					"hidden" : 0,
					"midpoints" : [  ]
				}

			}
, 			{
				"patchline" : 				{
					"source" : [ "obj-83", 0 ],
					"destination" : [ "obj-86", 0 ],
					"hidden" : 0,
					"midpoints" : [  ]
				}

			}
, 			{
				"patchline" : 				{
					"source" : [ "obj-3", 1 ],
					"destination" : [ "obj-80", 0 ],
					"hidden" : 0,
					"midpoints" : [  ]
				}

			}
, 			{
				"patchline" : 				{
					"source" : [ "obj-3", 0 ],
					"destination" : [ "obj-81", 0 ],
					"hidden" : 0,
					"midpoints" : [  ]
				}

			}
, 			{
				"patchline" : 				{
					"source" : [ "obj-15", 0 ],
					"destination" : [ "obj-26", 0 ],
					"hidden" : 0,
					"midpoints" : [  ]
				}

			}
, 			{
				"patchline" : 				{
					"source" : [ "obj-26", 0 ],
					"destination" : [ "obj-28", 0 ],
					"hidden" : 0,
					"midpoints" : [  ]
				}

			}
, 			{
				"patchline" : 				{
					"source" : [ "obj-30", 0 ],
					"destination" : [ "obj-26", 0 ],
					"hidden" : 0,
					"midpoints" : [  ]
				}

			}
, 			{
				"patchline" : 				{
					"source" : [ "obj-20", 0 ],
					"destination" : [ "obj-22", 0 ],
					"hidden" : 0,
					"midpoints" : [  ]
				}

			}
, 			{
				"patchline" : 				{
					"source" : [ "obj-70", 0 ],
					"destination" : [ "obj-20", 0 ],
					"hidden" : 0,
					"midpoints" : [  ]
				}

			}
, 			{
				"patchline" : 				{
					"source" : [ "obj-19", 0 ],
					"destination" : [ "obj-20", 4 ],
					"hidden" : 0,
					"midpoints" : [  ]
				}

			}
, 			{
				"patchline" : 				{
					"source" : [ "obj-9", 6 ],
					"destination" : [ "obj-19", 0 ],
					"hidden" : 0,
					"midpoints" : [  ]
				}

			}
, 			{
				"patchline" : 				{
					"source" : [ "obj-16", 0 ],
					"destination" : [ "obj-9", 0 ],
					"hidden" : 0,
					"midpoints" : [  ]
				}

			}
, 			{
				"patchline" : 				{
					"source" : [ "obj-6", 0 ],
					"destination" : [ "obj-7", 0 ],
					"hidden" : 0,
					"midpoints" : [  ]
				}

			}
, 			{
				"patchline" : 				{
					"source" : [ "obj-7", 0 ],
					"destination" : [ "obj-5", 0 ],
					"hidden" : 0,
					"midpoints" : [  ]
				}

			}
, 			{
				"patchline" : 				{
					"source" : [ "obj-10", 0 ],
					"destination" : [ "obj-11", 0 ],
					"hidden" : 0,
					"midpoints" : [  ]
				}

			}
, 			{
				"patchline" : 				{
					"source" : [ "obj-11", 0 ],
					"destination" : [ "obj-6", 0 ],
					"hidden" : 0,
					"midpoints" : [  ]
				}

			}
, 			{
				"patchline" : 				{
					"source" : [ "obj-5", 1 ],
					"destination" : [ "obj-23", 0 ],
					"hidden" : 0,
					"midpoints" : [  ]
				}

			}
, 			{
				"patchline" : 				{
					"source" : [ "obj-23", 0 ],
					"destination" : [ "obj-17", 0 ],
					"hidden" : 0,
					"midpoints" : [  ]
				}

			}
, 			{
				"patchline" : 				{
					"source" : [ "obj-34", 0 ],
					"destination" : [ "obj-106", 1 ],
					"hidden" : 0,
					"midpoints" : [  ]
				}

			}
, 			{
				"patchline" : 				{
					"source" : [ "obj-37", 0 ],
					"destination" : [ "obj-106", 0 ],
					"hidden" : 0,
					"midpoints" : [  ]
				}

			}
, 			{
				"patchline" : 				{
					"source" : [ "obj-37", 0 ],
					"destination" : [ "obj-30", 0 ],
					"hidden" : 0,
					"midpoints" : [  ]
				}

			}
, 			{
				"patchline" : 				{
					"source" : [ "obj-39", 0 ],
					"destination" : [ "obj-37", 0 ],
					"hidden" : 0,
					"midpoints" : [  ]
				}

			}
, 			{
				"patchline" : 				{
					"source" : [ "obj-27", 0 ],
					"destination" : [ "obj-25", 0 ],
					"hidden" : 0,
					"midpoints" : [  ]
				}

			}
, 			{
				"patchline" : 				{
					"source" : [ "obj-25", 0 ],
					"destination" : [ "obj-32", 0 ],
					"hidden" : 0,
					"midpoints" : [  ]
				}

			}
, 			{
				"patchline" : 				{
					"source" : [ "obj-25", 0 ],
					"destination" : [ "obj-31", 0 ],
					"hidden" : 0,
					"midpoints" : [  ]
				}

			}
, 			{
				"patchline" : 				{
					"source" : [ "obj-36", 0 ],
					"destination" : [ "obj-39", 0 ],
					"hidden" : 0,
					"midpoints" : [  ]
				}

			}
, 			{
				"patchline" : 				{
					"source" : [ "obj-34", 0 ],
					"destination" : [ "obj-36", 0 ],
					"hidden" : 0,
					"midpoints" : [  ]
				}

			}
, 			{
				"patchline" : 				{
					"source" : [ "obj-35", 0 ],
					"destination" : [ "obj-47", 0 ],
					"hidden" : 0,
					"midpoints" : [  ]
				}

			}
, 			{
				"patchline" : 				{
					"source" : [ "obj-47", 1 ],
					"destination" : [ "obj-36", 1 ],
					"hidden" : 0,
					"midpoints" : [  ]
				}

			}
, 			{
				"patchline" : 				{
					"source" : [ "obj-47", 0 ],
					"destination" : [ "obj-36", 0 ],
					"hidden" : 0,
					"midpoints" : [  ]
				}

			}
, 			{
				"patchline" : 				{
					"source" : [ "obj-39", 0 ],
					"destination" : [ "obj-48", 0 ],
					"hidden" : 0,
					"midpoints" : [  ]
				}

			}
, 			{
				"patchline" : 				{
					"source" : [ "obj-48", 0 ],
					"destination" : [ "obj-51", 0 ],
					"hidden" : 0,
					"midpoints" : [  ]
				}

			}
, 			{
				"patchline" : 				{
					"source" : [ "obj-5", 2 ],
					"destination" : [ "obj-27", 0 ],
					"hidden" : 0,
					"midpoints" : [  ]
				}

			}
, 			{
				"patchline" : 				{
					"source" : [ "obj-40", 0 ],
					"destination" : [ "obj-41", 1 ],
					"hidden" : 0,
					"midpoints" : [  ]
				}

			}
, 			{
				"patchline" : 				{
					"source" : [ "obj-17", 0 ],
					"destination" : [ "obj-40", 0 ],
					"hidden" : 0,
					"midpoints" : [  ]
				}

			}
, 			{
				"patchline" : 				{
					"source" : [ "obj-51", 0 ],
					"destination" : [ "obj-41", 0 ],
					"hidden" : 0,
					"midpoints" : [  ]
				}

			}
, 			{
				"patchline" : 				{
					"source" : [ "obj-41", 0 ],
					"destination" : [ "obj-13", 0 ],
					"hidden" : 0,
					"midpoints" : [  ]
				}

			}
, 			{
				"patchline" : 				{
					"source" : [ "obj-3", 2 ],
					"destination" : [ "obj-44", 0 ],
					"hidden" : 0,
					"midpoints" : [  ]
				}

			}
, 			{
				"patchline" : 				{
					"source" : [ "obj-46", 0 ],
					"destination" : [ "obj-1", 0 ],
					"hidden" : 0,
					"midpoints" : [  ]
				}

			}
, 			{
				"patchline" : 				{
					"source" : [ "obj-52", 0 ],
					"destination" : [ "obj-49", 0 ],
					"hidden" : 0,
					"midpoints" : [  ]
				}

			}
, 			{
				"patchline" : 				{
					"source" : [ "obj-44", 0 ],
					"destination" : [ "obj-70", 0 ],
					"hidden" : 0,
					"midpoints" : [  ]
				}

			}
, 			{
				"patchline" : 				{
					"source" : [ "obj-73", 0 ],
					"destination" : [ "obj-71", 0 ],
					"hidden" : 0,
					"midpoints" : [  ]
				}

			}
, 			{
				"patchline" : 				{
					"source" : [ "obj-71", 0 ],
					"destination" : [ "obj-3", 0 ],
					"hidden" : 0,
					"midpoints" : [  ]
				}

			}
, 			{
				"patchline" : 				{
					"source" : [ "obj-75", 0 ],
					"destination" : [ "obj-71", 0 ],
					"hidden" : 0,
					"midpoints" : [  ]
				}

			}
, 			{
				"patchline" : 				{
					"source" : [ "obj-78", 0 ],
					"destination" : [ "obj-3", 0 ],
					"hidden" : 0,
					"midpoints" : [  ]
				}

			}
, 			{
				"patchline" : 				{
					"source" : [ "obj-1", 1 ],
					"destination" : [ "obj-16", 0 ],
					"hidden" : 0,
					"midpoints" : [  ]
				}

			}
, 			{
				"patchline" : 				{
					"source" : [ "obj-21", 0 ],
					"destination" : [ "obj-14", 0 ],
					"hidden" : 0,
					"midpoints" : [  ]
				}

			}
, 			{
				"patchline" : 				{
					"source" : [ "obj-24", 0 ],
					"destination" : [ "obj-42", 0 ],
					"hidden" : 0,
					"midpoints" : [  ]
				}

			}
, 			{
				"patchline" : 				{
					"source" : [ "obj-14", 0 ],
					"destination" : [ "obj-24", 1 ],
					"hidden" : 0,
					"midpoints" : [  ]
				}

			}
, 			{
				"patchline" : 				{
					"source" : [ "obj-21", 0 ],
					"destination" : [ "obj-24", 0 ],
					"hidden" : 0,
					"midpoints" : [  ]
				}

			}
, 			{
				"patchline" : 				{
					"source" : [ "obj-42", 0 ],
					"destination" : [ "obj-26", 1 ],
					"hidden" : 0,
					"midpoints" : [  ]
				}

			}
, 			{
				"patchline" : 				{
					"source" : [ "obj-21", 0 ],
					"destination" : [ "obj-26", 2 ],
					"hidden" : 0,
					"midpoints" : [  ]
				}

			}
, 			{
				"patchline" : 				{
					"source" : [ "obj-28", 0 ],
					"destination" : [ "obj-60", 0 ],
					"hidden" : 0,
					"midpoints" : [  ]
				}

			}
, 			{
				"patchline" : 				{
					"source" : [ "obj-60", 0 ],
					"destination" : [ "obj-55", 0 ],
					"hidden" : 0,
					"midpoints" : [  ]
				}

			}
, 			{
				"patchline" : 				{
					"source" : [ "obj-53", 0 ],
					"destination" : [ "obj-60", 1 ],
					"hidden" : 0,
					"midpoints" : [  ]
				}

			}
, 			{
				"patchline" : 				{
					"source" : [ "obj-54", 0 ],
					"destination" : [ "obj-118", 0 ],
					"hidden" : 0,
					"midpoints" : [  ]
				}

			}
, 			{
				"patchline" : 				{
					"source" : [ "obj-15", 0 ],
					"destination" : [ "obj-43", 0 ],
					"hidden" : 0,
					"midpoints" : [  ]
				}

			}
, 			{
				"patchline" : 				{
					"source" : [ "obj-43", 0 ],
					"destination" : [ "obj-56", 1 ],
					"hidden" : 0,
					"midpoints" : [  ]
				}

			}
, 			{
				"patchline" : 				{
					"source" : [ "obj-56", 0 ],
					"destination" : [ "obj-50", 1 ],
					"hidden" : 0,
					"midpoints" : [  ]
				}

			}
, 			{
				"patchline" : 				{
					"source" : [ "obj-62", 0 ],
					"destination" : [ "obj-50", 0 ],
					"hidden" : 0,
					"midpoints" : [  ]
				}

			}
, 			{
				"patchline" : 				{
					"source" : [ "obj-50", 0 ],
					"destination" : [ "obj-53", 0 ],
					"hidden" : 0,
					"midpoints" : [  ]
				}

			}
, 			{
				"patchline" : 				{
					"source" : [ "obj-62", 0 ],
					"destination" : [ "obj-63", 0 ],
					"hidden" : 0,
					"midpoints" : [  ]
				}

			}
, 			{
				"patchline" : 				{
					"source" : [ "obj-63", 0 ],
					"destination" : [ "obj-57", 0 ],
					"hidden" : 0,
					"midpoints" : [  ]
				}

			}
, 			{
				"patchline" : 				{
					"source" : [ "obj-78", 0 ],
					"destination" : [ "obj-73", 0 ],
					"hidden" : 0,
					"midpoints" : [  ]
				}

			}
, 			{
				"patchline" : 				{
					"source" : [ "obj-79", 0 ],
					"destination" : [ "obj-73", 0 ],
					"hidden" : 0,
					"midpoints" : [  ]
				}

			}
, 			{
				"patchline" : 				{
					"source" : [ "obj-84", 0 ],
					"destination" : [ "obj-75", 0 ],
					"hidden" : 0,
					"midpoints" : [  ]
				}

			}
, 			{
				"patchline" : 				{
					"source" : [ "obj-77", 0 ],
					"destination" : [ "obj-78", 0 ],
					"hidden" : 0,
					"midpoints" : [  ]
				}

			}
, 			{
				"patchline" : 				{
					"source" : [ "obj-54", 0 ],
					"destination" : [ "obj-117", 0 ],
					"hidden" : 0,
					"midpoints" : [  ]
				}

			}
, 			{
				"patchline" : 				{
					"source" : [ "obj-96", 0 ],
					"destination" : [ "obj-76", 0 ],
					"hidden" : 0,
					"midpoints" : [  ]
				}

			}
, 			{
				"patchline" : 				{
					"source" : [ "obj-76", 0 ],
					"destination" : [ "obj-2", 0 ],
					"hidden" : 0,
					"midpoints" : [  ]
				}

			}
, 			{
				"patchline" : 				{
					"source" : [ "obj-120", 0 ],
					"destination" : [ "obj-115", 0 ],
					"hidden" : 0,
					"midpoints" : [  ]
				}

			}
, 			{
				"patchline" : 				{
					"source" : [ "obj-96", 0 ],
					"destination" : [ "obj-143", 0 ],
					"hidden" : 0,
					"midpoints" : [  ]
				}

			}
, 			{
				"patchline" : 				{
					"source" : [ "obj-67", 0 ],
					"destination" : [ "obj-115", 1 ],
					"hidden" : 0,
					"midpoints" : [  ]
				}

			}
, 			{
				"patchline" : 				{
					"source" : [ "obj-2", 4 ],
					"destination" : [ "obj-67", 0 ],
					"hidden" : 0,
					"midpoints" : [  ]
				}

			}
, 			{
				"patchline" : 				{
					"source" : [ "obj-161", 0 ],
					"destination" : [ "obj-162", 0 ],
					"hidden" : 0,
					"midpoints" : [  ]
				}

			}
, 			{
				"patchline" : 				{
					"source" : [ "obj-2", 0 ],
					"destination" : [ "obj-162", 1 ],
					"hidden" : 0,
					"midpoints" : [  ]
				}

			}
, 			{
				"patchline" : 				{
					"source" : [ "obj-162", 0 ],
					"destination" : [ "obj-158", 0 ],
					"hidden" : 0,
					"midpoints" : [  ]
				}

			}
, 			{
				"patchline" : 				{
					"source" : [ "obj-158", 0 ],
					"destination" : [ "obj-105", 0 ],
					"hidden" : 0,
					"midpoints" : [  ]
				}

			}
, 			{
				"patchline" : 				{
					"source" : [ "obj-158", 1 ],
					"destination" : [ "obj-97", 0 ],
					"hidden" : 0,
					"midpoints" : [  ]
				}

			}
, 			{
				"patchline" : 				{
					"source" : [ "obj-161", 0 ],
					"destination" : [ "obj-120", 0 ],
					"hidden" : 0,
					"midpoints" : [  ]
				}

			}
, 			{
				"patchline" : 				{
					"source" : [ "obj-115", 0 ],
					"destination" : [ "obj-15", 0 ],
					"hidden" : 0,
					"midpoints" : [  ]
				}

			}
, 			{
				"patchline" : 				{
					"source" : [ "obj-95", 0 ],
					"destination" : [ "obj-56", 0 ],
					"hidden" : 0,
					"midpoints" : [  ]
				}

			}
, 			{
				"patchline" : 				{
					"source" : [ "obj-96", 0 ],
					"destination" : [ "obj-161", 0 ],
					"hidden" : 0,
					"midpoints" : [  ]
				}

			}
, 			{
				"patchline" : 				{
					"source" : [ "obj-124", 0 ],
					"destination" : [ "obj-103", 0 ],
					"hidden" : 1,
					"midpoints" : [  ]
				}

			}
, 			{
				"patchline" : 				{
					"source" : [ "obj-105", 0 ],
					"destination" : [ "obj-99", 1 ],
					"hidden" : 0,
					"midpoints" : [  ]
				}

			}
, 			{
				"patchline" : 				{
					"source" : [ "obj-136", 0 ],
					"destination" : [ "obj-99", 0 ],
					"hidden" : 0,
					"midpoints" : [  ]
				}

			}
, 			{
				"patchline" : 				{
					"source" : [ "obj-124", 0 ],
					"destination" : [ "obj-136", 0 ],
					"hidden" : 1,
					"midpoints" : [  ]
				}

			}
, 			{
				"patchline" : 				{
					"source" : [ "obj-160", 0 ],
					"destination" : [ "obj-163", 0 ],
					"hidden" : 0,
					"midpoints" : [  ]
				}

			}
, 			{
				"patchline" : 				{
					"source" : [ "obj-163", 0 ],
					"destination" : [ "obj-153", 0 ],
					"hidden" : 0,
					"midpoints" : [  ]
				}

			}
, 			{
				"patchline" : 				{
					"source" : [ "obj-163", 1 ],
					"destination" : [ "obj-154", 0 ],
					"hidden" : 0,
					"midpoints" : [  ]
				}

			}
, 			{
				"patchline" : 				{
					"source" : [ "obj-153", 0 ],
					"destination" : [ "obj-139", 0 ],
					"hidden" : 0,
					"midpoints" : [  ]
				}

			}
, 			{
				"patchline" : 				{
					"source" : [ "obj-154", 0 ],
					"destination" : [ "obj-139", 0 ],
					"hidden" : 0,
					"midpoints" : [  ]
				}

			}
, 			{
				"patchline" : 				{
					"source" : [ "obj-54", 0 ],
					"destination" : [ "obj-166", 0 ],
					"hidden" : 0,
					"midpoints" : [  ]
				}

			}
, 			{
				"patchline" : 				{
					"source" : [ "obj-166", 0 ],
					"destination" : [ "obj-160", 0 ],
					"hidden" : 0,
					"midpoints" : [ 581.5, 104.0, 682.5, 104.0, 682.5, 56.0, 845.5, 56.0 ]
				}

			}
, 			{
				"patchline" : 				{
					"source" : [ "obj-171", 0 ],
					"destination" : [ "obj-46", 0 ],
					"hidden" : 0,
					"midpoints" : [  ]
				}

			}
, 			{
				"patchline" : 				{
					"source" : [ "obj-99", 0 ],
					"destination" : [ "obj-133", 1 ],
					"hidden" : 0,
					"midpoints" : [  ]
				}

			}
, 			{
				"patchline" : 				{
					"source" : [ "obj-141", 0 ],
					"destination" : [ "obj-156", 0 ],
					"hidden" : 0,
					"midpoints" : [  ]
				}

			}
, 			{
				"patchline" : 				{
					"source" : [ "obj-156", 0 ],
					"destination" : [ "obj-133", 0 ],
					"hidden" : 0,
					"midpoints" : [  ]
				}

			}
, 			{
				"patchline" : 				{
					"source" : [ "obj-133", 0 ],
					"destination" : [ "obj-116", 0 ],
					"hidden" : 0,
					"midpoints" : [  ]
				}

			}
 ]
	}

}
