{
	"patcher" : 	{
		"fileversion" : 1,
		"rect" : [ 25.0, 69.0, 288.0, 166.0 ],
		"bglocked" : 0,
		"defrect" : [ 25.0, 69.0, 288.0, 166.0 ],
		"openrect" : [ 0.0, 0.0, 0.0, 0.0 ],
		"openinpresentation" : 0,
		"default_fontsize" : 12.0,
		"default_fontface" : 0,
		"default_fontname" : "Arial",
		"gridonopen" : 0,
		"gridsize" : [ 11.0, 11.0 ],
		"gridsnaponopen" : 0,
		"toolbarvisible" : 1,
		"boxanimatetime" : 200,
		"imprint" : 0,
		"enablehscroll" : 1,
		"enablevscroll" : 1,
		"devicewidth" : 0.0,
		"boxes" : [ 			{
				"box" : 				{
					"maxclass" : "newobj",
					"text" : "poltocar~",
					"patching_rect" : [ 154.0, 110.0, 60.0, 20.0 ],
					"fontname" : "Arial",
					"numinlets" : 2,
					"numoutlets" : 2,
					"id" : "obj-14",
					"outlettype" : [ "signal", "signal" ],
					"fontsize" : 12.0
				}

			}
, 			{
				"box" : 				{
					"maxclass" : "newobj",
					"text" : "cartopol~",
					"patching_rect" : [ 220.0, 55.0, 60.0, 20.0 ],
					"fontname" : "Arial",
					"numinlets" : 2,
					"numoutlets" : 2,
					"id" : "obj-15",
					"outlettype" : [ "signal", "signal" ],
					"fontsize" : 12.0
				}

			}
, 			{
				"box" : 				{
					"maxclass" : "newobj",
					"text" : "cartopol~",
					"patching_rect" : [ 154.0, 55.0, 60.0, 20.0 ],
					"fontname" : "Arial",
					"numinlets" : 2,
					"numoutlets" : 2,
					"id" : "obj-16",
					"outlettype" : [ "signal", "signal" ],
					"fontsize" : 12.0
				}

			}
, 			{
				"box" : 				{
					"maxclass" : "newobj",
					"text" : "+~",
					"patching_rect" : [ 198.0, 88.0, 32.5, 20.0 ],
					"fontname" : "Arial",
					"numinlets" : 2,
					"numoutlets" : 1,
					"id" : "obj-17",
					"outlettype" : [ "signal" ],
					"fontsize" : 12.0
				}

			}
, 			{
				"box" : 				{
					"maxclass" : "newobj",
					"text" : "*~",
					"patching_rect" : [ 154.0, 88.0, 32.5, 20.0 ],
					"fontname" : "Arial",
					"numinlets" : 2,
					"numoutlets" : 1,
					"id" : "obj-18",
					"outlettype" : [ "signal" ],
					"fontsize" : 12.0
				}

			}
, 			{
				"box" : 				{
					"maxclass" : "newobj",
					"text" : "fftin~ 4",
					"patching_rect" : [ 220.0, 22.0, 66.0, 20.0 ],
					"fontname" : "Arial",
					"numinlets" : 1,
					"numoutlets" : 3,
					"id" : "obj-19",
					"outlettype" : [ "signal", "signal", "signal" ],
					"fontsize" : 12.0
				}

			}
, 			{
				"box" : 				{
					"maxclass" : "newobj",
					"text" : "fftout~ 2",
					"patching_rect" : [ 154.0, 132.0, 54.0, 20.0 ],
					"fontname" : "Arial",
					"numinlets" : 2,
					"numoutlets" : 0,
					"id" : "obj-20",
					"fontsize" : 12.0
				}

			}
, 			{
				"box" : 				{
					"maxclass" : "newobj",
					"text" : "fftin~ 2",
					"patching_rect" : [ 154.0, 22.0, 66.0, 20.0 ],
					"fontname" : "Arial",
					"numinlets" : 1,
					"numoutlets" : 3,
					"id" : "obj-21",
					"outlettype" : [ "signal", "signal", "signal" ],
					"fontsize" : 12.0
				}

			}
, 			{
				"box" : 				{
					"maxclass" : "newobj",
					"text" : "poltocar~",
					"patching_rect" : [ 11.0, 110.0, 60.0, 20.0 ],
					"fontname" : "Arial",
					"numinlets" : 2,
					"numoutlets" : 2,
					"id" : "obj-10",
					"outlettype" : [ "signal", "signal" ],
					"fontsize" : 12.0
				}

			}
, 			{
				"box" : 				{
					"maxclass" : "newobj",
					"text" : "cartopol~",
					"patching_rect" : [ 77.0, 55.0, 60.0, 20.0 ],
					"fontname" : "Arial",
					"numinlets" : 2,
					"numoutlets" : 2,
					"id" : "obj-9",
					"outlettype" : [ "signal", "signal" ],
					"fontsize" : 12.0
				}

			}
, 			{
				"box" : 				{
					"maxclass" : "newobj",
					"text" : "cartopol~",
					"patching_rect" : [ 11.0, 55.0, 60.0, 20.0 ],
					"fontname" : "Arial",
					"numinlets" : 2,
					"numoutlets" : 2,
					"id" : "obj-8",
					"outlettype" : [ "signal", "signal" ],
					"fontsize" : 12.0
				}

			}
, 			{
				"box" : 				{
					"maxclass" : "newobj",
					"text" : "+~",
					"patching_rect" : [ 55.0, 88.0, 32.5, 20.0 ],
					"fontname" : "Arial",
					"numinlets" : 2,
					"numoutlets" : 1,
					"id" : "obj-7",
					"outlettype" : [ "signal" ],
					"fontsize" : 12.0
				}

			}
, 			{
				"box" : 				{
					"maxclass" : "newobj",
					"text" : "*~",
					"patching_rect" : [ 11.0, 88.0, 32.5, 20.0 ],
					"fontname" : "Arial",
					"numinlets" : 2,
					"numoutlets" : 1,
					"id" : "obj-6",
					"outlettype" : [ "signal" ],
					"fontsize" : 12.0
				}

			}
, 			{
				"box" : 				{
					"maxclass" : "newobj",
					"text" : "fftin~ 3",
					"patching_rect" : [ 77.0, 22.0, 66.0, 20.0 ],
					"fontname" : "Arial",
					"numinlets" : 1,
					"numoutlets" : 3,
					"id" : "obj-5",
					"outlettype" : [ "signal", "signal", "signal" ],
					"fontsize" : 12.0
				}

			}
, 			{
				"box" : 				{
					"maxclass" : "newobj",
					"text" : "fftout~ 1",
					"patching_rect" : [ 11.0, 132.0, 55.0, 20.0 ],
					"fontname" : "Arial",
					"numinlets" : 2,
					"numoutlets" : 0,
					"id" : "obj-2",
					"fontsize" : 12.0
				}

			}
, 			{
				"box" : 				{
					"maxclass" : "newobj",
					"text" : "fftin~ 1",
					"patching_rect" : [ 11.0, 22.0, 66.0, 20.0 ],
					"fontname" : "Arial",
					"numinlets" : 1,
					"numoutlets" : 3,
					"id" : "obj-1",
					"outlettype" : [ "signal", "signal", "signal" ],
					"fontsize" : 12.0
				}

			}
 ],
		"lines" : [ 			{
				"patchline" : 				{
					"source" : [ "obj-10", 1 ],
					"destination" : [ "obj-2", 1 ],
					"hidden" : 0,
					"midpoints" : [  ]
				}

			}
, 			{
				"patchline" : 				{
					"source" : [ "obj-10", 0 ],
					"destination" : [ "obj-2", 0 ],
					"hidden" : 0,
					"midpoints" : [  ]
				}

			}
, 			{
				"patchline" : 				{
					"source" : [ "obj-14", 1 ],
					"destination" : [ "obj-20", 1 ],
					"hidden" : 0,
					"midpoints" : [  ]
				}

			}
, 			{
				"patchline" : 				{
					"source" : [ "obj-14", 0 ],
					"destination" : [ "obj-20", 0 ],
					"hidden" : 0,
					"midpoints" : [  ]
				}

			}
, 			{
				"patchline" : 				{
					"source" : [ "obj-17", 0 ],
					"destination" : [ "obj-14", 1 ],
					"hidden" : 0,
					"midpoints" : [  ]
				}

			}
, 			{
				"patchline" : 				{
					"source" : [ "obj-18", 0 ],
					"destination" : [ "obj-14", 0 ],
					"hidden" : 0,
					"midpoints" : [  ]
				}

			}
, 			{
				"patchline" : 				{
					"source" : [ "obj-15", 1 ],
					"destination" : [ "obj-17", 1 ],
					"hidden" : 0,
					"midpoints" : [  ]
				}

			}
, 			{
				"patchline" : 				{
					"source" : [ "obj-15", 0 ],
					"destination" : [ "obj-18", 1 ],
					"hidden" : 0,
					"midpoints" : [  ]
				}

			}
, 			{
				"patchline" : 				{
					"source" : [ "obj-16", 1 ],
					"destination" : [ "obj-17", 0 ],
					"hidden" : 0,
					"midpoints" : [  ]
				}

			}
, 			{
				"patchline" : 				{
					"source" : [ "obj-16", 0 ],
					"destination" : [ "obj-18", 0 ],
					"hidden" : 0,
					"midpoints" : [  ]
				}

			}
, 			{
				"patchline" : 				{
					"source" : [ "obj-8", 0 ],
					"destination" : [ "obj-6", 0 ],
					"hidden" : 0,
					"midpoints" : [  ]
				}

			}
, 			{
				"patchline" : 				{
					"source" : [ "obj-8", 1 ],
					"destination" : [ "obj-7", 0 ],
					"hidden" : 0,
					"midpoints" : [  ]
				}

			}
, 			{
				"patchline" : 				{
					"source" : [ "obj-9", 0 ],
					"destination" : [ "obj-6", 1 ],
					"hidden" : 0,
					"midpoints" : [  ]
				}

			}
, 			{
				"patchline" : 				{
					"source" : [ "obj-9", 1 ],
					"destination" : [ "obj-7", 1 ],
					"hidden" : 0,
					"midpoints" : [  ]
				}

			}
, 			{
				"patchline" : 				{
					"source" : [ "obj-6", 0 ],
					"destination" : [ "obj-10", 0 ],
					"hidden" : 0,
					"midpoints" : [  ]
				}

			}
, 			{
				"patchline" : 				{
					"source" : [ "obj-7", 0 ],
					"destination" : [ "obj-10", 1 ],
					"hidden" : 0,
					"midpoints" : [  ]
				}

			}
, 			{
				"patchline" : 				{
					"source" : [ "obj-1", 1 ],
					"destination" : [ "obj-8", 1 ],
					"hidden" : 0,
					"midpoints" : [  ]
				}

			}
, 			{
				"patchline" : 				{
					"source" : [ "obj-1", 0 ],
					"destination" : [ "obj-8", 0 ],
					"hidden" : 0,
					"midpoints" : [  ]
				}

			}
, 			{
				"patchline" : 				{
					"source" : [ "obj-19", 1 ],
					"destination" : [ "obj-15", 1 ],
					"hidden" : 0,
					"midpoints" : [  ]
				}

			}
, 			{
				"patchline" : 				{
					"source" : [ "obj-19", 0 ],
					"destination" : [ "obj-15", 0 ],
					"hidden" : 0,
					"midpoints" : [  ]
				}

			}
, 			{
				"patchline" : 				{
					"source" : [ "obj-5", 0 ],
					"destination" : [ "obj-9", 0 ],
					"hidden" : 0,
					"midpoints" : [  ]
				}

			}
, 			{
				"patchline" : 				{
					"source" : [ "obj-5", 1 ],
					"destination" : [ "obj-9", 1 ],
					"hidden" : 0,
					"midpoints" : [  ]
				}

			}
, 			{
				"patchline" : 				{
					"source" : [ "obj-21", 0 ],
					"destination" : [ "obj-16", 0 ],
					"hidden" : 0,
					"midpoints" : [  ]
				}

			}
, 			{
				"patchline" : 				{
					"source" : [ "obj-21", 1 ],
					"destination" : [ "obj-16", 1 ],
					"hidden" : 0,
					"midpoints" : [  ]
				}

			}
 ]
	}

}
