{
	"patcher" : 	{
		"fileversion" : 1,
		"rect" : [ 25.0, 69.0, 640.0, 480.0 ],
		"bglocked" : 0,
		"defrect" : [ 25.0, 69.0, 640.0, 480.0 ],
		"openrect" : [ 0.0, 0.0, 0.0, 0.0 ],
		"openinpresentation" : 0,
		"default_fontsize" : 12.0,
		"default_fontface" : 0,
		"default_fontname" : "Arial",
		"gridonopen" : 0,
		"gridsize" : [ 11.0, 11.0 ],
		"gridsnaponopen" : 0,
		"toolbarvisible" : 1,
		"boxanimatetime" : 200,
		"imprint" : 0,
		"enablehscroll" : 1,
		"enablevscroll" : 1,
		"devicewidth" : 0.0,
		"boxes" : [ 			{
				"box" : 				{
					"maxclass" : "comment",
					"text" : "Low brickwall",
					"fontsize" : 12.0,
					"numinlets" : 1,
					"presentation_rect" : [ 294.0, 57.0, 0.0, 0.0 ],
					"numoutlets" : 0,
					"patching_rect" : [ 286.0, 55.0, 90.0, 20.0 ],
					"id" : "obj-13",
					"fontname" : "Arial"
				}

			}
, 			{
				"box" : 				{
					"maxclass" : "flonum",
					"minimum" : 0.0,
					"maximum" : 1.0,
					"fontsize" : 12.0,
					"numinlets" : 1,
					"presentation_rect" : [ 316.0, 79.0, 0.0, 0.0 ],
					"numoutlets" : 2,
					"outlettype" : [ "float", "bang" ],
					"patching_rect" : [ 308.0, 77.0, 50.0, 20.0 ],
					"id" : "obj-14",
					"fontname" : "Arial"
				}

			}
, 			{
				"box" : 				{
					"maxclass" : "message",
					"text" : "99 $1",
					"fontsize" : 12.0,
					"numinlets" : 2,
					"presentation_rect" : [ 316.0, 101.0, 0.0, 0.0 ],
					"numoutlets" : 1,
					"outlettype" : [ "" ],
					"patching_rect" : [ 308.0, 99.0, 41.0, 18.0 ],
					"id" : "obj-15",
					"fontname" : "Arial"
				}

			}
, 			{
				"box" : 				{
					"maxclass" : "comment",
					"text" : "High brickwall",
					"fontsize" : 12.0,
					"numinlets" : 1,
					"numoutlets" : 0,
					"patching_rect" : [ 198.0, 55.0, 90.0, 20.0 ],
					"id" : "obj-12",
					"fontname" : "Arial"
				}

			}
, 			{
				"box" : 				{
					"maxclass" : "flonum",
					"minimum" : 0.0,
					"maximum" : 1.0,
					"fontsize" : 12.0,
					"numinlets" : 1,
					"numoutlets" : 2,
					"outlettype" : [ "float", "bang" ],
					"patching_rect" : [ 220.0, 77.0, 50.0, 20.0 ],
					"id" : "obj-10",
					"fontname" : "Arial"
				}

			}
, 			{
				"box" : 				{
					"maxclass" : "message",
					"text" : "97 $1",
					"fontsize" : 12.0,
					"numinlets" : 2,
					"numoutlets" : 1,
					"outlettype" : [ "" ],
					"patching_rect" : [ 220.0, 99.0, 41.0, 18.0 ],
					"id" : "obj-8",
					"fontname" : "Arial"
				}

			}
, 			{
				"box" : 				{
					"maxclass" : "message",
					"text" : "96 1, 98 1",
					"fontsize" : 12.0,
					"numinlets" : 2,
					"numoutlets" : 1,
					"outlettype" : [ "" ],
					"patching_rect" : [ 154.0, 99.0, 64.0, 18.0 ],
					"id" : "obj-3",
					"fontname" : "Arial"
				}

			}
, 			{
				"box" : 				{
					"maxclass" : "newobj",
					"text" : "print",
					"fontsize" : 12.0,
					"numinlets" : 1,
					"numoutlets" : 0,
					"patching_rect" : [ 242.0, 187.0, 34.0, 20.0 ],
					"id" : "obj-6",
					"fontname" : "Arial"
				}

			}
, 			{
				"box" : 				{
					"maxclass" : "message",
					"text" : "97 0.548",
					"linecount" : 2,
					"fontsize" : 12.0,
					"numinlets" : 2,
					"numoutlets" : 1,
					"outlettype" : [ "" ],
					"patching_rect" : [ 187.0, 187.0, 50.0, 32.0 ],
					"id" : "obj-4",
					"fontname" : "Arial"
				}

			}
, 			{
				"box" : 				{
					"maxclass" : "newobj",
					"text" : "vst~ \"Trackplug 5.vst\"",
					"fontsize" : 12.0,
					"numinlets" : 2,
					"numoutlets" : 7,
					"outlettype" : [ "signal", "signal", "", "list", "int", "", "" ],
					"patching_rect" : [ 154.0, 132.0, 126.0, 20.0 ],
					"id" : "obj-1",
					"fontname" : "Arial",
					"save" : [ "#N", "vst~", "loaduniqueid", 0, "Trackplug 5.vst", ";" ]
				}

			}
 ],
		"lines" : [ 			{
				"patchline" : 				{
					"source" : [ "obj-15", 0 ],
					"destination" : [ "obj-1", 0 ],
					"hidden" : 0,
					"midpoints" : [  ]
				}

			}
, 			{
				"patchline" : 				{
					"source" : [ "obj-14", 0 ],
					"destination" : [ "obj-15", 0 ],
					"hidden" : 0,
					"midpoints" : [  ]
				}

			}
, 			{
				"patchline" : 				{
					"source" : [ "obj-8", 0 ],
					"destination" : [ "obj-1", 0 ],
					"hidden" : 0,
					"midpoints" : [  ]
				}

			}
, 			{
				"patchline" : 				{
					"source" : [ "obj-10", 0 ],
					"destination" : [ "obj-8", 0 ],
					"hidden" : 0,
					"midpoints" : [  ]
				}

			}
, 			{
				"patchline" : 				{
					"source" : [ "obj-3", 0 ],
					"destination" : [ "obj-1", 0 ],
					"hidden" : 0,
					"midpoints" : [  ]
				}

			}
, 			{
				"patchline" : 				{
					"source" : [ "obj-1", 3 ],
					"destination" : [ "obj-4", 1 ],
					"hidden" : 0,
					"midpoints" : [  ]
				}

			}
, 			{
				"patchline" : 				{
					"source" : [ "obj-1", 3 ],
					"destination" : [ "obj-6", 0 ],
					"hidden" : 0,
					"midpoints" : [  ]
				}

			}
 ]
	}

}
