{
	"patcher" : 	{
		"fileversion" : 1,
		"rect" : [ 291.0, 44.0, 1070.0, 653.0 ],
		"bglocked" : 0,
		"defrect" : [ 291.0, 44.0, 1070.0, 653.0 ],
		"openrect" : [ 0.0, 0.0, 0.0, 0.0 ],
		"openinpresentation" : 0,
		"default_fontsize" : 12.0,
		"default_fontface" : 0,
		"default_fontname" : "Arial",
		"gridonopen" : 0,
		"gridsize" : [ 11.0, 11.0 ],
		"gridsnaponopen" : 0,
		"toolbarvisible" : 1,
		"boxanimatetime" : 200,
		"imprint" : 0,
		"boxes" : [ 			{
				"box" : 				{
					"maxclass" : "flonum",
					"numinlets" : 1,
					"id" : "obj-167",
					"fontname" : "Arial",
					"patching_rect" : [ 143.0, 33.0, 50.0, 20.0 ],
					"numoutlets" : 2,
					"outlettype" : [ "float", "bang" ],
					"fontsize" : 12.0
				}

			}
, 			{
				"box" : 				{
					"maxclass" : "newobj",
					"text" : "sel 121",
					"numinlets" : 2,
					"id" : "obj-154",
					"fontname" : "Arial",
					"patching_rect" : [ 209.0, 77.0, 49.0, 20.0 ],
					"numoutlets" : 2,
					"outlettype" : [ "bang", "" ],
					"fontsize" : 12.0
				}

			}
, 			{
				"box" : 				{
					"maxclass" : "newobj",
					"text" : "key",
					"numinlets" : 0,
					"id" : "obj-114",
					"fontname" : "Arial",
					"patching_rect" : [ 209.0, 55.0, 59.5, 20.0 ],
					"numoutlets" : 4,
					"outlettype" : [ "int", "int", "int", "int" ],
					"fontsize" : 12.0
				}

			}
, 			{
				"box" : 				{
					"maxclass" : "message",
					"text" : "0",
					"numinlets" : 2,
					"id" : "obj-113",
					"fontname" : "Arial",
					"patching_rect" : [ 99.0, 330.0, 32.5, 18.0 ],
					"numoutlets" : 1,
					"outlettype" : [ "" ],
					"fontsize" : 12.0
				}

			}
, 			{
				"box" : 				{
					"maxclass" : "toggle",
					"numinlets" : 1,
					"id" : "obj-102",
					"patching_rect" : [ 99.0, 33.0, 20.0, 20.0 ],
					"numoutlets" : 1,
					"outlettype" : [ "int" ]
				}

			}
, 			{
				"box" : 				{
					"maxclass" : "newobj",
					"text" : "b",
					"numinlets" : 1,
					"id" : "obj-100",
					"fontname" : "Arial",
					"patching_rect" : [ 99.0, 99.0, 32.5, 20.0 ],
					"numoutlets" : 2,
					"outlettype" : [ "bang", "bang" ],
					"fontsize" : 12.0
				}

			}
, 			{
				"box" : 				{
					"maxclass" : "newobj",
					"text" : "qmetro 20",
					"numinlets" : 2,
					"id" : "obj-92",
					"fontname" : "Arial",
					"patching_rect" : [ 99.0, 55.0, 65.0, 20.0 ],
					"numoutlets" : 1,
					"outlettype" : [ "bang" ],
					"fontsize" : 12.0
				}

			}
, 			{
				"box" : 				{
					"maxclass" : "newobj",
					"text" : "prepend rotate",
					"numinlets" : 1,
					"id" : "obj-87",
					"fontname" : "Arial",
					"patching_rect" : [ 231.0, 682.0, 89.0, 20.0 ],
					"numoutlets" : 1,
					"outlettype" : [ "" ],
					"fontsize" : 12.0
				}

			}
, 			{
				"box" : 				{
					"maxclass" : "flonum",
					"numinlets" : 1,
					"id" : "obj-67",
					"fontname" : "Arial",
					"patching_rect" : [ 341.0, 594.0, 50.0, 20.0 ],
					"numoutlets" : 2,
					"outlettype" : [ "float", "bang" ],
					"fontsize" : 12.0
				}

			}
, 			{
				"box" : 				{
					"maxclass" : "flonum",
					"numinlets" : 1,
					"id" : "obj-68",
					"fontname" : "Arial",
					"patching_rect" : [ 286.0, 594.0, 50.0, 20.0 ],
					"numoutlets" : 2,
					"outlettype" : [ "float", "bang" ],
					"fontsize" : 12.0
				}

			}
, 			{
				"box" : 				{
					"maxclass" : "flonum",
					"numinlets" : 1,
					"id" : "obj-69",
					"fontname" : "Arial",
					"patching_rect" : [ 231.0, 594.0, 50.0, 20.0 ],
					"numoutlets" : 2,
					"outlettype" : [ "float", "bang" ],
					"fontsize" : 12.0
				}

			}
, 			{
				"box" : 				{
					"maxclass" : "newobj",
					"text" : "pak f f f",
					"numinlets" : 3,
					"id" : "obj-70",
					"fontname" : "Arial",
					"patching_rect" : [ 231.0, 660.0, 50.0, 20.0 ],
					"numoutlets" : 1,
					"outlettype" : [ "" ],
					"fontsize" : 12.0
				}

			}
, 			{
				"box" : 				{
					"maxclass" : "message",
					"text" : "$1 1000",
					"numinlets" : 2,
					"id" : "obj-79",
					"fontname" : "Arial",
					"patching_rect" : [ 341.0, 616.0, 54.0, 18.0 ],
					"numoutlets" : 1,
					"outlettype" : [ "" ],
					"fontsize" : 12.0
				}

			}
, 			{
				"box" : 				{
					"maxclass" : "newobj",
					"text" : "line 0.",
					"numinlets" : 3,
					"id" : "obj-81",
					"fontname" : "Arial",
					"patching_rect" : [ 341.0, 638.0, 46.0, 20.0 ],
					"numoutlets" : 2,
					"outlettype" : [ "", "" ],
					"fontsize" : 12.0
				}

			}
, 			{
				"box" : 				{
					"maxclass" : "message",
					"text" : "$1 1000",
					"numinlets" : 2,
					"id" : "obj-83",
					"fontname" : "Arial",
					"patching_rect" : [ 286.0, 616.0, 54.0, 18.0 ],
					"numoutlets" : 1,
					"outlettype" : [ "" ],
					"fontsize" : 12.0
				}

			}
, 			{
				"box" : 				{
					"maxclass" : "newobj",
					"text" : "line 0.",
					"numinlets" : 3,
					"id" : "obj-84",
					"fontname" : "Arial",
					"patching_rect" : [ 286.0, 638.0, 46.0, 20.0 ],
					"numoutlets" : 2,
					"outlettype" : [ "", "" ],
					"fontsize" : 12.0
				}

			}
, 			{
				"box" : 				{
					"maxclass" : "message",
					"text" : "$1 1000",
					"numinlets" : 2,
					"id" : "obj-85",
					"fontname" : "Arial",
					"patching_rect" : [ 231.0, 616.0, 54.0, 18.0 ],
					"numoutlets" : 1,
					"outlettype" : [ "" ],
					"fontsize" : 12.0
				}

			}
, 			{
				"box" : 				{
					"maxclass" : "newobj",
					"text" : "line 0.",
					"numinlets" : 3,
					"id" : "obj-86",
					"fontname" : "Arial",
					"patching_rect" : [ 231.0, 638.0, 46.0, 20.0 ],
					"numoutlets" : 2,
					"outlettype" : [ "", "" ],
					"fontsize" : 12.0
				}

			}
, 			{
				"box" : 				{
					"maxclass" : "flonum",
					"numinlets" : 1,
					"id" : "obj-66",
					"fontname" : "Arial",
					"patching_rect" : [ 99.0, 352.0, 50.0, 20.0 ],
					"numoutlets" : 2,
					"outlettype" : [ "float", "bang" ],
					"fontsize" : 12.0
				}

			}
, 			{
				"box" : 				{
					"maxclass" : "flonum",
					"numinlets" : 1,
					"id" : "obj-63",
					"fontname" : "Arial",
					"patching_rect" : [ 55.0, 374.0, 50.0, 20.0 ],
					"numoutlets" : 2,
					"outlettype" : [ "float", "bang" ],
					"fontsize" : 12.0
				}

			}
, 			{
				"box" : 				{
					"maxclass" : "flonum",
					"numinlets" : 1,
					"id" : "obj-62",
					"fontname" : "Arial",
					"patching_rect" : [ 33.0, 352.0, 50.0, 20.0 ],
					"numoutlets" : 2,
					"outlettype" : [ "float", "bang" ],
					"fontsize" : 12.0
				}

			}
, 			{
				"box" : 				{
					"maxclass" : "newobj",
					"text" : "pak 0. 0. 0. 0.",
					"numinlets" : 4,
					"id" : "obj-46",
					"fontname" : "Arial",
					"patching_rect" : [ 11.0, 396.0, 83.0, 20.0 ],
					"numoutlets" : 1,
					"outlettype" : [ "" ],
					"fontsize" : 12.0
				}

			}
, 			{
				"box" : 				{
					"maxclass" : "flonum",
					"numinlets" : 1,
					"id" : "obj-34",
					"fontname" : "Arial",
					"patching_rect" : [ 11.0, 330.0, 50.0, 20.0 ],
					"numoutlets" : 2,
					"outlettype" : [ "float", "bang" ],
					"fontsize" : 12.0
				}

			}
, 			{
				"box" : 				{
					"maxclass" : "message",
					"text" : "erase_color $1 $2 $3 $4",
					"numinlets" : 2,
					"id" : "obj-14",
					"fontname" : "Arial",
					"patching_rect" : [ 11.0, 418.0, 140.0, 18.0 ],
					"numoutlets" : 1,
					"outlettype" : [ "" ],
					"fontsize" : 12.0
				}

			}
, 			{
				"box" : 				{
					"maxclass" : "message",
					"text" : "moveto 0. 0. 0.",
					"numinlets" : 2,
					"id" : "obj-175",
					"fontname" : "Arial",
					"patching_rect" : [ 528.0, 33.0, 90.0, 18.0 ],
					"numoutlets" : 1,
					"outlettype" : [ "" ],
					"fontsize" : 12.0
				}

			}
, 			{
				"box" : 				{
					"maxclass" : "newobj",
					"text" : "prepend move",
					"numinlets" : 1,
					"id" : "obj-159",
					"fontname" : "Arial",
					"patching_rect" : [ 506.0, 231.0, 87.0, 20.0 ],
					"numoutlets" : 1,
					"outlettype" : [ "" ],
					"fontsize" : 12.0
				}

			}
, 			{
				"box" : 				{
					"maxclass" : "flonum",
					"numinlets" : 1,
					"id" : "obj-152",
					"fontname" : "Arial",
					"patching_rect" : [ 539.0, 605.0, 50.0, 20.0 ],
					"numoutlets" : 2,
					"outlettype" : [ "float", "bang" ],
					"fontsize" : 12.0
				}

			}
, 			{
				"box" : 				{
					"maxclass" : "flonum",
					"numinlets" : 1,
					"id" : "obj-150",
					"fontname" : "Arial",
					"patching_rect" : [ 484.0, 605.0, 50.0, 20.0 ],
					"numoutlets" : 2,
					"outlettype" : [ "float", "bang" ],
					"fontsize" : 12.0
				}

			}
, 			{
				"box" : 				{
					"maxclass" : "flonum",
					"numinlets" : 1,
					"id" : "obj-148",
					"fontname" : "Arial",
					"patching_rect" : [ 429.0, 605.0, 50.0, 20.0 ],
					"numoutlets" : 2,
					"outlettype" : [ "float", "bang" ],
					"fontsize" : 12.0
				}

			}
, 			{
				"box" : 				{
					"maxclass" : "newobj",
					"text" : "pak f f f",
					"numinlets" : 3,
					"id" : "obj-119",
					"fontname" : "Arial",
					"patching_rect" : [ 429.0, 671.0, 50.0, 20.0 ],
					"numoutlets" : 1,
					"outlettype" : [ "" ],
					"fontsize" : 12.0
				}

			}
, 			{
				"box" : 				{
					"maxclass" : "message",
					"text" : "$1 1000",
					"numinlets" : 2,
					"id" : "obj-126",
					"fontname" : "Arial",
					"patching_rect" : [ 539.0, 627.0, 54.0, 18.0 ],
					"numoutlets" : 1,
					"outlettype" : [ "" ],
					"fontsize" : 12.0
				}

			}
, 			{
				"box" : 				{
					"maxclass" : "newobj",
					"text" : "line 0.",
					"numinlets" : 3,
					"id" : "obj-128",
					"fontname" : "Arial",
					"patching_rect" : [ 539.0, 649.0, 46.0, 20.0 ],
					"numoutlets" : 2,
					"outlettype" : [ "", "" ],
					"fontsize" : 12.0
				}

			}
, 			{
				"box" : 				{
					"maxclass" : "message",
					"text" : "$1 1000",
					"numinlets" : 2,
					"id" : "obj-138",
					"fontname" : "Arial",
					"patching_rect" : [ 484.0, 627.0, 54.0, 18.0 ],
					"numoutlets" : 1,
					"outlettype" : [ "" ],
					"fontsize" : 12.0
				}

			}
, 			{
				"box" : 				{
					"maxclass" : "newobj",
					"text" : "line 0.",
					"numinlets" : 3,
					"id" : "obj-140",
					"fontname" : "Arial",
					"patching_rect" : [ 484.0, 649.0, 46.0, 20.0 ],
					"numoutlets" : 2,
					"outlettype" : [ "", "" ],
					"fontsize" : 12.0
				}

			}
, 			{
				"box" : 				{
					"maxclass" : "message",
					"text" : "$1 1000",
					"numinlets" : 2,
					"id" : "obj-144",
					"fontname" : "Arial",
					"patching_rect" : [ 429.0, 627.0, 54.0, 18.0 ],
					"numoutlets" : 1,
					"outlettype" : [ "" ],
					"fontsize" : 12.0
				}

			}
, 			{
				"box" : 				{
					"maxclass" : "newobj",
					"text" : "line 0.",
					"numinlets" : 3,
					"id" : "obj-145",
					"fontname" : "Arial",
					"patching_rect" : [ 429.0, 649.0, 46.0, 20.0 ],
					"numoutlets" : 2,
					"outlettype" : [ "", "" ],
					"fontsize" : 12.0
				}

			}
, 			{
				"box" : 				{
					"maxclass" : "newobj",
					"text" : "prepend position",
					"numinlets" : 1,
					"id" : "obj-146",
					"fontname" : "Arial",
					"patching_rect" : [ 429.0, 693.0, 99.0, 20.0 ],
					"numoutlets" : 1,
					"outlettype" : [ "" ],
					"fontsize" : 12.0
				}

			}
, 			{
				"box" : 				{
					"maxclass" : "number",
					"numinlets" : 1,
					"id" : "obj-64",
					"fontname" : "Arial",
					"patching_rect" : [ 473.0, 33.0, 50.0, 20.0 ],
					"numoutlets" : 2,
					"outlettype" : [ "int", "bang" ],
					"fontsize" : 12.0
				}

			}
, 			{
				"box" : 				{
					"maxclass" : "message",
					"text" : "write 30. animation normal 600",
					"numinlets" : 2,
					"id" : "obj-43",
					"fontname" : "Arial",
					"patching_rect" : [ 11.0, 583.0, 169.0, 18.0 ],
					"numoutlets" : 1,
					"outlettype" : [ "" ],
					"fontsize" : 11.595187
				}

			}
, 			{
				"box" : 				{
					"maxclass" : "toggle",
					"numinlets" : 1,
					"id" : "obj-60",
					"patching_rect" : [ 132.0, 537.0, 20.0, 20.0 ],
					"numoutlets" : 1,
					"outlettype" : [ "int" ]
				}

			}
, 			{
				"box" : 				{
					"maxclass" : "message",
					"text" : "interp $1",
					"numinlets" : 2,
					"id" : "obj-61",
					"fontname" : "Arial",
					"patching_rect" : [ 132.0, 561.0, 54.0, 18.0 ],
					"numoutlets" : 1,
					"outlettype" : [ "" ],
					"fontsize" : 11.595187
				}

			}
, 			{
				"box" : 				{
					"maxclass" : "jit.fpsgui",
					"numinlets" : 1,
					"id" : "obj-23",
					"fontname" : "Arial",
					"patching_rect" : [ 121.0, 495.0, 80.0, 35.0 ],
					"numoutlets" : 2,
					"outlettype" : [ "", "" ],
					"fontsize" : 11.595187
				}

			}
, 			{
				"box" : 				{
					"maxclass" : "message",
					"text" : "stop",
					"numinlets" : 2,
					"id" : "obj-21",
					"fontname" : "Arial",
					"patching_rect" : [ 77.0, 517.0, 33.0, 18.0 ],
					"numoutlets" : 1,
					"outlettype" : [ "" ],
					"fontsize" : 12.0
				}

			}
, 			{
				"box" : 				{
					"maxclass" : "message",
					"text" : "write",
					"numinlets" : 2,
					"id" : "obj-13",
					"fontname" : "Arial",
					"patching_rect" : [ 33.0, 517.0, 36.0, 18.0 ],
					"numoutlets" : 1,
					"outlettype" : [ "" ],
					"fontsize" : 12.0
				}

			}
, 			{
				"box" : 				{
					"maxclass" : "newobj",
					"text" : "jit.gl.asyncread snazz @automatic 1 @layer 500",
					"numinlets" : 1,
					"id" : "obj-30",
					"fontname" : "Arial",
					"patching_rect" : [ 11.0, 462.0, 268.0, 20.0 ],
					"numoutlets" : 2,
					"outlettype" : [ "jit_matrix", "" ],
					"fontsize" : 12.0
				}

			}
, 			{
				"box" : 				{
					"maxclass" : "message",
					"text" : "fsmenubar 0",
					"numinlets" : 2,
					"id" : "obj-25",
					"fontname" : "Arial",
					"patching_rect" : [ 143.0, 407.0, 77.0, 18.0 ],
					"numoutlets" : 1,
					"outlettype" : [ "" ],
					"fontsize" : 12.0
				}

			}
, 			{
				"box" : 				{
					"maxclass" : "newobj",
					"text" : "jit.qt.record 320 240",
					"numinlets" : 1,
					"id" : "obj-16",
					"fontname" : "Arial",
					"patching_rect" : [ 11.0, 539.0, 117.0, 20.0 ],
					"numoutlets" : 2,
					"outlettype" : [ "jit_matrix", "" ],
					"fontsize" : 12.0
				}

			}
, 			{
				"box" : 				{
					"maxclass" : "message",
					"text" : "1",
					"numinlets" : 2,
					"id" : "obj-203",
					"fontname" : "Arial",
					"patching_rect" : [ 242.0, 539.0, 32.5, 18.0 ],
					"numoutlets" : 1,
					"outlettype" : [ "" ],
					"fontsize" : 12.0
				}

			}
, 			{
				"box" : 				{
					"maxclass" : "message",
					"text" : "0",
					"numinlets" : 2,
					"id" : "obj-202",
					"fontname" : "Arial",
					"patching_rect" : [ 275.0, 539.0, 32.5, 18.0 ],
					"numoutlets" : 1,
					"outlettype" : [ "" ],
					"fontsize" : 12.0
				}

			}
, 			{
				"box" : 				{
					"maxclass" : "newobj",
					"text" : "togedge",
					"numinlets" : 1,
					"id" : "obj-200",
					"fontname" : "Arial",
					"patching_rect" : [ 242.0, 517.0, 54.0, 20.0 ],
					"numoutlets" : 2,
					"outlettype" : [ "bang", "bang" ],
					"fontsize" : 12.0
				}

			}
, 			{
				"box" : 				{
					"maxclass" : "newobj",
					"text" : "sel 32",
					"numinlets" : 2,
					"id" : "obj-19",
					"fontname" : "Arial",
					"patching_rect" : [ 242.0, 495.0, 43.0, 20.0 ],
					"numoutlets" : 2,
					"outlettype" : [ "bang", "" ],
					"fontsize" : 12.0
				}

			}
, 			{
				"box" : 				{
					"maxclass" : "newobj",
					"text" : "key",
					"numinlets" : 0,
					"id" : "obj-4",
					"fontname" : "Arial",
					"patching_rect" : [ 242.0, 473.0, 59.5, 20.0 ],
					"numoutlets" : 4,
					"outlettype" : [ "int", "int", "int", "int" ],
					"fontsize" : 12.0
				}

			}
, 			{
				"box" : 				{
					"maxclass" : "newobj",
					"text" : "loadmess 1",
					"numinlets" : 1,
					"id" : "obj-2",
					"fontname" : "Arial",
					"patching_rect" : [ 220.0, 143.0, 72.0, 20.0 ],
					"numoutlets" : 1,
					"outlettype" : [ "" ],
					"fontsize" : 12.0
				}

			}
, 			{
				"box" : 				{
					"maxclass" : "toggle",
					"numinlets" : 1,
					"id" : "obj-11",
					"patching_rect" : [ 759.0, 165.0, 20.0, 20.0 ],
					"numoutlets" : 1,
					"outlettype" : [ "int" ]
				}

			}
, 			{
				"box" : 				{
					"maxclass" : "newobj",
					"text" : "gate",
					"numinlets" : 2,
					"id" : "obj-8",
					"fontname" : "Arial",
					"patching_rect" : [ 781.0, 165.0, 34.0, 20.0 ],
					"numoutlets" : 1,
					"outlettype" : [ "" ],
					"fontsize" : 12.0
				}

			}
, 			{
				"box" : 				{
					"maxclass" : "newobj",
					"text" : "del 4400",
					"numinlets" : 2,
					"id" : "obj-6",
					"fontname" : "Arial",
					"patching_rect" : [ 528.0, 396.0, 57.0, 20.0 ],
					"numoutlets" : 1,
					"outlettype" : [ "bang" ],
					"fontsize" : 12.0
				}

			}
, 			{
				"box" : 				{
					"maxclass" : "newobj",
					"text" : "del 6600",
					"numinlets" : 2,
					"id" : "obj-5",
					"fontname" : "Arial",
					"patching_rect" : [ 451.0, 396.0, 57.0, 20.0 ],
					"numoutlets" : 1,
					"outlettype" : [ "bang" ],
					"fontsize" : 12.0
				}

			}
, 			{
				"box" : 				{
					"maxclass" : "newobj",
					"text" : "p random color",
					"numinlets" : 1,
					"id" : "obj-172",
					"fontname" : "Arial",
					"patching_rect" : [ 814.0, 308.0, 91.0, 20.0 ],
					"numoutlets" : 1,
					"outlettype" : [ "" ],
					"fontsize" : 12.0,
					"patcher" : 					{
						"fileversion" : 1,
						"rect" : [ 0.0, 0.0, 640.0, 480.0 ],
						"bglocked" : 0,
						"defrect" : [ 0.0, 0.0, 640.0, 480.0 ],
						"openrect" : [ 0.0, 0.0, 0.0, 0.0 ],
						"openinpresentation" : 0,
						"default_fontsize" : 12.0,
						"default_fontface" : 0,
						"default_fontname" : "Arial",
						"gridonopen" : 0,
						"gridsize" : [ 11.0, 11.0 ],
						"gridsnaponopen" : 0,
						"toolbarvisible" : 1,
						"boxanimatetime" : 200,
						"imprint" : 0,
						"boxes" : [ 							{
								"box" : 								{
									"maxclass" : "newobj",
									"text" : "pack f f f",
									"numinlets" : 3,
									"id" : "obj-166",
									"fontname" : "Arial",
									"patching_rect" : [ 61.0, 166.0, 56.0, 20.0 ],
									"numoutlets" : 1,
									"outlettype" : [ "" ],
									"fontsize" : 12.0
								}

							}
, 							{
								"box" : 								{
									"maxclass" : "newobj",
									"text" : "/ 1000.",
									"numinlets" : 2,
									"id" : "obj-164",
									"fontname" : "Arial",
									"patching_rect" : [ 138.0, 166.0, 47.0, 20.0 ],
									"numoutlets" : 1,
									"outlettype" : [ "float" ],
									"fontsize" : 12.0
								}

							}
, 							{
								"box" : 								{
									"maxclass" : "newobj",
									"text" : "urn-jb 1000.",
									"numinlets" : 2,
									"id" : "obj-165",
									"fontname" : "Arial",
									"patching_rect" : [ 138.0, 144.0, 75.0, 20.0 ],
									"numoutlets" : 1,
									"outlettype" : [ "int" ],
									"fontsize" : 12.0
								}

							}
, 							{
								"box" : 								{
									"maxclass" : "newobj",
									"text" : "/ 1000.",
									"numinlets" : 2,
									"id" : "obj-162",
									"fontname" : "Arial",
									"patching_rect" : [ 94.0, 144.0, 47.0, 20.0 ],
									"numoutlets" : 1,
									"outlettype" : [ "float" ],
									"fontsize" : 12.0
								}

							}
, 							{
								"box" : 								{
									"maxclass" : "newobj",
									"text" : "urn-jb 1000.",
									"numinlets" : 2,
									"id" : "obj-163",
									"fontname" : "Arial",
									"patching_rect" : [ 94.0, 122.0, 75.0, 20.0 ],
									"numoutlets" : 1,
									"outlettype" : [ "int" ],
									"fontsize" : 12.0
								}

							}
, 							{
								"box" : 								{
									"maxclass" : "newobj",
									"text" : "/ 1000.",
									"numinlets" : 2,
									"id" : "obj-161",
									"fontname" : "Arial",
									"patching_rect" : [ 50.0, 122.0, 47.0, 20.0 ],
									"numoutlets" : 1,
									"outlettype" : [ "float" ],
									"fontsize" : 12.0
								}

							}
, 							{
								"box" : 								{
									"maxclass" : "newobj",
									"text" : "urn-jb 1000.",
									"numinlets" : 2,
									"id" : "obj-158",
									"fontname" : "Arial",
									"patching_rect" : [ 50.0, 100.0, 75.0, 20.0 ],
									"numoutlets" : 1,
									"outlettype" : [ "int" ],
									"fontsize" : 12.0
								}

							}
, 							{
								"box" : 								{
									"maxclass" : "inlet",
									"numinlets" : 0,
									"id" : "obj-167",
									"patching_rect" : [ 89.0, 40.0, 25.0, 25.0 ],
									"numoutlets" : 1,
									"outlettype" : [ "bang" ],
									"comment" : ""
								}

							}
, 							{
								"box" : 								{
									"maxclass" : "outlet",
									"numinlets" : 1,
									"id" : "obj-168",
									"patching_rect" : [ 61.0, 247.5, 25.0, 25.0 ],
									"numoutlets" : 0,
									"comment" : ""
								}

							}
 ],
						"lines" : [ 							{
								"patchline" : 								{
									"source" : [ "obj-158", 0 ],
									"destination" : [ "obj-161", 0 ],
									"hidden" : 0,
									"midpoints" : [  ]
								}

							}
, 							{
								"patchline" : 								{
									"source" : [ "obj-163", 0 ],
									"destination" : [ "obj-162", 0 ],
									"hidden" : 0,
									"midpoints" : [  ]
								}

							}
, 							{
								"patchline" : 								{
									"source" : [ "obj-165", 0 ],
									"destination" : [ "obj-164", 0 ],
									"hidden" : 0,
									"midpoints" : [  ]
								}

							}
, 							{
								"patchline" : 								{
									"source" : [ "obj-161", 0 ],
									"destination" : [ "obj-166", 0 ],
									"hidden" : 0,
									"midpoints" : [  ]
								}

							}
, 							{
								"patchline" : 								{
									"source" : [ "obj-162", 0 ],
									"destination" : [ "obj-166", 1 ],
									"hidden" : 0,
									"midpoints" : [  ]
								}

							}
, 							{
								"patchline" : 								{
									"source" : [ "obj-164", 0 ],
									"destination" : [ "obj-166", 2 ],
									"hidden" : 0,
									"midpoints" : [  ]
								}

							}
, 							{
								"patchline" : 								{
									"source" : [ "obj-167", 0 ],
									"destination" : [ "obj-158", 0 ],
									"hidden" : 0,
									"midpoints" : [  ]
								}

							}
, 							{
								"patchline" : 								{
									"source" : [ "obj-167", 0 ],
									"destination" : [ "obj-163", 0 ],
									"hidden" : 0,
									"midpoints" : [  ]
								}

							}
, 							{
								"patchline" : 								{
									"source" : [ "obj-167", 0 ],
									"destination" : [ "obj-165", 0 ],
									"hidden" : 0,
									"midpoints" : [  ]
								}

							}
, 							{
								"patchline" : 								{
									"source" : [ "obj-166", 0 ],
									"destination" : [ "obj-168", 0 ],
									"hidden" : 0,
									"midpoints" : [  ]
								}

							}
 ]
					}
,
					"saved_object_attributes" : 					{
						"default_fontface" : 0,
						"default_fontname" : "Arial",
						"fontname" : "Arial",
						"default_fontsize" : 12.0,
						"globalpatchername" : "",
						"fontface" : 0,
						"fontsize" : 12.0
					}

				}

			}
, 			{
				"box" : 				{
					"maxclass" : "newobj",
					"text" : "p random color",
					"numinlets" : 1,
					"id" : "obj-170",
					"fontname" : "Arial",
					"patching_rect" : [ 814.0, 264.0, 91.0, 20.0 ],
					"numoutlets" : 1,
					"outlettype" : [ "" ],
					"fontsize" : 12.0,
					"patcher" : 					{
						"fileversion" : 1,
						"rect" : [ 0.0, 0.0, 640.0, 480.0 ],
						"bglocked" : 0,
						"defrect" : [ 0.0, 0.0, 640.0, 480.0 ],
						"openrect" : [ 0.0, 0.0, 0.0, 0.0 ],
						"openinpresentation" : 0,
						"default_fontsize" : 12.0,
						"default_fontface" : 0,
						"default_fontname" : "Arial",
						"gridonopen" : 0,
						"gridsize" : [ 11.0, 11.0 ],
						"gridsnaponopen" : 0,
						"toolbarvisible" : 1,
						"boxanimatetime" : 200,
						"imprint" : 0,
						"boxes" : [ 							{
								"box" : 								{
									"maxclass" : "newobj",
									"text" : "pack f f f",
									"numinlets" : 3,
									"id" : "obj-166",
									"fontname" : "Arial",
									"patching_rect" : [ 61.0, 166.0, 56.0, 20.0 ],
									"numoutlets" : 1,
									"outlettype" : [ "" ],
									"fontsize" : 12.0
								}

							}
, 							{
								"box" : 								{
									"maxclass" : "newobj",
									"text" : "/ 1000.",
									"numinlets" : 2,
									"id" : "obj-164",
									"fontname" : "Arial",
									"patching_rect" : [ 138.0, 166.0, 47.0, 20.0 ],
									"numoutlets" : 1,
									"outlettype" : [ "float" ],
									"fontsize" : 12.0
								}

							}
, 							{
								"box" : 								{
									"maxclass" : "newobj",
									"text" : "urn-jb 1000.",
									"numinlets" : 2,
									"id" : "obj-165",
									"fontname" : "Arial",
									"patching_rect" : [ 138.0, 144.0, 75.0, 20.0 ],
									"numoutlets" : 1,
									"outlettype" : [ "int" ],
									"fontsize" : 12.0
								}

							}
, 							{
								"box" : 								{
									"maxclass" : "newobj",
									"text" : "/ 1000.",
									"numinlets" : 2,
									"id" : "obj-162",
									"fontname" : "Arial",
									"patching_rect" : [ 94.0, 144.0, 47.0, 20.0 ],
									"numoutlets" : 1,
									"outlettype" : [ "float" ],
									"fontsize" : 12.0
								}

							}
, 							{
								"box" : 								{
									"maxclass" : "newobj",
									"text" : "urn-jb 1000.",
									"numinlets" : 2,
									"id" : "obj-163",
									"fontname" : "Arial",
									"patching_rect" : [ 94.0, 122.0, 75.0, 20.0 ],
									"numoutlets" : 1,
									"outlettype" : [ "int" ],
									"fontsize" : 12.0
								}

							}
, 							{
								"box" : 								{
									"maxclass" : "newobj",
									"text" : "/ 1000.",
									"numinlets" : 2,
									"id" : "obj-161",
									"fontname" : "Arial",
									"patching_rect" : [ 50.0, 122.0, 47.0, 20.0 ],
									"numoutlets" : 1,
									"outlettype" : [ "float" ],
									"fontsize" : 12.0
								}

							}
, 							{
								"box" : 								{
									"maxclass" : "newobj",
									"text" : "urn-jb 1000.",
									"numinlets" : 2,
									"id" : "obj-158",
									"fontname" : "Arial",
									"patching_rect" : [ 50.0, 100.0, 75.0, 20.0 ],
									"numoutlets" : 1,
									"outlettype" : [ "int" ],
									"fontsize" : 12.0
								}

							}
, 							{
								"box" : 								{
									"maxclass" : "inlet",
									"numinlets" : 0,
									"id" : "obj-167",
									"patching_rect" : [ 89.0, 40.0, 25.0, 25.0 ],
									"numoutlets" : 1,
									"outlettype" : [ "bang" ],
									"comment" : ""
								}

							}
, 							{
								"box" : 								{
									"maxclass" : "outlet",
									"numinlets" : 1,
									"id" : "obj-168",
									"patching_rect" : [ 61.0, 247.5, 25.0, 25.0 ],
									"numoutlets" : 0,
									"comment" : ""
								}

							}
 ],
						"lines" : [ 							{
								"patchline" : 								{
									"source" : [ "obj-166", 0 ],
									"destination" : [ "obj-168", 0 ],
									"hidden" : 0,
									"midpoints" : [  ]
								}

							}
, 							{
								"patchline" : 								{
									"source" : [ "obj-167", 0 ],
									"destination" : [ "obj-165", 0 ],
									"hidden" : 0,
									"midpoints" : [  ]
								}

							}
, 							{
								"patchline" : 								{
									"source" : [ "obj-167", 0 ],
									"destination" : [ "obj-163", 0 ],
									"hidden" : 0,
									"midpoints" : [  ]
								}

							}
, 							{
								"patchline" : 								{
									"source" : [ "obj-167", 0 ],
									"destination" : [ "obj-158", 0 ],
									"hidden" : 0,
									"midpoints" : [  ]
								}

							}
, 							{
								"patchline" : 								{
									"source" : [ "obj-164", 0 ],
									"destination" : [ "obj-166", 2 ],
									"hidden" : 0,
									"midpoints" : [  ]
								}

							}
, 							{
								"patchline" : 								{
									"source" : [ "obj-162", 0 ],
									"destination" : [ "obj-166", 1 ],
									"hidden" : 0,
									"midpoints" : [  ]
								}

							}
, 							{
								"patchline" : 								{
									"source" : [ "obj-161", 0 ],
									"destination" : [ "obj-166", 0 ],
									"hidden" : 0,
									"midpoints" : [  ]
								}

							}
, 							{
								"patchline" : 								{
									"source" : [ "obj-165", 0 ],
									"destination" : [ "obj-164", 0 ],
									"hidden" : 0,
									"midpoints" : [  ]
								}

							}
, 							{
								"patchline" : 								{
									"source" : [ "obj-163", 0 ],
									"destination" : [ "obj-162", 0 ],
									"hidden" : 0,
									"midpoints" : [  ]
								}

							}
, 							{
								"patchline" : 								{
									"source" : [ "obj-158", 0 ],
									"destination" : [ "obj-161", 0 ],
									"hidden" : 0,
									"midpoints" : [  ]
								}

							}
 ]
					}
,
					"saved_object_attributes" : 					{
						"default_fontface" : 0,
						"default_fontname" : "Arial",
						"fontname" : "Arial",
						"default_fontsize" : 12.0,
						"globalpatchername" : "",
						"fontface" : 0,
						"fontsize" : 12.0
					}

				}

			}
, 			{
				"box" : 				{
					"maxclass" : "newobj",
					"text" : "p random color",
					"numinlets" : 1,
					"id" : "obj-169",
					"fontname" : "Arial",
					"patching_rect" : [ 748.0, 209.0, 91.0, 20.0 ],
					"numoutlets" : 1,
					"outlettype" : [ "" ],
					"fontsize" : 12.0,
					"patcher" : 					{
						"fileversion" : 1,
						"rect" : [ 0.0, 0.0, 640.0, 480.0 ],
						"bglocked" : 0,
						"defrect" : [ 0.0, 0.0, 640.0, 480.0 ],
						"openrect" : [ 0.0, 0.0, 0.0, 0.0 ],
						"openinpresentation" : 0,
						"default_fontsize" : 12.0,
						"default_fontface" : 0,
						"default_fontname" : "Arial",
						"gridonopen" : 0,
						"gridsize" : [ 11.0, 11.0 ],
						"gridsnaponopen" : 0,
						"toolbarvisible" : 1,
						"boxanimatetime" : 200,
						"imprint" : 0,
						"boxes" : [ 							{
								"box" : 								{
									"maxclass" : "newobj",
									"text" : "pack f f f",
									"numinlets" : 3,
									"id" : "obj-166",
									"fontname" : "Arial",
									"patching_rect" : [ 61.0, 166.0, 56.0, 20.0 ],
									"numoutlets" : 1,
									"outlettype" : [ "" ],
									"fontsize" : 12.0
								}

							}
, 							{
								"box" : 								{
									"maxclass" : "newobj",
									"text" : "/ 1000.",
									"numinlets" : 2,
									"id" : "obj-164",
									"fontname" : "Arial",
									"patching_rect" : [ 138.0, 166.0, 47.0, 20.0 ],
									"numoutlets" : 1,
									"outlettype" : [ "float" ],
									"fontsize" : 12.0
								}

							}
, 							{
								"box" : 								{
									"maxclass" : "newobj",
									"text" : "urn-jb 1000.",
									"numinlets" : 2,
									"id" : "obj-165",
									"fontname" : "Arial",
									"patching_rect" : [ 138.0, 144.0, 75.0, 20.0 ],
									"numoutlets" : 1,
									"outlettype" : [ "int" ],
									"fontsize" : 12.0
								}

							}
, 							{
								"box" : 								{
									"maxclass" : "newobj",
									"text" : "/ 1000.",
									"numinlets" : 2,
									"id" : "obj-162",
									"fontname" : "Arial",
									"patching_rect" : [ 94.0, 144.0, 47.0, 20.0 ],
									"numoutlets" : 1,
									"outlettype" : [ "float" ],
									"fontsize" : 12.0
								}

							}
, 							{
								"box" : 								{
									"maxclass" : "newobj",
									"text" : "urn-jb 1000.",
									"numinlets" : 2,
									"id" : "obj-163",
									"fontname" : "Arial",
									"patching_rect" : [ 94.0, 122.0, 75.0, 20.0 ],
									"numoutlets" : 1,
									"outlettype" : [ "int" ],
									"fontsize" : 12.0
								}

							}
, 							{
								"box" : 								{
									"maxclass" : "newobj",
									"text" : "/ 1000.",
									"numinlets" : 2,
									"id" : "obj-161",
									"fontname" : "Arial",
									"patching_rect" : [ 50.0, 122.0, 47.0, 20.0 ],
									"numoutlets" : 1,
									"outlettype" : [ "float" ],
									"fontsize" : 12.0
								}

							}
, 							{
								"box" : 								{
									"maxclass" : "newobj",
									"text" : "urn-jb 1000.",
									"numinlets" : 2,
									"id" : "obj-158",
									"fontname" : "Arial",
									"patching_rect" : [ 50.0, 100.0, 75.0, 20.0 ],
									"numoutlets" : 1,
									"outlettype" : [ "int" ],
									"fontsize" : 12.0
								}

							}
, 							{
								"box" : 								{
									"maxclass" : "inlet",
									"numinlets" : 0,
									"id" : "obj-167",
									"patching_rect" : [ 89.0, 40.0, 25.0, 25.0 ],
									"numoutlets" : 1,
									"outlettype" : [ "bang" ],
									"comment" : ""
								}

							}
, 							{
								"box" : 								{
									"maxclass" : "outlet",
									"numinlets" : 1,
									"id" : "obj-168",
									"patching_rect" : [ 61.0, 247.5, 25.0, 25.0 ],
									"numoutlets" : 0,
									"comment" : ""
								}

							}
 ],
						"lines" : [ 							{
								"patchline" : 								{
									"source" : [ "obj-158", 0 ],
									"destination" : [ "obj-161", 0 ],
									"hidden" : 0,
									"midpoints" : [  ]
								}

							}
, 							{
								"patchline" : 								{
									"source" : [ "obj-163", 0 ],
									"destination" : [ "obj-162", 0 ],
									"hidden" : 0,
									"midpoints" : [  ]
								}

							}
, 							{
								"patchline" : 								{
									"source" : [ "obj-165", 0 ],
									"destination" : [ "obj-164", 0 ],
									"hidden" : 0,
									"midpoints" : [  ]
								}

							}
, 							{
								"patchline" : 								{
									"source" : [ "obj-161", 0 ],
									"destination" : [ "obj-166", 0 ],
									"hidden" : 0,
									"midpoints" : [  ]
								}

							}
, 							{
								"patchline" : 								{
									"source" : [ "obj-162", 0 ],
									"destination" : [ "obj-166", 1 ],
									"hidden" : 0,
									"midpoints" : [  ]
								}

							}
, 							{
								"patchline" : 								{
									"source" : [ "obj-164", 0 ],
									"destination" : [ "obj-166", 2 ],
									"hidden" : 0,
									"midpoints" : [  ]
								}

							}
, 							{
								"patchline" : 								{
									"source" : [ "obj-167", 0 ],
									"destination" : [ "obj-158", 0 ],
									"hidden" : 0,
									"midpoints" : [  ]
								}

							}
, 							{
								"patchline" : 								{
									"source" : [ "obj-167", 0 ],
									"destination" : [ "obj-163", 0 ],
									"hidden" : 0,
									"midpoints" : [  ]
								}

							}
, 							{
								"patchline" : 								{
									"source" : [ "obj-167", 0 ],
									"destination" : [ "obj-165", 0 ],
									"hidden" : 0,
									"midpoints" : [  ]
								}

							}
, 							{
								"patchline" : 								{
									"source" : [ "obj-166", 0 ],
									"destination" : [ "obj-168", 0 ],
									"hidden" : 0,
									"midpoints" : [  ]
								}

							}
 ]
					}
,
					"saved_object_attributes" : 					{
						"default_fontface" : 0,
						"default_fontname" : "Arial",
						"fontname" : "Arial",
						"default_fontsize" : 12.0,
						"globalpatchername" : "",
						"fontface" : 0,
						"fontsize" : 12.0
					}

				}

			}
, 			{
				"box" : 				{
					"maxclass" : "button",
					"numinlets" : 1,
					"id" : "obj-160",
					"patching_rect" : [ 748.0, 187.0, 20.0, 20.0 ],
					"numoutlets" : 1,
					"outlettype" : [ "bang" ]
				}

			}
, 			{
				"box" : 				{
					"maxclass" : "toggle",
					"numinlets" : 1,
					"id" : "obj-157",
					"patching_rect" : [ 297.0, 506.0, 20.0, 20.0 ],
					"numoutlets" : 1,
					"outlettype" : [ "int" ]
				}

			}
, 			{
				"box" : 				{
					"maxclass" : "newobj",
					"text" : "gate",
					"numinlets" : 2,
					"id" : "obj-155",
					"fontname" : "Arial",
					"patching_rect" : [ 319.0, 506.0, 34.0, 20.0 ],
					"numoutlets" : 1,
					"outlettype" : [ "" ],
					"fontsize" : 12.0
				}

			}
, 			{
				"box" : 				{
					"maxclass" : "message",
					"text" : "position 0 0 0",
					"numinlets" : 2,
					"id" : "obj-151",
					"fontname" : "Arial",
					"patching_rect" : [ 198.0, 429.0, 82.0, 18.0 ],
					"numoutlets" : 1,
					"outlettype" : [ "" ],
					"fontsize" : 12.0
				}

			}
, 			{
				"box" : 				{
					"maxclass" : "newobj",
					"text" : "- 359.",
					"numinlets" : 2,
					"id" : "obj-143",
					"fontname" : "Arial",
					"patching_rect" : [ 528.0, 451.0, 41.0, 20.0 ],
					"numoutlets" : 1,
					"outlettype" : [ "float" ],
					"fontsize" : 12.0
				}

			}
, 			{
				"box" : 				{
					"maxclass" : "newobj",
					"text" : "- 359.",
					"numinlets" : 2,
					"id" : "obj-142",
					"fontname" : "Arial",
					"patching_rect" : [ 451.0, 451.0, 41.0, 20.0 ],
					"numoutlets" : 1,
					"outlettype" : [ "float" ],
					"fontsize" : 12.0
				}

			}
, 			{
				"box" : 				{
					"maxclass" : "newobj",
					"text" : "- 359.",
					"numinlets" : 2,
					"id" : "obj-141",
					"fontname" : "Arial",
					"patching_rect" : [ 374.0, 451.0, 41.0, 20.0 ],
					"numoutlets" : 1,
					"outlettype" : [ "float" ],
					"fontsize" : 12.0
				}

			}
, 			{
				"box" : 				{
					"maxclass" : "newobj",
					"text" : "random 720",
					"numinlets" : 2,
					"id" : "obj-134",
					"fontname" : "Arial",
					"patching_rect" : [ 528.0, 429.0, 75.0, 20.0 ],
					"numoutlets" : 1,
					"outlettype" : [ "int" ],
					"fontsize" : 12.0
				}

			}
, 			{
				"box" : 				{
					"maxclass" : "message",
					"text" : "$1 10000",
					"numinlets" : 2,
					"id" : "obj-135",
					"fontname" : "Arial",
					"patching_rect" : [ 528.0, 473.0, 61.0, 18.0 ],
					"numoutlets" : 1,
					"outlettype" : [ "" ],
					"fontsize" : 12.0
				}

			}
, 			{
				"box" : 				{
					"maxclass" : "newobj",
					"text" : "line 0.",
					"numinlets" : 3,
					"id" : "obj-136",
					"fontname" : "Arial",
					"patching_rect" : [ 528.0, 495.0, 46.0, 20.0 ],
					"numoutlets" : 2,
					"outlettype" : [ "", "" ],
					"fontsize" : 12.0
				}

			}
, 			{
				"box" : 				{
					"maxclass" : "newobj",
					"text" : "random 720",
					"numinlets" : 2,
					"id" : "obj-131",
					"fontname" : "Arial",
					"patching_rect" : [ 451.0, 429.0, 75.0, 20.0 ],
					"numoutlets" : 1,
					"outlettype" : [ "int" ],
					"fontsize" : 12.0
				}

			}
, 			{
				"box" : 				{
					"maxclass" : "message",
					"text" : "$1 10000",
					"numinlets" : 2,
					"id" : "obj-132",
					"fontname" : "Arial",
					"patching_rect" : [ 451.0, 473.0, 61.0, 18.0 ],
					"numoutlets" : 1,
					"outlettype" : [ "" ],
					"fontsize" : 12.0
				}

			}
, 			{
				"box" : 				{
					"maxclass" : "newobj",
					"text" : "line 0.",
					"numinlets" : 3,
					"id" : "obj-133",
					"fontname" : "Arial",
					"patching_rect" : [ 451.0, 495.0, 46.0, 20.0 ],
					"numoutlets" : 2,
					"outlettype" : [ "", "" ],
					"fontsize" : 12.0
				}

			}
, 			{
				"box" : 				{
					"maxclass" : "newobj",
					"text" : "prepend rotatexyz",
					"numinlets" : 1,
					"id" : "obj-130",
					"fontname" : "Arial",
					"patching_rect" : [ 429.0, 561.0, 107.0, 20.0 ],
					"numoutlets" : 1,
					"outlettype" : [ "" ],
					"fontsize" : 12.0
				}

			}
, 			{
				"box" : 				{
					"maxclass" : "newobj",
					"text" : "pack f f f",
					"numinlets" : 3,
					"id" : "obj-129",
					"fontname" : "Arial",
					"patching_rect" : [ 429.0, 539.0, 56.0, 20.0 ],
					"numoutlets" : 1,
					"outlettype" : [ "" ],
					"fontsize" : 12.0
				}

			}
, 			{
				"box" : 				{
					"maxclass" : "newobj",
					"text" : "random 720",
					"numinlets" : 2,
					"id" : "obj-122",
					"fontname" : "Arial",
					"patching_rect" : [ 374.0, 429.0, 75.0, 20.0 ],
					"numoutlets" : 1,
					"outlettype" : [ "int" ],
					"fontsize" : 12.0
				}

			}
, 			{
				"box" : 				{
					"maxclass" : "toggle",
					"numinlets" : 1,
					"id" : "obj-121",
					"patching_rect" : [ 374.0, 374.0, 20.0, 20.0 ],
					"numoutlets" : 1,
					"outlettype" : [ "int" ]
				}

			}
, 			{
				"box" : 				{
					"maxclass" : "newobj",
					"text" : "metro 9900",
					"numinlets" : 2,
					"id" : "obj-118",
					"fontname" : "Arial",
					"patching_rect" : [ 374.0, 396.0, 71.0, 20.0 ],
					"numoutlets" : 1,
					"outlettype" : [ "bang" ],
					"fontsize" : 12.0
				}

			}
, 			{
				"box" : 				{
					"maxclass" : "message",
					"text" : "$1 10000",
					"numinlets" : 2,
					"id" : "obj-117",
					"fontname" : "Arial",
					"patching_rect" : [ 374.0, 473.0, 61.0, 18.0 ],
					"numoutlets" : 1,
					"outlettype" : [ "" ],
					"fontsize" : 12.0
				}

			}
, 			{
				"box" : 				{
					"maxclass" : "newobj",
					"text" : "line 0.",
					"numinlets" : 3,
					"id" : "obj-115",
					"fontname" : "Arial",
					"patching_rect" : [ 374.0, 495.0, 46.0, 20.0 ],
					"numoutlets" : 2,
					"outlettype" : [ "", "" ],
					"fontsize" : 12.0
				}

			}
, 			{
				"box" : 				{
					"maxclass" : "newobj",
					"text" : "sel 0 1 2",
					"numinlets" : 1,
					"id" : "obj-110",
					"fontname" : "Arial",
					"patching_rect" : [ 726.0, 121.0, 59.5, 20.0 ],
					"numoutlets" : 4,
					"outlettype" : [ "bang", "bang", "bang", "" ],
					"fontsize" : 12.0
				}

			}
, 			{
				"box" : 				{
					"maxclass" : "message",
					"text" : "glcolor 0.311765 0.617647 0.688235 1.",
					"linecount" : 7,
					"numinlets" : 2,
					"id" : "obj-109",
					"fontname" : "Arial",
					"patching_rect" : [ 594.0, 264.0, 50.0, 101.0 ],
					"numoutlets" : 1,
					"outlettype" : [ "" ],
					"fontsize" : 12.0
				}

			}
, 			{
				"box" : 				{
					"maxclass" : "message",
					"text" : "glcolor 0.197059 0.990441 0.990441 1.",
					"linecount" : 7,
					"numinlets" : 2,
					"id" : "obj-108",
					"fontname" : "Arial",
					"patching_rect" : [ 594.0, 308.0, 47.0, 101.0 ],
					"numoutlets" : 1,
					"outlettype" : [ "" ],
					"fontsize" : 12.0
				}

			}
, 			{
				"box" : 				{
					"maxclass" : "message",
					"text" : "glcolor 0.227941 0.897059 0.897059 1.",
					"linecount" : 7,
					"numinlets" : 2,
					"id" : "obj-107",
					"fontname" : "Arial",
					"patching_rect" : [ 594.0, 352.0, 50.0, 101.0 ],
					"numoutlets" : 1,
					"outlettype" : [ "" ],
					"fontsize" : 12.0
				}

			}
, 			{
				"box" : 				{
					"maxclass" : "newobj",
					"text" : "prepend glcolor",
					"numinlets" : 1,
					"id" : "obj-105",
					"fontname" : "Arial",
					"patching_rect" : [ 594.0, 330.0, 93.0, 20.0 ],
					"numoutlets" : 1,
					"outlettype" : [ "" ],
					"fontsize" : 12.0
				}

			}
, 			{
				"box" : 				{
					"maxclass" : "newobj",
					"text" : "prepend glcolor",
					"numinlets" : 1,
					"id" : "obj-104",
					"fontname" : "Arial",
					"patching_rect" : [ 594.0, 286.0, 93.0, 20.0 ],
					"numoutlets" : 1,
					"outlettype" : [ "" ],
					"fontsize" : 12.0
				}

			}
, 			{
				"box" : 				{
					"maxclass" : "newobj",
					"text" : "prepend glcolor",
					"numinlets" : 1,
					"id" : "obj-103",
					"fontname" : "Arial",
					"patching_rect" : [ 594.0, 242.0, 93.0, 20.0 ],
					"numoutlets" : 1,
					"outlettype" : [ "" ],
					"fontsize" : 12.0
				}

			}
, 			{
				"box" : 				{
					"maxclass" : "newobj",
					"text" : "urn-jb 3",
					"numinlets" : 2,
					"id" : "obj-99",
					"fontname" : "Arial",
					"patching_rect" : [ 726.0, 99.0, 51.0, 20.0 ],
					"numoutlets" : 1,
					"outlettype" : [ "int" ],
					"fontsize" : 12.0
				}

			}
, 			{
				"box" : 				{
					"maxclass" : "swatch",
					"numinlets" : 3,
					"id" : "obj-98",
					"patching_rect" : [ 682.0, 308.0, 128.0, 32.0 ],
					"numoutlets" : 2,
					"outlettype" : [ "", "float" ]
				}

			}
, 			{
				"box" : 				{
					"maxclass" : "swatch",
					"numinlets" : 3,
					"id" : "obj-95",
					"patching_rect" : [ 682.0, 275.0, 128.0, 32.0 ],
					"numoutlets" : 2,
					"outlettype" : [ "", "float" ]
				}

			}
, 			{
				"box" : 				{
					"maxclass" : "swatch",
					"numinlets" : 3,
					"id" : "obj-82",
					"patching_rect" : [ 682.0, 242.0, 128.0, 32.0 ],
					"numoutlets" : 2,
					"outlettype" : [ "", "float" ]
				}

			}
, 			{
				"box" : 				{
					"maxclass" : "newobj",
					"text" : "pack f f f",
					"numinlets" : 3,
					"id" : "obj-80",
					"fontname" : "Arial",
					"patching_rect" : [ 528.0, 198.0, 56.0, 20.0 ],
					"numoutlets" : 1,
					"outlettype" : [ "" ],
					"fontsize" : 12.0
				}

			}
, 			{
				"box" : 				{
					"maxclass" : "flonum",
					"numinlets" : 1,
					"id" : "obj-75",
					"fontname" : "Arial",
					"patching_rect" : [ 638.0, 187.0, 50.0, 20.0 ],
					"numoutlets" : 2,
					"outlettype" : [ "float", "bang" ],
					"fontsize" : 12.0
				}

			}
, 			{
				"box" : 				{
					"maxclass" : "newobj",
					"text" : "/ 100.",
					"numinlets" : 2,
					"id" : "obj-76",
					"fontname" : "Arial",
					"patching_rect" : [ 638.0, 165.0, 41.0, 20.0 ],
					"numoutlets" : 1,
					"outlettype" : [ "float" ],
					"fontsize" : 12.0
				}

			}
, 			{
				"box" : 				{
					"maxclass" : "newobj",
					"text" : "- 99",
					"numinlets" : 2,
					"id" : "obj-77",
					"fontname" : "Arial",
					"patching_rect" : [ 638.0, 143.0, 32.5, 20.0 ],
					"numoutlets" : 1,
					"outlettype" : [ "int" ],
					"fontsize" : 12.0
				}

			}
, 			{
				"box" : 				{
					"maxclass" : "newobj",
					"text" : "random 200.",
					"numinlets" : 2,
					"id" : "obj-78",
					"fontname" : "Arial",
					"patching_rect" : [ 638.0, 121.0, 78.0, 20.0 ],
					"numoutlets" : 1,
					"outlettype" : [ "int" ],
					"fontsize" : 12.0
				}

			}
, 			{
				"box" : 				{
					"maxclass" : "flonum",
					"numinlets" : 1,
					"id" : "obj-71",
					"fontname" : "Arial",
					"patching_rect" : [ 583.0, 165.0, 50.0, 20.0 ],
					"numoutlets" : 2,
					"outlettype" : [ "float", "bang" ],
					"fontsize" : 12.0
				}

			}
, 			{
				"box" : 				{
					"maxclass" : "newobj",
					"text" : "/ 100.",
					"numinlets" : 2,
					"id" : "obj-72",
					"fontname" : "Arial",
					"patching_rect" : [ 583.0, 143.0, 41.0, 20.0 ],
					"numoutlets" : 1,
					"outlettype" : [ "float" ],
					"fontsize" : 12.0
				}

			}
, 			{
				"box" : 				{
					"maxclass" : "newobj",
					"text" : "- 99",
					"numinlets" : 2,
					"id" : "obj-73",
					"fontname" : "Arial",
					"patching_rect" : [ 583.0, 121.0, 32.5, 20.0 ],
					"numoutlets" : 1,
					"outlettype" : [ "int" ],
					"fontsize" : 12.0
				}

			}
, 			{
				"box" : 				{
					"maxclass" : "newobj",
					"text" : "random 200.",
					"numinlets" : 2,
					"id" : "obj-74",
					"fontname" : "Arial",
					"patching_rect" : [ 583.0, 99.0, 78.0, 20.0 ],
					"numoutlets" : 1,
					"outlettype" : [ "int" ],
					"fontsize" : 12.0
				}

			}
, 			{
				"box" : 				{
					"maxclass" : "newobj",
					"text" : "prepend cube",
					"numinlets" : 1,
					"id" : "obj-65",
					"fontname" : "Arial",
					"patching_rect" : [ 341.0, 220.0, 84.0, 20.0 ],
					"numoutlets" : 1,
					"outlettype" : [ "" ],
					"fontsize" : 12.0
				}

			}
, 			{
				"box" : 				{
					"maxclass" : "flonum",
					"numinlets" : 1,
					"id" : "obj-53",
					"fontname" : "Arial",
					"patching_rect" : [ 451.0, 187.0, 50.0, 20.0 ],
					"numoutlets" : 2,
					"outlettype" : [ "float", "bang" ],
					"fontsize" : 12.0
				}

			}
, 			{
				"box" : 				{
					"maxclass" : "newobj",
					"text" : "/ 100.",
					"numinlets" : 2,
					"id" : "obj-54",
					"fontname" : "Arial",
					"patching_rect" : [ 451.0, 165.0, 41.0, 20.0 ],
					"numoutlets" : 1,
					"outlettype" : [ "float" ],
					"fontsize" : 12.0
				}

			}
, 			{
				"box" : 				{
					"maxclass" : "newobj",
					"text" : "+ 1",
					"numinlets" : 2,
					"id" : "obj-55",
					"fontname" : "Arial",
					"patching_rect" : [ 451.0, 143.0, 32.5, 20.0 ],
					"numoutlets" : 1,
					"outlettype" : [ "int" ],
					"fontsize" : 12.0
				}

			}
, 			{
				"box" : 				{
					"maxclass" : "newobj",
					"text" : "random 50",
					"numinlets" : 2,
					"id" : "obj-56",
					"fontname" : "Arial",
					"patching_rect" : [ 451.0, 121.0, 68.0, 20.0 ],
					"numoutlets" : 1,
					"outlettype" : [ "int" ],
					"fontsize" : 12.0
				}

			}
, 			{
				"box" : 				{
					"maxclass" : "flonum",
					"numinlets" : 1,
					"id" : "obj-48",
					"fontname" : "Arial",
					"patching_rect" : [ 396.0, 165.0, 50.0, 20.0 ],
					"numoutlets" : 2,
					"outlettype" : [ "float", "bang" ],
					"fontsize" : 12.0
				}

			}
, 			{
				"box" : 				{
					"maxclass" : "newobj",
					"text" : "/ 100.",
					"numinlets" : 2,
					"id" : "obj-49",
					"fontname" : "Arial",
					"patching_rect" : [ 396.0, 143.0, 41.0, 20.0 ],
					"numoutlets" : 1,
					"outlettype" : [ "float" ],
					"fontsize" : 12.0
				}

			}
, 			{
				"box" : 				{
					"maxclass" : "newobj",
					"text" : "+ 1",
					"numinlets" : 2,
					"id" : "obj-50",
					"fontname" : "Arial",
					"patching_rect" : [ 396.0, 121.0, 32.5, 20.0 ],
					"numoutlets" : 1,
					"outlettype" : [ "int" ],
					"fontsize" : 12.0
				}

			}
, 			{
				"box" : 				{
					"maxclass" : "newobj",
					"text" : "random 50",
					"numinlets" : 2,
					"id" : "obj-51",
					"fontname" : "Arial",
					"patching_rect" : [ 396.0, 99.0, 68.0, 20.0 ],
					"numoutlets" : 1,
					"outlettype" : [ "int" ],
					"fontsize" : 12.0
				}

			}
, 			{
				"box" : 				{
					"maxclass" : "newobj",
					"text" : "pack f f f",
					"numinlets" : 3,
					"id" : "obj-47",
					"fontname" : "Arial",
					"patching_rect" : [ 341.0, 198.0, 56.0, 20.0 ],
					"numoutlets" : 1,
					"outlettype" : [ "" ],
					"fontsize" : 12.0
				}

			}
, 			{
				"box" : 				{
					"maxclass" : "button",
					"numinlets" : 1,
					"id" : "obj-45",
					"patching_rect" : [ 506.0, 77.0, 20.0, 20.0 ],
					"numoutlets" : 1,
					"outlettype" : [ "bang" ]
				}

			}
, 			{
				"box" : 				{
					"maxclass" : "flonum",
					"numinlets" : 1,
					"id" : "obj-42",
					"fontname" : "Arial",
					"patching_rect" : [ 528.0, 143.0, 50.0, 20.0 ],
					"numoutlets" : 2,
					"outlettype" : [ "float", "bang" ],
					"fontsize" : 12.0
				}

			}
, 			{
				"box" : 				{
					"maxclass" : "newobj",
					"text" : "/ 100.",
					"numinlets" : 2,
					"id" : "obj-41",
					"fontname" : "Arial",
					"patching_rect" : [ 528.0, 121.0, 41.0, 20.0 ],
					"numoutlets" : 1,
					"outlettype" : [ "float" ],
					"fontsize" : 12.0
				}

			}
, 			{
				"box" : 				{
					"maxclass" : "newobj",
					"text" : "- 99",
					"numinlets" : 2,
					"id" : "obj-40",
					"fontname" : "Arial",
					"patching_rect" : [ 528.0, 99.0, 32.5, 20.0 ],
					"numoutlets" : 1,
					"outlettype" : [ "int" ],
					"fontsize" : 12.0
				}

			}
, 			{
				"box" : 				{
					"maxclass" : "newobj",
					"text" : "random 200.",
					"numinlets" : 2,
					"id" : "obj-39",
					"fontname" : "Arial",
					"patching_rect" : [ 528.0, 77.0, 78.0, 20.0 ],
					"numoutlets" : 1,
					"outlettype" : [ "int" ],
					"fontsize" : 12.0
				}

			}
, 			{
				"box" : 				{
					"maxclass" : "button",
					"numinlets" : 1,
					"id" : "obj-37",
					"patching_rect" : [ 319.0, 77.0, 20.0, 20.0 ],
					"numoutlets" : 1,
					"outlettype" : [ "bang" ]
				}

			}
, 			{
				"box" : 				{
					"maxclass" : "button",
					"numinlets" : 1,
					"id" : "obj-36",
					"patching_rect" : [ 319.0, 33.0, 20.0, 20.0 ],
					"numoutlets" : 1,
					"outlettype" : [ "bang" ]
				}

			}
, 			{
				"box" : 				{
					"maxclass" : "flonum",
					"numinlets" : 1,
					"id" : "obj-31",
					"fontname" : "Arial",
					"patching_rect" : [ 341.0, 143.0, 50.0, 20.0 ],
					"numoutlets" : 2,
					"outlettype" : [ "float", "bang" ],
					"fontsize" : 12.0
				}

			}
, 			{
				"box" : 				{
					"maxclass" : "newobj",
					"text" : "/ 100.",
					"numinlets" : 2,
					"id" : "obj-29",
					"fontname" : "Arial",
					"patching_rect" : [ 341.0, 121.0, 41.0, 20.0 ],
					"numoutlets" : 1,
					"outlettype" : [ "float" ],
					"fontsize" : 12.0
				}

			}
, 			{
				"box" : 				{
					"maxclass" : "newobj",
					"text" : "+ 1",
					"numinlets" : 2,
					"id" : "obj-28",
					"fontname" : "Arial",
					"patching_rect" : [ 341.0, 99.0, 32.5, 20.0 ],
					"numoutlets" : 1,
					"outlettype" : [ "int" ],
					"fontsize" : 12.0
				}

			}
, 			{
				"box" : 				{
					"maxclass" : "newobj",
					"text" : "random 50",
					"numinlets" : 2,
					"id" : "obj-27",
					"fontname" : "Arial",
					"patching_rect" : [ 341.0, 77.0, 68.0, 20.0 ],
					"numoutlets" : 1,
					"outlettype" : [ "int" ],
					"fontsize" : 12.0
				}

			}
, 			{
				"box" : 				{
					"maxclass" : "number",
					"numinlets" : 1,
					"id" : "obj-26",
					"fontname" : "Arial",
					"patching_rect" : [ 363.0, 11.0, 50.0, 20.0 ],
					"numoutlets" : 2,
					"outlettype" : [ "int", "bang" ],
					"fontsize" : 12.0
				}

			}
, 			{
				"box" : 				{
					"maxclass" : "button",
					"numinlets" : 1,
					"id" : "obj-22",
					"patching_rect" : [ 341.0, 11.0, 20.0, 20.0 ],
					"numoutlets" : 1,
					"outlettype" : [ "bang" ]
				}

			}
, 			{
				"box" : 				{
					"maxclass" : "newobj",
					"text" : "uzi 250",
					"numinlets" : 2,
					"id" : "obj-20",
					"fontname" : "Arial",
					"patching_rect" : [ 341.0, 33.0, 49.0, 20.0 ],
					"numoutlets" : 3,
					"outlettype" : [ "bang", "bang", "int" ],
					"fontsize" : 12.0
				}

			}
, 			{
				"box" : 				{
					"maxclass" : "newobj",
					"text" : "togedge",
					"numinlets" : 1,
					"id" : "obj-18",
					"fontname" : "Arial",
					"patching_rect" : [ 341.0, 55.0, 54.0, 20.0 ],
					"numoutlets" : 2,
					"outlettype" : [ "bang", "bang" ],
					"fontsize" : 12.0
				}

			}
, 			{
				"box" : 				{
					"maxclass" : "message",
					"text" : "reset",
					"numinlets" : 2,
					"id" : "obj-10",
					"fontname" : "Arial",
					"patching_rect" : [ 132.0, 286.0, 37.0, 18.0 ],
					"numoutlets" : 1,
					"outlettype" : [ "" ],
					"fontsize" : 12.0
				}

			}
, 			{
				"box" : 				{
					"maxclass" : "newobj",
					"text" : "p esc-fullscreen",
					"numinlets" : 0,
					"id" : "obj-15",
					"fontname" : "Arial",
					"patching_rect" : [ 165.0, 352.0, 90.0, 20.0 ],
					"numoutlets" : 1,
					"outlettype" : [ "" ],
					"fontsize" : 11.595187,
					"patcher" : 					{
						"fileversion" : 1,
						"rect" : [ 86.0, 108.0, 235.0, 205.0 ],
						"bglocked" : 0,
						"defrect" : [ 86.0, 108.0, 235.0, 205.0 ],
						"openrect" : [ 0.0, 0.0, 0.0, 0.0 ],
						"openinpresentation" : 0,
						"default_fontsize" : 10.0,
						"default_fontface" : 0,
						"default_fontname" : "Arial",
						"gridonopen" : 0,
						"gridsize" : [ 15.0, 15.0 ],
						"gridsnaponopen" : 0,
						"toolbarvisible" : 1,
						"boxanimatetime" : 200,
						"imprint" : 0,
						"boxes" : [ 							{
								"box" : 								{
									"maxclass" : "newobj",
									"text" : "togedge",
									"numinlets" : 1,
									"id" : "obj-8",
									"fontname" : "Arial",
									"patching_rect" : [ 120.0, 105.0, 47.0, 18.0 ],
									"numoutlets" : 2,
									"outlettype" : [ "bang", "bang" ],
									"fontsize" : 10.0
								}

							}
, 							{
								"box" : 								{
									"maxclass" : "newobj",
									"text" : "sel 100",
									"numinlets" : 2,
									"id" : "obj-11",
									"fontname" : "Arial",
									"patching_rect" : [ 90.0, 45.0, 43.0, 18.0 ],
									"numoutlets" : 2,
									"outlettype" : [ "bang", "" ],
									"fontsize" : 10.0
								}

							}
, 							{
								"box" : 								{
									"maxclass" : "message",
									"text" : "show",
									"numinlets" : 2,
									"id" : "obj-13",
									"fontname" : "Arial",
									"patching_rect" : [ 150.0, 135.0, 33.0, 15.0 ],
									"numoutlets" : 1,
									"outlettype" : [ "" ],
									"fontsize" : 9.0
								}

							}
, 							{
								"box" : 								{
									"maxclass" : "message",
									"text" : "hide",
									"numinlets" : 2,
									"id" : "obj-27",
									"fontname" : "Arial",
									"patching_rect" : [ 120.0, 135.0, 26.0, 15.0 ],
									"numoutlets" : 1,
									"outlettype" : [ "" ],
									"fontsize" : 9.0
								}

							}
, 							{
								"box" : 								{
									"maxclass" : "newobj",
									"text" : "aka.mouse",
									"numinlets" : 1,
									"id" : "obj-1",
									"fontname" : "Arial",
									"patching_rect" : [ 105.0, 165.0, 59.0, 18.0 ],
									"numoutlets" : 1,
									"outlettype" : [ "" ],
									"fontsize" : 10.0
								}

							}
, 							{
								"box" : 								{
									"maxclass" : "comment",
									"text" : "Escape ASCII Code",
									"numinlets" : 1,
									"id" : "obj-7",
									"fontname" : "Arial",
									"patching_rect" : [ 86.0, 67.0, 114.0, 20.0 ],
									"numoutlets" : 0,
									"fontsize" : 11.595187
								}

							}
, 							{
								"box" : 								{
									"maxclass" : "outlet",
									"numinlets" : 1,
									"id" : "obj-2",
									"patching_rect" : [ 27.0, 157.25, 25.0, 25.0 ],
									"numoutlets" : 0,
									"comment" : ""
								}

							}
, 							{
								"box" : 								{
									"maxclass" : "message",
									"text" : "fullscreen $1",
									"numinlets" : 2,
									"id" : "obj-3",
									"fontname" : "Arial",
									"patching_rect" : [ 27.0, 127.25, 76.0, 18.0 ],
									"numoutlets" : 1,
									"outlettype" : [ "" ],
									"fontsize" : 11.595187
								}

							}
, 							{
								"box" : 								{
									"maxclass" : "newobj",
									"text" : "key",
									"numinlets" : 0,
									"id" : "obj-4",
									"fontname" : "Arial",
									"patching_rect" : [ 27.0, 37.0, 46.0, 20.0 ],
									"numoutlets" : 4,
									"outlettype" : [ "int", "int", "int", "int" ],
									"fontsize" : 11.595187
								}

							}
, 							{
								"box" : 								{
									"maxclass" : "newobj",
									"text" : "select 27",
									"numinlets" : 2,
									"id" : "obj-5",
									"fontname" : "Arial",
									"patching_rect" : [ 27.0, 67.25, 57.0, 20.0 ],
									"numoutlets" : 2,
									"outlettype" : [ "bang", "" ],
									"fontsize" : 11.595187
								}

							}
, 							{
								"box" : 								{
									"maxclass" : "toggle",
									"numinlets" : 1,
									"id" : "obj-6",
									"patching_rect" : [ 27.0, 97.25, 20.0, 20.0 ],
									"numoutlets" : 1,
									"outlettype" : [ "int" ]
								}

							}
 ],
						"lines" : [ 							{
								"patchline" : 								{
									"source" : [ "obj-4", 0 ],
									"destination" : [ "obj-11", 0 ],
									"hidden" : 0,
									"midpoints" : [  ]
								}

							}
, 							{
								"patchline" : 								{
									"source" : [ "obj-13", 0 ],
									"destination" : [ "obj-1", 0 ],
									"hidden" : 0,
									"midpoints" : [  ]
								}

							}
, 							{
								"patchline" : 								{
									"source" : [ "obj-27", 0 ],
									"destination" : [ "obj-1", 0 ],
									"hidden" : 0,
									"midpoints" : [  ]
								}

							}
, 							{
								"patchline" : 								{
									"source" : [ "obj-4", 0 ],
									"destination" : [ "obj-5", 0 ],
									"hidden" : 0,
									"midpoints" : [  ]
								}

							}
, 							{
								"patchline" : 								{
									"source" : [ "obj-5", 0 ],
									"destination" : [ "obj-6", 0 ],
									"hidden" : 0,
									"midpoints" : [  ]
								}

							}
, 							{
								"patchline" : 								{
									"source" : [ "obj-6", 0 ],
									"destination" : [ "obj-3", 0 ],
									"hidden" : 0,
									"midpoints" : [  ]
								}

							}
, 							{
								"patchline" : 								{
									"source" : [ "obj-3", 0 ],
									"destination" : [ "obj-2", 0 ],
									"hidden" : 0,
									"midpoints" : [  ]
								}

							}
, 							{
								"patchline" : 								{
									"source" : [ "obj-11", 0 ],
									"destination" : [ "obj-8", 0 ],
									"hidden" : 0,
									"midpoints" : [  ]
								}

							}
, 							{
								"patchline" : 								{
									"source" : [ "obj-8", 0 ],
									"destination" : [ "obj-27", 0 ],
									"hidden" : 0,
									"midpoints" : [  ]
								}

							}
, 							{
								"patchline" : 								{
									"source" : [ "obj-8", 1 ],
									"destination" : [ "obj-13", 0 ],
									"hidden" : 0,
									"midpoints" : [  ]
								}

							}
 ]
					}
,
					"saved_object_attributes" : 					{
						"default_fontface" : 0,
						"default_fontname" : "Arial",
						"fontname" : "Arial",
						"default_fontsize" : 10.0,
						"globalpatchername" : "",
						"fontface" : 0,
						"fontsize" : 10.0
					}

				}

			}
, 			{
				"box" : 				{
					"maxclass" : "newobj",
					"text" : "jit.gl.handle snazz @depth_enable 1 @smooth_shading 1 @visible 0",
					"numinlets" : 1,
					"id" : "obj-7",
					"fontname" : "Arial",
					"patching_rect" : [ 165.0, 319.0, 377.0, 20.0 ],
					"numoutlets" : 2,
					"outlettype" : [ "", "" ],
					"fontsize" : 12.0
				}

			}
, 			{
				"box" : 				{
					"maxclass" : "newobj",
					"text" : "jit.window snazz @depthbuffer 1",
					"numinlets" : 1,
					"id" : "obj-3",
					"fontname" : "Arial",
					"patching_rect" : [ 165.0, 374.0, 183.0, 20.0 ],
					"numoutlets" : 2,
					"outlettype" : [ "bang", "" ],
					"fontsize" : 12.0
				}

			}
, 			{
				"box" : 				{
					"maxclass" : "jit.fpsgui",
					"numinlets" : 1,
					"id" : "obj-52",
					"fontname" : "Arial",
					"patching_rect" : [ 66.0, 242.0, 80.0, 35.0 ],
					"numoutlets" : 2,
					"outlettype" : [ "", "" ],
					"fontsize" : 11.595187
				}

			}
, 			{
				"box" : 				{
					"maxclass" : "number",
					"triscale" : 0.9,
					"numinlets" : 1,
					"id" : "obj-120",
					"fontname" : "Arial",
					"patching_rect" : [ 66.0, 154.0, 50.0, 20.0 ],
					"numoutlets" : 2,
					"outlettype" : [ "int", "bang" ],
					"fontsize" : 11.595187
				}

			}
, 			{
				"box" : 				{
					"maxclass" : "toggle",
					"numinlets" : 1,
					"id" : "obj-123",
					"patching_rect" : [ 22.0, 154.0, 20.0, 20.0 ],
					"numoutlets" : 1,
					"outlettype" : [ "int" ]
				}

			}
, 			{
				"box" : 				{
					"maxclass" : "newobj",
					"text" : "qmetro 20",
					"numinlets" : 2,
					"id" : "obj-124",
					"fontname" : "Arial",
					"patching_rect" : [ 22.0, 180.0, 63.0, 20.0 ],
					"numoutlets" : 1,
					"outlettype" : [ "bang" ],
					"fontsize" : 11.595187
				}

			}
, 			{
				"box" : 				{
					"maxclass" : "newobj",
					"text" : "t b erase b",
					"numinlets" : 1,
					"id" : "obj-125",
					"fontname" : "Arial",
					"patching_rect" : [ 22.0, 206.0, 63.0, 20.0 ],
					"numoutlets" : 3,
					"outlettype" : [ "bang", "erase", "bang" ],
					"fontsize" : 11.595187
				}

			}
, 			{
				"box" : 				{
					"maxclass" : "newobj",
					"text" : "jit.gl.render snazz",
					"numinlets" : 1,
					"id" : "obj-127",
					"fontname" : "Arial",
					"patching_rect" : [ 22.0, 286.0, 101.0, 20.0 ],
					"numoutlets" : 2,
					"outlettype" : [ "bang", "" ],
					"fontsize" : 11.595187
				}

			}
, 			{
				"box" : 				{
					"maxclass" : "newobj",
					"text" : "jit.gl.sketch snazz @depth_enable 1 @smooth_shading 1 @lighting_enable 1",
					"numinlets" : 1,
					"id" : "obj-1",
					"fontname" : "Arial",
					"patching_rect" : [ 165.0, 286.0, 423.0, 20.0 ],
					"numoutlets" : 2,
					"outlettype" : [ "", "" ],
					"fontsize" : 12.0
				}

			}
 ],
		"lines" : [ 			{
				"patchline" : 				{
					"source" : [ "obj-167", 0 ],
					"destination" : [ "obj-92", 1 ],
					"hidden" : 0,
					"midpoints" : [  ]
				}

			}
, 			{
				"patchline" : 				{
					"source" : [ "obj-154", 0 ],
					"destination" : [ "obj-102", 0 ],
					"hidden" : 0,
					"midpoints" : [  ]
				}

			}
, 			{
				"patchline" : 				{
					"source" : [ "obj-114", 0 ],
					"destination" : [ "obj-154", 0 ],
					"hidden" : 0,
					"midpoints" : [  ]
				}

			}
, 			{
				"patchline" : 				{
					"source" : [ "obj-2", 0 ],
					"destination" : [ "obj-63", 0 ],
					"hidden" : 0,
					"midpoints" : [  ]
				}

			}
, 			{
				"patchline" : 				{
					"source" : [ "obj-2", 0 ],
					"destination" : [ "obj-62", 0 ],
					"hidden" : 0,
					"midpoints" : [  ]
				}

			}
, 			{
				"patchline" : 				{
					"source" : [ "obj-2", 0 ],
					"destination" : [ "obj-34", 0 ],
					"hidden" : 0,
					"midpoints" : [  ]
				}

			}
, 			{
				"patchline" : 				{
					"source" : [ "obj-113", 0 ],
					"destination" : [ "obj-66", 0 ],
					"hidden" : 0,
					"midpoints" : [  ]
				}

			}
, 			{
				"patchline" : 				{
					"source" : [ "obj-2", 0 ],
					"destination" : [ "obj-113", 0 ],
					"hidden" : 0,
					"midpoints" : [  ]
				}

			}
, 			{
				"patchline" : 				{
					"source" : [ "obj-100", 1 ],
					"destination" : [ "obj-10", 0 ],
					"hidden" : 0,
					"midpoints" : [  ]
				}

			}
, 			{
				"patchline" : 				{
					"source" : [ "obj-100", 0 ],
					"destination" : [ "obj-22", 0 ],
					"hidden" : 0,
					"midpoints" : [  ]
				}

			}
, 			{
				"patchline" : 				{
					"source" : [ "obj-20", 0 ],
					"destination" : [ "obj-99", 0 ],
					"hidden" : 0,
					"midpoints" : [  ]
				}

			}
, 			{
				"patchline" : 				{
					"source" : [ "obj-20", 0 ],
					"destination" : [ "obj-18", 0 ],
					"hidden" : 0,
					"midpoints" : [  ]
				}

			}
, 			{
				"patchline" : 				{
					"source" : [ "obj-26", 0 ],
					"destination" : [ "obj-20", 1 ],
					"hidden" : 0,
					"midpoints" : [  ]
				}

			}
, 			{
				"patchline" : 				{
					"source" : [ "obj-22", 0 ],
					"destination" : [ "obj-20", 0 ],
					"hidden" : 0,
					"midpoints" : [  ]
				}

			}
, 			{
				"patchline" : 				{
					"source" : [ "obj-20", 0 ],
					"destination" : [ "obj-8", 1 ],
					"hidden" : 0,
					"midpoints" : [  ]
				}

			}
, 			{
				"patchline" : 				{
					"source" : [ "obj-102", 0 ],
					"destination" : [ "obj-92", 0 ],
					"hidden" : 0,
					"midpoints" : [  ]
				}

			}
, 			{
				"patchline" : 				{
					"source" : [ "obj-92", 0 ],
					"destination" : [ "obj-100", 0 ],
					"hidden" : 0,
					"midpoints" : [  ]
				}

			}
, 			{
				"patchline" : 				{
					"source" : [ "obj-7", 0 ],
					"destination" : [ "obj-1", 0 ],
					"hidden" : 0,
					"midpoints" : [  ]
				}

			}
, 			{
				"patchline" : 				{
					"source" : [ "obj-87", 0 ],
					"destination" : [ "obj-1", 0 ],
					"hidden" : 0,
					"midpoints" : [  ]
				}

			}
, 			{
				"patchline" : 				{
					"source" : [ "obj-70", 0 ],
					"destination" : [ "obj-87", 0 ],
					"hidden" : 0,
					"midpoints" : [  ]
				}

			}
, 			{
				"patchline" : 				{
					"source" : [ "obj-81", 0 ],
					"destination" : [ "obj-70", 2 ],
					"hidden" : 0,
					"midpoints" : [  ]
				}

			}
, 			{
				"patchline" : 				{
					"source" : [ "obj-84", 0 ],
					"destination" : [ "obj-70", 1 ],
					"hidden" : 0,
					"midpoints" : [  ]
				}

			}
, 			{
				"patchline" : 				{
					"source" : [ "obj-86", 0 ],
					"destination" : [ "obj-70", 0 ],
					"hidden" : 0,
					"midpoints" : [  ]
				}

			}
, 			{
				"patchline" : 				{
					"source" : [ "obj-67", 0 ],
					"destination" : [ "obj-79", 0 ],
					"hidden" : 0,
					"midpoints" : [  ]
				}

			}
, 			{
				"patchline" : 				{
					"source" : [ "obj-68", 0 ],
					"destination" : [ "obj-83", 0 ],
					"hidden" : 0,
					"midpoints" : [  ]
				}

			}
, 			{
				"patchline" : 				{
					"source" : [ "obj-69", 0 ],
					"destination" : [ "obj-85", 0 ],
					"hidden" : 0,
					"midpoints" : [  ]
				}

			}
, 			{
				"patchline" : 				{
					"source" : [ "obj-79", 0 ],
					"destination" : [ "obj-81", 0 ],
					"hidden" : 0,
					"midpoints" : [  ]
				}

			}
, 			{
				"patchline" : 				{
					"source" : [ "obj-83", 0 ],
					"destination" : [ "obj-84", 0 ],
					"hidden" : 0,
					"midpoints" : [  ]
				}

			}
, 			{
				"patchline" : 				{
					"source" : [ "obj-85", 0 ],
					"destination" : [ "obj-86", 0 ],
					"hidden" : 0,
					"midpoints" : [  ]
				}

			}
, 			{
				"patchline" : 				{
					"source" : [ "obj-14", 0 ],
					"destination" : [ "obj-127", 0 ],
					"hidden" : 0,
					"midpoints" : [  ]
				}

			}
, 			{
				"patchline" : 				{
					"source" : [ "obj-46", 0 ],
					"destination" : [ "obj-14", 0 ],
					"hidden" : 0,
					"midpoints" : [  ]
				}

			}
, 			{
				"patchline" : 				{
					"source" : [ "obj-62", 0 ],
					"destination" : [ "obj-46", 1 ],
					"hidden" : 0,
					"midpoints" : [  ]
				}

			}
, 			{
				"patchline" : 				{
					"source" : [ "obj-63", 0 ],
					"destination" : [ "obj-46", 2 ],
					"hidden" : 0,
					"midpoints" : [  ]
				}

			}
, 			{
				"patchline" : 				{
					"source" : [ "obj-66", 0 ],
					"destination" : [ "obj-46", 3 ],
					"hidden" : 0,
					"midpoints" : [  ]
				}

			}
, 			{
				"patchline" : 				{
					"source" : [ "obj-34", 0 ],
					"destination" : [ "obj-46", 0 ],
					"hidden" : 0,
					"midpoints" : [  ]
				}

			}
, 			{
				"patchline" : 				{
					"source" : [ "obj-130", 0 ],
					"destination" : [ "obj-155", 1 ],
					"hidden" : 0,
					"midpoints" : [  ]
				}

			}
, 			{
				"patchline" : 				{
					"source" : [ "obj-129", 0 ],
					"destination" : [ "obj-130", 0 ],
					"hidden" : 0,
					"midpoints" : [  ]
				}

			}
, 			{
				"patchline" : 				{
					"source" : [ "obj-64", 0 ],
					"destination" : [ "obj-27", 1 ],
					"hidden" : 0,
					"midpoints" : [  ]
				}

			}
, 			{
				"patchline" : 				{
					"source" : [ "obj-64", 0 ],
					"destination" : [ "obj-56", 1 ],
					"hidden" : 0,
					"midpoints" : [  ]
				}

			}
, 			{
				"patchline" : 				{
					"source" : [ "obj-64", 0 ],
					"destination" : [ "obj-51", 1 ],
					"hidden" : 0,
					"midpoints" : [  ]
				}

			}
, 			{
				"patchline" : 				{
					"source" : [ "obj-27", 0 ],
					"destination" : [ "obj-28", 0 ],
					"hidden" : 0,
					"midpoints" : [  ]
				}

			}
, 			{
				"patchline" : 				{
					"source" : [ "obj-18", 0 ],
					"destination" : [ "obj-27", 0 ],
					"hidden" : 0,
					"midpoints" : [  ]
				}

			}
, 			{
				"patchline" : 				{
					"source" : [ "obj-37", 0 ],
					"destination" : [ "obj-27", 0 ],
					"hidden" : 0,
					"midpoints" : [  ]
				}

			}
, 			{
				"patchline" : 				{
					"source" : [ "obj-51", 0 ],
					"destination" : [ "obj-50", 0 ],
					"hidden" : 0,
					"midpoints" : [  ]
				}

			}
, 			{
				"patchline" : 				{
					"source" : [ "obj-18", 0 ],
					"destination" : [ "obj-51", 0 ],
					"hidden" : 0,
					"midpoints" : [  ]
				}

			}
, 			{
				"patchline" : 				{
					"source" : [ "obj-37", 0 ],
					"destination" : [ "obj-51", 0 ],
					"hidden" : 0,
					"midpoints" : [  ]
				}

			}
, 			{
				"patchline" : 				{
					"source" : [ "obj-56", 0 ],
					"destination" : [ "obj-55", 0 ],
					"hidden" : 0,
					"midpoints" : [  ]
				}

			}
, 			{
				"patchline" : 				{
					"source" : [ "obj-18", 0 ],
					"destination" : [ "obj-56", 0 ],
					"hidden" : 0,
					"midpoints" : [  ]
				}

			}
, 			{
				"patchline" : 				{
					"source" : [ "obj-37", 0 ],
					"destination" : [ "obj-56", 0 ],
					"hidden" : 0,
					"midpoints" : [  ]
				}

			}
, 			{
				"patchline" : 				{
					"source" : [ "obj-43", 0 ],
					"destination" : [ "obj-16", 0 ],
					"hidden" : 0,
					"midpoints" : [  ]
				}

			}
, 			{
				"patchline" : 				{
					"source" : [ "obj-61", 0 ],
					"destination" : [ "obj-16", 0 ],
					"hidden" : 0,
					"midpoints" : [  ]
				}

			}
, 			{
				"patchline" : 				{
					"source" : [ "obj-21", 0 ],
					"destination" : [ "obj-16", 0 ],
					"hidden" : 0,
					"midpoints" : [  ]
				}

			}
, 			{
				"patchline" : 				{
					"source" : [ "obj-13", 0 ],
					"destination" : [ "obj-16", 0 ],
					"hidden" : 0,
					"midpoints" : [  ]
				}

			}
, 			{
				"patchline" : 				{
					"source" : [ "obj-30", 0 ],
					"destination" : [ "obj-16", 0 ],
					"hidden" : 0,
					"midpoints" : [  ]
				}

			}
, 			{
				"patchline" : 				{
					"source" : [ "obj-30", 0 ],
					"destination" : [ "obj-23", 0 ],
					"hidden" : 0,
					"midpoints" : [  ]
				}

			}
, 			{
				"patchline" : 				{
					"source" : [ "obj-25", 0 ],
					"destination" : [ "obj-3", 0 ],
					"hidden" : 0,
					"midpoints" : [  ]
				}

			}
, 			{
				"patchline" : 				{
					"source" : [ "obj-202", 0 ],
					"destination" : [ "obj-157", 0 ],
					"hidden" : 0,
					"midpoints" : [  ]
				}

			}
, 			{
				"patchline" : 				{
					"source" : [ "obj-203", 0 ],
					"destination" : [ "obj-157", 0 ],
					"hidden" : 0,
					"midpoints" : [  ]
				}

			}
, 			{
				"patchline" : 				{
					"source" : [ "obj-200", 1 ],
					"destination" : [ "obj-202", 0 ],
					"hidden" : 0,
					"midpoints" : [  ]
				}

			}
, 			{
				"patchline" : 				{
					"source" : [ "obj-200", 0 ],
					"destination" : [ "obj-203", 0 ],
					"hidden" : 0,
					"midpoints" : [  ]
				}

			}
, 			{
				"patchline" : 				{
					"source" : [ "obj-19", 0 ],
					"destination" : [ "obj-200", 0 ],
					"hidden" : 0,
					"midpoints" : [  ]
				}

			}
, 			{
				"patchline" : 				{
					"source" : [ "obj-19", 0 ],
					"destination" : [ "obj-157", 0 ],
					"hidden" : 0,
					"midpoints" : [  ]
				}

			}
, 			{
				"patchline" : 				{
					"source" : [ "obj-4", 0 ],
					"destination" : [ "obj-19", 0 ],
					"hidden" : 0,
					"midpoints" : [  ]
				}

			}
, 			{
				"patchline" : 				{
					"source" : [ "obj-2", 0 ],
					"destination" : [ "obj-123", 0 ],
					"hidden" : 0,
					"midpoints" : [  ]
				}

			}
, 			{
				"patchline" : 				{
					"source" : [ "obj-2", 0 ],
					"destination" : [ "obj-157", 0 ],
					"hidden" : 0,
					"midpoints" : [  ]
				}

			}
, 			{
				"patchline" : 				{
					"source" : [ "obj-2", 0 ],
					"destination" : [ "obj-121", 0 ],
					"hidden" : 0,
					"midpoints" : [  ]
				}

			}
, 			{
				"patchline" : 				{
					"source" : [ "obj-2", 0 ],
					"destination" : [ "obj-11", 0 ],
					"hidden" : 0,
					"midpoints" : [  ]
				}

			}
, 			{
				"patchline" : 				{
					"source" : [ "obj-122", 0 ],
					"destination" : [ "obj-141", 0 ],
					"hidden" : 0,
					"midpoints" : [  ]
				}

			}
, 			{
				"patchline" : 				{
					"source" : [ "obj-131", 0 ],
					"destination" : [ "obj-142", 0 ],
					"hidden" : 0,
					"midpoints" : [  ]
				}

			}
, 			{
				"patchline" : 				{
					"source" : [ "obj-134", 0 ],
					"destination" : [ "obj-143", 0 ],
					"hidden" : 0,
					"midpoints" : [  ]
				}

			}
, 			{
				"patchline" : 				{
					"source" : [ "obj-172", 0 ],
					"destination" : [ "obj-98", 0 ],
					"hidden" : 0,
					"midpoints" : [  ]
				}

			}
, 			{
				"patchline" : 				{
					"source" : [ "obj-170", 0 ],
					"destination" : [ "obj-95", 0 ],
					"hidden" : 0,
					"midpoints" : [  ]
				}

			}
, 			{
				"patchline" : 				{
					"source" : [ "obj-160", 0 ],
					"destination" : [ "obj-172", 0 ],
					"hidden" : 0,
					"midpoints" : [  ]
				}

			}
, 			{
				"patchline" : 				{
					"source" : [ "obj-160", 0 ],
					"destination" : [ "obj-170", 0 ],
					"hidden" : 0,
					"midpoints" : [  ]
				}

			}
, 			{
				"patchline" : 				{
					"source" : [ "obj-160", 0 ],
					"destination" : [ "obj-169", 0 ],
					"hidden" : 0,
					"midpoints" : [  ]
				}

			}
, 			{
				"patchline" : 				{
					"source" : [ "obj-169", 0 ],
					"destination" : [ "obj-82", 0 ],
					"hidden" : 0,
					"midpoints" : [  ]
				}

			}
, 			{
				"patchline" : 				{
					"source" : [ "obj-157", 0 ],
					"destination" : [ "obj-155", 0 ],
					"hidden" : 0,
					"midpoints" : [  ]
				}

			}
, 			{
				"patchline" : 				{
					"source" : [ "obj-143", 0 ],
					"destination" : [ "obj-135", 0 ],
					"hidden" : 0,
					"midpoints" : [  ]
				}

			}
, 			{
				"patchline" : 				{
					"source" : [ "obj-142", 0 ],
					"destination" : [ "obj-132", 0 ],
					"hidden" : 0,
					"midpoints" : [  ]
				}

			}
, 			{
				"patchline" : 				{
					"source" : [ "obj-141", 0 ],
					"destination" : [ "obj-117", 0 ],
					"hidden" : 0,
					"midpoints" : [  ]
				}

			}
, 			{
				"patchline" : 				{
					"source" : [ "obj-115", 0 ],
					"destination" : [ "obj-129", 0 ],
					"hidden" : 0,
					"midpoints" : [  ]
				}

			}
, 			{
				"patchline" : 				{
					"source" : [ "obj-133", 0 ],
					"destination" : [ "obj-129", 1 ],
					"hidden" : 0,
					"midpoints" : [  ]
				}

			}
, 			{
				"patchline" : 				{
					"source" : [ "obj-136", 0 ],
					"destination" : [ "obj-129", 2 ],
					"hidden" : 0,
					"midpoints" : [  ]
				}

			}
, 			{
				"patchline" : 				{
					"source" : [ "obj-135", 0 ],
					"destination" : [ "obj-136", 0 ],
					"hidden" : 0,
					"midpoints" : [  ]
				}

			}
, 			{
				"patchline" : 				{
					"source" : [ "obj-132", 0 ],
					"destination" : [ "obj-133", 0 ],
					"hidden" : 0,
					"midpoints" : [  ]
				}

			}
, 			{
				"patchline" : 				{
					"source" : [ "obj-117", 0 ],
					"destination" : [ "obj-115", 0 ],
					"hidden" : 0,
					"midpoints" : [  ]
				}

			}
, 			{
				"patchline" : 				{
					"source" : [ "obj-110", 2 ],
					"destination" : [ "obj-107", 0 ],
					"hidden" : 0,
					"midpoints" : [  ]
				}

			}
, 			{
				"patchline" : 				{
					"source" : [ "obj-110", 1 ],
					"destination" : [ "obj-108", 0 ],
					"hidden" : 0,
					"midpoints" : [  ]
				}

			}
, 			{
				"patchline" : 				{
					"source" : [ "obj-110", 0 ],
					"destination" : [ "obj-109", 0 ],
					"hidden" : 0,
					"midpoints" : [  ]
				}

			}
, 			{
				"patchline" : 				{
					"source" : [ "obj-99", 0 ],
					"destination" : [ "obj-110", 0 ],
					"hidden" : 0,
					"midpoints" : [  ]
				}

			}
, 			{
				"patchline" : 				{
					"source" : [ "obj-104", 0 ],
					"destination" : [ "obj-108", 1 ],
					"hidden" : 0,
					"midpoints" : [  ]
				}

			}
, 			{
				"patchline" : 				{
					"source" : [ "obj-103", 0 ],
					"destination" : [ "obj-109", 1 ],
					"hidden" : 0,
					"midpoints" : [  ]
				}

			}
, 			{
				"patchline" : 				{
					"source" : [ "obj-105", 0 ],
					"destination" : [ "obj-107", 1 ],
					"hidden" : 0,
					"midpoints" : [  ]
				}

			}
, 			{
				"patchline" : 				{
					"source" : [ "obj-98", 0 ],
					"destination" : [ "obj-105", 0 ],
					"hidden" : 0,
					"midpoints" : [  ]
				}

			}
, 			{
				"patchline" : 				{
					"source" : [ "obj-95", 0 ],
					"destination" : [ "obj-104", 0 ],
					"hidden" : 0,
					"midpoints" : [  ]
				}

			}
, 			{
				"patchline" : 				{
					"source" : [ "obj-82", 0 ],
					"destination" : [ "obj-103", 0 ],
					"hidden" : 0,
					"midpoints" : [  ]
				}

			}
, 			{
				"patchline" : 				{
					"source" : [ "obj-42", 0 ],
					"destination" : [ "obj-80", 0 ],
					"hidden" : 0,
					"midpoints" : [  ]
				}

			}
, 			{
				"patchline" : 				{
					"source" : [ "obj-71", 0 ],
					"destination" : [ "obj-80", 1 ],
					"hidden" : 0,
					"midpoints" : [  ]
				}

			}
, 			{
				"patchline" : 				{
					"source" : [ "obj-75", 0 ],
					"destination" : [ "obj-80", 2 ],
					"hidden" : 0,
					"midpoints" : [  ]
				}

			}
, 			{
				"patchline" : 				{
					"source" : [ "obj-76", 0 ],
					"destination" : [ "obj-75", 0 ],
					"hidden" : 0,
					"midpoints" : [  ]
				}

			}
, 			{
				"patchline" : 				{
					"source" : [ "obj-72", 0 ],
					"destination" : [ "obj-71", 0 ],
					"hidden" : 0,
					"midpoints" : [  ]
				}

			}
, 			{
				"patchline" : 				{
					"source" : [ "obj-31", 0 ],
					"destination" : [ "obj-47", 0 ],
					"hidden" : 0,
					"midpoints" : [  ]
				}

			}
, 			{
				"patchline" : 				{
					"source" : [ "obj-48", 0 ],
					"destination" : [ "obj-47", 1 ],
					"hidden" : 0,
					"midpoints" : [  ]
				}

			}
, 			{
				"patchline" : 				{
					"source" : [ "obj-53", 0 ],
					"destination" : [ "obj-47", 2 ],
					"hidden" : 0,
					"midpoints" : [  ]
				}

			}
, 			{
				"patchline" : 				{
					"source" : [ "obj-54", 0 ],
					"destination" : [ "obj-53", 0 ],
					"hidden" : 0,
					"midpoints" : [  ]
				}

			}
, 			{
				"patchline" : 				{
					"source" : [ "obj-55", 0 ],
					"destination" : [ "obj-54", 0 ],
					"hidden" : 0,
					"midpoints" : [  ]
				}

			}
, 			{
				"patchline" : 				{
					"source" : [ "obj-50", 0 ],
					"destination" : [ "obj-49", 0 ],
					"hidden" : 0,
					"midpoints" : [  ]
				}

			}
, 			{
				"patchline" : 				{
					"source" : [ "obj-49", 0 ],
					"destination" : [ "obj-48", 0 ],
					"hidden" : 0,
					"midpoints" : [  ]
				}

			}
, 			{
				"patchline" : 				{
					"source" : [ "obj-41", 0 ],
					"destination" : [ "obj-42", 0 ],
					"hidden" : 0,
					"midpoints" : [  ]
				}

			}
, 			{
				"patchline" : 				{
					"source" : [ "obj-29", 0 ],
					"destination" : [ "obj-31", 0 ],
					"hidden" : 0,
					"midpoints" : [  ]
				}

			}
, 			{
				"patchline" : 				{
					"source" : [ "obj-28", 0 ],
					"destination" : [ "obj-29", 0 ],
					"hidden" : 0,
					"midpoints" : [  ]
				}

			}
, 			{
				"patchline" : 				{
					"source" : [ "obj-36", 0 ],
					"destination" : [ "obj-18", 0 ],
					"hidden" : 0,
					"midpoints" : [  ]
				}

			}
, 			{
				"patchline" : 				{
					"source" : [ "obj-15", 0 ],
					"destination" : [ "obj-3", 0 ],
					"hidden" : 0,
					"midpoints" : [  ]
				}

			}
, 			{
				"patchline" : 				{
					"source" : [ "obj-125", 0 ],
					"destination" : [ "obj-127", 0 ],
					"hidden" : 0,
					"midpoints" : [  ]
				}

			}
, 			{
				"patchline" : 				{
					"source" : [ "obj-125", 1 ],
					"destination" : [ "obj-127", 0 ],
					"hidden" : 0,
					"midpoints" : [ 53.5, 236.0, 31.5, 236.0 ]
				}

			}
, 			{
				"patchline" : 				{
					"source" : [ "obj-124", 0 ],
					"destination" : [ "obj-125", 0 ],
					"hidden" : 0,
					"midpoints" : [  ]
				}

			}
, 			{
				"patchline" : 				{
					"source" : [ "obj-120", 0 ],
					"destination" : [ "obj-124", 1 ],
					"hidden" : 0,
					"midpoints" : [  ]
				}

			}
, 			{
				"patchline" : 				{
					"source" : [ "obj-123", 0 ],
					"destination" : [ "obj-124", 0 ],
					"hidden" : 0,
					"midpoints" : [  ]
				}

			}
, 			{
				"patchline" : 				{
					"source" : [ "obj-125", 2 ],
					"destination" : [ "obj-52", 0 ],
					"hidden" : 0,
					"midpoints" : [  ]
				}

			}
, 			{
				"patchline" : 				{
					"source" : [ "obj-11", 0 ],
					"destination" : [ "obj-8", 0 ],
					"hidden" : 0,
					"midpoints" : [  ]
				}

			}
, 			{
				"patchline" : 				{
					"source" : [ "obj-8", 0 ],
					"destination" : [ "obj-160", 0 ],
					"hidden" : 0,
					"midpoints" : [  ]
				}

			}
, 			{
				"patchline" : 				{
					"source" : [ "obj-47", 0 ],
					"destination" : [ "obj-65", 0 ],
					"hidden" : 0,
					"midpoints" : [  ]
				}

			}
, 			{
				"patchline" : 				{
					"source" : [ "obj-2", 0 ],
					"destination" : [ "obj-25", 0 ],
					"hidden" : 0,
					"midpoints" : [  ]
				}

			}
, 			{
				"patchline" : 				{
					"source" : [ "obj-60", 0 ],
					"destination" : [ "obj-61", 0 ],
					"hidden" : 0,
					"midpoints" : [  ]
				}

			}
, 			{
				"patchline" : 				{
					"source" : [ "obj-144", 0 ],
					"destination" : [ "obj-145", 0 ],
					"hidden" : 0,
					"midpoints" : [  ]
				}

			}
, 			{
				"patchline" : 				{
					"source" : [ "obj-138", 0 ],
					"destination" : [ "obj-140", 0 ],
					"hidden" : 0,
					"midpoints" : [  ]
				}

			}
, 			{
				"patchline" : 				{
					"source" : [ "obj-126", 0 ],
					"destination" : [ "obj-128", 0 ],
					"hidden" : 0,
					"midpoints" : [  ]
				}

			}
, 			{
				"patchline" : 				{
					"source" : [ "obj-148", 0 ],
					"destination" : [ "obj-144", 0 ],
					"hidden" : 0,
					"midpoints" : [  ]
				}

			}
, 			{
				"patchline" : 				{
					"source" : [ "obj-150", 0 ],
					"destination" : [ "obj-138", 0 ],
					"hidden" : 0,
					"midpoints" : [  ]
				}

			}
, 			{
				"patchline" : 				{
					"source" : [ "obj-152", 0 ],
					"destination" : [ "obj-126", 0 ],
					"hidden" : 0,
					"midpoints" : [  ]
				}

			}
, 			{
				"patchline" : 				{
					"source" : [ "obj-145", 0 ],
					"destination" : [ "obj-119", 0 ],
					"hidden" : 0,
					"midpoints" : [  ]
				}

			}
, 			{
				"patchline" : 				{
					"source" : [ "obj-140", 0 ],
					"destination" : [ "obj-119", 1 ],
					"hidden" : 0,
					"midpoints" : [  ]
				}

			}
, 			{
				"patchline" : 				{
					"source" : [ "obj-128", 0 ],
					"destination" : [ "obj-119", 2 ],
					"hidden" : 0,
					"midpoints" : [  ]
				}

			}
, 			{
				"patchline" : 				{
					"source" : [ "obj-119", 0 ],
					"destination" : [ "obj-146", 0 ],
					"hidden" : 0,
					"midpoints" : [  ]
				}

			}
, 			{
				"patchline" : 				{
					"source" : [ "obj-121", 0 ],
					"destination" : [ "obj-118", 0 ],
					"hidden" : 0,
					"midpoints" : [  ]
				}

			}
, 			{
				"patchline" : 				{
					"source" : [ "obj-118", 0 ],
					"destination" : [ "obj-122", 0 ],
					"hidden" : 0,
					"midpoints" : [  ]
				}

			}
, 			{
				"patchline" : 				{
					"source" : [ "obj-5", 0 ],
					"destination" : [ "obj-131", 0 ],
					"hidden" : 0,
					"midpoints" : [  ]
				}

			}
, 			{
				"patchline" : 				{
					"source" : [ "obj-118", 0 ],
					"destination" : [ "obj-5", 0 ],
					"hidden" : 0,
					"midpoints" : [  ]
				}

			}
, 			{
				"patchline" : 				{
					"source" : [ "obj-6", 0 ],
					"destination" : [ "obj-134", 0 ],
					"hidden" : 0,
					"midpoints" : [  ]
				}

			}
, 			{
				"patchline" : 				{
					"source" : [ "obj-118", 0 ],
					"destination" : [ "obj-6", 0 ],
					"hidden" : 0,
					"midpoints" : [  ]
				}

			}
, 			{
				"patchline" : 				{
					"source" : [ "obj-80", 0 ],
					"destination" : [ "obj-159", 0 ],
					"hidden" : 0,
					"midpoints" : [  ]
				}

			}
, 			{
				"patchline" : 				{
					"source" : [ "obj-45", 0 ],
					"destination" : [ "obj-39", 0 ],
					"hidden" : 0,
					"midpoints" : [  ]
				}

			}
, 			{
				"patchline" : 				{
					"source" : [ "obj-18", 1 ],
					"destination" : [ "obj-39", 0 ],
					"hidden" : 0,
					"midpoints" : [  ]
				}

			}
, 			{
				"patchline" : 				{
					"source" : [ "obj-39", 0 ],
					"destination" : [ "obj-40", 0 ],
					"hidden" : 0,
					"midpoints" : [  ]
				}

			}
, 			{
				"patchline" : 				{
					"source" : [ "obj-40", 0 ],
					"destination" : [ "obj-41", 0 ],
					"hidden" : 0,
					"midpoints" : [  ]
				}

			}
, 			{
				"patchline" : 				{
					"source" : [ "obj-73", 0 ],
					"destination" : [ "obj-72", 0 ],
					"hidden" : 0,
					"midpoints" : [  ]
				}

			}
, 			{
				"patchline" : 				{
					"source" : [ "obj-77", 0 ],
					"destination" : [ "obj-76", 0 ],
					"hidden" : 0,
					"midpoints" : [  ]
				}

			}
, 			{
				"patchline" : 				{
					"source" : [ "obj-78", 0 ],
					"destination" : [ "obj-77", 0 ],
					"hidden" : 0,
					"midpoints" : [  ]
				}

			}
, 			{
				"patchline" : 				{
					"source" : [ "obj-18", 1 ],
					"destination" : [ "obj-78", 0 ],
					"hidden" : 0,
					"midpoints" : [  ]
				}

			}
, 			{
				"patchline" : 				{
					"source" : [ "obj-45", 0 ],
					"destination" : [ "obj-78", 0 ],
					"hidden" : 0,
					"midpoints" : [  ]
				}

			}
, 			{
				"patchline" : 				{
					"source" : [ "obj-74", 0 ],
					"destination" : [ "obj-73", 0 ],
					"hidden" : 0,
					"midpoints" : [  ]
				}

			}
, 			{
				"patchline" : 				{
					"source" : [ "obj-18", 1 ],
					"destination" : [ "obj-74", 0 ],
					"hidden" : 0,
					"midpoints" : [  ]
				}

			}
, 			{
				"patchline" : 				{
					"source" : [ "obj-45", 0 ],
					"destination" : [ "obj-74", 0 ],
					"hidden" : 0,
					"midpoints" : [  ]
				}

			}
, 			{
				"patchline" : 				{
					"source" : [ "obj-22", 0 ],
					"destination" : [ "obj-175", 0 ],
					"hidden" : 0,
					"midpoints" : [  ]
				}

			}
, 			{
				"patchline" : 				{
					"source" : [ "obj-175", 0 ],
					"destination" : [ "obj-1", 0 ],
					"hidden" : 0,
					"midpoints" : [  ]
				}

			}
, 			{
				"patchline" : 				{
					"source" : [ "obj-146", 0 ],
					"destination" : [ "obj-1", 0 ],
					"hidden" : 0,
					"midpoints" : [  ]
				}

			}
, 			{
				"patchline" : 				{
					"source" : [ "obj-65", 0 ],
					"destination" : [ "obj-1", 0 ],
					"hidden" : 0,
					"midpoints" : [  ]
				}

			}
, 			{
				"patchline" : 				{
					"source" : [ "obj-10", 0 ],
					"destination" : [ "obj-1", 0 ],
					"hidden" : 0,
					"midpoints" : [  ]
				}

			}
, 			{
				"patchline" : 				{
					"source" : [ "obj-107", 0 ],
					"destination" : [ "obj-1", 0 ],
					"hidden" : 0,
					"midpoints" : [  ]
				}

			}
, 			{
				"patchline" : 				{
					"source" : [ "obj-108", 0 ],
					"destination" : [ "obj-1", 0 ],
					"hidden" : 0,
					"midpoints" : [  ]
				}

			}
, 			{
				"patchline" : 				{
					"source" : [ "obj-109", 0 ],
					"destination" : [ "obj-1", 0 ],
					"hidden" : 0,
					"midpoints" : [  ]
				}

			}
, 			{
				"patchline" : 				{
					"source" : [ "obj-151", 0 ],
					"destination" : [ "obj-1", 0 ],
					"hidden" : 0,
					"midpoints" : [  ]
				}

			}
, 			{
				"patchline" : 				{
					"source" : [ "obj-155", 0 ],
					"destination" : [ "obj-1", 0 ],
					"hidden" : 0,
					"midpoints" : [  ]
				}

			}
, 			{
				"patchline" : 				{
					"source" : [ "obj-159", 0 ],
					"destination" : [ "obj-1", 0 ],
					"hidden" : 0,
					"midpoints" : [  ]
				}

			}
 ]
	}

}
